<svg width="45" height="100" viewBox="0 0 45 100" fill="none" xmlns="http://www.w3.org/2000/svg">
<path fill-rule="evenodd" clip-rule="evenodd" d="M40.6077 21.724C41.7728 20.503 42.686 19.0644 43.2952 17.4904C43.9043 15.9164 44.1975 14.2379 44.1579 12.5506C44.1183 10.8633 43.7468 9.20037 43.0645 7.65667C42.3823 6.11297 41.4026 4.71877 40.1816 3.55367C38.9605 2.38857 37.5219 1.47535 35.9479 0.866215C34.3739 0.257083 32.6954 -0.0360398 31.0081 0.00353393C29.3208 0.0431076 27.6579 0.414611 26.1142 1.09687C24.5705 1.77912 23.1763 2.75876 22.0112 3.97983L3.55405 23.2738C1.81681 25.092 0.652132 27.3806 0.204723 29.8552C-0.242687 32.3298 0.0469099 34.8814 1.03751 37.1928C2.02812 39.5042 3.67609 41.4736 5.77661 42.8562C7.87714 44.2389 10.3376 44.9738 12.8523 44.9698C14.591 44.9789 16.3132 44.6316 17.9124 43.9493C19.5117 43.2669 20.9541 42.264 22.1506 41.0025L40.6077 21.724ZM12.8679 42.7692C10.7803 42.7817 8.73521 42.1793 6.98775 41.0371C5.24029 39.8949 3.86778 38.2635 3.04144 36.3464C2.21509 34.4293 1.97146 32.3113 2.34097 30.2566C2.71048 28.202 3.67677 26.3016 5.11928 24.7925L23.5919 5.49852C25.5421 3.46197 28.2215 2.28358 31.0406 2.22255C33.8597 2.16152 36.5876 3.22285 38.6241 5.1731C40.6607 7.12334 41.8391 9.80274 41.9001 12.6218C41.9611 15.4409 40.8998 18.1688 38.9495 20.2053L20.477 39.4993C19.4958 40.5307 18.3155 41.3523 17.0076 41.9143C15.6998 42.4764 14.2914 42.7672 12.8679 42.7692ZM28.5903 6.44066C29.4541 6.07007 30.385 5.88119 31.3249 5.88586V5.93239C32.6906 5.93311 34.026 6.33477 35.1654 7.08759C36.3049 7.8404 37.1982 8.91122 37.7346 10.1672C38.2709 11.4231 38.4268 12.8088 38.1827 14.1525C37.9386 15.4962 37.3053 16.7387 36.3615 17.7257L17.9044 36.9577C17.2723 37.6206 16.5156 38.1522 15.6777 38.522C14.8397 38.8919 13.937 39.0926 13.0213 39.1127C12.1056 39.1329 11.1949 38.9721 10.3415 38.6395C9.48811 38.3069 8.70874 37.8091 8.04816 37.1746C6.71302 35.896 5.9402 34.1396 5.89952 32.2915C5.85884 30.4433 6.55364 28.6546 7.83122 27.3184L26.3038 8.03998C26.9481 7.35563 27.7265 6.81125 28.5903 6.44066ZM16.3082 35.4389L34.7653 16.145C35.1977 15.6932 35.5369 15.1606 35.7636 14.5777C35.9902 13.9948 36.0999 13.373 36.0862 12.7477C36.0725 12.1225 35.9359 11.506 35.684 10.9336C35.432 10.3612 35.0698 9.84396 34.618 9.4115C34.1663 8.97903 33.6337 8.63978 33.0508 8.41313C32.4679 8.18648 31.8461 8.07687 31.2208 8.09054C29.958 8.11815 28.7579 8.64628 27.8845 9.55872L9.42743 28.8526C8.55403 29.7651 8.07886 30.9871 8.10647 32.2499C8.13408 33.5127 8.66221 34.7128 9.57465 35.5862C10.4871 36.4596 11.7091 36.9347 12.9719 36.9071C14.2347 36.8795 15.4348 36.3514 16.3082 35.4389ZM30.8958 11.8397C31.0318 11.7837 31.1779 11.7564 31.3249 11.7594L31.2785 11.744C31.4947 11.7421 31.7066 11.8039 31.8879 11.9218C32.0691 12.0397 32.2117 12.2083 32.2977 12.4067C32.3836 12.6051 32.4093 12.8244 32.3713 13.0373C32.3334 13.2502 32.2335 13.4471 32.0843 13.6036L13.6117 32.8821C13.5128 32.9941 13.3911 33.0839 13.2549 33.1453C13.1186 33.2068 12.9708 33.2386 12.8213 33.2385C12.5381 33.2353 12.2666 33.1245 12.062 32.9285C11.8576 32.7225 11.7429 32.444 11.7429 32.1537C11.7429 31.8634 11.8576 31.5849 12.062 31.3788L30.5346 12.0849C30.6368 11.9792 30.7598 11.8957 30.8958 11.8397ZM41.9559 25.6137L43.2421 24.2654C43.5676 23.9245 43.8775 23.5835 44.1565 23.2271V87.1683C44.1565 90.5715 42.8045 93.8353 40.3981 96.2417C37.9917 98.6481 34.728 100 31.3248 100C27.9217 100 24.6579 98.6481 22.2515 96.2417C19.8451 93.8353 18.4932 90.5715 18.4932 87.1683V47.6661C19.2512 47.3927 19.9869 47.0611 20.6938 46.6743V87.1683C20.6938 89.9879 21.8138 92.6919 23.8075 94.6856C25.8012 96.6793 28.5053 97.7994 31.3248 97.7994C34.1444 97.7994 36.8484 96.6793 38.8421 94.6856C40.8358 92.6919 41.9559 89.9879 41.9559 87.1683V25.6137ZM32.4252 87.1685V35.563L30.2246 37.8721V87.1685C30.2246 87.4604 30.3406 87.7402 30.5469 87.9466C30.7533 88.1529 31.0331 88.2688 31.3249 88.2688C31.6168 88.2688 31.8966 88.1529 32.103 87.9466C32.3093 87.7402 32.4252 87.4604 32.4252 87.1685ZM24.3666 43.9779L24.7851 43.5595L26.5672 41.6843V87.1064C26.6366 88.3233 27.169 89.4675 28.055 90.3044C28.9411 91.1414 30.1138 91.6077 31.3326 91.6077C32.5515 91.6077 33.7241 91.1414 34.6102 90.3044C35.4962 89.4675 36.0285 88.3233 36.098 87.1064V31.6731L38.314 29.4415V87.1684C38.314 89.0179 37.5794 90.7917 36.2715 92.0995C34.9637 93.4074 33.1899 94.1421 31.3403 94.1421C29.4908 94.1421 27.717 93.4074 26.4092 92.0995C25.1013 90.7917 24.3666 89.0179 24.3666 87.1684V43.9779Z" fill="url(#paint0_linear)"/>
<defs>
<linearGradient id="paint0_linear" x1="22.0807" y1="0" x2="22.0807" y2="100" gradientUnits="userSpaceOnUse">
<stop stop-color="#00B2FF"/>
<stop offset="0.375" stop-color="#3D4F8C"/>
<stop offset="1" stop-color="#097E90"/>
</linearGradient>
</defs>
</svg>
