<svg width="68" height="100" viewBox="0 0 68 100" fill="none" xmlns="http://www.w3.org/2000/svg">
<path fill-rule="evenodd" clip-rule="evenodd" d="M51.4921 61.8443L51.9958 61.2338C57.5208 54.5795 65.0755 45.4526 65.0755 32.8307C65.0755 14.4243 49.9659 0.00148742 30.6743 0.00148742C25.0949 -0.050279 19.5859 1.24987 14.6184 3.79079C9.65083 6.33171 5.37247 10.0378 2.14911 14.5922C1.22314 15.9702 0.577603 17.517 0.249428 19.1444C-0.0787467 20.7718 -0.0831069 22.4479 0.23648 24.077C0.556066 25.7061 1.19334 27.2564 2.11204 28.6392C3.03073 30.022 4.21283 31.2103 5.59077 32.1362C6.9687 33.0622 8.5155 33.7077 10.1429 34.0359C11.7703 34.3641 13.4465 34.3685 15.0756 34.0489C16.7047 33.7293 18.2549 33.092 19.6377 32.1733C21.0205 31.2546 22.2088 30.0725 23.1348 28.6946C24.0256 27.5623 25.1755 26.6606 26.4876 26.0657C27.7998 25.4707 29.2356 25.1998 30.6743 25.2758C36.0467 25.2758 39.8317 28.3283 39.8317 32.8307C39.8317 36.341 35.9856 40.996 32.5821 45.0405L32.1243 45.5747L3.24804 79.0449C1.05818 81.5829 -0.0337995 84.8868 0.212353 88.2299C0.458505 91.573 2.0226 94.6814 4.56058 96.8713C7.09856 99.0612 10.4025 100.153 13.7456 99.9069C17.0887 99.6608 20.1971 98.0967 22.3869 95.5587L51.3853 61.9817L51.4921 61.8443ZM49.6759 60.6386L20.6776 94.2156C19.7804 95.2569 18.6866 96.1111 17.4589 96.7292C16.2312 97.3473 14.8937 97.7173 13.5229 97.8179C12.1521 97.9186 10.7749 97.7479 9.47015 97.3157C8.16536 96.8835 6.95862 96.1983 5.91895 95.2993C4.87766 94.4021 4.02351 93.3083 3.40538 92.0806C2.78726 90.853 2.41725 89.5155 2.3166 88.1447C2.21595 86.7738 2.38661 85.3966 2.81879 84.0918C3.25098 82.787 3.93622 81.5803 4.83529 80.5406L33.7268 47.0551L34.1847 46.5057C38.0002 41.927 41.9532 37.1346 41.9532 32.8459C41.9532 27.2141 37.1913 23.1239 30.6591 23.1239C28.9126 23.0817 27.1796 23.4393 25.5925 24.1694C24.0054 24.8995 22.6061 25.9827 21.5017 27.3363C20.7561 28.4917 19.7902 29.489 18.6592 30.2712C17.5282 31.0534 16.2542 31.6052 14.91 31.895C13.5657 32.1848 12.1775 32.207 10.8247 31.9603C9.47186 31.7137 8.18089 31.203 7.02542 30.4574C5.86996 29.7118 4.87262 28.7459 4.09043 27.6149C3.30825 26.4839 2.7565 25.2099 2.46667 23.8656C2.17685 22.5214 2.15471 21.1332 2.40137 19.7804C2.64803 18.4276 3.15872 17.1366 3.90431 15.9811C6.9196 11.6793 10.9401 8.17928 15.6162 5.78535C20.2924 3.39142 25.4825 2.17611 30.7354 2.24505C48.8059 2.24505 62.9693 15.7217 62.9693 32.907C62.9693 44.6999 55.7513 53.4361 50.4612 59.8389L50.3932 59.9212L49.6759 60.6386ZM30.6745 5.78583C38.2634 5.66969 45.601 8.50411 51.1412 13.6917C53.7198 16.1788 55.7643 19.1655 57.1498 22.4692C58.5354 25.773 59.2329 29.3246 59.1998 32.907C59.1998 43.4434 52.6949 51.2986 47.4776 57.599L47.463 57.6166L46.8525 58.3492L17.8541 91.9262C17.2082 92.6732 16.4092 93.2724 15.5111 93.6833C14.6131 94.0941 13.6373 94.3068 12.6497 94.3072C11.0008 94.3056 9.40762 93.7096 8.16263 92.6283C6.78822 91.4371 5.94239 89.7494 5.81078 87.9353C5.67916 86.1213 6.27246 84.3291 7.46053 82.952L36.4589 49.4513L36.932 48.8713C41.1597 43.7737 45.5247 38.493 45.5247 32.907C45.5247 25.3063 39.1146 19.583 30.6288 19.583C28.2758 19.5188 25.9413 20.0154 23.8182 21.0318C21.6951 22.0483 19.8444 23.5553 18.4189 25.4284C17.9495 26.2255 17.3238 26.9195 16.5795 27.4688C15.8353 28.0182 14.9877 28.4115 14.0877 28.6252C13.1876 28.8389 12.2537 28.8686 11.342 28.7124C10.4302 28.5563 9.55938 28.2176 8.78172 27.7167C8.00407 27.2157 7.33559 26.5628 6.81646 25.7972C6.29734 25.0316 5.9382 24.1689 5.76066 23.2611C5.58312 22.3532 5.59085 21.4189 5.78329 20.5141C5.97574 19.6093 6.34891 18.7527 6.88055 17.9957C9.54584 14.17 13.1087 11.0564 17.257 8.92772C21.4053 6.79903 26.0124 5.7202 30.6745 5.78583ZM45.3721 56.7772L45.8758 56.1667L45.9458 56.082C50.9398 50.0376 57.1238 42.553 57.0478 32.8306C57.0584 29.5446 56.3993 26.291 55.1109 23.2681C53.8225 20.2452 51.9317 17.5165 49.554 15.2485C44.4189 10.4531 37.6233 7.83775 30.5982 7.95309C26.2994 7.89116 22.0501 8.8775 18.2181 10.8267C14.3861 12.776 11.0866 15.6294 8.6052 19.1403C8.27804 19.666 8.05804 20.2512 7.95769 20.8622C7.85733 21.4732 7.87866 22.098 8.02047 22.7008C8.16229 23.3035 8.42178 23.8723 8.78405 24.3744C9.14632 24.8766 9.60419 25.3022 10.1314 25.6268C10.8864 26.1004 11.7585 26.3541 12.6497 26.3594C13.4746 26.3866 14.2918 26.1947 15.0184 25.8032C15.7449 25.4118 16.3548 24.8349 16.7859 24.1311C18.4151 21.9518 20.5432 20.1949 22.9917 19.0078C25.4401 17.8208 28.1375 17.2382 30.8577 17.3089C40.5797 17.3089 47.9209 23.9632 47.9209 32.8001C47.9209 39.0715 43.3782 44.5613 38.9905 49.8638L38.7635 50.1381L38.2599 50.7486L9.26156 84.3256C8.80239 84.7831 8.44274 85.3306 8.20529 85.9337C7.96784 86.5368 7.85763 87.1824 7.88167 87.8301C7.90571 88.4778 8.06351 89.1136 8.34502 89.6974C8.62653 90.2813 9.02573 90.8006 9.51755 91.2227C10.0094 91.6449 10.5831 91.9608 11.2029 92.1506C11.8226 92.3403 12.4749 92.3999 13.1188 92.3255C13.7626 92.2511 14.3843 92.0444 14.9444 91.7183C15.5045 91.3922 15.9912 90.9538 16.3737 90.4306L45.3721 56.7772ZM30.6744 11.5551C36.7679 11.4466 42.666 13.7063 47.1272 17.8584C49.1651 19.7781 50.79 22.0933 51.9026 24.6624C53.0153 27.2315 53.5923 30.0005 53.5984 32.8002C53.5984 41.2555 48.0582 47.9404 43.1742 53.8317L42.5943 54.549L13.5959 88.1261C13.4523 88.284 13.2659 88.3968 13.0593 88.4505C12.8527 88.5043 12.6349 88.4967 12.4326 88.4287C12.2302 88.3607 12.0521 88.2353 11.9199 88.0677C11.7877 87.9001 11.7071 87.6976 11.6881 87.485C11.6708 87.2018 11.7638 86.9229 11.9475 86.7067L40.9459 53.1296L41.4649 52.5039C46.1046 46.9026 51.3701 40.4924 51.3701 32.8613C51.3701 21.964 42.4874 13.7529 30.705 13.7529C27.3831 13.7099 24.0987 14.4586 21.1235 15.9369C18.1484 17.4151 15.5681 19.5806 13.5959 22.254C13.5197 22.3785 13.4192 22.4863 13.3004 22.571C13.1816 22.6557 13.0468 22.7155 12.9043 22.7469C12.7618 22.7783 12.6144 22.7805 12.471 22.7535C12.3275 22.7265 12.191 22.6708 12.0697 22.5898C11.9452 22.5136 11.8374 22.4131 11.7527 22.2943C11.6679 22.1754 11.6081 22.0407 11.5768 21.8981C11.5454 21.7556 11.5432 21.6082 11.5702 21.4648C11.5972 21.3214 11.6529 21.1849 11.7339 21.0635C13.8791 18.0571 16.7254 15.6197 20.0261 13.9627C23.3268 12.3057 26.9819 11.4792 30.6744 11.5551ZM45.1431 74.7257H54.621C57.9726 74.7257 61.1869 76.057 63.5569 78.427C65.9268 80.7969 67.2582 84.0112 67.2582 87.3628C67.2582 90.7144 65.9268 93.9287 63.5569 96.2986C61.1869 98.6686 57.9726 100 54.621 100H22.9823C23.7382 99.3868 24.4379 98.7075 25.0732 97.9702L25.1953 97.8327H54.621C57.3978 97.8327 60.0609 96.7297 62.0244 94.7662C63.9879 92.8027 65.0909 90.1396 65.0909 87.3628C65.0909 84.586 63.9879 81.923 62.0244 79.9595C60.0609 77.996 57.3978 76.8929 54.621 76.8929H43.2659L45.1431 74.7257ZM28.3089 94.2309H54.6211C56.4426 94.2309 58.1895 93.5073 59.4775 92.2193C60.7655 90.9313 61.4891 89.1844 61.4891 87.3629C61.4891 85.5414 60.7655 83.7945 59.4775 82.5065C58.1895 81.2185 56.4426 80.4949 54.6211 80.4949H40.1219L38.2599 82.6774H54.5905C55.7889 82.7457 56.9159 83.27 57.7401 84.1426C58.5644 85.0153 59.0236 86.1702 59.0236 87.3705C59.0236 88.5709 58.5644 89.7258 57.7401 90.5984C56.9159 91.4711 55.7889 91.9953 54.5905 92.0637H30.1708L28.3089 94.2309ZM55.3874 86.6425C55.5906 86.8457 55.7047 87.1213 55.7047 87.4087C55.705 87.6884 55.5971 87.9573 55.4037 88.1592C55.2102 88.3612 54.9463 88.4805 54.6669 88.4923H33.2997L35.1769 86.3251H54.6211C54.9085 86.3251 55.1841 86.4393 55.3874 86.6425Z" fill="url(#paint0_linear)"/>
<defs>
<linearGradient id="paint0_linear" x1="33.6291" y1="0" x2="33.6291" y2="100" gradientUnits="userSpaceOnUse">
<stop stop-color="#00B2FF"/>
<stop offset="0.375" stop-color="#3D4F8C"/>
<stop offset="1" stop-color="#097E90"/>
</linearGradient>
</defs>
</svg>
