<svg width="69" height="100" viewBox="0 0 69 100" fill="none" xmlns="http://www.w3.org/2000/svg">
<path fill-rule="evenodd" clip-rule="evenodd" d="M8.13072 30.3228C9.43281 31.3092 10.9164 32.0296 12.4969 32.4426C14.0774 32.8557 15.7237 32.9534 17.342 32.7302C18.9602 32.507 20.5186 31.9672 21.9283 31.1417C23.3379 30.3162 24.5711 29.2211 25.5576 27.919C25.7977 27.6205 26.0588 27.3393 26.3388 27.0777C28.3762 25.5458 30.8831 24.7704 33.4297 24.8844C36.6747 24.8844 40.1901 26.8224 40.1901 29.9322C40.1901 31.0439 39.3338 35.2353 35.1724 35.2353C31.8733 35.2353 28.7093 36.5459 26.3765 38.8787C24.0437 41.2115 22.7332 44.3754 22.7332 47.6745C22.7332 50.9736 24.0437 54.1375 26.3765 56.4703C28.7093 58.8031 31.8733 60.1137 35.1724 60.1137C53.6358 60.1137 65.0684 44.4445 65.0684 29.9322C65.079 25.7661 64.1875 21.6471 62.4552 17.8583C60.7229 14.0695 58.1908 10.7007 55.033 7.98336C49.0336 2.79906 41.3586 -0.0350535 33.4297 0.00607611C24.7348 -0.155529 16.2886 2.91145 9.72317 8.61435C8.27334 9.90294 6.95488 11.3321 5.78712 12.8809C3.79245 15.5112 2.92359 18.8257 3.37149 22.0962C3.81939 25.3667 5.5474 28.3256 8.17579 30.3228H8.13072ZM7.43967 14.1729C8.53327 12.7332 9.76062 11.4002 11.1053 10.1918C17.2933 4.83638 25.2479 1.96714 33.4297 2.13938C40.8485 2.11042 48.0248 4.78016 53.6208 9.65095C56.5517 12.1665 58.9022 15.2877 60.5102 18.7994C62.1182 22.3112 62.9456 26.1299 62.9351 29.9922C62.9351 43.5131 52.3138 58.0405 35.1724 58.0405C32.4391 58.0405 29.8177 56.9547 27.885 55.0219C25.9523 53.0892 24.8665 50.4678 24.8665 47.7346C24.8665 45.0013 25.9523 42.38 27.885 40.4472C29.8177 38.5145 32.4391 37.4287 35.1724 37.4287C36.1725 37.4869 37.1717 37.2997 38.0829 36.8834C38.9941 36.467 39.7898 35.8342 40.4004 35.04C41.5424 33.5936 42.2135 31.8318 42.3234 29.9922C42.3234 25.4853 37.8164 22.8112 33.4297 22.8112C30.3541 22.6887 27.3351 23.6631 24.9115 25.5604C24.5264 25.9022 24.1743 26.2794 23.8599 26.6872C23.0514 27.7899 22.0314 28.7207 20.8595 29.4253C19.6876 30.13 18.3871 30.5944 17.034 30.7914C15.6808 30.9884 14.302 30.9142 12.9778 30.5731C11.6536 30.2319 10.4105 29.6307 9.321 28.8043C8.2315 27.9779 7.31731 26.9431 6.63176 25.7599C5.9462 24.5767 5.50297 23.2689 5.32787 21.9128C5.15277 20.5566 5.24933 19.1791 5.61189 17.8606C5.97445 16.5421 6.59578 15.309 7.43967 14.233V14.1729ZM16.5696 27.0914C14.7963 27.3335 12.9993 26.8641 11.5709 25.7858C10.8607 25.2529 10.2638 24.5839 9.81499 23.8178C9.36618 23.0517 9.07442 22.2039 8.95683 21.3239C8.71405 19.5491 9.18398 17.7504 10.2638 16.3212C11.2269 15.0591 12.303 13.8875 13.4788 12.8208C19.028 8.06592 26.1388 5.5298 33.4446 5.69984C39.9995 5.65573 46.3472 7.99411 51.307 12.28C53.8511 14.4665 55.892 17.1776 57.2898 20.2271C58.6875 23.2767 59.4089 26.5925 59.4045 29.9472C59.2873 35.671 57.292 41.1977 53.7258 45.6764C51.509 48.4542 48.6857 50.6877 45.4724 52.2059C42.259 53.724 38.7408 54.4865 35.1873 54.4349C33.3943 54.4349 31.6747 53.7226 30.4069 52.4548C29.1391 51.187 28.4268 49.4675 28.4268 47.6745C28.4268 45.8815 29.1391 44.1619 30.4069 42.8941C31.6747 41.6263 33.3943 40.9141 35.1873 40.9141C36.7186 40.9762 38.2426 40.6719 39.6327 40.0265C41.0228 39.3811 42.2387 38.4132 43.1795 37.2034C44.8202 35.1227 45.7661 32.5793 45.8837 29.9322C45.8837 23.2168 39.559 19.2056 33.4446 19.2056C29.4875 19.0664 25.6137 20.363 22.5378 22.8562C21.9902 23.3573 21.4876 23.9052 21.0354 24.4937C19.9483 25.9155 18.3429 26.8493 16.5696 27.0914ZM14.9811 14.4132C13.8788 15.3805 12.8725 16.4522 11.9765 17.6132C11.2654 18.6034 10.9739 19.8342 11.1651 21.0382C11.3564 22.2421 12.0151 23.322 12.9981 24.0431C13.7948 24.6546 14.773 24.9824 15.7773 24.9745C16.4923 24.9798 17.1986 24.8182 17.8401 24.5026C18.4817 24.1871 19.0408 23.7262 19.473 23.1567C19.9945 22.4597 20.5832 21.8156 21.2307 21.2338C24.6934 18.3761 29.0773 16.8757 33.5647 17.0123C40.7308 17.0123 48.1372 21.8347 48.1372 29.887C48.1372 33.9884 44.9072 43.0023 35.3074 43.0023C34.6786 42.9664 34.0491 43.0593 33.4574 43.2752C32.8657 43.4912 32.3244 43.8256 31.8666 44.2581C31.4087 44.6906 31.0439 45.212 30.7946 45.7904C30.5453 46.3688 30.4167 46.9921 30.4167 47.6219C30.4167 48.2517 30.5453 48.8749 30.7946 49.4533C31.0439 50.0317 31.4087 50.5531 31.8666 50.9856C32.3244 51.4181 32.8657 51.7526 33.4574 51.9686C34.0491 52.1845 34.6786 52.2774 35.3074 52.2415C50.3606 52.2415 57.3764 38.9009 57.3764 29.887C57.3815 26.8374 56.7261 23.8229 55.4554 21.0506C54.1846 18.2784 52.3287 15.8142 50.0151 13.8274C45.4182 9.88549 39.5448 7.74969 33.4896 7.81811C26.7227 7.68824 20.1411 10.0334 14.9811 14.4132ZM16.2034 21.3647C16.0572 21.4378 15.8957 21.4754 15.7323 21.4742C15.4543 21.5094 15.1738 21.4338 14.9511 21.2638C14.7292 21.0879 14.5795 20.8367 14.5304 20.5577C14.499 20.2754 14.574 19.9915 14.7407 19.7615C15.484 18.7827 16.319 17.8773 17.2346 17.0574C21.7796 13.2361 27.5689 11.2155 33.5046 11.3786C38.6779 11.3337 43.6913 13.1704 47.6114 16.5466C49.544 18.2004 51.0954 20.2533 52.1587 22.564C53.222 24.8748 53.772 27.3885 53.7709 29.9322C53.7709 37.5189 47.8818 48.7412 35.2473 48.7412C34.9644 48.7412 34.6931 48.6288 34.4931 48.4288C34.293 48.2287 34.1807 47.9574 34.1807 47.6745C34.1807 47.3916 34.293 47.1203 34.4931 46.9203C34.6931 46.7203 34.9644 46.6078 35.2473 46.6078C46.4245 46.6078 51.6375 36.6626 51.6375 29.9322C51.6375 20.723 43.6753 13.5119 33.5046 13.5119C28.1437 13.3837 22.9182 15.2038 18.797 18.6348C17.9863 19.3742 17.2423 20.1836 16.5736 21.0535C16.4764 21.185 16.3496 21.2916 16.2034 21.3647ZM33.5498 86.4342H33.9254C46.1692 86.2389 55.3935 77.9612 55.3935 67.1896C55.4072 64.1181 54.6532 61.0919 53.2001 58.386C53.801 57.9954 54.3869 57.5898 54.9578 57.1541C56.6563 60.2253 57.5407 63.68 57.5268 67.1896C57.5268 79.148 47.4012 88.3271 33.9705 88.5675H33.4897C23.7247 88.5675 15.0563 83.4446 11.3907 75.5274C11.2734 75.2703 11.263 74.9773 11.3616 74.7126C11.4601 74.4478 11.6597 74.233 11.9165 74.1152C12.055 74.0415 12.2104 74.0053 12.3672 74.0101C12.5714 74.0105 12.7711 74.0704 12.9418 74.1825C13.1126 74.2945 13.247 74.4538 13.3287 74.641C16.6037 81.6869 24.7162 86.4342 33.5498 86.4342ZM33.8351 80.7554H33.5046C26.8794 80.7554 20.8551 77.3452 18.4815 72.2523C17.9364 71.0863 17.0704 70.0996 15.9848 69.4079C14.8993 68.7161 13.6393 68.3479 12.3521 68.3463C11.3717 68.339 10.4019 68.5494 9.51268 68.9622C8.70259 69.3355 7.97437 69.8654 7.36998 70.5214C6.76559 71.1773 6.297 71.9464 5.99117 72.7843C5.68535 73.6222 5.54836 74.5123 5.58809 75.4033C5.62781 76.2944 5.84348 77.1688 6.22266 77.9761C10.8047 87.9064 21.5012 94.3063 33.4746 94.3063H34.0455C41.528 94.2833 48.7547 91.5812 54.4169 86.6896C57.1874 84.2668 59.4057 81.2775 60.9219 77.9238C62.438 74.5701 63.2167 70.9301 63.2054 67.2496C63.2285 62.3324 61.8586 57.5092 59.2543 53.3382C58.7435 53.864 58.2327 54.3898 57.752 54.8405C59.9718 58.5814 61.1348 62.8546 61.1172 67.2046C61.1172 81.146 49.4742 91.8575 34.0755 92.1279H33.5347C22.4026 92.1279 12.5023 86.2088 8.22071 77.0297C7.95913 76.4817 7.81098 75.8865 7.78517 75.2798C7.75935 74.6731 7.85639 74.0675 8.07047 73.4993C8.49695 72.3494 9.3611 71.4151 10.4742 70.9002C11.0809 70.6179 11.743 70.4742 12.4122 70.4796C13.2925 70.482 14.1539 70.7347 14.8961 71.2082C15.6382 71.6817 16.2304 72.3564 16.6036 73.1537C19.2927 78.9827 26.0983 82.8887 33.5347 82.8887H33.9103C44.1711 82.7085 51.938 75.9631 51.938 67.2046C51.9476 64.7595 51.3542 62.3498 50.2104 60.1887C49.5794 60.5042 48.9334 60.8047 48.2724 61.0751C49.2793 62.9599 49.7959 65.0678 49.7747 67.2046C49.7146 74.8964 43.0293 80.5902 33.8351 80.7554ZM61.643 50.4387C62.0937 49.8377 62.5294 49.2218 62.95 48.5908L63.0251 48.6809C67.6106 55.0683 69.6649 62.929 68.7908 70.7431C67.9167 78.5573 64.1763 85.7698 58.2928 90.9861C51.6102 96.7583 43.0861 99.9548 34.2558 100H33.5798C19.398 100 6.68835 92.2931 1.15984 80.3647C-0.229126 77.3757 -0.376561 73.9579 0.749831 70.8603C1.87622 67.7628 4.18458 65.238 7.16909 63.8393C8.8013 63.0772 10.5808 62.6823 12.3821 62.6825C14.7556 62.6879 17.0785 63.3688 19.0791 64.6458C21.0797 65.9228 22.6754 67.743 23.6796 69.8936C24.8514 72.4025 28.4118 75.0916 33.5046 75.0916H33.7601C38.8829 75.0165 44.0509 72.2823 44.0509 67.2345C44.0775 65.6555 43.5454 64.1178 42.5486 62.8928C43.2697 62.7276 44.0359 62.5473 44.772 62.322C45.6999 63.7899 46.1753 65.4983 46.1391 67.2345C46.1391 72.8982 40.9411 77.1047 33.7601 77.2249H33.5497C28.2465 77.2249 23.4993 74.6259 21.7115 70.78C20.8866 68.9903 19.5673 67.4738 17.909 66.4091C16.2508 65.3444 14.3227 64.7759 12.3521 64.7707C10.8613 64.767 9.38842 65.0954 8.04046 65.7322C5.56 66.8817 3.63697 68.9684 2.69342 71.5343C1.74987 74.1002 1.86289 76.9356 3.0077 79.4183C8.17566 90.5805 20.1491 97.8066 33.4897 97.8066H34.1206C42.451 97.775 50.4942 94.7582 56.7905 89.3035C62.179 84.5182 65.6428 77.936 66.5357 70.7849C67.4285 63.6337 65.6895 56.402 61.643 50.4387Z" fill="url(#paint0_linear)"/>
<defs>
<linearGradient id="paint0_linear" x1="34.4939" y1="0" x2="34.4939" y2="100" gradientUnits="userSpaceOnUse">
<stop stop-color="#00B2FF"/>
<stop offset="0.375" stop-color="#3D4F8C"/>
<stop offset="1" stop-color="#097E90"/>
</linearGradient>
</defs>
</svg>
