<svg width="67" height="100" viewBox="0 0 67 100" fill="none" xmlns="http://www.w3.org/2000/svg">
<path fill-rule="evenodd" clip-rule="evenodd" d="M53.5266 0C50.1237 0.0041023 46.8614 1.35773 44.4552 3.76391C42.0491 6.17009 40.6954 9.43236 40.6913 12.8352V87.1648C40.6913 88.8503 41.0234 90.5194 41.6684 92.0766C42.3134 93.6338 43.2588 95.0488 44.4507 96.2407C45.6426 97.4325 47.0575 98.3779 48.6147 99.023C50.172 99.668 51.841 100 53.5266 100C55.2121 100 56.8811 99.668 58.4384 99.023C59.9956 98.3779 61.4105 97.4325 62.6024 96.2407C63.7942 95.0488 64.7397 93.6338 65.3848 92.0766C66.0298 90.5194 66.3618 88.8503 66.3618 87.1648V12.8352C66.3618 9.4311 65.0095 6.16644 62.6024 3.75937C60.1953 1.3523 56.9307 0 53.5266 0ZM64.1606 87.1648C64.1606 88.5613 63.8855 89.9441 63.3511 91.2343C62.8167 92.5244 62.0334 93.6967 61.0459 94.6842C60.0584 95.6717 58.8862 96.4549 57.596 96.9894C56.3058 97.5238 54.9231 97.7988 53.5266 97.7988C52.1301 97.7988 50.7473 97.5238 49.4571 96.9894C48.1669 96.4549 46.9946 95.6717 46.0072 94.6842C45.0197 93.6967 44.2364 92.5244 43.702 91.2343C43.1676 89.9441 42.8925 88.5613 42.8925 87.1648V12.8352C42.8925 10.0149 44.0129 7.31012 46.0072 5.31586C48.0014 3.32159 50.7063 2.20123 53.5266 2.20123C56.3469 2.20123 59.0516 3.32159 61.0459 5.31586C63.0402 7.31012 64.1606 10.0149 64.1606 12.8352V87.1648ZM48.6042 7.90824C49.909 6.60049 51.6794 5.86372 53.5267 5.85962C55.3782 5.85961 57.154 6.59406 58.4647 7.9018C59.7753 9.20955 60.5137 10.9838 60.5178 12.8353V87.1648C60.5178 89.0149 59.7829 90.7892 58.4747 92.0974C57.1665 93.4056 55.3922 94.1405 53.5421 94.1405C51.6921 94.1405 49.9179 93.4056 48.6097 92.0974C47.3015 90.7892 46.5665 89.0149 46.5665 87.1648V12.8353C46.5665 10.9879 47.2993 9.21598 48.6042 7.90824ZM56.8129 90.3638C57.6992 89.5266 58.2317 88.3821 58.3011 87.1648V12.8353C58.3381 12.1864 58.2424 11.5369 58.0195 10.9264C57.7967 10.3159 57.4515 9.75731 57.0053 9.28486C56.559 8.81241 56.021 8.43606 55.4242 8.17883C54.8274 7.9216 54.1843 7.78893 53.5344 7.78893C52.8845 7.78893 52.2415 7.9216 51.6447 8.17883C51.0479 8.43606 50.5099 8.81241 50.0636 9.28486C49.6173 9.75731 49.2722 10.3159 49.0493 10.9264C48.8265 11.5369 48.7307 12.1864 48.7678 12.8353V87.1648C48.8372 88.3821 49.3696 89.5266 50.2559 90.3638C51.1422 91.201 52.3152 91.6674 53.5344 91.6674C54.7536 91.6674 55.9266 91.201 56.8129 90.3638ZM52.7485 12.057C52.9549 11.8506 53.2348 11.7347 53.5267 11.7347C53.8186 11.7347 54.0985 11.8506 54.3049 12.057C54.5113 12.2635 54.6273 12.5434 54.6273 12.8353V87.1649C54.6273 87.3094 54.5989 87.4525 54.5436 87.586C54.4882 87.7196 54.4071 87.8409 54.3049 87.9431C54.2027 88.0453 54.0814 88.1264 53.9479 88.1817C53.8143 88.237 53.6713 88.2654 53.5267 88.2654C53.3822 88.2654 53.2391 88.237 53.1055 88.1817C52.972 88.1264 52.8507 88.0453 52.7485 87.9431C52.6463 87.8409 52.5651 87.7196 52.5098 87.586C52.4545 87.4525 52.4261 87.3094 52.4261 87.1649V12.8353C52.4261 12.5434 52.542 12.2635 52.7485 12.057ZM19.8109 12.8353V32.2121C19.8191 35.8028 21.2491 39.2441 23.7881 41.7832C26.3271 44.3222 29.7685 45.7522 33.3592 45.7604H37.0175V47.9771H33.3592C29.1793 47.973 25.1718 46.3107 22.2162 43.3551C19.2606 40.3995 17.5983 36.392 17.5941 32.2121V12.8353C17.6312 12.1864 17.5354 11.5369 17.3126 10.9264C17.0898 10.3159 16.7446 9.75731 16.2983 9.28486C15.8521 8.81241 15.3141 8.43606 14.7172 8.17883C14.1204 7.9216 13.4774 7.78893 12.8275 7.78893C12.1776 7.78893 11.5345 7.9216 10.9377 8.17883C10.3409 8.43606 9.80289 8.81241 9.35663 9.28486C8.91036 9.75731 8.56529 10.3159 8.34247 10.9264C8.11965 11.5369 8.02379 12.1864 8.0608 12.8353V32.2121C8.06901 38.9192 10.7369 45.3492 15.4795 50.0917C20.2221 54.8343 26.6522 57.5023 33.3592 57.5105H37.0175V59.7118H33.3592C26.0684 59.7036 19.0785 56.8036 13.9231 51.6482C8.76765 46.4928 5.86783 39.5029 5.85962 32.2121V12.8353C5.85962 10.9852 6.59451 9.21094 7.9027 7.90275C9.21089 6.59456 10.9852 5.85962 12.8353 5.85962C14.6853 5.85962 16.4596 6.59456 17.7678 7.90275C19.076 9.21094 19.8109 10.9852 19.8109 12.8353ZM25.6859 32.2119V12.8351C25.5703 9.50616 24.1665 6.35222 21.7707 4.03813C19.3748 1.72405 16.1739 0.430664 12.8429 0.430664C9.51197 0.430664 6.31118 1.72405 3.91529 4.03813C1.51941 6.35222 0.115671 9.50616 0 12.8351V32.2119C0.0123113 41.0582 3.53301 49.5385 9.78975 55.7923C16.0465 62.0462 24.5284 65.5629 33.3747 65.5711H37.033V63.3699H33.3747C25.1122 63.3617 17.1902 60.0769 11.3462 54.2358C5.5023 48.3948 2.21349 40.4745 2.20118 32.2119V12.8351C2.20118 10.0148 3.32159 7.31001 5.31586 5.31575C7.31012 3.32148 10.0149 2.20112 12.8353 2.20112C15.6556 2.20112 18.3603 3.32148 20.3546 5.31575C22.3488 7.31001 23.4692 10.0148 23.4692 12.8351V32.2119C23.4734 34.8363 24.5188 37.3519 26.376 39.2062C28.2331 41.0604 30.7503 42.1019 33.3747 42.1019H37.033V39.9007H33.3747C31.3405 39.8845 29.3942 39.0692 27.9558 37.6308C26.5174 36.1924 25.7022 34.2461 25.6859 32.2119ZM13.9514 12.8353V32.2121C13.9534 34.7675 14.4592 37.2974 15.44 39.6571C16.4207 42.0168 17.857 44.1599 19.6668 45.9639C21.4766 47.7679 23.6243 49.1975 25.9871 50.1707C28.3499 51.1439 30.8814 51.6416 33.4368 51.6355H37.0951V53.8367H33.4368C27.6944 53.8367 22.1862 51.5609 18.1185 47.5078C14.0508 43.4546 11.7552 37.9544 11.7347 32.2121V12.8353C11.7668 12.5639 11.8974 12.3138 12.1017 12.1323C12.306 11.9508 12.5697 11.8505 12.843 11.8505C13.1163 11.8505 13.3801 11.9508 13.5844 12.1323C13.7887 12.3138 13.9192 12.5639 13.9514 12.8353Z" fill="url(#paint0_linear)"/>
<defs>
<linearGradient id="paint0_linear" x1="33.1809" y1="0" x2="33.1809" y2="100" gradientUnits="userSpaceOnUse">
<stop stop-color="#00B2FF"/>
<stop offset="0.375" stop-color="#3D4F8C"/>
<stop offset="1" stop-color="#097E90"/>
</linearGradient>
</defs>
</svg>
