<svg width="235" height="45" viewBox="0 0 235 45" fill="none" xmlns="http://www.w3.org/2000/svg">
<g opacity="0.7">
<path d="M20.4512 10.5962C25.0523 10.5962 30.0939 13.0885 30.9592 19.0627H25.3373C24.5394 16.7621 22.845 15.8657 20.4512 15.8657C17.0677 15.8657 14.8656 18.2958 14.8656 22.0006C14.8656 25.2235 17.0366 28.0629 20.4512 28.0629C22.8761 28.0629 24.7932 26.9489 25.3995 24.5188H31.0214C30.1561 30.8764 25.2078 33.3946 20.4512 33.3946C14.7516 33.3946 9.02087 29.5655 9.02087 22.0317C9.02087 14.3372 14.736 10.5962 20.4512 10.5962Z" fill="white" stroke="#231F20" stroke-miterlimit="10"/>
<path d="M72.6441 33.3943H66.3227L62.4211 26.2698H59.3122V33.3943H53.3535V10.5958C56.7422 10.5958 60.0272 10.5648 63.3796 10.5958C68.8823 10.5958 71.5819 14.6633 71.5819 18.6686C71.5999 19.9673 71.3013 21.251 70.7117 22.4084C70.1222 23.5658 69.2595 24.5621 68.1984 25.3112L72.6441 33.3943ZM63.3175 21.451C64.9755 21.451 65.789 20.0209 65.789 18.5908C65.789 17.1608 65.0118 15.8239 63.3175 15.8239H59.1723V21.451H63.3175Z" fill="white" stroke="#231F20" stroke-miterlimit="10"/>
<path d="M89.1729 21.555C90.0602 22.0199 90.7976 22.7265 91.3001 23.593C91.8026 24.4595 92.0495 25.4505 92.0124 26.4515C92.0124 30.3635 89.4683 33.3946 84.7583 33.3946H73.7788V10.5962H83.8568C88.0952 10.5962 91.0642 13.3735 91.0642 17.6119C91.0433 18.3651 90.8641 19.1054 90.5383 19.7848C90.2125 20.4641 89.7473 21.0673 89.1729 21.555ZM79.7479 15.8191V19.6327H83.4215C83.6565 19.6363 83.8898 19.5922 84.1072 19.503C84.3247 19.4138 84.5217 19.2813 84.6864 19.1137C84.8512 18.9461 84.9801 18.7467 85.0655 18.5278C85.1509 18.3088 85.191 18.0748 85.1832 17.8399C85.2143 16.8036 84.6288 15.8191 83.4215 15.8191H79.7479ZM79.7479 24.4618V28.2442H84.3438C85.4889 28.2442 86.0122 27.3945 86.1055 26.4826C86.1292 26.1397 86.0672 25.7964 85.9252 25.4834C85.7832 25.1705 85.5656 24.8977 85.292 24.6898C84.9865 24.5422 84.652 24.4643 84.3127 24.4618H79.7479Z" fill="white" stroke="#231F20" stroke-miterlimit="10"/>
<path d="M45.7783 30.5704H36.861L35.8921 33.3995H29.7106L38.2807 10.6011H43.8767L52.4779 33.3995H46.8508L45.7783 30.5704ZM41.0632 18.2075L38.5242 25.6843H43.8974L41.0632 18.2075Z" fill="white" stroke="#231F20" stroke-miterlimit="10"/>
<path d="M125.391 21.6586V33.3946H119.474V10.5962H122.889L133.122 21.7622V10.5962H139.039V33.3946H135.723L125.391 21.6586Z" fill="white" stroke="#231F20" stroke-miterlimit="10"/>
<path d="M153.174 26.4255C153.174 24.8711 151.356 24.5446 149.164 24.4203C144.402 24.0731 141.267 22.4462 141.205 17.6844C141.019 8.22304 158.061 8.22304 157.936 17.6844H152.61C152.61 14.7724 146.723 15.0211 146.532 17.6222C146.407 19.2803 148.04 19.6274 150.009 19.8451C154.366 20.3166 158.625 20.9746 158.625 26.4566C158.625 35.6641 140.77 35.8247 140.894 26.1716H146.314C146.314 28.9696 153.174 29.0162 153.174 26.4255Z" fill="#192344"/>
<path d="M174.776 10.9537L178.615 22.9488H178.709L182.579 10.5962H188.631L188.32 11.4719L180.486 33.3946H177.165L173.538 22.5136H173.439L169.812 33.3946H166.62L158.719 11.4719L158.402 10.5962H164.553L168.454 22.9488H168.553L172.325 10.9537H174.776Z" fill="#192344"/>
<path d="M199.424 30.5704H190.507L189.538 33.3995H183.356L191.926 10.6011H197.522L206.124 33.3995H200.523L199.424 30.5704ZM194.761 18.1971L192.17 25.6636H197.538L194.761 18.1971Z" fill="#192344"/>
<path d="M207.777 33.3946V10.5962H217.808C228.72 10.6325 228.72 27.5655 217.808 27.5655H213.606V33.3946H207.777ZM217.777 15.8346C216.414 15.8036 214.948 15.8346 213.632 15.8346V22.3374H217.777C220.963 22.3374 221.16 15.8657 217.777 15.8346Z" fill="#192344"/>
<path d="M153.174 26.4255C153.174 24.8711 151.356 24.5446 149.164 24.4203C144.402 24.0731 141.267 22.4462 141.205 17.6844C141.019 8.22304 158.061 8.22304 157.936 17.6844H152.61C152.61 14.7724 146.723 15.0211 146.532 17.6222C146.407 19.2803 148.04 19.6274 150.009 19.8451C154.366 20.3166 158.625 20.9746 158.625 26.4566C158.625 35.6641 140.77 35.8247 140.894 26.1716H146.314C146.314 28.9696 153.174 29.0162 153.174 26.4255Z" fill="#BBBDBF"/>
<path d="M174.776 10.9537L178.615 22.9488H178.709L182.579 10.5962H188.631L188.32 11.4719L180.486 33.3946H177.165L173.538 22.5136H173.439L169.812 33.3946H166.62L158.719 11.4719L158.402 10.5962H164.553L168.454 22.9488H168.553L172.325 10.9537H174.776Z" fill="#BBBDBF"/>
<path d="M199.424 30.5704H190.507L189.538 33.3995H183.356L191.926 10.6011H197.522L206.124 33.3995H200.523L199.424 30.5704ZM194.761 18.1971L192.17 25.6636H197.538L194.761 18.1971Z" fill="#BBBDBF"/>
<path d="M207.777 33.3946V10.5962H217.808C228.72 10.6325 228.72 27.5655 217.808 27.5655H213.606V33.3946H207.777ZM217.777 15.8346C216.414 15.8036 214.948 15.8346 213.632 15.8346V22.3374H217.777C220.963 22.3374 221.16 15.8657 217.777 15.8346Z" fill="#BBBDBF"/>
<path d="M99.6758 29.2442C99.1665 29.5328 98.6813 29.862 98.225 30.2287C97.9157 30.4883 97.5655 30.6949 97.1887 30.8401C96.9037 30.9282 96.7949 30.8401 96.8519 30.5551C96.9226 30.2818 97.0458 30.0249 97.2146 29.7986C97.4892 29.3841 97.7846 28.9799 98.0644 28.5654C98.2048 28.3886 98.3135 28.1887 98.3856 27.9747C98.0408 27.9951 97.7071 28.104 97.4167 28.2908C96.9607 28.4825 96.5203 28.7209 96.0695 28.9281C95.9333 29.0006 95.7831 29.043 95.6291 29.0525C95.3337 29.0525 95.2353 28.9022 95.3648 28.6328C95.4889 28.3877 95.6556 28.1666 95.8571 27.9799C96.2975 27.5343 96.7431 27.0939 97.1835 26.6431C97.2509 26.5757 97.3752 26.5136 97.3079 26.3944C97.2405 26.2752 97.1472 26.3944 97.0643 26.3944C96.3078 26.5654 95.5513 26.7415 94.7897 26.9125C94.6031 26.954 94.3596 27.0628 94.2456 26.8193C94.1316 26.5757 94.2819 26.3996 94.4684 26.2649C95.0228 25.8711 95.5824 25.4876 96.142 25.1042C96.3048 24.9994 96.4456 24.8639 96.5566 24.7052C96.2165 24.6302 95.8665 24.6109 95.5203 24.6482C94.9348 24.6482 94.3441 24.7104 93.7534 24.7311C93.6394 24.7311 93.4529 24.8607 93.4062 24.6379C93.3685 24.5436 93.3666 24.4389 93.401 24.3433C93.4354 24.2478 93.5036 24.1683 93.5928 24.1197C93.9295 23.9548 94.2755 23.8095 94.6291 23.6845C94.9866 23.5446 95.3441 23.4099 95.6964 23.2596C95.9175 23.1942 96.1129 23.0621 96.256 22.8814C95.7586 22.7199 95.2467 22.6071 94.7275 22.5446C94.3596 22.4824 93.9917 22.4461 93.629 22.3788C93.4425 22.3425 93.2508 22.2855 93.2611 22.0161C93.2715 21.7466 93.4166 21.7207 93.6083 21.6844L95.598 21.3062C95.8095 21.2821 96.0121 21.2075 96.1887 21.0886C95.9329 20.8802 95.639 20.7236 95.3234 20.6274C94.914 20.4513 94.4891 20.3114 94.0746 20.1507C93.9673 20.1103 93.8648 20.0582 93.7689 19.9953C93.691 19.962 93.6278 19.9018 93.5907 19.8257C93.5535 19.7496 93.5451 19.6626 93.5668 19.5808C93.6135 19.3891 93.7845 19.3839 93.9347 19.3839C94.4011 19.3839 94.8622 19.3839 95.3234 19.3839C95.7845 19.3839 96.1058 19.3321 96.5617 19.301C96.3106 19.0236 96.0032 18.8028 95.6602 18.6533C95.2301 18.3683 94.7897 18.1351 94.3544 17.845C94.2486 17.7729 94.1482 17.6933 94.0539 17.6066C93.9837 17.5591 93.9327 17.4883 93.9099 17.4067C93.8872 17.325 93.8941 17.238 93.9295 17.161C94.0021 17.0056 94.1731 17.047 94.3078 17.0729L96.8985 17.5911C96.9942 17.6105 97.0912 17.6227 97.1887 17.6274C97.144 17.4647 97.0476 17.3211 96.9141 17.218C96.4736 16.731 95.94 16.3424 95.5306 15.8294C95.4767 15.7736 95.4281 15.7129 95.3855 15.648C95.2975 15.503 95.2249 15.3475 95.3545 15.1869C95.484 15.0263 95.6239 15.0781 95.7793 15.1143C96.2676 15.263 96.7439 15.4483 97.2042 15.6688C97.5325 15.8306 97.8811 15.9473 98.2405 16.0159C98.0982 15.669 97.8985 15.3484 97.6498 15.0677C97.3234 14.6717 97.0338 14.2468 96.7845 13.7983C96.712 13.6635 96.6395 13.5185 96.7845 13.3734C96.9296 13.2283 97.0436 13.2853 97.1783 13.3164C97.5716 13.4309 97.9381 13.6229 98.2561 13.8812L99.3442 14.5962C99.4167 14.6377 99.5203 14.6998 99.5877 14.5962C99.6551 14.4926 99.5877 14.4511 99.5514 14.3889C99.2665 13.7775 98.9608 13.1713 98.6861 12.5547C98.5825 12.3215 98.3908 12.0107 98.655 11.8138C98.9193 11.6169 99.1991 11.8552 99.4012 12.0417C99.8675 12.477 100.303 12.9433 100.764 13.3941C100.847 13.477 100.919 13.6014 101.096 13.6014C101.095 13.2333 101.036 12.8676 100.919 12.5184C100.805 12.0003 100.65 11.4821 100.526 10.9225C100.489 10.7516 100.391 10.5132 100.603 10.4044C100.816 10.2956 101.013 10.4459 101.163 10.622C101.619 11.1402 101.919 11.8034 102.349 12.363C102.489 12.5495 102.588 12.8811 102.811 12.85C103.033 12.819 102.883 12.4355 102.878 12.2127C102.878 11.534 102.826 10.8552 102.811 10.1764C102.811 10.0572 102.702 9.86553 102.93 9.83444C103.158 9.80335 103.318 9.78781 103.448 9.99506C103.598 10.2765 103.721 10.5714 103.816 10.8759C103.992 11.3388 104.165 11.7999 104.334 12.2594C104.37 12.3474 104.422 12.4666 104.546 12.4511C104.671 12.4355 104.681 12.3164 104.707 12.2179C104.873 11.6117 104.894 10.9795 105.013 10.3681C105.039 10.2282 105.065 10.0935 105.101 9.95879C105.127 9.87121 105.184 9.79592 105.261 9.74651C105.338 9.69711 105.43 9.67683 105.52 9.68936C105.723 9.68936 105.769 9.82926 105.8 9.98988C105.919 10.6531 106.039 11.3215 106.168 11.9847C106.199 12.1402 106.199 12.3578 106.407 12.3682C106.614 12.3785 106.634 12.1713 106.686 12.0366C106.883 11.5184 107.054 11.0314 107.246 10.5288C107.329 10.3008 107.427 10.078 107.531 9.86035C107.565 9.78995 107.622 9.73368 107.693 9.70146C107.764 9.66924 107.844 9.66312 107.919 9.68418C108.116 9.71008 108.101 9.87071 108.096 10.0106C108.096 10.4977 108.096 10.9847 108.059 11.4666C108.013 11.9162 108.034 12.3703 108.122 12.8138C108.308 12.8397 108.355 12.6791 108.422 12.5702L109.583 10.7619C109.646 10.6665 109.717 10.5764 109.795 10.4925C109.851 10.4279 109.926 10.3837 110.01 10.3668C110.093 10.3499 110.18 10.3613 110.256 10.3992C110.412 10.4718 110.417 10.6479 110.381 10.8034C110.23 11.5029 110.075 12.2024 109.914 12.876C109.868 13.078 109.785 13.3941 109.914 13.4511C110.044 13.5081 110.225 13.2646 110.365 13.1298C110.837 12.6791 111.199 12.1246 111.707 11.7049C111.808 11.6282 111.914 11.5573 112.023 11.4925C112.069 11.4572 112.126 11.4381 112.184 11.4381C112.242 11.4381 112.298 11.4572 112.344 11.4925C112.395 11.5314 112.433 11.5854 112.451 11.6468C112.47 11.7081 112.469 11.7738 112.448 11.8345C112.326 12.3046 112.152 12.7599 111.93 13.192C111.711 13.6138 111.526 14.0521 111.376 14.5029C111.806 14.3226 112.207 14.0799 112.567 13.7827C112.994 13.4361 113.46 13.1404 113.956 12.9019C114.08 12.8449 114.215 12.762 114.35 12.9019C114.484 13.0418 114.396 13.1609 114.35 13.2905C114.015 13.9531 113.614 14.5798 113.153 15.161C112.954 15.3639 112.831 15.6293 112.806 15.9123C113.593 15.5444 114.36 15.1921 115.091 14.8501C115.257 14.755 115.443 14.7 115.635 14.6895C115.93 14.6895 116.023 14.8294 115.904 15.104C115.801 15.3098 115.663 15.4958 115.495 15.6532C114.977 16.2076 114.386 16.6895 113.868 17.3165C114.332 17.3373 114.795 17.2723 115.236 17.1248C115.598 17.0419 115.956 16.9641 116.324 16.902C116.536 16.8709 116.759 16.8294 116.868 17.047C116.977 17.2647 116.811 17.4667 116.63 17.5963C116.111 17.9693 115.547 18.3217 115.013 18.6896C114.873 18.788 114.614 18.8502 114.676 19.0523C114.738 19.2543 114.977 19.1507 115.132 19.1507C115.826 19.1507 116.516 19.0937 117.205 19.0833C117.334 19.0833 117.547 18.9642 117.588 19.1973C117.621 19.3018 117.617 19.4146 117.575 19.516C117.533 19.6174 117.457 19.7009 117.36 19.7518C116.915 19.9901 116.433 20.1196 115.977 20.3114C115.744 20.4098 115.49 20.4772 115.262 20.5808C115.132 20.6378 114.909 20.6533 114.93 20.8347C114.951 21.016 115.142 20.9901 115.282 21.016L116.583 21.244C116.899 21.2958 117.215 21.3425 117.531 21.3995C117.718 21.4357 117.863 21.5135 117.863 21.7466C117.863 21.9798 117.723 22.0575 117.531 22.099L115.241 22.5446C115.142 22.5446 115.003 22.5446 114.982 22.6586C114.961 22.7725 115.091 22.8606 115.189 22.9021C115.614 23.0731 116.044 23.2285 116.474 23.3891L117.122 23.6327C117.223 23.6562 117.313 23.7161 117.373 23.8011C117.433 23.8861 117.46 23.9903 117.448 24.0938C117.407 24.3477 117.184 24.327 116.987 24.3322L114.992 24.4047C114.878 24.4047 114.712 24.4047 114.676 24.4928C114.64 24.5809 114.8 24.7052 114.894 24.7622C115.438 25.1198 115.997 25.4565 116.547 25.7985C116.664 25.8762 116.775 25.9628 116.878 26.0576C116.952 26.119 117.003 26.204 117.022 26.2983C117.041 26.3926 117.027 26.4906 116.982 26.5757C116.904 26.7312 116.712 26.6949 116.562 26.6638C115.956 26.5395 115.345 26.3892 114.733 26.27C114.488 26.1864 114.228 26.1616 113.971 26.1975C114.185 26.538 114.457 26.838 114.775 27.0835C115.164 27.3952 115.513 27.7557 115.811 28.1561C115.88 28.2218 115.924 28.3099 115.934 28.4047C115.944 28.4996 115.921 28.595 115.868 28.6742C115.733 28.8504 115.562 28.7675 115.407 28.7209C114.666 28.5084 114.003 28.1095 113.293 27.8297C113.168 27.783 113.06 27.6638 112.889 27.7467C113.026 28.1044 113.224 28.4357 113.474 28.726C113.793 29.1102 114.064 29.5312 114.282 29.98C114.36 30.1509 114.464 30.3582 114.282 30.4981C114.101 30.638 113.904 30.5499 113.723 30.4515C113.132 30.1406 112.624 29.7002 112.07 29.3375C111.93 29.2494 111.79 29.1717 111.614 29.068C111.598 29.277 111.648 29.4858 111.759 29.6639C111.951 30.125 112.163 30.5758 112.36 31.0318C112.438 31.1956 112.49 31.3703 112.515 31.5499C112.515 31.6898 112.562 31.8505 112.417 31.9334C112.347 31.9669 112.269 31.9798 112.192 31.9706C112.115 31.9615 112.042 31.9306 111.982 31.8816C111.624 31.6325 111.292 31.3478 110.992 31.0318C110.702 30.7075 110.367 30.4266 109.997 30.1976C110.072 30.788 110.198 31.3706 110.376 31.9386C110.448 32.2235 110.521 32.5085 110.567 32.7935C110.567 32.923 110.645 33.0992 110.479 33.1769C110.402 33.2115 110.317 33.2235 110.234 33.2115C110.15 33.1996 110.072 33.1642 110.008 33.1096C109.89 33.0109 109.787 32.8958 109.702 32.7676C109.334 32.2494 108.982 31.7313 108.624 31.1821C108.595 31.1179 108.552 31.0604 108.5 31.0131C108.447 30.9659 108.385 30.93 108.318 30.9074C108.252 31.4235 108.252 31.9459 108.318 32.4619C108.35 32.8712 108.375 33.2806 108.37 33.6899C108.37 33.8091 108.479 34.0008 108.256 34.037C108.17 34.0676 108.076 34.0678 107.989 34.0377C107.902 34.0076 107.828 33.9489 107.78 33.8712C107.666 33.6433 107.552 33.4153 107.453 33.1821C107.261 32.7313 107.085 32.2805 106.904 31.8349C106.834 31.6392 106.721 31.462 106.572 31.3168C106.387 31.7938 106.268 32.2943 106.22 32.8039C106.153 33.1666 106.122 33.5396 106.054 33.9023C106.018 34.0992 105.987 34.3324 105.702 34.322C105.417 34.3117 105.401 34.1096 105.365 33.9231C105.236 33.2339 105.111 32.5396 104.976 31.8505C104.94 31.6691 104.945 31.379 104.764 31.3634C104.583 31.3479 104.531 31.6328 104.463 31.7987C104.235 32.3634 104.033 32.9438 103.816 33.5137C103.757 33.6417 103.692 33.7663 103.619 33.8868C103.58 33.9468 103.522 33.9922 103.455 34.0156C103.387 34.0391 103.314 34.0393 103.246 34.0163C103.09 33.9852 103.059 33.8505 103.059 33.721C103.059 33.3116 103.059 32.9023 103.059 32.493C103.059 32.0836 103.018 31.6432 102.987 31.2235C102.989 31.1931 102.984 31.1626 102.973 31.134C102.963 31.1054 102.946 31.0794 102.925 31.0577C102.836 30.9955 102.79 31.094 102.743 31.1458C102.489 31.4683 102.266 31.8134 102.075 32.1769C101.901 32.4894 101.7 32.7859 101.474 33.0629C101.416 33.1337 101.337 33.1847 101.249 33.2089C101.161 33.233 101.067 33.2291 100.982 33.1976C100.764 33.1303 100.795 32.9282 100.821 32.7779C100.95 32.0733 101.096 31.3738 101.235 30.6743C101.235 30.5603 101.323 30.41 101.235 30.3478C101.147 30.2857 101.013 30.4307 100.935 30.5137C100.526 30.9385 100.132 31.3738 99.7328 31.8142C99.5538 32.0122 99.35 32.1864 99.1266 32.3323C99.0673 32.3713 98.998 32.3921 98.9271 32.3921C98.8562 32.3921 98.7868 32.3713 98.7276 32.3323C98.567 32.2391 98.6188 32.0992 98.6499 31.9593C98.8585 31.3172 99.1077 30.6889 99.396 30.0784C99.5225 29.8126 99.6164 29.5325 99.6758 29.2442ZM110.997 19.3061C110.998 18.716 110.868 18.133 110.615 17.5997C110.362 17.0663 109.994 16.5961 109.536 16.2232C109.311 16.0162 109.039 15.8676 108.743 15.7907C108.447 15.7137 108.137 15.7106 107.839 15.7818C107.542 15.8529 107.266 15.9961 107.037 16.1986C106.808 16.4012 106.633 16.657 106.526 16.9434C106.213 17.7667 106.205 18.6748 106.503 19.5035C106.802 20.3322 107.387 21.0267 108.153 21.4616C108.56 21.6906 109.041 21.7532 109.494 21.6364C109.947 21.5196 110.337 21.2323 110.583 20.8347C110.879 20.382 111.025 19.8467 110.997 19.3061ZM104.666 19.9227C104.676 18.9562 104.303 18.0248 103.629 17.332C103.415 17.0937 103.144 16.9131 102.842 16.8067C102.54 16.7004 102.216 16.6717 101.9 16.7232C101.583 16.7748 101.285 16.9051 101.032 17.102C100.78 17.2989 100.58 17.5562 100.453 17.8502C100.15 18.5443 100.046 19.3093 100.154 20.0591C100.262 20.8088 100.577 21.5135 101.064 22.0938C101.272 22.3363 101.537 22.5238 101.834 22.6398C102.132 22.7558 102.453 22.7967 102.77 22.7588C103.088 22.7208 103.391 22.6053 103.652 22.4225C103.914 22.2396 104.127 21.995 104.272 21.7103C104.568 21.163 104.704 20.5437 104.666 19.9227Z" fill="white"/>
<path d="M106.676 18.0474C106.649 17.8173 106.698 17.5847 106.814 17.3847C106.931 17.1846 107.11 17.0281 107.324 16.9385C107.532 16.8655 107.758 16.863 107.968 16.9313C108.178 16.9997 108.359 17.1351 108.484 17.3168C108.643 17.4772 108.755 17.6774 108.809 17.8964C108.863 18.1153 108.856 18.3448 108.79 18.5603C108.666 18.9593 108.469 19.2909 108.008 19.3583C107.793 19.392 107.573 19.3607 107.376 19.2683C107.18 19.176 107.015 19.0268 106.904 18.8401C106.741 18.6092 106.66 18.3298 106.676 18.0474Z" fill="white"/>
<path d="M103.925 19.2129C103.943 19.357 103.931 19.5032 103.891 19.6428C103.851 19.7824 103.784 19.9124 103.692 20.0252C103.601 20.1379 103.487 20.2311 103.359 20.2989C103.231 20.3668 103.09 20.4081 102.945 20.4202C102.637 20.3974 102.347 20.2646 102.128 20.0458C101.909 19.8271 101.776 19.537 101.754 19.2285C101.725 19.0839 101.725 18.9349 101.756 18.7905C101.786 18.6462 101.845 18.5096 101.93 18.3889C102.015 18.2682 102.123 18.1661 102.249 18.0886C102.374 18.0111 102.514 17.96 102.66 17.9383C102.811 17.9188 102.965 17.9307 103.111 17.9731C103.257 18.0155 103.393 18.0875 103.51 18.1848C103.627 18.282 103.723 18.4023 103.792 18.5382C103.86 18.674 103.9 18.8226 103.909 18.9746C103.925 19.0523 103.919 19.1715 103.925 19.2129Z" fill="white"/>
</g>
</svg>
