<svg width="389" height="389" viewBox="0 0 389 389" fill="none" xmlns="http://www.w3.org/2000/svg">
<mask id="mask0" mask-type="alpha" maskUnits="userSpaceOnUse" x="0" y="-1" width="389" height="390">
<g opacity="0.8">
<rect x="388.512" y="388.511" width="2.14056" height="2.14056" transform="rotate(-180 388.512 388.511)" fill="white"/>
<rect x="368.176" y="388.511" width="2.14056" height="2.14056" transform="rotate(-180 368.176 388.511)" fill="white"/>
<rect x="347.841" y="388.511" width="2.14056" height="2.14056" transform="rotate(-180 347.841 388.511)" fill="white"/>
<rect x="327.505" y="388.511" width="2.14056" height="2.14056" transform="rotate(-180 327.505 388.511)" fill="white"/>
<rect x="307.17" y="388.511" width="2.14056" height="2.14056" transform="rotate(-180 307.17 388.511)" fill="white"/>
<rect x="286.835" y="388.511" width="2.14056" height="2.14056" transform="rotate(-180 286.835 388.511)" fill="white"/>
<rect x="266.499" y="388.511" width="2.14056" height="2.14056" transform="rotate(-180 266.499 388.511)" fill="white"/>
<rect x="246.164" y="388.511" width="2.14056" height="2.14056" transform="rotate(-180 246.164 388.511)" fill="white"/>
<rect x="225.829" y="388.511" width="2.14056" height="2.14056" transform="rotate(-180 225.829 388.511)" fill="white"/>
<rect x="205.494" y="388.511" width="2.14056" height="2.14056" transform="rotate(-180 205.494 388.511)" fill="white"/>
<rect x="185.158" y="388.511" width="2.14056" height="2.14056" transform="rotate(-180 185.158 388.511)" fill="white"/>
<rect x="164.823" y="388.511" width="2.14056" height="2.14056" transform="rotate(-180 164.823 388.511)" fill="white"/>
<rect x="144.488" y="388.511" width="2.14056" height="2.14056" transform="rotate(-180 144.488 388.511)" fill="white"/>
<rect x="124.153" y="388.511" width="2.14056" height="2.14056" transform="rotate(-180 124.153 388.511)" fill="white"/>
<rect x="103.817" y="388.511" width="2.14056" height="2.14056" transform="rotate(-180 103.817 388.511)" fill="white"/>
<rect x="388.511" y="368.176" width="2.14056" height="2.14056" transform="rotate(-180 388.511 368.176)" fill="white"/>
<rect x="368.176" y="368.176" width="2.14056" height="2.14056" transform="rotate(-180 368.176 368.176)" fill="white"/>
<rect x="347.841" y="368.176" width="2.14056" height="2.14056" transform="rotate(-180 347.841 368.176)" fill="white"/>
<rect x="327.505" y="368.176" width="2.14056" height="2.14056" transform="rotate(-180 327.505 368.176)" fill="white"/>
<rect x="307.17" y="368.176" width="2.14056" height="2.14056" transform="rotate(-180 307.17 368.176)" fill="white"/>
<rect x="286.835" y="368.176" width="2.14056" height="2.14056" transform="rotate(-180 286.835 368.176)" fill="white"/>
<rect x="266.499" y="368.176" width="2.14056" height="2.14056" transform="rotate(-180 266.499 368.176)" fill="white"/>
<rect x="246.164" y="368.176" width="2.14056" height="2.14056" transform="rotate(-180 246.164 368.176)" fill="white"/>
<rect x="225.829" y="368.176" width="2.14056" height="2.14056" transform="rotate(-180 225.829 368.176)" fill="white"/>
<rect x="205.494" y="368.176" width="2.14056" height="2.14056" transform="rotate(-180 205.494 368.176)" fill="white"/>
<rect x="185.158" y="368.176" width="2.14056" height="2.14056" transform="rotate(-180 185.158 368.176)" fill="white"/>
<rect x="164.823" y="368.176" width="2.14056" height="2.14056" transform="rotate(-180 164.823 368.176)" fill="white"/>
<rect x="144.488" y="368.176" width="2.14056" height="2.14056" transform="rotate(-180 144.488 368.176)" fill="white"/>
<rect x="124.153" y="368.176" width="2.14056" height="2.14056" transform="rotate(-180 124.153 368.176)" fill="white"/>
<rect x="103.817" y="368.176" width="2.14056" height="2.14056" transform="rotate(-180 103.817 368.176)" fill="white"/>
<rect x="388.511" y="347.841" width="2.14056" height="2.14056" transform="rotate(-180 388.511 347.841)" fill="white"/>
<rect x="368.176" y="347.841" width="2.14056" height="2.14056" transform="rotate(-180 368.176 347.841)" fill="white"/>
<rect x="347.841" y="347.841" width="2.14056" height="2.14056" transform="rotate(-180 347.841 347.841)" fill="white"/>
<rect x="327.505" y="347.841" width="2.14056" height="2.14056" transform="rotate(-180 327.505 347.841)" fill="white"/>
<rect x="307.17" y="347.841" width="2.14056" height="2.14056" transform="rotate(-180 307.17 347.841)" fill="white"/>
<rect x="286.835" y="347.841" width="2.14056" height="2.14056" transform="rotate(-180 286.835 347.841)" fill="white"/>
<rect x="266.499" y="347.841" width="2.14056" height="2.14056" transform="rotate(-180 266.499 347.841)" fill="white"/>
<rect x="246.164" y="347.841" width="2.14056" height="2.14056" transform="rotate(-180 246.164 347.841)" fill="white"/>
<rect x="225.829" y="347.841" width="2.14056" height="2.14056" transform="rotate(-180 225.829 347.841)" fill="white"/>
<rect x="205.494" y="347.841" width="2.14056" height="2.14056" transform="rotate(-180 205.494 347.841)" fill="white"/>
<rect x="185.158" y="347.841" width="2.14056" height="2.14056" transform="rotate(-180 185.158 347.841)" fill="white"/>
<rect x="164.823" y="347.841" width="2.14056" height="2.14056" transform="rotate(-180 164.823 347.841)" fill="white"/>
<rect x="144.488" y="347.841" width="2.14056" height="2.14056" transform="rotate(-180 144.488 347.841)" fill="white"/>
<rect x="124.153" y="347.841" width="2.14056" height="2.14056" transform="rotate(-180 124.153 347.841)" fill="white"/>
<rect x="103.817" y="347.841" width="2.14056" height="2.14056" transform="rotate(-180 103.817 347.841)" fill="white"/>
<rect x="388.511" y="327.505" width="2.14056" height="2.14056" transform="rotate(-180 388.511 327.505)" fill="white"/>
<rect x="368.176" y="327.505" width="2.14056" height="2.14056" transform="rotate(-180 368.176 327.505)" fill="white"/>
<rect x="347.841" y="327.505" width="2.14056" height="2.14056" transform="rotate(-180 347.841 327.505)" fill="white"/>
<rect x="327.505" y="327.505" width="2.14056" height="2.14056" transform="rotate(-180 327.505 327.505)" fill="white"/>
<rect x="307.17" y="327.505" width="2.14056" height="2.14056" transform="rotate(-180 307.17 327.505)" fill="white"/>
<rect x="286.835" y="327.505" width="2.14056" height="2.14056" transform="rotate(-180 286.835 327.505)" fill="white"/>
<rect x="266.499" y="327.505" width="2.14056" height="2.14056" transform="rotate(-180 266.499 327.505)" fill="white"/>
<rect x="246.164" y="327.505" width="2.14056" height="2.14056" transform="rotate(-180 246.164 327.505)" fill="white"/>
<rect x="225.829" y="327.505" width="2.14056" height="2.14056" transform="rotate(-180 225.829 327.505)" fill="white"/>
<rect x="205.494" y="327.505" width="2.14056" height="2.14056" transform="rotate(-180 205.494 327.505)" fill="white"/>
<rect x="185.158" y="327.505" width="2.14056" height="2.14056" transform="rotate(-180 185.158 327.505)" fill="white"/>
<rect x="164.823" y="327.505" width="2.14056" height="2.14056" transform="rotate(-180 164.823 327.505)" fill="white"/>
<rect x="144.488" y="327.505" width="2.14056" height="2.14056" transform="rotate(-180 144.488 327.505)" fill="white"/>
<rect x="124.153" y="327.505" width="2.14056" height="2.14056" transform="rotate(-180 124.153 327.505)" fill="white"/>
<rect x="103.817" y="327.505" width="2.14056" height="2.14056" transform="rotate(-180 103.817 327.505)" fill="white"/>
<rect x="388.511" y="307.17" width="2.14056" height="2.14056" transform="rotate(-180 388.511 307.17)" fill="white"/>
<rect x="368.176" y="307.17" width="2.14056" height="2.14056" transform="rotate(-180 368.176 307.17)" fill="white"/>
<rect x="347.841" y="307.17" width="2.14056" height="2.14056" transform="rotate(-180 347.841 307.17)" fill="white"/>
<rect x="327.505" y="307.17" width="2.14056" height="2.14056" transform="rotate(-180 327.505 307.17)" fill="white"/>
<rect x="307.17" y="307.17" width="2.14056" height="2.14056" transform="rotate(-180 307.17 307.17)" fill="white"/>
<rect x="286.835" y="307.17" width="2.14056" height="2.14056" transform="rotate(-180 286.835 307.17)" fill="white"/>
<rect x="266.499" y="307.17" width="2.14056" height="2.14056" transform="rotate(-180 266.499 307.17)" fill="white"/>
<rect x="246.164" y="307.17" width="2.14056" height="2.14056" transform="rotate(-180 246.164 307.17)" fill="white"/>
<rect x="225.829" y="307.17" width="2.14056" height="2.14056" transform="rotate(-180 225.829 307.17)" fill="white"/>
<rect x="205.494" y="307.17" width="2.14056" height="2.14056" transform="rotate(-180 205.494 307.17)" fill="white"/>
<rect x="185.158" y="307.17" width="2.14056" height="2.14056" transform="rotate(-180 185.158 307.17)" fill="white"/>
<rect x="164.823" y="307.17" width="2.14056" height="2.14056" transform="rotate(-180 164.823 307.17)" fill="white"/>
<rect x="144.488" y="307.17" width="2.14056" height="2.14056" transform="rotate(-180 144.488 307.17)" fill="white"/>
<rect x="124.153" y="307.17" width="2.14056" height="2.14056" transform="rotate(-180 124.153 307.17)" fill="white"/>
<rect x="103.817" y="307.17" width="2.14056" height="2.14056" transform="rotate(-180 103.817 307.17)" fill="white"/>
<rect x="388.511" y="286.835" width="2.14056" height="2.14056" transform="rotate(-180 388.511 286.835)" fill="white"/>
<rect x="368.176" y="286.835" width="2.14056" height="2.14056" transform="rotate(-180 368.176 286.835)" fill="white"/>
<rect x="347.841" y="286.835" width="2.14056" height="2.14056" transform="rotate(-180 347.841 286.835)" fill="white"/>
<rect x="327.505" y="286.835" width="2.14056" height="2.14056" transform="rotate(-180 327.505 286.835)" fill="white"/>
<rect x="307.17" y="286.835" width="2.14056" height="2.14056" transform="rotate(-180 307.17 286.835)" fill="white"/>
<rect x="286.835" y="286.835" width="2.14056" height="2.14056" transform="rotate(-180 286.835 286.835)" fill="white"/>
<rect x="266.499" y="286.835" width="2.14056" height="2.14056" transform="rotate(-180 266.499 286.835)" fill="white"/>
<rect x="246.164" y="286.835" width="2.14056" height="2.14056" transform="rotate(-180 246.164 286.835)" fill="white"/>
<rect x="225.829" y="286.835" width="2.14056" height="2.14056" transform="rotate(-180 225.829 286.835)" fill="white"/>
<rect x="205.494" y="286.835" width="2.14056" height="2.14056" transform="rotate(-180 205.494 286.835)" fill="white"/>
<rect x="185.158" y="286.835" width="2.14056" height="2.14056" transform="rotate(-180 185.158 286.835)" fill="white"/>
<rect x="164.823" y="286.835" width="2.14056" height="2.14056" transform="rotate(-180 164.823 286.835)" fill="white"/>
<rect x="144.488" y="286.835" width="2.14056" height="2.14056" transform="rotate(-180 144.488 286.835)" fill="white"/>
<rect x="124.153" y="286.835" width="2.14056" height="2.14056" transform="rotate(-180 124.153 286.835)" fill="white"/>
<rect x="103.817" y="286.835" width="2.14056" height="2.14056" transform="rotate(-180 103.817 286.835)" fill="white"/>
<rect x="388.511" y="266.5" width="2.14056" height="2.14056" transform="rotate(-180 388.511 266.5)" fill="white"/>
<rect x="368.176" y="266.5" width="2.14056" height="2.14056" transform="rotate(-180 368.176 266.5)" fill="white"/>
<rect x="347.841" y="266.5" width="2.14056" height="2.14056" transform="rotate(-180 347.841 266.5)" fill="white"/>
<rect x="327.505" y="266.5" width="2.14056" height="2.14056" transform="rotate(-180 327.505 266.5)" fill="white"/>
<rect x="307.17" y="266.5" width="2.14056" height="2.14056" transform="rotate(-180 307.17 266.5)" fill="white"/>
<rect x="286.835" y="266.5" width="2.14056" height="2.14056" transform="rotate(-180 286.835 266.5)" fill="white"/>
<rect x="266.499" y="266.5" width="2.14056" height="2.14056" transform="rotate(-180 266.499 266.5)" fill="white"/>
<rect x="246.164" y="266.5" width="2.14056" height="2.14056" transform="rotate(-180 246.164 266.5)" fill="white"/>
<rect x="225.829" y="266.5" width="2.14056" height="2.14056" transform="rotate(-180 225.829 266.5)" fill="white"/>
<rect x="205.494" y="266.5" width="2.14056" height="2.14056" transform="rotate(-180 205.494 266.5)" fill="white"/>
<rect x="185.158" y="266.5" width="2.14056" height="2.14056" transform="rotate(-180 185.158 266.5)" fill="white"/>
<rect x="164.823" y="266.5" width="2.14056" height="2.14056" transform="rotate(-180 164.823 266.5)" fill="white"/>
<rect x="144.488" y="266.5" width="2.14056" height="2.14056" transform="rotate(-180 144.488 266.5)" fill="white"/>
<rect x="124.153" y="266.5" width="2.14056" height="2.14056" transform="rotate(-180 124.153 266.5)" fill="white"/>
<rect x="103.817" y="266.5" width="2.14056" height="2.14056" transform="rotate(-180 103.817 266.5)" fill="white"/>
<rect x="388.511" y="246.165" width="2.14056" height="2.14056" transform="rotate(-180 388.511 246.165)" fill="white"/>
<rect x="368.176" y="246.165" width="2.14056" height="2.14056" transform="rotate(-180 368.176 246.165)" fill="white"/>
<rect x="347.841" y="246.165" width="2.14056" height="2.14056" transform="rotate(-180 347.841 246.165)" fill="white"/>
<rect x="327.505" y="246.165" width="2.14056" height="2.14056" transform="rotate(-180 327.505 246.165)" fill="white"/>
<rect x="307.17" y="246.165" width="2.14056" height="2.14056" transform="rotate(-180 307.17 246.165)" fill="white"/>
<rect x="286.835" y="246.165" width="2.14056" height="2.14056" transform="rotate(-180 286.835 246.165)" fill="white"/>
<rect x="266.499" y="246.165" width="2.14056" height="2.14056" transform="rotate(-180 266.499 246.165)" fill="white"/>
<rect x="246.164" y="246.165" width="2.14056" height="2.14056" transform="rotate(-180 246.164 246.165)" fill="white"/>
<rect x="225.829" y="246.165" width="2.14056" height="2.14056" transform="rotate(-180 225.829 246.165)" fill="white"/>
<rect x="205.494" y="246.165" width="2.14056" height="2.14056" transform="rotate(-180 205.494 246.165)" fill="white"/>
<rect x="185.158" y="246.165" width="2.14056" height="2.14056" transform="rotate(-180 185.158 246.165)" fill="white"/>
<rect x="164.823" y="246.165" width="2.14056" height="2.14056" transform="rotate(-180 164.823 246.165)" fill="white"/>
<rect x="144.488" y="246.165" width="2.14056" height="2.14056" transform="rotate(-180 144.488 246.165)" fill="white"/>
<rect x="124.153" y="246.165" width="2.14056" height="2.14056" transform="rotate(-180 124.153 246.165)" fill="white"/>
<rect x="103.817" y="246.165" width="2.14056" height="2.14056" transform="rotate(-180 103.817 246.165)" fill="white"/>
<rect x="388.511" y="225.829" width="2.14056" height="2.14056" transform="rotate(-180 388.511 225.829)" fill="white"/>
<rect x="368.176" y="225.829" width="2.14056" height="2.14056" transform="rotate(-180 368.176 225.829)" fill="white"/>
<rect x="347.841" y="225.829" width="2.14056" height="2.14056" transform="rotate(-180 347.841 225.829)" fill="white"/>
<rect x="327.505" y="225.829" width="2.14056" height="2.14056" transform="rotate(-180 327.505 225.829)" fill="white"/>
<rect x="307.17" y="225.829" width="2.14056" height="2.14056" transform="rotate(-180 307.17 225.829)" fill="white"/>
<rect x="286.835" y="225.829" width="2.14056" height="2.14056" transform="rotate(-180 286.835 225.829)" fill="white"/>
<rect x="266.499" y="225.829" width="2.14056" height="2.14056" transform="rotate(-180 266.499 225.829)" fill="white"/>
<rect x="246.164" y="225.829" width="2.14056" height="2.14056" transform="rotate(-180 246.164 225.829)" fill="white"/>
<rect x="225.829" y="225.829" width="2.14056" height="2.14056" transform="rotate(-180 225.829 225.829)" fill="white"/>
<rect x="205.494" y="225.829" width="2.14056" height="2.14056" transform="rotate(-180 205.494 225.829)" fill="white"/>
<rect x="185.158" y="225.829" width="2.14056" height="2.14056" transform="rotate(-180 185.158 225.829)" fill="white"/>
<rect x="164.823" y="225.829" width="2.14056" height="2.14056" transform="rotate(-180 164.823 225.829)" fill="white"/>
<rect x="144.488" y="225.829" width="2.14056" height="2.14056" transform="rotate(-180 144.488 225.829)" fill="white"/>
<rect x="124.153" y="225.829" width="2.14056" height="2.14056" transform="rotate(-180 124.153 225.829)" fill="white"/>
<rect x="103.817" y="225.829" width="2.14056" height="2.14056" transform="rotate(-180 103.817 225.829)" fill="white"/>
<rect x="388.511" y="205.494" width="2.14056" height="2.14056" transform="rotate(-180 388.511 205.494)" fill="white"/>
<rect x="368.176" y="205.494" width="2.14056" height="2.14056" transform="rotate(-180 368.176 205.494)" fill="white"/>
<rect x="347.841" y="205.494" width="2.14056" height="2.14056" transform="rotate(-180 347.841 205.494)" fill="white"/>
<rect x="327.505" y="205.494" width="2.14056" height="2.14056" transform="rotate(-180 327.505 205.494)" fill="white"/>
<rect x="307.17" y="205.494" width="2.14056" height="2.14056" transform="rotate(-180 307.17 205.494)" fill="white"/>
<rect x="286.835" y="205.494" width="2.14056" height="2.14056" transform="rotate(-180 286.835 205.494)" fill="white"/>
<rect x="266.499" y="205.494" width="2.14056" height="2.14056" transform="rotate(-180 266.499 205.494)" fill="white"/>
<rect x="246.164" y="205.494" width="2.14056" height="2.14056" transform="rotate(-180 246.164 205.494)" fill="white"/>
<rect x="225.829" y="205.494" width="2.14056" height="2.14056" transform="rotate(-180 225.829 205.494)" fill="white"/>
<rect x="205.494" y="205.494" width="2.14056" height="2.14056" transform="rotate(-180 205.494 205.494)" fill="white"/>
<rect x="185.158" y="205.494" width="2.14056" height="2.14056" transform="rotate(-180 185.158 205.494)" fill="white"/>
<rect x="164.823" y="205.494" width="2.14056" height="2.14056" transform="rotate(-180 164.823 205.494)" fill="white"/>
<rect x="144.488" y="205.494" width="2.14056" height="2.14056" transform="rotate(-180 144.488 205.494)" fill="white"/>
<rect x="124.153" y="205.494" width="2.14056" height="2.14056" transform="rotate(-180 124.153 205.494)" fill="white"/>
<rect x="103.817" y="205.494" width="2.14056" height="2.14056" transform="rotate(-180 103.817 205.494)" fill="white"/>
<rect x="388.511" y="185.158" width="2.14056" height="2.14056" transform="rotate(-180 388.511 185.158)" fill="white"/>
<rect x="368.176" y="185.158" width="2.14056" height="2.14056" transform="rotate(-180 368.176 185.158)" fill="white"/>
<rect x="347.841" y="185.158" width="2.14056" height="2.14056" transform="rotate(-180 347.841 185.158)" fill="white"/>
<rect x="327.505" y="185.158" width="2.14056" height="2.14056" transform="rotate(-180 327.505 185.158)" fill="white"/>
<rect x="307.17" y="185.158" width="2.14056" height="2.14056" transform="rotate(-180 307.17 185.158)" fill="white"/>
<rect x="286.835" y="185.158" width="2.14056" height="2.14056" transform="rotate(-180 286.835 185.158)" fill="white"/>
<rect x="266.499" y="185.158" width="2.14056" height="2.14056" transform="rotate(-180 266.499 185.158)" fill="white"/>
<rect x="246.164" y="185.158" width="2.14056" height="2.14056" transform="rotate(-180 246.164 185.158)" fill="white"/>
<rect x="225.829" y="185.158" width="2.14056" height="2.14056" transform="rotate(-180 225.829 185.158)" fill="white"/>
<rect x="205.494" y="185.158" width="2.14056" height="2.14056" transform="rotate(-180 205.494 185.158)" fill="white"/>
<rect x="185.158" y="185.158" width="2.14056" height="2.14056" transform="rotate(-180 185.158 185.158)" fill="white"/>
<rect x="164.823" y="185.158" width="2.14056" height="2.14056" transform="rotate(-180 164.823 185.158)" fill="white"/>
<rect x="144.488" y="185.158" width="2.14056" height="2.14056" transform="rotate(-180 144.488 185.158)" fill="white"/>
<rect x="124.153" y="185.158" width="2.14056" height="2.14056" transform="rotate(-180 124.153 185.158)" fill="white"/>
<rect x="103.817" y="185.158" width="2.14056" height="2.14056" transform="rotate(-180 103.817 185.158)" fill="white"/>
<rect x="388.511" y="164.823" width="2.14056" height="2.14056" transform="rotate(-180 388.511 164.823)" fill="white"/>
<rect x="368.176" y="164.823" width="2.14056" height="2.14056" transform="rotate(-180 368.176 164.823)" fill="white"/>
<rect x="347.841" y="164.823" width="2.14056" height="2.14056" transform="rotate(-180 347.841 164.823)" fill="white"/>
<rect x="327.505" y="164.823" width="2.14056" height="2.14056" transform="rotate(-180 327.505 164.823)" fill="white"/>
<rect x="307.17" y="164.823" width="2.14056" height="2.14056" transform="rotate(-180 307.17 164.823)" fill="white"/>
<rect x="286.835" y="164.823" width="2.14056" height="2.14056" transform="rotate(-180 286.835 164.823)" fill="white"/>
<rect x="266.499" y="164.823" width="2.14056" height="2.14056" transform="rotate(-180 266.499 164.823)" fill="white"/>
<rect x="246.164" y="164.823" width="2.14056" height="2.14056" transform="rotate(-180 246.164 164.823)" fill="white"/>
<rect x="225.829" y="164.823" width="2.14056" height="2.14056" transform="rotate(-180 225.829 164.823)" fill="white"/>
<rect x="205.494" y="164.823" width="2.14056" height="2.14056" transform="rotate(-180 205.494 164.823)" fill="white"/>
<rect x="185.158" y="164.823" width="2.14056" height="2.14056" transform="rotate(-180 185.158 164.823)" fill="white"/>
<rect x="164.823" y="164.823" width="2.14056" height="2.14056" transform="rotate(-180 164.823 164.823)" fill="white"/>
<rect x="144.488" y="164.823" width="2.14056" height="2.14056" transform="rotate(-180 144.488 164.823)" fill="white"/>
<rect x="124.153" y="164.823" width="2.14056" height="2.14056" transform="rotate(-180 124.153 164.823)" fill="white"/>
<rect x="103.817" y="164.823" width="2.14056" height="2.14056" transform="rotate(-180 103.817 164.823)" fill="white"/>
<rect x="388.511" y="144.488" width="2.14056" height="2.14056" transform="rotate(-180 388.511 144.488)" fill="white"/>
<rect x="368.176" y="144.488" width="2.14056" height="2.14056" transform="rotate(-180 368.176 144.488)" fill="white"/>
<rect x="347.841" y="144.488" width="2.14056" height="2.14056" transform="rotate(-180 347.841 144.488)" fill="white"/>
<rect x="327.505" y="144.488" width="2.14056" height="2.14056" transform="rotate(-180 327.505 144.488)" fill="white"/>
<rect x="307.17" y="144.488" width="2.14056" height="2.14056" transform="rotate(-180 307.17 144.488)" fill="white"/>
<rect x="286.835" y="144.488" width="2.14056" height="2.14056" transform="rotate(-180 286.835 144.488)" fill="white"/>
<rect x="266.499" y="144.488" width="2.14056" height="2.14056" transform="rotate(-180 266.499 144.488)" fill="white"/>
<rect x="246.164" y="144.488" width="2.14056" height="2.14056" transform="rotate(-180 246.164 144.488)" fill="white"/>
<rect x="225.829" y="144.488" width="2.14056" height="2.14056" transform="rotate(-180 225.829 144.488)" fill="white"/>
<rect x="205.494" y="144.488" width="2.14056" height="2.14056" transform="rotate(-180 205.494 144.488)" fill="white"/>
<rect x="185.158" y="144.488" width="2.14056" height="2.14056" transform="rotate(-180 185.158 144.488)" fill="white"/>
<rect x="164.823" y="144.488" width="2.14056" height="2.14056" transform="rotate(-180 164.823 144.488)" fill="white"/>
<rect x="144.488" y="144.488" width="2.14056" height="2.14056" transform="rotate(-180 144.488 144.488)" fill="white"/>
<rect x="124.153" y="144.488" width="2.14056" height="2.14056" transform="rotate(-180 124.153 144.488)" fill="white"/>
<rect x="103.817" y="144.488" width="2.14056" height="2.14056" transform="rotate(-180 103.817 144.488)" fill="white"/>
<rect x="388.511" y="124.152" width="2.14056" height="2.14056" transform="rotate(-180 388.511 124.152)" fill="white"/>
<rect x="368.176" y="124.152" width="2.14056" height="2.14056" transform="rotate(-180 368.176 124.152)" fill="white"/>
<rect x="347.841" y="124.152" width="2.14056" height="2.14056" transform="rotate(-180 347.841 124.152)" fill="white"/>
<rect x="327.505" y="124.152" width="2.14056" height="2.14056" transform="rotate(-180 327.505 124.152)" fill="white"/>
<rect x="307.17" y="124.152" width="2.14056" height="2.14056" transform="rotate(-180 307.17 124.152)" fill="white"/>
<rect x="286.835" y="124.152" width="2.14056" height="2.14056" transform="rotate(-180 286.835 124.152)" fill="white"/>
<rect x="266.499" y="124.152" width="2.14056" height="2.14056" transform="rotate(-180 266.499 124.152)" fill="white"/>
<rect x="246.164" y="124.152" width="2.14056" height="2.14056" transform="rotate(-180 246.164 124.152)" fill="white"/>
<rect x="225.829" y="124.152" width="2.14056" height="2.14056" transform="rotate(-180 225.829 124.152)" fill="white"/>
<rect x="205.494" y="124.152" width="2.14056" height="2.14056" transform="rotate(-180 205.494 124.152)" fill="white"/>
<rect x="185.158" y="124.152" width="2.14056" height="2.14056" transform="rotate(-180 185.158 124.152)" fill="white"/>
<rect x="164.823" y="124.152" width="2.14056" height="2.14056" transform="rotate(-180 164.823 124.152)" fill="white"/>
<rect x="144.488" y="124.152" width="2.14056" height="2.14056" transform="rotate(-180 144.488 124.152)" fill="white"/>
<rect x="124.153" y="124.152" width="2.14056" height="2.14056" transform="rotate(-180 124.153 124.152)" fill="white"/>
<rect x="103.817" y="124.152" width="2.14056" height="2.14056" transform="rotate(-180 103.817 124.152)" fill="white"/>
<rect x="388.511" y="103.817" width="2.14056" height="2.14056" transform="rotate(-180 388.511 103.817)" fill="white"/>
<rect x="368.176" y="103.817" width="2.14056" height="2.14056" transform="rotate(-180 368.176 103.817)" fill="white"/>
<rect x="347.841" y="103.817" width="2.14056" height="2.14056" transform="rotate(-180 347.841 103.817)" fill="white"/>
<rect x="327.505" y="103.817" width="2.14056" height="2.14056" transform="rotate(-180 327.505 103.817)" fill="white"/>
<rect x="307.17" y="103.817" width="2.14056" height="2.14056" transform="rotate(-180 307.17 103.817)" fill="white"/>
<rect x="286.835" y="103.817" width="2.14056" height="2.14056" transform="rotate(-180 286.835 103.817)" fill="white"/>
<rect x="266.499" y="103.817" width="2.14056" height="2.14056" transform="rotate(-180 266.499 103.817)" fill="white"/>
<rect x="246.164" y="103.817" width="2.14056" height="2.14056" transform="rotate(-180 246.164 103.817)" fill="white"/>
<rect x="225.829" y="103.817" width="2.14056" height="2.14056" transform="rotate(-180 225.829 103.817)" fill="white"/>
<rect x="205.494" y="103.817" width="2.14056" height="2.14056" transform="rotate(-180 205.494 103.817)" fill="white"/>
<rect x="185.158" y="103.817" width="2.14056" height="2.14056" transform="rotate(-180 185.158 103.817)" fill="white"/>
<rect x="164.823" y="103.817" width="2.14056" height="2.14056" transform="rotate(-180 164.823 103.817)" fill="white"/>
<rect x="144.488" y="103.817" width="2.14056" height="2.14056" transform="rotate(-180 144.488 103.817)" fill="white"/>
<rect x="124.153" y="103.817" width="2.14056" height="2.14056" transform="rotate(-180 124.153 103.817)" fill="white"/>
<rect x="103.817" y="103.817" width="2.14056" height="2.14056" transform="rotate(-180 103.817 103.817)" fill="white"/>
<rect x="388.511" y="83.4817" width="2.14056" height="2.14056" transform="rotate(-180 388.511 83.4817)" fill="white"/>
<rect x="368.176" y="83.4817" width="2.14056" height="2.14056" transform="rotate(-180 368.176 83.4817)" fill="white"/>
<rect x="347.841" y="83.4817" width="2.14056" height="2.14056" transform="rotate(-180 347.841 83.4817)" fill="white"/>
<rect x="327.505" y="83.4817" width="2.14056" height="2.14056" transform="rotate(-180 327.505 83.4817)" fill="white"/>
<rect x="307.17" y="83.4817" width="2.14056" height="2.14056" transform="rotate(-180 307.17 83.4817)" fill="white"/>
<rect x="286.835" y="83.4817" width="2.14056" height="2.14056" transform="rotate(-180 286.835 83.4817)" fill="white"/>
<rect x="266.499" y="83.4817" width="2.14056" height="2.14056" transform="rotate(-180 266.499 83.4817)" fill="white"/>
<rect x="246.164" y="83.4817" width="2.14056" height="2.14056" transform="rotate(-180 246.164 83.4817)" fill="white"/>
<rect x="225.829" y="83.4817" width="2.14056" height="2.14056" transform="rotate(-180 225.829 83.4817)" fill="white"/>
<rect x="205.494" y="83.4817" width="2.14056" height="2.14056" transform="rotate(-180 205.494 83.4817)" fill="white"/>
<rect x="185.158" y="83.4817" width="2.14056" height="2.14056" transform="rotate(-180 185.158 83.4817)" fill="white"/>
<rect x="164.823" y="83.4817" width="2.14056" height="2.14056" transform="rotate(-180 164.823 83.4817)" fill="white"/>
<rect x="144.488" y="83.4817" width="2.14056" height="2.14056" transform="rotate(-180 144.488 83.4817)" fill="white"/>
<rect x="124.153" y="83.4817" width="2.14056" height="2.14056" transform="rotate(-180 124.153 83.4817)" fill="white"/>
<rect x="103.817" y="83.4817" width="2.14056" height="2.14056" transform="rotate(-180 103.817 83.4817)" fill="white"/>
<rect x="388.511" y="63.1465" width="2.14056" height="2.14056" transform="rotate(-180 388.511 63.1465)" fill="white"/>
<rect x="368.176" y="63.1465" width="2.14056" height="2.14056" transform="rotate(-180 368.176 63.1465)" fill="white"/>
<rect x="347.841" y="63.1465" width="2.14056" height="2.14056" transform="rotate(-180 347.841 63.1465)" fill="white"/>
<rect x="327.505" y="63.1465" width="2.14056" height="2.14056" transform="rotate(-180 327.505 63.1465)" fill="white"/>
<rect x="307.17" y="63.1465" width="2.14056" height="2.14056" transform="rotate(-180 307.17 63.1465)" fill="white"/>
<rect x="286.835" y="63.1465" width="2.14056" height="2.14056" transform="rotate(-180 286.835 63.1465)" fill="white"/>
<rect x="266.499" y="63.1465" width="2.14056" height="2.14056" transform="rotate(-180 266.499 63.1465)" fill="white"/>
<rect x="246.164" y="63.1465" width="2.14056" height="2.14056" transform="rotate(-180 246.164 63.1465)" fill="white"/>
<rect x="225.829" y="63.1465" width="2.14056" height="2.14056" transform="rotate(-180 225.829 63.1465)" fill="white"/>
<rect x="205.494" y="63.1465" width="2.14056" height="2.14056" transform="rotate(-180 205.494 63.1465)" fill="white"/>
<rect x="185.158" y="63.1465" width="2.14056" height="2.14056" transform="rotate(-180 185.158 63.1465)" fill="white"/>
<rect x="164.823" y="63.1465" width="2.14056" height="2.14056" transform="rotate(-180 164.823 63.1465)" fill="white"/>
<rect x="144.488" y="63.1465" width="2.14056" height="2.14056" transform="rotate(-180 144.488 63.1465)" fill="white"/>
<rect x="124.153" y="63.1465" width="2.14056" height="2.14056" transform="rotate(-180 124.153 63.1465)" fill="white"/>
<rect x="103.817" y="63.1465" width="2.14056" height="2.14056" transform="rotate(-180 103.817 63.1465)" fill="white"/>
<rect x="388.511" y="42.811" width="2.14056" height="2.14056" transform="rotate(-180 388.511 42.811)" fill="white"/>
<rect x="368.176" y="42.811" width="2.14056" height="2.14056" transform="rotate(-180 368.176 42.811)" fill="white"/>
<rect x="347.841" y="42.811" width="2.14056" height="2.14056" transform="rotate(-180 347.841 42.811)" fill="white"/>
<rect x="327.505" y="42.811" width="2.14056" height="2.14056" transform="rotate(-180 327.505 42.811)" fill="white"/>
<rect x="307.17" y="42.811" width="2.14056" height="2.14056" transform="rotate(-180 307.17 42.811)" fill="white"/>
<rect x="286.835" y="42.811" width="2.14056" height="2.14056" transform="rotate(-180 286.835 42.811)" fill="white"/>
<rect x="266.499" y="42.811" width="2.14056" height="2.14056" transform="rotate(-180 266.499 42.811)" fill="white"/>
<rect x="246.164" y="42.811" width="2.14056" height="2.14056" transform="rotate(-180 246.164 42.811)" fill="white"/>
<rect x="225.829" y="42.811" width="2.14056" height="2.14056" transform="rotate(-180 225.829 42.811)" fill="white"/>
<rect x="205.494" y="42.811" width="2.14056" height="2.14056" transform="rotate(-180 205.494 42.811)" fill="white"/>
<rect x="185.158" y="42.811" width="2.14056" height="2.14056" transform="rotate(-180 185.158 42.811)" fill="white"/>
<rect x="164.823" y="42.811" width="2.14056" height="2.14056" transform="rotate(-180 164.823 42.811)" fill="white"/>
<rect x="144.488" y="42.811" width="2.14056" height="2.14056" transform="rotate(-180 144.488 42.811)" fill="white"/>
<rect x="124.153" y="42.811" width="2.14056" height="2.14056" transform="rotate(-180 124.153 42.811)" fill="white"/>
<rect x="103.817" y="42.811" width="2.14056" height="2.14056" transform="rotate(-180 103.817 42.811)" fill="white"/>
<rect x="388.511" y="22.4758" width="2.14056" height="2.14056" transform="rotate(-180 388.511 22.4758)" fill="white"/>
<rect x="368.176" y="22.4758" width="2.14056" height="2.14056" transform="rotate(-180 368.176 22.4758)" fill="white"/>
<rect x="347.841" y="22.4758" width="2.14056" height="2.14056" transform="rotate(-180 347.841 22.4758)" fill="white"/>
<rect x="327.505" y="22.4758" width="2.14056" height="2.14056" transform="rotate(-180 327.505 22.4758)" fill="white"/>
<rect x="307.17" y="22.4758" width="2.14056" height="2.14056" transform="rotate(-180 307.17 22.4758)" fill="white"/>
<rect x="286.835" y="22.4758" width="2.14056" height="2.14056" transform="rotate(-180 286.835 22.4758)" fill="white"/>
<rect x="266.499" y="22.4758" width="2.14056" height="2.14056" transform="rotate(-180 266.499 22.4758)" fill="white"/>
<rect x="246.164" y="22.4758" width="2.14056" height="2.14056" transform="rotate(-180 246.164 22.4758)" fill="white"/>
<rect x="225.829" y="22.4758" width="2.14056" height="2.14056" transform="rotate(-180 225.829 22.4758)" fill="white"/>
<rect x="205.494" y="22.4758" width="2.14056" height="2.14056" transform="rotate(-180 205.494 22.4758)" fill="white"/>
<rect x="185.158" y="22.4758" width="2.14056" height="2.14056" transform="rotate(-180 185.158 22.4758)" fill="white"/>
<rect x="164.823" y="22.4758" width="2.14056" height="2.14056" transform="rotate(-180 164.823 22.4758)" fill="white"/>
<rect x="144.488" y="22.4758" width="2.14056" height="2.14056" transform="rotate(-180 144.488 22.4758)" fill="white"/>
<rect x="124.153" y="22.4758" width="2.14056" height="2.14056" transform="rotate(-180 124.153 22.4758)" fill="white"/>
<rect x="103.817" y="22.4758" width="2.14056" height="2.14056" transform="rotate(-180 103.817 22.4758)" fill="white"/>
<rect x="388.511" y="2.14038" width="2.14056" height="2.14056" transform="rotate(-180 388.511 2.14038)" fill="white"/>
<rect x="368.176" y="2.14038" width="2.14056" height="2.14056" transform="rotate(-180 368.176 2.14038)" fill="white"/>
<rect x="347.841" y="2.14038" width="2.14056" height="2.14056" transform="rotate(-180 347.841 2.14038)" fill="white"/>
<rect x="327.505" y="2.14038" width="2.14056" height="2.14056" transform="rotate(-180 327.505 2.14038)" fill="white"/>
<rect x="307.17" y="2.14038" width="2.14056" height="2.14056" transform="rotate(-180 307.17 2.14038)" fill="white"/>
<rect x="286.835" y="2.14038" width="2.14056" height="2.14056" transform="rotate(-180 286.835 2.14038)" fill="white"/>
<rect x="266.499" y="2.14038" width="2.14056" height="2.14056" transform="rotate(-180 266.499 2.14038)" fill="white"/>
<rect x="246.164" y="2.14038" width="2.14056" height="2.14056" transform="rotate(-180 246.164 2.14038)" fill="white"/>
<rect x="225.829" y="2.14038" width="2.14056" height="2.14056" transform="rotate(-180 225.829 2.14038)" fill="white"/>
<rect x="205.494" y="2.14038" width="2.14056" height="2.14056" transform="rotate(-180 205.494 2.14038)" fill="white"/>
<rect x="185.158" y="2.14038" width="2.14056" height="2.14056" transform="rotate(-180 185.158 2.14038)" fill="white"/>
<rect x="164.823" y="2.14038" width="2.14056" height="2.14056" transform="rotate(-180 164.823 2.14038)" fill="white"/>
<rect x="144.488" y="2.14038" width="2.14056" height="2.14056" transform="rotate(-180 144.488 2.14038)" fill="white"/>
<rect x="124.153" y="2.14038" width="2.14056" height="2.14056" transform="rotate(-180 124.153 2.14038)" fill="white"/>
<rect x="103.817" y="2.14038" width="2.14056" height="2.14056" transform="rotate(-180 103.817 2.14038)" fill="white"/>
<rect x="83.4819" y="388.511" width="2.14056" height="2.14056" transform="rotate(-180 83.4819 388.511)" fill="white"/>
<rect x="63.1465" y="388.511" width="2.14056" height="2.14056" transform="rotate(-180 63.1465 388.511)" fill="white"/>
<rect x="42.811" y="388.511" width="2.14056" height="2.14056" transform="rotate(-180 42.811 388.511)" fill="white"/>
<rect x="22.4758" y="388.511" width="2.14056" height="2.14056" transform="rotate(-180 22.4758 388.511)" fill="white"/>
<rect x="2.14062" y="388.511" width="2.14056" height="2.14056" transform="rotate(-180 2.14062 388.511)" fill="white"/>
<rect x="83.4819" y="368.176" width="2.14056" height="2.14056" transform="rotate(-180 83.4819 368.176)" fill="white"/>
<rect x="63.1465" y="368.176" width="2.14056" height="2.14056" transform="rotate(-180 63.1465 368.176)" fill="white"/>
<rect x="42.811" y="368.176" width="2.14056" height="2.14056" transform="rotate(-180 42.811 368.176)" fill="white"/>
<rect x="22.4758" y="368.176" width="2.14056" height="2.14056" transform="rotate(-180 22.4758 368.176)" fill="white"/>
<rect x="2.14062" y="368.176" width="2.14056" height="2.14056" transform="rotate(-180 2.14062 368.176)" fill="white"/>
<rect x="83.4819" y="347.841" width="2.14056" height="2.14056" transform="rotate(-180 83.4819 347.841)" fill="white"/>
<rect x="63.1465" y="347.841" width="2.14056" height="2.14056" transform="rotate(-180 63.1465 347.841)" fill="white"/>
<rect x="42.811" y="347.841" width="2.14056" height="2.14056" transform="rotate(-180 42.811 347.841)" fill="white"/>
<rect x="22.4758" y="347.841" width="2.14056" height="2.14056" transform="rotate(-180 22.4758 347.841)" fill="white"/>
<rect x="2.14062" y="347.841" width="2.14056" height="2.14056" transform="rotate(-180 2.14062 347.841)" fill="white"/>
<rect x="83.4819" y="327.505" width="2.14056" height="2.14056" transform="rotate(-180 83.4819 327.505)" fill="white"/>
<rect x="63.1465" y="327.505" width="2.14056" height="2.14056" transform="rotate(-180 63.1465 327.505)" fill="white"/>
<rect x="42.811" y="327.505" width="2.14056" height="2.14056" transform="rotate(-180 42.811 327.505)" fill="white"/>
<rect x="22.4758" y="327.505" width="2.14056" height="2.14056" transform="rotate(-180 22.4758 327.505)" fill="white"/>
<rect x="2.14062" y="327.505" width="2.14056" height="2.14056" transform="rotate(-180 2.14062 327.505)" fill="white"/>
<rect x="83.4819" y="307.17" width="2.14056" height="2.14056" transform="rotate(-180 83.4819 307.17)" fill="white"/>
<rect x="63.1465" y="307.17" width="2.14056" height="2.14056" transform="rotate(-180 63.1465 307.17)" fill="white"/>
<rect x="42.811" y="307.17" width="2.14056" height="2.14056" transform="rotate(-180 42.811 307.17)" fill="white"/>
<rect x="22.4758" y="307.17" width="2.14056" height="2.14056" transform="rotate(-180 22.4758 307.17)" fill="white"/>
<rect x="2.14062" y="307.17" width="2.14056" height="2.14056" transform="rotate(-180 2.14062 307.17)" fill="white"/>
<rect x="83.4819" y="286.835" width="2.14056" height="2.14056" transform="rotate(-180 83.4819 286.835)" fill="white"/>
<rect x="63.1465" y="286.835" width="2.14056" height="2.14056" transform="rotate(-180 63.1465 286.835)" fill="white"/>
<rect x="42.811" y="286.835" width="2.14056" height="2.14056" transform="rotate(-180 42.811 286.835)" fill="white"/>
<rect x="22.4758" y="286.835" width="2.14056" height="2.14056" transform="rotate(-180 22.4758 286.835)" fill="white"/>
<rect x="2.14062" y="286.835" width="2.14056" height="2.14056" transform="rotate(-180 2.14062 286.835)" fill="white"/>
<rect x="83.4819" y="266.5" width="2.14056" height="2.14056" transform="rotate(-180 83.4819 266.5)" fill="white"/>
<rect x="63.1465" y="266.5" width="2.14056" height="2.14056" transform="rotate(-180 63.1465 266.5)" fill="white"/>
<rect x="42.811" y="266.5" width="2.14056" height="2.14056" transform="rotate(-180 42.811 266.5)" fill="white"/>
<rect x="22.4758" y="266.499" width="2.14056" height="2.14056" transform="rotate(-180 22.4758 266.499)" fill="white"/>
<rect x="2.14062" y="266.499" width="2.14056" height="2.14056" transform="rotate(-180 2.14062 266.499)" fill="white"/>
<rect x="83.4819" y="246.165" width="2.14056" height="2.14056" transform="rotate(-180 83.4819 246.165)" fill="white"/>
<rect x="63.1465" y="246.165" width="2.14056" height="2.14056" transform="rotate(-180 63.1465 246.165)" fill="white"/>
<rect x="42.811" y="246.165" width="2.14056" height="2.14056" transform="rotate(-180 42.811 246.165)" fill="white"/>
<rect x="22.4758" y="246.165" width="2.14056" height="2.14056" transform="rotate(-180 22.4758 246.165)" fill="white"/>
<rect x="2.14062" y="246.165" width="2.14056" height="2.14056" transform="rotate(-180 2.14062 246.165)" fill="white"/>
<rect x="83.4819" y="225.829" width="2.14056" height="2.14056" transform="rotate(-180 83.4819 225.829)" fill="white"/>
<rect x="63.1465" y="225.829" width="2.14056" height="2.14056" transform="rotate(-180 63.1465 225.829)" fill="white"/>
<rect x="42.811" y="225.829" width="2.14056" height="2.14056" transform="rotate(-180 42.811 225.829)" fill="white"/>
<rect x="22.4758" y="225.829" width="2.14056" height="2.14056" transform="rotate(-180 22.4758 225.829)" fill="white"/>
<rect x="2.14062" y="225.829" width="2.14056" height="2.14056" transform="rotate(-180 2.14062 225.829)" fill="white"/>
<rect x="83.4819" y="205.494" width="2.14056" height="2.14056" transform="rotate(-180 83.4819 205.494)" fill="white"/>
<rect x="63.1465" y="205.494" width="2.14056" height="2.14056" transform="rotate(-180 63.1465 205.494)" fill="white"/>
<rect x="42.811" y="205.494" width="2.14056" height="2.14056" transform="rotate(-180 42.811 205.494)" fill="white"/>
<rect x="22.4758" y="205.494" width="2.14056" height="2.14056" transform="rotate(-180 22.4758 205.494)" fill="white"/>
<rect x="2.14062" y="205.494" width="2.14056" height="2.14056" transform="rotate(-180 2.14062 205.494)" fill="white"/>
<rect x="83.4819" y="185.158" width="2.14056" height="2.14056" transform="rotate(-180 83.4819 185.158)" fill="white"/>
<rect x="63.1465" y="185.158" width="2.14056" height="2.14056" transform="rotate(-180 63.1465 185.158)" fill="white"/>
<rect x="42.811" y="185.158" width="2.14056" height="2.14056" transform="rotate(-180 42.811 185.158)" fill="white"/>
<rect x="22.4758" y="185.158" width="2.14056" height="2.14056" transform="rotate(-180 22.4758 185.158)" fill="white"/>
<rect x="2.14062" y="185.158" width="2.14056" height="2.14056" transform="rotate(-180 2.14062 185.158)" fill="white"/>
<rect x="83.4819" y="164.823" width="2.14056" height="2.14056" transform="rotate(-180 83.4819 164.823)" fill="white"/>
<rect x="63.1465" y="164.823" width="2.14056" height="2.14056" transform="rotate(-180 63.1465 164.823)" fill="white"/>
<rect x="42.811" y="164.823" width="2.14056" height="2.14056" transform="rotate(-180 42.811 164.823)" fill="white"/>
<rect x="22.4758" y="164.823" width="2.14056" height="2.14056" transform="rotate(-180 22.4758 164.823)" fill="white"/>
<rect x="2.14062" y="164.823" width="2.14056" height="2.14056" transform="rotate(-180 2.14062 164.823)" fill="white"/>
<rect x="83.4819" y="144.488" width="2.14056" height="2.14056" transform="rotate(-180 83.4819 144.488)" fill="white"/>
<rect x="63.1465" y="144.488" width="2.14056" height="2.14056" transform="rotate(-180 63.1465 144.488)" fill="white"/>
<rect x="42.811" y="144.488" width="2.14056" height="2.14056" transform="rotate(-180 42.811 144.488)" fill="white"/>
<rect x="22.4758" y="144.488" width="2.14056" height="2.14056" transform="rotate(-180 22.4758 144.488)" fill="white"/>
<rect x="2.14062" y="144.488" width="2.14056" height="2.14056" transform="rotate(-180 2.14062 144.488)" fill="white"/>
<rect x="83.4819" y="124.152" width="2.14056" height="2.14056" transform="rotate(-180 83.4819 124.152)" fill="white"/>
<rect x="63.1465" y="124.152" width="2.14056" height="2.14056" transform="rotate(-180 63.1465 124.152)" fill="white"/>
<rect x="42.811" y="124.152" width="2.14056" height="2.14056" transform="rotate(-180 42.811 124.152)" fill="white"/>
<rect x="22.4758" y="124.152" width="2.14056" height="2.14056" transform="rotate(-180 22.4758 124.152)" fill="white"/>
<rect x="2.14062" y="124.152" width="2.14056" height="2.14056" transform="rotate(-180 2.14062 124.152)" fill="white"/>
<rect x="83.4819" y="103.817" width="2.14056" height="2.14056" transform="rotate(-180 83.4819 103.817)" fill="white"/>
<rect x="63.1465" y="103.817" width="2.14056" height="2.14056" transform="rotate(-180 63.1465 103.817)" fill="white"/>
<rect x="42.811" y="103.817" width="2.14056" height="2.14056" transform="rotate(-180 42.811 103.817)" fill="white"/>
<rect x="22.4758" y="103.817" width="2.14056" height="2.14056" transform="rotate(-180 22.4758 103.817)" fill="white"/>
<rect x="2.14062" y="103.817" width="2.14056" height="2.14056" transform="rotate(-180 2.14062 103.817)" fill="white"/>
<rect x="83.4819" y="83.4817" width="2.14056" height="2.14056" transform="rotate(-180 83.4819 83.4817)" fill="white"/>
<rect x="63.1465" y="83.4817" width="2.14056" height="2.14056" transform="rotate(-180 63.1465 83.4817)" fill="white"/>
<rect x="42.811" y="83.4817" width="2.14056" height="2.14056" transform="rotate(-180 42.811 83.4817)" fill="white"/>
<rect x="22.4758" y="83.4817" width="2.14056" height="2.14056" transform="rotate(-180 22.4758 83.4817)" fill="white"/>
<rect x="2.14062" y="83.4817" width="2.14056" height="2.14056" transform="rotate(-180 2.14062 83.4817)" fill="white"/>
<rect x="83.4819" y="63.1465" width="2.14056" height="2.14056" transform="rotate(-180 83.4819 63.1465)" fill="white"/>
<rect x="63.1465" y="63.1465" width="2.14056" height="2.14056" transform="rotate(-180 63.1465 63.1465)" fill="white"/>
<rect x="42.811" y="63.1465" width="2.14056" height="2.14056" transform="rotate(-180 42.811 63.1465)" fill="white"/>
<rect x="22.4758" y="63.1465" width="2.14056" height="2.14056" transform="rotate(-180 22.4758 63.1465)" fill="white"/>
<rect x="2.14062" y="63.1465" width="2.14056" height="2.14056" transform="rotate(-180 2.14062 63.1465)" fill="white"/>
<rect x="83.4819" y="42.811" width="2.14056" height="2.14056" transform="rotate(-180 83.4819 42.811)" fill="white"/>
<rect x="63.1465" y="42.811" width="2.14056" height="2.14056" transform="rotate(-180 63.1465 42.811)" fill="white"/>
<rect x="42.811" y="42.811" width="2.14056" height="2.14056" transform="rotate(-180 42.811 42.811)" fill="white"/>
<rect x="22.4758" y="42.811" width="2.14056" height="2.14056" transform="rotate(-180 22.4758 42.811)" fill="white"/>
<rect x="2.14062" y="42.811" width="2.14056" height="2.14056" transform="rotate(-180 2.14062 42.811)" fill="white"/>
<rect x="83.4819" y="22.4758" width="2.14056" height="2.14056" transform="rotate(-180 83.4819 22.4758)" fill="white"/>
<rect x="63.1467" y="22.4758" width="2.14056" height="2.14056" transform="rotate(-180 63.1467 22.4758)" fill="white"/>
<rect x="42.811" y="22.4758" width="2.14056" height="2.14056" transform="rotate(-180 42.811 22.4758)" fill="white"/>
<rect x="22.4758" y="22.4758" width="2.14056" height="2.14056" transform="rotate(-180 22.4758 22.4758)" fill="white"/>
<rect x="2.14062" y="22.4758" width="2.14056" height="2.14056" transform="rotate(-180 2.14062 22.4758)" fill="white"/>
<rect x="83.4819" y="2.14038" width="2.14056" height="2.14056" transform="rotate(-180 83.4819 2.14038)" fill="white"/>
<rect x="63.1467" y="2.14038" width="2.14056" height="2.14056" transform="rotate(-180 63.1467 2.14038)" fill="white"/>
<rect x="42.811" y="2.14038" width="2.14056" height="2.14056" transform="rotate(-180 42.811 2.14038)" fill="white"/>
<rect x="22.4758" y="2.14038" width="2.14056" height="2.14056" transform="rotate(-180 22.4758 2.14038)" fill="white"/>
<rect x="2.14062" y="2.14038" width="2.14056" height="2.14056" transform="rotate(-180 2.14062 2.14038)" fill="white"/>
</g>
</mask>
<g mask="url(#mask0)">
<rect x="314.512" y="354" width="209" height="159" transform="rotate(-180 314.512 354)" fill="#C4C4C4"/>
</g>
</svg>
