<svg width="293" height="293" viewBox="0 0 293 293" fill="none" xmlns="http://www.w3.org/2000/svg">
<g opacity="0.5">
<mask id="mask0" mask-type="alpha" maskUnits="userSpaceOnUse" x="0" y="0" width="293" height="293">
<circle cx="146.5" cy="146.5" r="146.5" fill="#FF7B7B"/>
</mask>
<g mask="url(#mask0)">
<rect x="14.521" y="11.6235" width="2.54804" height="2.54804" fill="#6C6C6C"/>
<rect x="38.7272" y="11.6235" width="2.54804" height="2.54804" fill="#6C6C6C"/>
<rect x="62.9338" y="11.6235" width="2.54804" height="2.54804" fill="#6C6C6C"/>
<rect x="87.1404" y="11.6235" width="2.54804" height="2.54804" fill="#6C6C6C"/>
<rect x="111.347" y="11.6235" width="2.54804" height="2.54804" fill="#6C6C6C"/>
<rect x="135.553" y="11.6235" width="2.54804" height="2.54804" fill="#6C6C6C"/>
<rect x="159.759" y="11.6235" width="2.54804" height="2.54804" fill="#6C6C6C"/>
<rect x="183.966" y="11.6235" width="2.54804" height="2.54804" fill="#6C6C6C"/>
<rect x="208.172" y="11.6235" width="2.54804" height="2.54804" fill="#6C6C6C"/>
<rect x="232.378" y="11.6235" width="2.54804" height="2.54804" fill="#6C6C6C"/>
<rect x="256.585" y="11.6235" width="2.54804" height="2.54804" fill="#6C6C6C"/>
<rect x="280.791" y="11.6235" width="2.54804" height="2.54804" fill="#6C6C6C"/>
<rect x="14.521" y="35.8298" width="2.54804" height="2.54804" fill="#6C6C6C"/>
<rect x="38.7272" y="35.8298" width="2.54804" height="2.54804" fill="#6C6C6C"/>
<rect x="62.9338" y="35.8298" width="2.54804" height="2.54804" fill="#6C6C6C"/>
<rect x="87.1404" y="35.8298" width="2.54804" height="2.54804" fill="#6C6C6C"/>
<rect x="111.347" y="35.8298" width="2.54804" height="2.54804" fill="#6C6C6C"/>
<rect x="135.553" y="35.8298" width="2.54804" height="2.54804" fill="#6C6C6C"/>
<rect x="159.759" y="35.8298" width="2.54804" height="2.54804" fill="#6C6C6C"/>
<rect x="183.966" y="35.8298" width="2.54804" height="2.54804" fill="#6C6C6C"/>
<rect x="208.172" y="35.8298" width="2.54804" height="2.54804" fill="#6C6C6C"/>
<rect x="232.378" y="35.8298" width="2.54804" height="2.54804" fill="#6C6C6C"/>
<rect x="256.585" y="35.8298" width="2.54804" height="2.54804" fill="#6C6C6C"/>
<rect x="280.791" y="35.8298" width="2.54804" height="2.54804" fill="#6C6C6C"/>
<rect x="14.521" y="60.0366" width="2.54804" height="2.54804" fill="#6C6C6C"/>
<rect x="38.7272" y="60.0366" width="2.54804" height="2.54804" fill="#6C6C6C"/>
<rect x="62.9338" y="60.0366" width="2.54804" height="2.54804" fill="#6C6C6C"/>
<rect x="87.1404" y="60.0366" width="2.54804" height="2.54804" fill="#6C6C6C"/>
<rect x="111.347" y="60.0366" width="2.54804" height="2.54804" fill="#6C6C6C"/>
<rect x="135.553" y="60.0366" width="2.54804" height="2.54804" fill="#6C6C6C"/>
<rect x="159.759" y="60.0366" width="2.54804" height="2.54804" fill="#6C6C6C"/>
<rect x="183.966" y="60.0366" width="2.54804" height="2.54804" fill="#6C6C6C"/>
<rect x="208.172" y="60.0366" width="2.54804" height="2.54804" fill="#6C6C6C"/>
<rect x="232.378" y="60.0366" width="2.54804" height="2.54804" fill="#6C6C6C"/>
<rect x="256.585" y="60.0366" width="2.54804" height="2.54804" fill="#6C6C6C"/>
<rect x="280.791" y="60.0366" width="2.54804" height="2.54804" fill="#6C6C6C"/>
<rect x="14.521" y="84.2427" width="2.54804" height="2.54804" fill="#6C6C6C"/>
<rect x="38.7272" y="84.2427" width="2.54804" height="2.54804" fill="#6C6C6C"/>
<rect x="62.9338" y="84.2427" width="2.54804" height="2.54804" fill="#6C6C6C"/>
<rect x="87.1404" y="84.2427" width="2.54804" height="2.54804" fill="#6C6C6C"/>
<rect x="111.347" y="84.2427" width="2.54804" height="2.54804" fill="#6C6C6C"/>
<rect x="135.553" y="84.2427" width="2.54804" height="2.54804" fill="#6C6C6C"/>
<rect x="159.759" y="84.2427" width="2.54804" height="2.54804" fill="#6C6C6C"/>
<rect x="183.966" y="84.2427" width="2.54804" height="2.54804" fill="#6C6C6C"/>
<rect x="208.172" y="84.2427" width="2.54804" height="2.54804" fill="#6C6C6C"/>
<rect x="232.378" y="84.2427" width="2.54804" height="2.54804" fill="#6C6C6C"/>
<rect x="256.585" y="84.2427" width="2.54804" height="2.54804" fill="#6C6C6C"/>
<rect x="280.791" y="84.2427" width="2.54804" height="2.54804" fill="#6C6C6C"/>
<rect x="14.521" y="108.449" width="2.54804" height="2.54804" fill="#6C6C6C"/>
<rect x="38.7272" y="108.449" width="2.54804" height="2.54804" fill="#6C6C6C"/>
<rect x="62.9338" y="108.449" width="2.54804" height="2.54804" fill="#6C6C6C"/>
<rect x="87.1404" y="108.449" width="2.54804" height="2.54804" fill="#6C6C6C"/>
<rect x="111.347" y="108.449" width="2.54804" height="2.54804" fill="#6C6C6C"/>
<rect x="135.553" y="108.449" width="2.54804" height="2.54804" fill="#6C6C6C"/>
<rect x="159.759" y="108.449" width="2.54804" height="2.54804" fill="#6C6C6C"/>
<rect x="183.966" y="108.449" width="2.54804" height="2.54804" fill="#6C6C6C"/>
<rect x="208.172" y="108.449" width="2.54804" height="2.54804" fill="#6C6C6C"/>
<rect x="232.378" y="108.449" width="2.54804" height="2.54804" fill="#6C6C6C"/>
<rect x="256.585" y="108.449" width="2.54804" height="2.54804" fill="#6C6C6C"/>
<rect x="280.791" y="108.449" width="2.54804" height="2.54804" fill="#6C6C6C"/>
<rect x="14.521" y="132.655" width="2.54804" height="2.54804" fill="#6C6C6C"/>
<rect x="38.7272" y="132.655" width="2.54804" height="2.54804" fill="#6C6C6C"/>
<rect x="62.9338" y="132.655" width="2.54804" height="2.54804" fill="#6C6C6C"/>
<rect x="87.1404" y="132.655" width="2.54804" height="2.54804" fill="#6C6C6C"/>
<rect x="111.347" y="132.655" width="2.54804" height="2.54804" fill="#6C6C6C"/>
<rect x="135.553" y="132.655" width="2.54804" height="2.54804" fill="#6C6C6C"/>
<rect x="159.759" y="132.655" width="2.54804" height="2.54804" fill="#6C6C6C"/>
<rect x="183.966" y="132.655" width="2.54804" height="2.54804" fill="#6C6C6C"/>
<rect x="208.172" y="132.655" width="2.54804" height="2.54804" fill="#6C6C6C"/>
<rect x="232.378" y="132.655" width="2.54804" height="2.54804" fill="#6C6C6C"/>
<rect x="256.585" y="132.655" width="2.54804" height="2.54804" fill="#6C6C6C"/>
<rect x="280.791" y="132.655" width="2.54804" height="2.54804" fill="#6C6C6C"/>
<rect x="14.521" y="156.862" width="2.54804" height="2.54804" fill="#6C6C6C"/>
<rect x="38.7272" y="156.862" width="2.54804" height="2.54804" fill="#6C6C6C"/>
<rect x="62.9338" y="156.862" width="2.54804" height="2.54804" fill="#6C6C6C"/>
<rect x="87.1404" y="156.862" width="2.54804" height="2.54804" fill="#6C6C6C"/>
<rect x="111.347" y="156.862" width="2.54804" height="2.54804" fill="#6C6C6C"/>
<rect x="135.553" y="156.862" width="2.54804" height="2.54804" fill="#6C6C6C"/>
<rect x="159.759" y="156.862" width="2.54804" height="2.54804" fill="#6C6C6C"/>
<rect x="183.966" y="156.862" width="2.54804" height="2.54804" fill="#6C6C6C"/>
<rect x="208.172" y="156.862" width="2.54804" height="2.54804" fill="#6C6C6C"/>
<rect x="232.378" y="156.862" width="2.54804" height="2.54804" fill="#6C6C6C"/>
<rect x="256.585" y="156.862" width="2.54804" height="2.54804" fill="#6C6C6C"/>
<rect x="280.791" y="156.862" width="2.54804" height="2.54804" fill="#6C6C6C"/>
<rect x="14.521" y="181.068" width="2.54804" height="2.54804" fill="#6C6C6C"/>
<rect x="38.7272" y="181.068" width="2.54804" height="2.54804" fill="#6C6C6C"/>
<rect x="62.9338" y="181.068" width="2.54804" height="2.54804" fill="#6C6C6C"/>
<rect x="87.1404" y="181.068" width="2.54804" height="2.54804" fill="#6C6C6C"/>
<rect x="111.347" y="181.068" width="2.54804" height="2.54804" fill="#6C6C6C"/>
<rect x="135.553" y="181.068" width="2.54804" height="2.54804" fill="#6C6C6C"/>
<rect x="159.759" y="181.068" width="2.54804" height="2.54804" fill="#6C6C6C"/>
<rect x="183.966" y="181.068" width="2.54804" height="2.54804" fill="#6C6C6C"/>
<rect x="208.172" y="181.068" width="2.54804" height="2.54804" fill="#6C6C6C"/>
<rect x="232.378" y="181.068" width="2.54804" height="2.54804" fill="#6C6C6C"/>
<rect x="256.585" y="181.068" width="2.54804" height="2.54804" fill="#6C6C6C"/>
<rect x="280.791" y="181.068" width="2.54804" height="2.54804" fill="#6C6C6C"/>
<rect x="14.521" y="205.274" width="2.54804" height="2.54804" fill="#6C6C6C"/>
<rect x="38.7272" y="205.274" width="2.54804" height="2.54804" fill="#6C6C6C"/>
<rect x="62.9338" y="205.274" width="2.54804" height="2.54804" fill="#6C6C6C"/>
<rect x="87.1404" y="205.274" width="2.54804" height="2.54804" fill="#6C6C6C"/>
<rect x="111.347" y="205.274" width="2.54804" height="2.54804" fill="#6C6C6C"/>
<rect x="135.553" y="205.274" width="2.54804" height="2.54804" fill="#6C6C6C"/>
<rect x="159.759" y="205.274" width="2.54804" height="2.54804" fill="#6C6C6C"/>
<rect x="183.966" y="205.274" width="2.54804" height="2.54804" fill="#6C6C6C"/>
<rect x="208.172" y="205.274" width="2.54804" height="2.54804" fill="#6C6C6C"/>
<rect x="232.378" y="205.274" width="2.54804" height="2.54804" fill="#6C6C6C"/>
<rect x="256.585" y="205.274" width="2.54804" height="2.54804" fill="#6C6C6C"/>
<rect x="280.791" y="205.274" width="2.54804" height="2.54804" fill="#6C6C6C"/>
<rect x="14.521" y="229.481" width="2.54804" height="2.54804" fill="#6C6C6C"/>
<rect x="38.7272" y="229.481" width="2.54804" height="2.54804" fill="#6C6C6C"/>
<rect x="62.9338" y="229.481" width="2.54804" height="2.54804" fill="#6C6C6C"/>
<rect x="87.1404" y="229.481" width="2.54804" height="2.54804" fill="#6C6C6C"/>
<rect x="111.347" y="229.481" width="2.54804" height="2.54804" fill="#6C6C6C"/>
<rect x="135.553" y="229.481" width="2.54804" height="2.54804" fill="#6C6C6C"/>
<rect x="159.759" y="229.481" width="2.54804" height="2.54804" fill="#6C6C6C"/>
<rect x="183.966" y="229.481" width="2.54804" height="2.54804" fill="#6C6C6C"/>
<rect x="208.172" y="229.481" width="2.54804" height="2.54804" fill="#6C6C6C"/>
<rect x="232.378" y="229.481" width="2.54804" height="2.54804" fill="#6C6C6C"/>
<rect x="256.585" y="229.481" width="2.54804" height="2.54804" fill="#6C6C6C"/>
<rect x="280.791" y="229.481" width="2.54804" height="2.54804" fill="#6C6C6C"/>
<rect x="14.521" y="253.688" width="2.54804" height="2.54804" fill="#6C6C6C"/>
<rect x="38.7272" y="253.688" width="2.54804" height="2.54804" fill="#6C6C6C"/>
<rect x="62.9338" y="253.688" width="2.54804" height="2.54804" fill="#6C6C6C"/>
<rect x="87.1404" y="253.688" width="2.54804" height="2.54804" fill="#6C6C6C"/>
<rect x="111.347" y="253.688" width="2.54804" height="2.54804" fill="#6C6C6C"/>
<rect x="135.553" y="253.688" width="2.54804" height="2.54804" fill="#6C6C6C"/>
<rect x="159.759" y="253.688" width="2.54804" height="2.54804" fill="#6C6C6C"/>
<rect x="183.966" y="253.688" width="2.54804" height="2.54804" fill="#6C6C6C"/>
<rect x="208.172" y="253.688" width="2.54804" height="2.54804" fill="#6C6C6C"/>
<rect x="232.378" y="253.688" width="2.54804" height="2.54804" fill="#6C6C6C"/>
<rect x="256.585" y="253.688" width="2.54804" height="2.54804" fill="#6C6C6C"/>
<rect x="280.791" y="253.688" width="2.54804" height="2.54804" fill="#6C6C6C"/>
<rect x="14.521" y="277.894" width="2.54804" height="2.54804" fill="#6C6C6C"/>
<rect x="38.7272" y="277.894" width="2.54804" height="2.54804" fill="#6C6C6C"/>
<rect x="62.9338" y="277.894" width="2.54804" height="2.54804" fill="#6C6C6C"/>
<rect x="87.1404" y="277.894" width="2.54804" height="2.54804" fill="#6C6C6C"/>
<rect x="111.347" y="277.894" width="2.54804" height="2.54804" fill="#6C6C6C"/>
<rect x="135.553" y="277.894" width="2.54804" height="2.54804" fill="#6C6C6C"/>
<rect x="159.759" y="277.894" width="2.54804" height="2.54804" fill="#6C6C6C"/>
<rect x="183.966" y="277.894" width="2.54804" height="2.54804" fill="#6C6C6C"/>
<rect x="208.172" y="277.894" width="2.54804" height="2.54804" fill="#6C6C6C"/>
<rect x="232.378" y="277.894" width="2.54804" height="2.54804" fill="#6C6C6C"/>
<rect x="256.585" y="277.894" width="2.54804" height="2.54804" fill="#6C6C6C"/>
<rect x="280.791" y="277.894" width="2.54804" height="2.54804" fill="#6C6C6C"/>
</g>
</g>
</svg>
