<svg width="149" height="74" viewBox="0 0 149 74" fill="none" xmlns="http://www.w3.org/2000/svg">
<path fill-rule="evenodd" clip-rule="evenodd" d="M142.381 15.2752C142.289 15.384 142.263 16.7175 142.284 20.3809L142.312 25.3393L144.406 25.3709C146.719 25.4057 147.108 25.3448 147.676 24.8588C148.323 24.3049 148.4 23.9298 148.36 21.5103C148.328 19.5326 148.307 19.3423 148.084 18.9347C147.752 18.3294 147.072 17.9536 146.184 17.8841C145.232 17.8096 144.573 17.9266 144.194 18.2372L143.874 18.4995L143.845 16.8444L143.815 15.1893L143.161 15.1586C142.698 15.1369 142.47 15.171 142.381 15.2752ZM75.7886 18.129C74.7141 18.5825 74.5 19.1814 74.5 21.7326C74.5 23.6929 74.564 24.0563 75.0133 24.6454C75.5193 25.3089 75.9306 25.4 78.2791 25.3677L80.3523 25.3393V24.7638V24.1883L78.5268 24.1359C77.3433 24.102 76.6177 24.037 76.4635 23.9511C76.1906 23.7991 75.9673 23.1789 76.0206 22.7214L76.057 22.4094L78.2047 22.3571L80.3523 22.3048L80.3821 20.8877C80.4097 19.5739 80.3934 19.4368 80.1604 19.0042C79.9803 18.6701 79.7586 18.4568 79.379 18.2524C78.8806 17.9842 78.7686 17.9673 77.5067 17.9688C76.5472 17.97 76.0573 18.0157 75.7886 18.129ZM82.5132 18.1233C82.4124 18.3792 82.436 25.1092 82.5382 25.2662C82.5998 25.3608 82.8371 25.3927 83.3151 25.3709L84.0033 25.3393L84.057 22.6187C84.0865 21.1223 84.1478 19.8264 84.1933 19.7388C84.5177 19.1137 86.411 19.0602 86.7666 19.6662C86.8626 19.8297 86.9184 20.6995 86.9563 22.6187L87.01 25.3393L87.7348 25.3703L88.4597 25.4011L88.4573 22.4404C88.4551 19.7845 88.4344 19.4356 88.2561 19.0527C87.8611 18.2054 87.1828 17.9206 85.6953 17.9773C84.8915 18.008 84.6617 18.0558 84.3951 18.2479L84.0714 18.4814L84.0373 18.2479C84.0066 18.0371 83.9347 18.0116 83.2917 17.9839C82.7148 17.9591 82.5675 17.9855 82.5132 18.1233ZM91.703 18.1808C91.1307 18.462 90.7605 18.9227 90.616 19.5339C90.4733 20.1377 90.468 23.3397 90.609 23.8344C90.7794 24.4321 91.1595 24.9009 91.682 25.1583C92.1412 25.3844 92.2643 25.3943 94.2583 25.3675L96.3522 25.3393V24.7638V24.1883L94.5267 24.1359C92.1883 24.069 92.1106 24.03 92.1106 22.9262V22.3614L94.2851 22.3331L96.4596 22.3048L96.4592 20.8921C96.4585 19.2446 96.3218 18.8566 95.5553 18.3285C95.1098 18.0215 95.0675 18.0139 93.632 17.9843C92.3045 17.957 92.1203 17.9757 91.703 18.1808ZM98.579 21.6459L98.6073 25.3393H99.3052H100.003L100.057 22.6661C100.103 20.3593 100.136 19.9548 100.298 19.7152C100.517 19.3895 101.052 19.2194 101.861 19.2185L102.43 19.2179L102.398 18.6162L102.366 18.0146L101.885 17.9812C101.194 17.9334 100.753 18.038 100.39 18.3358L100.072 18.5965L100.037 18.3056C100.004 18.0229 99.9824 18.0137 99.277 17.9836L98.5508 17.9526L98.579 21.6459ZM105.158 18.1589C104.637 18.3943 104.31 18.7256 104.089 19.2422C103.96 19.5434 103.923 20.0506 103.923 21.52C103.923 23.5762 103.995 23.9227 104.542 24.4785C105.247 25.1967 107.362 25.2953 108.074 24.6434L108.325 24.4133V25.1002C108.325 25.6201 108.275 25.847 108.12 26.034C107.924 26.2702 107.841 26.2833 106.214 26.3333L104.513 26.3857V27.0135V27.6413H106.396C108.201 27.6413 108.3 27.6304 108.808 27.3757C109.218 27.1695 109.398 26.9942 109.61 26.5939L109.882 26.0778V22.0462V18.0146L107.735 17.9896C105.834 17.9675 105.538 17.9869 105.158 18.1589ZM111.607 18.0561C111.552 18.1439 113.349 24.225 113.583 24.7376C113.664 24.9175 113.779 24.973 114.068 24.973C114.276 24.973 114.446 24.9982 114.446 25.0288C114.446 25.2175 113.874 26.1352 113.699 26.2261C113.584 26.2863 113.185 26.3658 112.813 26.4027C112.442 26.4397 112.102 26.5216 112.058 26.5848C111.913 26.7957 111.97 27.5579 112.14 27.696C112.343 27.86 113.737 27.7664 114.26 27.5536C114.671 27.3861 115.213 26.8144 115.525 26.2194C115.791 25.711 118.005 18.1763 117.926 18.0506C117.895 18.002 117.557 17.9622 117.175 17.9622C116.549 17.9622 116.472 17.9859 116.387 18.2034C116.335 18.3361 115.962 19.6075 115.559 21.0287C115.155 22.4499 114.797 23.6127 114.764 23.6127C114.73 23.6127 114.373 22.4474 113.97 21.0229C113.567 19.5985 113.197 18.3271 113.147 18.1977C113.065 17.9869 112.983 17.9622 112.361 17.9622C111.979 17.9622 111.64 18.0044 111.607 18.0561ZM123.04 18.093C123.042 18.165 123.443 19.8248 123.93 21.7816L124.816 25.3393L125.699 25.3696C126.53 25.3983 126.587 25.3863 126.687 25.1603C126.746 25.0286 127.04 23.7906 127.341 22.4094C127.642 21.0282 127.899 19.8873 127.912 19.8742C127.925 19.861 128.195 21.0382 128.511 22.4902C128.828 23.942 129.135 25.1907 129.192 25.2648C129.267 25.3598 129.552 25.3907 130.16 25.3694L131.021 25.3393L131.91 21.7816C132.399 19.8248 132.801 18.165 132.803 18.093C132.807 17.9996 132.579 17.9622 132.005 17.9622C131.261 17.9622 131.197 17.9796 131.143 18.1977C131.111 18.3271 130.848 19.6103 130.559 21.0491C130.27 22.4879 130.03 23.6358 130.025 23.5999C129.982 23.2697 128.807 18.3769 128.729 18.1977C128.637 17.9882 128.549 17.9622 127.931 17.9622C127.549 17.9622 127.21 18.0057 127.176 18.0588C127.142 18.112 126.823 19.3693 126.468 20.8531C126.112 22.3369 125.809 23.5624 125.794 23.5766C125.78 23.5909 125.537 22.4158 125.254 20.9655C124.972 19.5151 124.717 18.246 124.687 18.1454C124.642 17.9921 124.503 17.9622 123.835 17.9622C123.266 17.9622 123.038 17.9998 123.04 18.093ZM135.547 18.1268C135.061 18.3731 134.735 18.7013 134.515 19.1656C134.343 19.5284 134.316 19.8632 134.316 21.6769C134.316 24.0144 134.395 24.3563 135.053 24.8961C135.596 25.3415 136.016 25.4053 138.178 25.3709L140.164 25.3393V24.7638V24.1883L138.261 24.1359C136.466 24.0866 136.344 24.0701 136.116 23.8479C135.922 23.659 135.874 23.4926 135.871 23.0108L135.869 22.4094L138.016 22.3571L140.164 22.3048L140.196 21.0491C140.243 19.1927 139.999 18.6066 138.994 18.1618C138.401 17.8993 136.043 17.8753 135.547 18.1268ZM78.6556 19.5774C78.8624 19.8117 78.9027 19.9764 78.9027 20.5871V21.3168L77.4798 21.2876L76.057 21.2584L76.022 20.7875C75.933 19.5916 76.3715 19.1821 77.6623 19.2553C78.3099 19.292 78.4411 19.3346 78.6556 19.5774ZM94.3519 19.3335C94.8092 19.4889 94.9026 19.6989 94.9026 20.5713V21.3107H93.5066H92.1106L92.1141 20.5521C92.1177 19.7413 92.225 19.5004 92.6573 19.332C93.0138 19.193 93.9409 19.1939 94.3519 19.3335ZM108.272 21.2295C108.272 23.1289 108.264 23.1961 108.027 23.4269C107.811 23.637 107.676 23.6651 106.876 23.6651C106.076 23.6651 105.94 23.637 105.724 23.427C105.496 23.2051 105.477 23.0871 105.445 21.6888C105.392 19.3874 105.528 19.2142 107.359 19.2516L108.272 19.2702V21.2295ZM138.467 19.5774C138.674 19.8117 138.714 19.9764 138.714 20.5871V21.3168L137.292 21.2876L135.869 21.2584L135.836 20.6929C135.769 19.556 136.195 19.1828 137.474 19.2553C138.122 19.292 138.253 19.3346 138.467 19.5774ZM146.504 19.4748C146.765 19.7287 146.768 19.7533 146.768 21.6393C146.768 24.1083 146.822 24.0313 145.085 24.0313H143.869V21.9305V19.8296L144.183 19.5238C144.478 19.2359 144.548 19.2179 145.369 19.2179C146.152 19.2179 146.268 19.2442 146.504 19.4748Z" fill="white" fill-opacity="0.7"/>
<path fill-rule="evenodd" clip-rule="evenodd" d="M29.7972 0.73056C28.9454 1.14352 22.6784 4.6993 15.8713 8.63229C7.50621 13.4657 3.90891 16.109 1.92349 17.8212C1.92349 17.8212 4.64644e-10 18.5231 4.64644e-10 21.9468C4.64644e-10 25.3705 0.175838 36.4939 0.175838 36.4939C0.175838 36.4939 9.29255e-10 51.4345 4.64611e-10 53.1293C0 54.824 1.45678 55.6142 1.45678 55.6142C3.82107 57.7201 4.26028 58.0713 16.6248 65.9919C34.6658 76.3768 32.4878 76.319 48.9319 66.8459C64.4224 57.9227 63.9569 58.2421 65.5347 55.4366C66.8371 53.1197 66.8621 52.7068 66.6904 36.4635L66.5146 19.8592L64.9356 17.8212C63.8633 16.4363 59.093 13.3155 50.0561 8.08584C35.9843 -0.0584202 33.3777 -1.00472 29.7972 0.73056ZM50.3047 21.3156C50.8334 21.9002 51.9802 23.9787 52.8522 25.9339C55.0219 30.7982 55.1602 38.5903 53.1705 43.9082C46.9488 60.5412 29.2953 55.9449 27.6931 37.2752C27.1423 30.8614 30.7169 26.2407 35.0723 27.7359C36.1297 28.0988 37.2026 29.2507 38.0943 30.9794C39.2614 33.2415 39.4236 34.2295 39.1297 37.3026C38.747 41.3023 37.1961 46.4724 36.3783 46.4724C35.2982 46.4724 34.5585 44.1346 35.2374 42.8666C35.5974 42.1944 36.0475 39.7917 36.237 37.5278C36.6203 32.9566 35.6105 30.3829 33.4331 30.3829C28.6277 30.3829 29.9748 43.5191 35.3292 48.8721C38.6815 52.2235 43.5567 52.2783 46.8338 49.002C50.0609 45.7764 51.501 41.9179 51.5594 36.342C51.6291 29.7584 51.1058 27.5017 48.6709 23.8851C46.7688 21.0593 46.7724 20.4378 48.6893 20.2996C49.0482 20.2739 49.7754 20.731 50.3047 21.3156ZM77.2228 34.4935C74.6079 35.6221 74.2634 36.7567 74.2634 44.2318C74.2634 51.2843 74.2771 51.3547 75.9359 52.7813C77.2884 53.9445 78.2701 54.2192 81.071 54.2192C85.8556 54.2192 87.8107 52.7169 87.5568 49.2356C87.3988 47.0695 87.2003 46.7703 85.9248 46.7703C84.7863 46.7703 84.3637 47.1893 83.9703 48.707C83.5155 50.4608 83.2562 50.6437 81.22 50.6437C77.9363 50.6437 77.5417 49.9298 77.5417 43.9904C77.5417 39.452 77.6913 38.6875 78.685 38.1559C80.6573 37.1006 83.3557 38.0427 84.0477 40.0282C84.5234 41.3917 84.9711 41.7486 86.0195 41.5997C87.1008 41.4465 87.4131 40.974 87.5556 39.2756C87.8417 35.8623 86.2246 34.3856 81.952 34.1574C80.0178 34.0543 77.8898 34.205 77.2228 34.4935ZM92.1274 34.6842C91.9557 35.1317 91.889 39.6433 91.9802 44.7097C92.1423 53.7514 92.1697 53.9248 93.4864 54.1119C94.7697 54.2937 94.8275 54.1185 94.8275 50.058V45.8139L97.9569 45.9945L101.086 46.1744L101.384 50.0478C101.666 53.7025 101.766 53.9212 103.172 53.9212H104.663L104.827 44.432C104.919 39.1624 104.747 34.6979 104.44 34.3916C104.137 34.0882 103.325 34.0185 102.637 34.2372C101.535 34.5864 101.384 35.0965 101.384 38.4676V42.301H98.1333H94.8818L94.7059 38.2846C94.5623 35.0149 94.3352 34.2319 93.4846 34.0692C92.91 33.9601 92.299 34.2366 92.1274 34.6842ZM114.093 34.4237C113.299 34.9285 108.537 50.7737 108.537 52.9112C108.537 54.072 108.803 54.2675 110.171 54.1095C111.25 53.985 111.878 53.5166 112.021 52.7294C112.423 50.5037 113.663 49.7225 116.439 49.943C118.784 50.1295 119.105 50.3416 119.604 52.0358C120.03 53.4785 120.545 53.9653 121.799 54.1095C124.184 54.3843 124.195 54.5767 121.238 44.3867C120.096 40.4537 119.008 36.6995 118.819 36.044C118.631 35.3885 118.185 34.655 117.828 34.4142C116.989 33.8481 114.991 33.8529 114.093 34.4237ZM127.744 34.4512C127.168 34.823 127.023 37.2424 127.148 44.4314L127.313 53.9212H128.803H130.293V44.0971C130.293 35.8313 130.151 34.248 129.399 34.1163C128.907 34.0304 128.163 34.1806 127.744 34.4512ZM135.639 34.6865C135.468 35.1329 135.402 39.6433 135.493 44.7097L135.658 53.9212H137.148C138.612 53.9212 138.643 53.8217 138.936 48.2601C139.1 45.1465 139.409 42.8672 139.622 43.1949C139.835 43.5227 140.882 45.3998 141.948 47.3663C145.029 53.0476 146.065 54.3068 147.494 54.103C148.731 53.9266 148.777 53.6215 148.934 44.2824C149.091 35.0691 149.045 34.6269 147.897 34.2629C147.236 34.0531 146.425 34.0489 146.094 34.2527C145.757 34.4613 145.493 37.1572 145.493 40.3959V46.1673L142.064 40.2118C139.518 35.7914 138.289 34.2068 137.293 34.0656C136.554 33.9607 135.81 34.2402 135.639 34.6865ZM15.1829 38.5766C16.3208 47.029 22.0734 52.736 27.8486 51.1419C29.5635 50.6688 30.1977 50.7296 30.9028 51.4345C31.6926 52.2235 31.5859 52.4315 29.9605 53.2717C24.3426 56.1761 17.0396 52.3427 14.1052 44.9493C12.6914 41.3869 12.0291 37.122 12.7736 36.3777C14.0426 35.109 14.8104 35.8092 15.1829 38.5766ZM117.164 43.4315L117.966 46.4724H115.922C114 46.4724 113.901 46.3747 114.25 44.8336C114.718 42.7653 115.887 39.9162 116.157 40.1856C116.269 40.2982 116.722 41.7588 117.164 43.4315Z" fill="white" fill-opacity="0.7"/>
</svg>
