<svg width="61" height="61" viewBox="0 0 61 61" fill="none" xmlns="http://www.w3.org/2000/svg">
<path fill-rule="evenodd" clip-rule="evenodd" d="M30.1235 0C13.4867 0 0 13.5444 0 30.1811C0 46.8178 13.4867 60.3622 30.1235 60.3622C46.7602 60.3622 60.2469 46.8178 60.2469 30.1811C60.2469 13.5444 46.7602 0 30.1235 0Z" fill="#4AA7CD"/>
<path fill-rule="evenodd" clip-rule="evenodd" d="M31 15.9375L16.9375 21.5625L31 27.1875L45.0625 21.5625L31 15.9375V15.9375Z" stroke="white" stroke-width="2" stroke-linecap="round" stroke-linejoin="round"/>
<path fill-rule="evenodd" clip-rule="evenodd" d="M16.9375 21.5625V38.4375L31 44.0625V27.1875L16.9375 21.5625V21.5625Z" stroke="white" stroke-width="2" stroke-linecap="round" stroke-linejoin="round"/>
<path fill-rule="evenodd" clip-rule="evenodd" d="M45.0625 21.5625V38.4375L31 44.0625V27.1875L45.0625 21.5625V21.5625Z" stroke="white" stroke-width="2" stroke-linecap="round" stroke-linejoin="round"/>
<path d="M38.7338 24.0937L24.6713 18.4688" stroke="white" stroke-width="2" stroke-linecap="round" stroke-linejoin="round"/>
<path d="M41.7812 35.625L39.4375 36.5625" stroke="white" stroke-width="2" stroke-linecap="round" stroke-linejoin="round"/>
</svg>
