<svg width="61" height="61" viewBox="0 0 61 61" fill="none" xmlns="http://www.w3.org/2000/svg">
<path fill-rule="evenodd" clip-rule="evenodd" d="M30.1235 0C13.4867 0 0 13.5444 0 30.1811C0 46.8178 13.4867 60.3622 30.1235 60.3622C46.7602 60.3622 60.2469 46.8178 60.2469 30.1811C60.2469 13.5444 46.7602 0 30.1235 0Z" fill="#4AA7CD"/>
<path d="M43.1875 29.9513C44.3902 31.6142 45.0455 33.6103 45.0625 35.6625C45.0625 41.9275 38.7662 42.8813 31 42.8813C23.2338 42.8813 16.9375 41.9275 16.9375 35.6625C16.9545 33.6103 17.6098 31.6142 18.8125 29.9513" stroke="white" stroke-width="2" stroke-linecap="round" stroke-linejoin="round"/>
<path d="M27.4725 24.5C28.632 24.2528 29.8145 24.1292 31 24.1313C33.6087 24.1173 36.1819 24.7349 38.5 25.9313" stroke="white" stroke-width="2" stroke-linecap="round" stroke-linejoin="round"/>
<path d="M31.9375 31.6313V33.5063" stroke="white" stroke-width="2" stroke-linecap="round" stroke-linejoin="round"/>
<path d="M37.5625 31.6313V33.5063" stroke="white" stroke-width="2" stroke-linecap="round" stroke-linejoin="round"/>
<path fill-rule="evenodd" clip-rule="evenodd" d="M37.5625 39.1313C37.5625 40.1668 36.723 41.0063 35.6875 41.0063C34.652 41.0063 33.8125 40.1668 33.8125 39.1313V37.2563H37.5625V39.1313Z" stroke="white" stroke-width="2" stroke-linecap="round" stroke-linejoin="round"/>
<path d="M26.3125 35.3813H28.1875" stroke="white" stroke-width="2" stroke-linecap="round" stroke-linejoin="round"/>
<path d="M41.3125 35.3813H43.1875" stroke="white" stroke-width="2" stroke-linecap="round" stroke-linejoin="round"/>
<path d="M18.8125 29.9513V18.75C18.8123 18.3787 19.0312 18.0422 19.3708 17.892C19.7104 17.7418 20.1067 17.8062 20.3813 18.0563L27.4725 24.5" stroke="white" stroke-width="2" stroke-linecap="round" stroke-linejoin="round"/>
<path d="M43.1875 29.9513L43.8975 19.5475C43.8975 19.2018 43.7072 18.8842 43.4023 18.721C43.0975 18.5579 42.7277 18.5758 42.44 18.7675L34.2762 24.4513" stroke="white" stroke-width="2" stroke-linecap="round" stroke-linejoin="round"/>
</svg>
