<svg width="61" height="61" viewBox="0 0 61 61" fill="none" xmlns="http://www.w3.org/2000/svg">
<path fill-rule="evenodd" clip-rule="evenodd" d="M29.9396 0.537231C13.4044 0.537231 0 13.9417 0 30.4769C0 47.0121 13.4044 60.4165 29.9396 60.4165H31.0604C47.5956 60.4165 61 47.0121 61 30.4769C61 13.9417 47.5956 0.537231 31.0604 0.537231H29.9396Z" fill="#4AA7CD"/>
<path d="M19.48 44.0625L31.2587 32.2825C31.9912 31.55 33.1788 31.55 33.9112 32.2825C34.6437 33.015 34.6437 34.2025 33.9112 34.935L24.7862 44.06" stroke="white" stroke-width="2" stroke-linecap="round" stroke-linejoin="round"/>
<path d="M33.9113 32.2825L40.5363 25.6575C41.5912 24.6026 42.1838 23.1718 42.1838 21.68C42.1838 20.1881 41.5912 18.7574 40.5363 17.7025C39.4263 16.6847 37.7116 16.7218 36.6467 17.7867C35.5818 18.8515 35.5447 20.5662 36.5625 21.6762C37.2947 22.4082 38.4816 22.4082 39.2138 21.6762" stroke="white" stroke-width="2" stroke-linecap="round" stroke-linejoin="round"/>
<path d="M20.625 20.625H24.375" stroke="white" stroke-width="2" stroke-linecap="round" stroke-linejoin="round"/>
<path d="M22.5 18.75V22.5" stroke="white" stroke-width="2" stroke-linecap="round" stroke-linejoin="round"/>
<path d="M38.4375 35.625H42.1875" stroke="white" stroke-width="2" stroke-linecap="round" stroke-linejoin="round"/>
<path d="M40.3125 33.75V37.5" stroke="white" stroke-width="2" stroke-linecap="round" stroke-linejoin="round"/>
<path d="M27.6562 26.25C27.9151 26.25 28.125 26.4599 28.125 26.7188" stroke="white" stroke-width="2" stroke-linecap="round" stroke-linejoin="round"/>
<path d="M27.1875 26.7188C27.1875 26.4599 27.3974 26.25 27.6562 26.25" stroke="white" stroke-width="2" stroke-linecap="round" stroke-linejoin="round"/>
<path d="M27.6562 27.1875C27.3974 27.1875 27.1875 26.9776 27.1875 26.7188" stroke="white" stroke-width="2" stroke-linecap="round" stroke-linejoin="round"/>
<path d="M28.125 26.7188C28.125 26.9776 27.9151 27.1875 27.6562 27.1875" stroke="white" stroke-width="2" stroke-linecap="round" stroke-linejoin="round"/>
<path d="M30.4688 15.9375C30.7276 15.9375 30.9375 16.1474 30.9375 16.4062" stroke="white" stroke-width="2" stroke-linecap="round" stroke-linejoin="round"/>
<path d="M30 16.4062C30 16.1474 30.2099 15.9375 30.4688 15.9375" stroke="white" stroke-width="2" stroke-linecap="round" stroke-linejoin="round"/>
<path d="M30.4688 16.875C30.2099 16.875 30 16.6651 30 16.4062" stroke="white" stroke-width="2" stroke-linecap="round" stroke-linejoin="round"/>
<path d="M30.9375 16.4062C30.9375 16.6651 30.7276 16.875 30.4688 16.875" stroke="white" stroke-width="2" stroke-linecap="round" stroke-linejoin="round"/>
<path d="M16.4062 25.3125C16.6651 25.3125 16.875 25.5224 16.875 25.7812" stroke="white" stroke-width="2" stroke-linecap="round" stroke-linejoin="round"/>
<path d="M15.9375 25.7812C15.9375 25.5224 16.1474 25.3125 16.4062 25.3125" stroke="white" stroke-width="2" stroke-linecap="round" stroke-linejoin="round"/>
<path d="M16.4062 26.25C16.1474 26.25 15.9375 26.0401 15.9375 25.7812" stroke="white" stroke-width="2" stroke-linecap="round" stroke-linejoin="round"/>
<path d="M16.875 25.7812C16.875 26.0401 16.6651 26.25 16.4062 26.25" stroke="white" stroke-width="2" stroke-linecap="round" stroke-linejoin="round"/>
<path d="M43.5938 28.125C43.8526 28.125 44.0625 28.3349 44.0625 28.5938" stroke="white" stroke-width="2" stroke-linecap="round" stroke-linejoin="round"/>
<path d="M43.125 28.5938C43.125 28.3349 43.3349 28.125 43.5938 28.125" stroke="white" stroke-width="2" stroke-linecap="round" stroke-linejoin="round"/>
<path d="M43.5938 29.0625C43.3349 29.0625 43.125 28.8526 43.125 28.5938" stroke="white" stroke-width="2" stroke-linecap="round" stroke-linejoin="round"/>
<path d="M44.0625 28.5938C44.0625 28.8526 43.8526 29.0625 43.5938 29.0625" stroke="white" stroke-width="2" stroke-linecap="round" stroke-linejoin="round"/>
</svg>
