<svg width="61" height="61" viewBox="0 0 61 61" fill="none" xmlns="http://www.w3.org/2000/svg">
<path fill-rule="evenodd" clip-rule="evenodd" d="M30.8765 0.0220947C14.2398 0.0220947 0.753052 13.5665 0.753052 30.2032C0.753052 46.8399 14.2398 60.3843 30.8765 60.3843C47.5132 60.3843 61 46.8399 61 30.2032C61 13.5665 47.5132 0.0220947 30.8765 0.0220947Z" fill="#4AA7CD"/>
<path d="M20.6875 36.435V36.435C20.8841 32.1087 24.5417 28.7557 28.8688 28.935H33.1312C37.4583 28.7557 41.1159 32.1087 41.3125 36.435V36.435" stroke="white" stroke-width="2" stroke-linecap="round" stroke-linejoin="round"/>
<path d="M31 21.435V36.435" stroke="white" stroke-width="2" stroke-linecap="round" stroke-linejoin="round"/>
<path fill-rule="evenodd" clip-rule="evenodd" d="M31 21.435C33.0711 21.435 34.75 19.7561 34.75 17.685C34.75 15.6139 33.0711 13.935 31 13.935C28.9289 13.935 27.25 15.6139 27.25 17.685C27.25 19.7561 28.9289 21.435 31 21.435Z" stroke="white" stroke-width="2" stroke-linecap="round" stroke-linejoin="round"/>
<path fill-rule="evenodd" clip-rule="evenodd" d="M20.6875 42.06C22.2408 42.06 23.5 40.8008 23.5 39.2475C23.5 37.6942 22.2408 36.435 20.6875 36.435C19.1342 36.435 17.875 37.6942 17.875 39.2475C17.875 40.8008 19.1342 42.06 20.6875 42.06Z" stroke="white" stroke-width="2" stroke-linecap="round" stroke-linejoin="round"/>
<path fill-rule="evenodd" clip-rule="evenodd" d="M31 42.06C32.5533 42.06 33.8125 40.8008 33.8125 39.2475C33.8125 37.6942 32.5533 36.435 31 36.435C29.4467 36.435 28.1875 37.6942 28.1875 39.2475C28.1875 40.8008 29.4467 42.06 31 42.06Z" stroke="white" stroke-width="2" stroke-linecap="round" stroke-linejoin="round"/>
<path fill-rule="evenodd" clip-rule="evenodd" d="M41.3125 42.06C42.8658 42.06 44.125 40.8008 44.125 39.2475C44.125 37.6942 42.8658 36.435 41.3125 36.435C39.7592 36.435 38.5 37.6942 38.5 39.2475C38.5 40.8008 39.7592 42.06 41.3125 42.06Z" stroke="white" stroke-width="2" stroke-linecap="round" stroke-linejoin="round"/>
</svg>
