<svg width="61" height="61" viewBox="0 0 61 61" fill="none" xmlns="http://www.w3.org/2000/svg">
<path fill-rule="evenodd" clip-rule="evenodd" d="M30.8765 0.388306C14.2398 0.388306 0.753052 13.9327 0.753052 30.5694C0.753052 47.2061 14.2398 60.7505 30.8765 60.7505C47.5132 60.7505 61 47.2061 61 30.5694C61 13.9327 47.5132 0.388306 30.8765 0.388306Z" fill="#4AA7CD"/>
<path fill-rule="evenodd" clip-rule="evenodd" d="M37.7962 29.125C37.7962 26.5362 34.8587 24.4375 31.2337 24.4375C27.6087 24.4375 24.6725 26.5362 24.6725 29.125V41.1112C24.6309 42.9969 25.9481 44.6408 27.7975 45.0112C28.8861 45.1953 30.0004 44.8902 30.8435 44.1774C31.6866 43.4646 32.1728 42.4165 32.1725 41.3125V39.485C32.1728 37.6283 32.775 35.8218 33.8887 34.3363V34.3363C34.4546 33.6029 35.129 32.9601 35.8887 32.43C37.0265 31.7063 37.7388 30.4722 37.7962 29.125Z" stroke="white" stroke-width="2" stroke-linecap="round" stroke-linejoin="round"/>
<path fill-rule="evenodd" clip-rule="evenodd" d="M38.7338 22.5625C40.2871 22.5625 41.5463 21.3033 41.5463 19.75C41.5463 18.1967 40.2871 16.9375 38.7338 16.9375C37.1805 16.9375 35.9213 18.1967 35.9213 19.75C35.9213 21.3033 37.1805 22.5625 38.7338 22.5625Z" stroke="white" stroke-width="2" stroke-linecap="round" stroke-linejoin="round"/>
<path fill-rule="evenodd" clip-rule="evenodd" d="M30.2975 20.6875C31.333 20.6875 32.1725 19.848 32.1725 18.8125C32.1725 17.777 31.333 16.9375 30.2975 16.9375C29.262 16.9375 28.4225 17.777 28.4225 18.8125C28.4225 19.848 29.262 20.6875 30.2975 20.6875Z" stroke="white" stroke-width="2" stroke-linecap="round" stroke-linejoin="round"/>
<path d="M24.6725 20.2188C24.9314 20.2188 25.1412 20.4286 25.1412 20.6875" stroke="white" stroke-width="2" stroke-linecap="round" stroke-linejoin="round"/>
<path d="M24.2037 20.6875C24.2034 20.5631 24.2527 20.4437 24.3407 20.3557C24.4286 20.2677 24.5481 20.2184 24.6725 20.2188" stroke="white" stroke-width="2" stroke-linecap="round" stroke-linejoin="round"/>
<path d="M24.6725 21.1562C24.5481 21.1566 24.4286 21.1073 24.3407 21.0193C24.2527 20.9313 24.2034 20.8119 24.2037 20.6875" stroke="white" stroke-width="2" stroke-linecap="round" stroke-linejoin="round"/>
<path d="M25.1412 20.6875C25.1412 20.9464 24.9314 21.1562 24.6725 21.1562" stroke="white" stroke-width="2" stroke-linecap="round" stroke-linejoin="round"/>
<path d="M21.86 23.0312C22.1189 23.0312 22.3287 23.2411 22.3287 23.5" stroke="white" stroke-width="2" stroke-linecap="round" stroke-linejoin="round"/>
<path d="M21.3912 23.5C21.3909 23.3756 21.4402 23.2562 21.5282 23.1682C21.6161 23.0802 21.7356 23.0309 21.86 23.0313" stroke="white" stroke-width="2" stroke-linecap="round" stroke-linejoin="round"/>
<path d="M21.86 23.9688C21.7356 23.9691 21.6161 23.9198 21.5282 23.8318C21.4402 23.7438 21.3909 23.6244 21.3912 23.5" stroke="white" stroke-width="2" stroke-linecap="round" stroke-linejoin="round"/>
<path d="M22.3287 23.5C22.3287 23.7589 22.1189 23.9688 21.86 23.9688" stroke="white" stroke-width="2" stroke-linecap="round" stroke-linejoin="round"/>
</svg>
