<svg width="25" height="25" viewBox="0 0 25 25" fill="none" xmlns="http://www.w3.org/2000/svg">
<path d="M4.29089 8.00002L9.21631 1.00002" stroke="white" stroke-width="2" stroke-linecap="round" stroke-linejoin="round"/>
<path d="M20.709 8.00002L15.7836 1.00002" stroke="white" stroke-width="2" stroke-linecap="round" stroke-linejoin="round"/>
<path fill-rule="evenodd" clip-rule="evenodd" d="M20.0917 24H4.90829C4.17643 23.9838 3.54975 23.3568 3.39455 22.4853L1.05442 10.4853C0.927509 9.90316 1.02521 9.28225 1.31985 8.7985C1.61449 8.31475 2.07398 8.02083 2.56817 8.00002H22.4318C22.926 8.02083 23.3855 8.31475 23.6802 8.7985C23.9748 9.28225 24.0725 9.90316 23.9456 10.4853L21.6055 22.4853C21.4502 23.3568 20.8236 23.9838 20.0917 24Z" stroke="white" stroke-width="2" stroke-linecap="round" stroke-linejoin="round"/>
<path d="M7.57458 12V20" stroke="white" stroke-width="2" stroke-linecap="round" stroke-linejoin="round"/>
<path d="M12.5 12V20" stroke="white" stroke-width="2" stroke-linecap="round" stroke-linejoin="round"/>
<path d="M17.4254 12V20" stroke="white" stroke-width="2" stroke-linecap="round" stroke-linejoin="round"/>
</svg>
