<svg width="38" height="39" viewBox="0 0 38 39" fill="none" xmlns="http://www.w3.org/2000/svg">
<path fill-rule="evenodd" clip-rule="evenodd" d="M18.4109 3.1051C18.2725 3.23689 18.2329 3.41351 17.8864 5.44218C17.6945 6.56528 17.6296 6.73875 17.3967 6.75114C17.1582 6.76363 17.0578 6.59311 16.5016 5.23128C15.9392 3.85385 15.847 3.69878 15.5997 3.71226C15.2304 3.73245 15.1693 4.00224 15.2425 5.28972C15.3884 7.85609 15.2037 7.94669 13.8971 5.94936C12.9998 4.57765 12.695 4.28298 12.379 4.48177C12.2504 4.56266 12.2996 4.89845 12.6504 6.32972C13.061 8.00538 13.0903 8.50547 12.7711 8.38614C12.704 8.36118 12.1719 7.85024 11.5886 7.25086C11.0053 6.6516 10.3896 6.05954 10.2203 5.9352C9.91845 5.71368 9.51507 5.69459 9.4414 5.89837C9.421 5.9551 9.73748 6.71023 10.1448 7.57656C10.9503 9.2901 11.0817 9.68676 10.8581 9.73112C10.7778 9.74705 10.0736 9.34142 9.29341 8.8297C8.51307 8.318 7.79086 7.91595 7.68846 7.93627C7.58593 7.95661 7.45077 8.06786 7.38795 8.18352C7.29523 8.35435 7.45803 8.64809 8.25829 9.75435C9.24478 11.1181 9.40989 11.4216 9.18899 11.4654C9.12379 11.4783 8.44533 11.2363 7.68155 10.9277C6.91765 10.6192 6.0916 10.3737 5.84596 10.3823C5.43367 10.3967 5.40407 10.4218 5.46082 10.7079C5.51368 10.9744 6.44315 11.9464 7.57511 12.9189C7.7334 13.0548 7.87893 13.2474 7.89865 13.3468C7.94625 13.5868 7.57271 13.5643 5.98458 13.2317C5.2918 13.0867 4.59788 13.0165 4.42071 13.0736C3.80852 13.2705 4.04349 13.5832 5.59113 14.6304C6.40809 15.1833 7.08517 15.6795 7.09583 15.7333C7.12476 15.8791 7.00101 15.887 4.99638 15.8687C2.82938 15.849 2.78086 15.8553 2.83873 16.147C2.89969 16.4543 3.30085 16.6688 4.94372 17.2721C6.37353 17.7973 6.60343 17.9211 6.48353 18.1016C6.44673 18.1567 5.6391 18.3849 4.68888 18.6085L2.96099 19.015L3.02186 19.3218C3.07693 19.5995 3.23346 19.6564 4.66888 19.9211C6.44026 20.2478 6.78611 20.3893 6.45974 20.6541C6.34683 20.7457 5.6427 21.0658 4.89492 21.3655C3.23047 22.0327 3.15966 22.0694 3.1226 22.2841C3.06286 22.6301 3.35404 22.709 4.52338 22.6636C7.73845 22.5387 7.78677 22.6061 5.52643 24.0651C4.15079 24.953 3.86991 25.2053 3.92842 25.5002C3.96925 25.706 4.10886 25.6899 6.00288 25.26C7.69479 24.876 8.02973 24.8293 8.01114 24.9801C7.98653 25.179 7.56919 25.664 6.33758 26.9247C5.56055 27.7202 5.37919 28.1415 5.75369 28.2814C5.82798 28.3091 6.65338 27.9936 7.58815 27.5802C8.52279 27.1669 9.33611 26.8611 9.39555 26.9009C9.45499 26.9406 9.12732 27.5483 8.66719 28.2512C8.20721 28.9542 7.7432 29.7122 7.63609 29.9359C7.1371 30.9782 7.78284 30.8552 9.49561 29.5817C10.7564 28.6443 11.1466 28.4328 11.1921 28.6626C11.2046 28.7256 10.9223 29.48 10.5646 30.3391C9.94998 31.8156 9.78034 32.4453 9.96427 32.5683C10.1742 32.7086 10.8018 32.229 11.8078 31.1593C12.4131 30.5155 12.978 29.9751 13.063 29.9583C13.2654 29.9181 13.1991 30.5866 12.8285 32.3163C12.5061 33.8222 12.5289 34.1461 12.9517 34.0623C13.1652 34.0199 13.5153 33.5801 14.2304 32.4563C14.828 31.5172 15.2862 30.9209 15.3957 30.9398C15.5439 30.9653 15.5747 31.2418 15.5677 32.4811C15.5585 34.1411 15.6423 34.5902 15.9612 34.5874C16.2253 34.5851 16.5215 34.1168 16.8206 33.2287C17.2304 32.012 17.598 31.3131 17.7683 31.4269C17.8558 31.4855 18.1051 32.3065 18.3388 33.3053C18.7454 35.0437 18.7594 35.0787 19.0288 35.0252C19.3279 34.9659 19.3975 34.7273 19.75 32.5542C19.89 31.6918 19.9928 31.3899 20.1577 31.3572C20.3906 31.311 20.3927 31.3149 21.3117 33.6157C22.0685 35.51 22.4545 35.3388 22.3518 33.1542C22.2797 31.6202 22.322 30.9278 22.4897 30.8946C22.6492 30.8629 23.0089 31.2626 23.4636 31.977C24.4781 33.5709 24.7559 33.8891 25.077 33.8254L25.3837 33.7646L24.9505 32.0328C24.5328 30.3631 24.4773 29.8625 24.7048 29.8174C24.7635 29.8057 25.3049 30.2868 25.9076 30.8862C27.1306 32.1027 27.5267 32.3852 27.7829 32.2239C28.0266 32.0703 27.9062 31.6037 27.3085 30.3851C26.5692 28.8775 26.463 28.5757 26.6586 28.5369C26.7487 28.519 27.4208 28.87 28.1521 29.3168C29.5147 30.1496 29.984 30.3205 30.0948 30.0244C30.1846 29.7845 29.9145 29.2651 29.0846 28.0811C28.3657 27.0557 28.1901 26.7023 28.3805 26.6646C28.4336 26.654 29.1652 26.9419 30.006 27.3043C31.0903 27.7715 31.6224 27.935 31.8358 27.8661C32.3969 27.685 32.1623 27.3484 30.0632 25.3231C29.7979 25.0669 29.5714 24.8105 29.56 24.7532C29.5203 24.5528 29.9316 24.5745 30.955 24.8269C32.2589 25.1485 33.3683 25.3094 33.4913 25.195C33.7674 24.9381 33.3912 24.5308 32.0096 23.591C31.1981 23.039 30.5267 22.5491 30.5174 22.5023C30.4866 22.3472 31.0353 22.3026 32.6116 22.3323C34.1866 22.362 34.5586 22.287 34.4924 21.9532C34.4392 21.6853 34.0224 21.4628 32.4921 20.8856C31.7395 20.6017 31.0754 20.3176 31.0165 20.2543C30.8063 20.0285 31.2257 19.8536 32.6779 19.5617C34.2237 19.251 34.4953 19.1245 34.3542 18.781C34.2444 18.514 34.1451 18.4837 32.4391 18.197C30.4344 17.8599 30.4514 17.7275 32.6097 16.8646C33.5305 16.4965 34.3129 16.1178 34.3482 16.0231C34.5094 15.5923 34.1341 15.5042 32.3918 15.5639C31.4369 15.5965 30.6005 15.6026 30.5332 15.5776C30.1811 15.446 30.4407 15.1437 31.4519 14.5074C33.2069 13.4031 33.27 13.356 33.3523 13.0858C33.5111 12.5645 33.2798 12.5484 31.4253 12.9518C29.9376 13.2757 29.6525 13.3076 29.5944 13.1576C29.5514 13.0464 29.9734 12.5333 30.7225 11.7858C31.7151 10.7955 31.9091 10.5393 31.8586 10.2849C31.8026 10.0026 31.7591 9.98877 31.3139 10.1122C31.0477 10.1859 30.3911 10.4452 29.8548 10.6886C28.8578 11.1409 28.1755 11.3401 28.1453 11.1879C28.136 11.1409 28.5918 10.3991 29.1582 9.53908C30.2461 7.8876 30.3938 7.38647 29.755 7.51318C29.5742 7.54904 28.7798 8.05104 27.9896 8.62875C27.1992 9.20648 26.5287 9.6839 26.4995 9.6897C26.2785 9.73354 26.4548 9.06497 26.9672 7.91734C27.6261 6.4414 27.7932 5.84469 27.6234 5.57505C27.5282 5.42415 27.4397 5.45714 26.986 5.8131C26.6962 6.04037 26.1757 6.53484 25.8294 6.91186C24.9662 7.85139 24.3958 8.36481 24.2921 8.29558C24.2053 8.23742 24.2656 7.90093 24.7225 5.89654C24.9838 4.74999 24.9693 4.28626 24.6706 4.23493C24.376 4.18429 23.9954 4.63877 23.2026 5.98731C22.0673 7.91876 21.9193 7.83408 21.9932 5.29426C22.0212 4.33368 22.0007 3.5012 21.9478 3.44422C21.7701 3.25344 21.3943 3.42863 21.2117 3.78746C21.1121 3.98299 20.7945 4.76352 20.5058 5.52198C20.2171 6.28044 19.9066 6.91566 19.8158 6.93368C19.6111 6.97429 19.5687 6.83472 19.1446 4.71911C18.8105 3.05337 18.7062 2.8238 18.4109 3.1051ZM21.7034 10.5581C22.5947 10.7761 23.8028 11.673 24.3342 12.5113C24.6103 12.9469 24.8375 13.5247 25.0201 14.2564C25.2757 15.2799 25.2791 15.3979 25.0726 16.0934C24.9335 16.5612 24.6835 17.0126 24.3977 17.3116C23.7728 17.965 22.7284 18.1879 21.8004 17.8659C20.0046 17.2427 18.5649 15.2161 18.61 13.3749C18.6445 11.9619 19.5143 10.6909 20.5909 10.4804C20.8337 10.4329 21.3343 10.4679 21.7034 10.5581ZM14.4341 13.3242C16.0538 13.8295 17.2792 15.73 17.3278 17.8121C17.3878 20.3885 15.1474 21.8174 13.1701 20.4636C11.3442 19.2136 10.5191 16.2545 11.5012 14.4778C12.0992 13.3956 13.2332 12.9496 14.4341 13.3242ZM19.5141 12.7145C19.1124 13.3147 19.1494 13.9307 19.6251 14.5605C20.2679 15.4116 21.2012 15.4932 21.7038 14.7421C22.1077 14.1388 22.072 13.4649 21.6061 12.8932C20.9254 12.0579 20.0062 11.9794 19.5141 12.7145ZM13.5152 15.295C13.0923 15.8612 13.1272 16.4863 13.6179 17.1361C14.5107 18.3181 15.9996 17.859 15.9846 16.4062C15.9696 14.9381 14.3322 14.2012 13.5152 15.295Z" fill="white"/>
</svg>
