<svg width="61" height="61" viewBox="0 0 61 61" fill="none" xmlns="http://www.w3.org/2000/svg">
<path fill-rule="evenodd" clip-rule="evenodd" d="M30.8766 0.0220947C14.2399 0.0220947 0.753174 13.5665 0.753174 30.2032C0.753174 46.8399 14.2399 60.3843 30.8766 60.3843C47.5134 60.3843 61.0001 46.8399 61.0001 30.2032C61.0001 13.5665 47.5134 0.0220947 30.8766 0.0220947Z" fill="#4AA7CD"/>
<path fill-rule="evenodd" clip-rule="evenodd" d="M20.2188 39.375C22.0309 39.375 23.5 37.9059 23.5 36.0938C23.5 34.2816 22.0309 32.8125 20.2188 32.8125C18.4066 32.8125 16.9375 34.2816 16.9375 36.0938C16.9375 37.9059 18.4066 39.375 20.2188 39.375Z" stroke="white" stroke-width="2" stroke-linecap="round" stroke-linejoin="round"/>
<path fill-rule="evenodd" clip-rule="evenodd" d="M41.7812 39.375C43.5934 39.375 45.0625 37.9059 45.0625 36.0938C45.0625 34.2816 43.5934 32.8125 41.7812 32.8125C39.9691 32.8125 38.5 34.2816 38.5 36.0938C38.5 37.9059 39.9691 39.375 41.7812 39.375Z" stroke="white" stroke-width="2" stroke-linecap="round" stroke-linejoin="round"/>
<path fill-rule="evenodd" clip-rule="evenodd" d="M31 39.375C32.8122 39.375 34.2812 37.9059 34.2812 36.0938C34.2812 34.2816 32.8122 32.8125 31 32.8125C29.1878 32.8125 27.7188 34.2816 27.7188 36.0938C27.7188 37.9059 29.1878 39.375 31 39.375Z" stroke="white" stroke-width="2" stroke-linecap="round" stroke-linejoin="round"/>
<path d="M25.61 44.0625C24.9949 42.3927 23.6392 41.1034 21.9407 40.5729C20.2422 40.0424 18.3936 40.3309 16.9375 41.3538" stroke="white" stroke-width="2" stroke-linecap="round" stroke-linejoin="round"/>
<path d="M36.3912 44.0625C37.006 42.3928 38.3615 41.1034 40.0598 40.5729C41.7582 40.0423 43.6066 40.3309 45.0625 41.3538" stroke="white" stroke-width="2" stroke-linecap="round" stroke-linejoin="round"/>
<path d="M36.3913 44.0625C35.5552 41.8079 33.4046 40.3117 31 40.3117C28.5955 40.3117 26.4448 41.8079 25.6088 44.0625" stroke="white" stroke-width="2" stroke-linecap="round" stroke-linejoin="round"/>
<path d="M33.8125 29.0625C33.8125 29.0625 34.75 24.375 38.5 23.4375" stroke="white" stroke-width="2" stroke-linecap="round" stroke-linejoin="round"/>
<path d="M41.3125 22.5H45.0625" stroke="white" stroke-width="2" stroke-linecap="round" stroke-linejoin="round"/>
<path d="M43.1875 20.625V24.375" stroke="white" stroke-width="2" stroke-linecap="round" stroke-linejoin="round"/>
<path d="M28.1875 29.0625C28.1875 29.0625 27.25 24.375 23.5 23.4375" stroke="white" stroke-width="2" stroke-linecap="round" stroke-linejoin="round"/>
<path d="M20.6875 22.5H16.9375" stroke="white" stroke-width="2" stroke-linecap="round" stroke-linejoin="round"/>
<path d="M18.8125 20.625V24.375" stroke="white" stroke-width="2" stroke-linecap="round" stroke-linejoin="round"/>
<path d="M29.125 17.8125H32.875" stroke="white" stroke-width="2" stroke-linecap="round" stroke-linejoin="round"/>
<path d="M31 15.9375V19.6875" stroke="white" stroke-width="2" stroke-linecap="round" stroke-linejoin="round"/>
<path d="M31 29.0625V23.4375" stroke="white" stroke-width="2" stroke-linecap="round" stroke-linejoin="round"/>
</svg>
