<svg width="61" height="61" viewBox="0 0 61 61" fill="none" xmlns="http://www.w3.org/2000/svg">
<path fill-rule="evenodd" clip-rule="evenodd" d="M29.9396 0.325928C13.4044 0.325928 0 13.7304 0 30.2656C0 46.8008 13.4044 60.2052 29.9396 60.2052H31.0604C47.5956 60.2052 61 46.8008 61 30.2656C61 13.7304 47.5956 0.325928 31.0604 0.325928H29.9396Z" fill="#4AA7CD"/>
<path d="M38.5 19.7485H35.9587C35.1554 19.7491 34.4653 20.319 34.3129 21.1077C34.1604 21.8964 34.5885 22.6824 35.3337 22.9823L37.9137 24.0148C38.6589 24.3146 39.087 25.1007 38.9346 25.8894C38.7821 26.678 38.092 27.248 37.2887 27.2485H36.625" stroke="white" stroke-width="2" stroke-linecap="round" stroke-linejoin="round"/>
<path d="M36.625 19.7485V18.811" stroke="white" stroke-width="2" stroke-linecap="round" stroke-linejoin="round"/>
<path d="M37.6 30.936C41.454 30.429 44.2819 27.0613 44.1147 23.1776C43.9476 19.294 40.8408 16.1817 36.9575 16.0076C33.0742 15.8336 29.7014 18.6554 29.1875 22.5085" stroke="white" stroke-width="2" stroke-linecap="round" stroke-linejoin="round"/>
<path d="M34.75 34.7485C34.75 29.5709 30.5527 25.3735 25.375 25.3735" stroke="white" stroke-width="2" stroke-linecap="round" stroke-linejoin="round"/>
<path d="M17.875 29.1235C15.8045 31.9121 15.4454 35.6168 16.9416 38.7511C18.4379 41.8855 21.5444 43.9358 25.0146 44.0793C28.4848 44.2228 31.75 42.4361 33.5 39.436" stroke="white" stroke-width="2" stroke-linecap="round" stroke-linejoin="round"/>
<path fill-rule="evenodd" clip-rule="evenodd" d="M23.5 38.4985V30.9985H26.3125C27.348 30.9985 28.1875 31.838 28.1875 32.8735C28.1875 33.9091 27.348 34.7485 26.3125 34.7485C27.348 34.7485 28.1875 35.588 28.1875 36.6235C28.1875 37.6591 27.348 38.4985 26.3125 38.4985H23.5Z" stroke="white" stroke-width="2" stroke-linecap="round" stroke-linejoin="round"/>
<path d="M23.5 34.7485H26.3125" stroke="white" stroke-width="2" stroke-linecap="round" stroke-linejoin="round"/>
<path d="M25.375 30.9985V29.1235" stroke="white" stroke-width="2" stroke-linecap="round" stroke-linejoin="round"/>
<path d="M25.375 38.4985V40.3735" stroke="white" stroke-width="2" stroke-linecap="round" stroke-linejoin="round"/>
<path d="M16 20.686L18.8125 25.3735L23.5 22.561" stroke="white" stroke-width="2" stroke-linecap="round" stroke-linejoin="round"/>
<path d="M25.2987 16.186C21.7318 17.4867 19.4724 21.0091 19.7775 24.7935" stroke="white" stroke-width="2" stroke-linecap="round" stroke-linejoin="round"/>
<path d="M44.125 39.436L41.3125 34.7485L36.625 37.561" stroke="white" stroke-width="2" stroke-linecap="round" stroke-linejoin="round"/>
<path d="M34.8263 43.9361C38.3923 42.6356 40.6515 39.1146 40.3475 35.3311" stroke="white" stroke-width="2" stroke-linecap="round" stroke-linejoin="round"/>
</svg>
