<svg width="61" height="61" viewBox="0 0 61 61" fill="none" xmlns="http://www.w3.org/2000/svg">
<path fill-rule="evenodd" clip-rule="evenodd" d="M30.8766 0.388306C14.2399 0.388306 0.753174 13.9327 0.753174 30.5694C0.753174 47.2061 14.2399 60.7505 30.8766 60.7505C47.5134 60.7505 61.0001 47.2061 61.0001 30.5694C61.0001 13.9327 47.5134 0.388306 30.8766 0.388306Z" fill="#4AA7CD"/>
<path fill-rule="evenodd" clip-rule="evenodd" d="M42.7309 16.2718C41.8252 16.6681 41.1805 17.0125 41.1805 17.1002C41.1805 17.1427 41.3768 17.3974 41.6166 17.6662C42.5621 18.7259 42.7493 18.9529 43.1049 19.4703C46.0565 23.7661 46.4732 30.6983 44.0908 35.8733C43.4629 37.2372 42.7316 38.2808 41.6925 39.296C40.7213 40.2449 39.4922 40.9743 38.3706 41.2674C37.6565 41.454 36.378 41.4676 35.6898 41.2958C32.5703 40.5172 30.008 37.3924 28.9095 33.0269C28.5275 31.5083 28.4306 30.7088 28.4264 29.0383C28.4229 27.6473 28.435 27.4759 28.5735 26.9542C28.8818 25.7928 29.4315 25.0013 30.1544 24.6779C30.4455 24.5477 30.5831 24.5196 30.7681 24.5527C31.3158 24.6506 31.9729 25.2192 32.324 25.8992C32.7777 26.7778 32.9467 27.8556 32.8942 29.5354C32.8404 31.258 32.6089 32.4308 31.8977 34.5845L31.4636 35.8993L31.6226 36.194C31.9026 36.7129 32.363 37.3647 32.7022 37.7221C32.9795 38.0144 33.05 38.0586 33.1469 38.0012C33.385 37.8597 34.1601 36.161 34.6574 34.6907C35.2372 32.9765 35.4197 31.78 35.477 29.317C35.53 27.0406 35.4238 26.3293 34.8501 25.1151C33.91 23.1257 32.3913 21.9984 30.6512 21.9984C28.6878 21.9984 26.9115 23.5082 26.133 25.8386C25.8202 26.7751 25.7173 27.5138 25.7181 28.8173C25.7201 32.1102 26.6795 35.7539 28.2151 38.3012C29.9921 41.2488 32.6163 43.2989 35.328 43.8579C36.1894 44.0354 37.7123 44.0487 38.5643 43.8861C40.4475 43.5267 42.4138 42.3695 43.9941 40.6904C46.1325 38.4184 47.5758 35.1355 48.1393 31.262C48.3001 30.1568 48.299 26.9675 48.1375 25.849C47.8903 24.1369 47.4521 22.4567 46.8889 21.0617C46.5148 20.135 46.2639 19.6449 45.6536 18.6493C44.6968 17.0884 43.8081 15.9938 43.5027 16C43.4157 16.0018 43.0684 16.1241 42.7309 16.2718ZM14.9218 28.5275C14.3861 28.7294 13.4803 29.1773 13.218 29.3702L13 29.5305L13.0438 30.0739C13.1017 30.7912 13.3783 32.6132 13.5423 33.3571C14.2086 36.3792 15.9526 39.542 17.9667 41.381C19.4141 42.7025 21.1529 43.6198 22.7143 43.8854C23.4595 44.0123 25.5211 43.9773 26.2032 43.8263C27.1261 43.622 29.1276 42.6927 29.3221 42.3781C29.4189 42.2217 29.2661 41.9847 28.521 41.1359C28.0229 40.5685 27.8844 40.4456 27.7781 40.477C27.7062 40.4982 27.3252 40.6543 26.9315 40.8239C25.8672 41.2823 25.3511 41.4 24.3853 41.4045C23.4483 41.4089 22.8127 41.2814 21.932 40.9124C21.0643 40.5488 20.4356 40.0976 19.5395 39.1954C18.5247 38.1736 17.9872 37.4381 17.3782 36.238C16.4255 34.3605 15.9 32.3228 15.6599 29.575C15.5749 28.6016 15.5237 28.3734 15.3918 28.3783C15.3465 28.38 15.135 28.4471 14.9218 28.5275Z" fill="white"/>
</svg>
