<svg width="217" height="239" viewBox="0 0 217 239" fill="none" xmlns="http://www.w3.org/2000/svg">
<g opacity="0.6">
<mask id="mask0" mask-type="alpha" maskUnits="userSpaceOnUse" x="0" y="22" width="217" height="217">
<circle cx="108.5" cy="130.5" r="108.5" fill="#FF7B7B"/>
</mask>
<g mask="url(#mask0)">
<rect x="10.7545" y="30.6086" width="1.88711" height="1.88711" fill="white"/>
<rect x="28.682" y="30.6086" width="1.88711" height="1.88711" fill="white"/>
<rect x="46.6097" y="30.6086" width="1.88711" height="1.88711" fill="white"/>
<rect x="64.5374" y="30.6086" width="1.88711" height="1.88711" fill="white"/>
<rect x="82.465" y="30.6086" width="1.88711" height="1.88711" fill="white"/>
<rect x="100.392" y="30.6086" width="1.88711" height="1.88711" fill="white"/>
<rect x="118.32" y="30.6086" width="1.88711" height="1.88711" fill="white"/>
<rect x="136.248" y="30.6086" width="1.88711" height="1.88711" fill="white"/>
<rect x="154.175" y="30.6086" width="1.88711" height="1.88711" fill="white"/>
<rect x="172.103" y="30.6086" width="1.88711" height="1.88711" fill="white"/>
<rect x="190.03" y="30.6086" width="1.88711" height="1.88711" fill="white"/>
<rect x="207.958" y="30.6086" width="1.88711" height="1.88711" fill="white"/>
<rect x="10.7545" y="48.5363" width="1.88711" height="1.88711" fill="white"/>
<rect x="28.682" y="48.5363" width="1.88711" height="1.88711" fill="white"/>
<rect x="46.6097" y="48.5363" width="1.88711" height="1.88711" fill="white"/>
<rect x="64.5374" y="48.5363" width="1.88711" height="1.88711" fill="white"/>
<rect x="82.465" y="48.5363" width="1.88711" height="1.88711" fill="white"/>
<rect x="100.392" y="48.5363" width="1.88711" height="1.88711" fill="white"/>
<rect x="118.32" y="48.5363" width="1.88711" height="1.88711" fill="white"/>
<rect x="136.248" y="48.5363" width="1.88711" height="1.88711" fill="white"/>
<rect x="154.175" y="48.5363" width="1.88711" height="1.88711" fill="white"/>
<rect x="172.103" y="48.5363" width="1.88711" height="1.88711" fill="white"/>
<rect x="190.03" y="48.5363" width="1.88711" height="1.88711" fill="white"/>
<rect x="207.958" y="48.5363" width="1.88711" height="1.88711" fill="white"/>
<rect x="10.7545" y="66.464" width="1.88711" height="1.88711" fill="white"/>
<rect x="28.682" y="66.464" width="1.88711" height="1.88711" fill="white"/>
<rect x="46.6097" y="66.464" width="1.88711" height="1.88711" fill="white"/>
<rect x="64.5374" y="66.464" width="1.88711" height="1.88711" fill="white"/>
<rect x="82.465" y="66.464" width="1.88711" height="1.88711" fill="white"/>
<rect x="100.392" y="66.464" width="1.88711" height="1.88711" fill="white"/>
<rect x="118.32" y="66.464" width="1.88711" height="1.88711" fill="white"/>
<rect x="136.248" y="66.464" width="1.88711" height="1.88711" fill="white"/>
<rect x="154.175" y="66.464" width="1.88711" height="1.88711" fill="white"/>
<rect x="172.103" y="66.464" width="1.88711" height="1.88711" fill="white"/>
<rect x="190.03" y="66.464" width="1.88711" height="1.88711" fill="white"/>
<rect x="207.958" y="66.464" width="1.88711" height="1.88711" fill="white"/>
<rect x="10.7545" y="84.3915" width="1.88711" height="1.88711" fill="white"/>
<rect x="28.682" y="84.3915" width="1.88711" height="1.88711" fill="white"/>
<rect x="46.6097" y="84.3915" width="1.88711" height="1.88711" fill="white"/>
<rect x="64.5374" y="84.3915" width="1.88711" height="1.88711" fill="white"/>
<rect x="82.465" y="84.3915" width="1.88711" height="1.88711" fill="white"/>
<rect x="100.392" y="84.3915" width="1.88711" height="1.88711" fill="white"/>
<rect x="118.32" y="84.3915" width="1.88711" height="1.88711" fill="white"/>
<rect x="136.248" y="84.3915" width="1.88711" height="1.88711" fill="white"/>
<rect x="154.175" y="84.3915" width="1.88711" height="1.88711" fill="white"/>
<rect x="172.103" y="84.3915" width="1.88711" height="1.88711" fill="white"/>
<rect x="190.03" y="84.3915" width="1.88711" height="1.88711" fill="white"/>
<rect x="207.958" y="84.3915" width="1.88711" height="1.88711" fill="white"/>
<rect x="10.7545" y="102.319" width="1.88711" height="1.88711" fill="white"/>
<rect x="28.682" y="102.319" width="1.88711" height="1.88711" fill="white"/>
<rect x="46.6097" y="102.319" width="1.88711" height="1.88711" fill="white"/>
<rect x="64.5374" y="102.319" width="1.88711" height="1.88711" fill="white"/>
<rect x="82.465" y="102.319" width="1.88711" height="1.88711" fill="white"/>
<rect x="100.392" y="102.319" width="1.88711" height="1.88711" fill="white"/>
<rect x="118.32" y="102.319" width="1.88711" height="1.88711" fill="white"/>
<rect x="136.248" y="102.319" width="1.88711" height="1.88711" fill="white"/>
<rect x="154.175" y="102.319" width="1.88711" height="1.88711" fill="white"/>
<rect x="172.103" y="102.319" width="1.88711" height="1.88711" fill="white"/>
<rect x="190.03" y="102.319" width="1.88711" height="1.88711" fill="white"/>
<rect x="207.958" y="102.319" width="1.88711" height="1.88711" fill="white"/>
<rect x="10.7545" y="120.247" width="1.88711" height="1.88711" fill="white"/>
<rect x="28.682" y="120.247" width="1.88711" height="1.88711" fill="white"/>
<rect x="46.6097" y="120.247" width="1.88711" height="1.88711" fill="white"/>
<rect x="64.5374" y="120.247" width="1.88711" height="1.88711" fill="white"/>
<rect x="82.465" y="120.247" width="1.88711" height="1.88711" fill="white"/>
<rect x="100.392" y="120.247" width="1.88711" height="1.88711" fill="white"/>
<rect x="118.32" y="120.247" width="1.88711" height="1.88711" fill="white"/>
<rect x="136.248" y="120.247" width="1.88711" height="1.88711" fill="white"/>
<rect x="154.175" y="120.247" width="1.88711" height="1.88711" fill="white"/>
<rect x="172.103" y="120.247" width="1.88711" height="1.88711" fill="white"/>
<rect x="190.03" y="120.247" width="1.88711" height="1.88711" fill="white"/>
<rect x="207.958" y="120.247" width="1.88711" height="1.88711" fill="white"/>
<rect x="10.7545" y="138.174" width="1.88711" height="1.88711" fill="white"/>
<rect x="28.682" y="138.174" width="1.88711" height="1.88711" fill="white"/>
<rect x="46.6097" y="138.174" width="1.88711" height="1.88711" fill="white"/>
<rect x="64.5374" y="138.174" width="1.88711" height="1.88711" fill="white"/>
<rect x="82.465" y="138.174" width="1.88711" height="1.88711" fill="white"/>
<rect x="100.392" y="138.174" width="1.88711" height="1.88711" fill="white"/>
<rect x="118.32" y="138.174" width="1.88711" height="1.88711" fill="white"/>
<rect x="136.248" y="138.174" width="1.88711" height="1.88711" fill="white"/>
<rect x="154.175" y="138.174" width="1.88711" height="1.88711" fill="white"/>
<rect x="172.103" y="138.174" width="1.88711" height="1.88711" fill="white"/>
<rect x="190.03" y="138.174" width="1.88711" height="1.88711" fill="white"/>
<rect x="207.958" y="138.174" width="1.88711" height="1.88711" fill="white"/>
<rect x="10.7545" y="156.102" width="1.88711" height="1.88711" fill="white"/>
<rect x="28.682" y="156.102" width="1.88711" height="1.88711" fill="white"/>
<rect x="46.6097" y="156.102" width="1.88711" height="1.88711" fill="white"/>
<rect x="64.5374" y="156.102" width="1.88711" height="1.88711" fill="white"/>
<rect x="82.465" y="156.102" width="1.88711" height="1.88711" fill="white"/>
<rect x="100.392" y="156.102" width="1.88711" height="1.88711" fill="white"/>
<rect x="118.32" y="156.102" width="1.88711" height="1.88711" fill="white"/>
<rect x="136.248" y="156.102" width="1.88711" height="1.88711" fill="white"/>
<rect x="154.175" y="156.102" width="1.88711" height="1.88711" fill="white"/>
<rect x="172.103" y="156.102" width="1.88711" height="1.88711" fill="white"/>
<rect x="190.03" y="156.102" width="1.88711" height="1.88711" fill="white"/>
<rect x="207.958" y="156.102" width="1.88711" height="1.88711" fill="white"/>
<rect x="10.7545" y="174.029" width="1.88711" height="1.88711" fill="white"/>
<rect x="28.682" y="174.029" width="1.88711" height="1.88711" fill="white"/>
<rect x="46.6097" y="174.029" width="1.88711" height="1.88711" fill="white"/>
<rect x="64.5374" y="174.029" width="1.88711" height="1.88711" fill="white"/>
<rect x="82.465" y="174.029" width="1.88711" height="1.88711" fill="white"/>
<rect x="100.392" y="174.029" width="1.88711" height="1.88711" fill="white"/>
<rect x="118.32" y="174.029" width="1.88711" height="1.88711" fill="white"/>
<rect x="136.248" y="174.029" width="1.88711" height="1.88711" fill="white"/>
<rect x="154.175" y="174.029" width="1.88711" height="1.88711" fill="white"/>
<rect x="172.103" y="174.029" width="1.88711" height="1.88711" fill="white"/>
<rect x="190.03" y="174.029" width="1.88711" height="1.88711" fill="white"/>
<rect x="207.958" y="174.029" width="1.88711" height="1.88711" fill="white"/>
<rect x="10.7545" y="191.957" width="1.88711" height="1.88711" fill="white"/>
<rect x="28.682" y="191.957" width="1.88711" height="1.88711" fill="white"/>
<rect x="46.6097" y="191.957" width="1.88711" height="1.88711" fill="white"/>
<rect x="64.5374" y="191.957" width="1.88711" height="1.88711" fill="white"/>
<rect x="82.465" y="191.957" width="1.88711" height="1.88711" fill="white"/>
<rect x="100.392" y="191.957" width="1.88711" height="1.88711" fill="white"/>
<rect x="118.32" y="191.957" width="1.88711" height="1.88711" fill="white"/>
<rect x="136.248" y="191.957" width="1.88711" height="1.88711" fill="white"/>
<rect x="154.175" y="191.957" width="1.88711" height="1.88711" fill="white"/>
<rect x="172.103" y="191.957" width="1.88711" height="1.88711" fill="white"/>
<rect x="190.03" y="191.957" width="1.88711" height="1.88711" fill="white"/>
<rect x="207.958" y="191.957" width="1.88711" height="1.88711" fill="white"/>
<rect x="10.7545" y="209.885" width="1.88711" height="1.88711" fill="white"/>
<rect x="28.682" y="209.885" width="1.88711" height="1.88711" fill="white"/>
<rect x="46.6097" y="209.885" width="1.88711" height="1.88711" fill="white"/>
<rect x="64.5374" y="209.885" width="1.88711" height="1.88711" fill="white"/>
<rect x="82.465" y="209.885" width="1.88711" height="1.88711" fill="white"/>
<rect x="100.392" y="209.885" width="1.88711" height="1.88711" fill="white"/>
<rect x="118.32" y="209.885" width="1.88711" height="1.88711" fill="white"/>
<rect x="136.248" y="209.885" width="1.88711" height="1.88711" fill="white"/>
<rect x="154.175" y="209.885" width="1.88711" height="1.88711" fill="white"/>
<rect x="172.103" y="209.885" width="1.88711" height="1.88711" fill="white"/>
<rect x="190.03" y="209.885" width="1.88711" height="1.88711" fill="white"/>
<rect x="207.958" y="209.885" width="1.88711" height="1.88711" fill="white"/>
<rect x="10.7545" y="227.812" width="1.88711" height="1.88711" fill="white"/>
<rect x="28.682" y="227.812" width="1.88711" height="1.88711" fill="white"/>
<rect x="46.6097" y="227.812" width="1.88711" height="1.88711" fill="white"/>
<rect x="64.5374" y="227.812" width="1.88711" height="1.88711" fill="white"/>
<rect x="82.465" y="227.812" width="1.88711" height="1.88711" fill="white"/>
<rect x="100.392" y="227.812" width="1.88711" height="1.88711" fill="white"/>
<rect x="118.32" y="227.812" width="1.88711" height="1.88711" fill="white"/>
<rect x="136.248" y="227.812" width="1.88711" height="1.88711" fill="white"/>
<rect x="154.175" y="227.812" width="1.88711" height="1.88711" fill="white"/>
<rect x="172.103" y="227.812" width="1.88711" height="1.88711" fill="white"/>
<rect x="190.03" y="227.812" width="1.88711" height="1.88711" fill="white"/>
<rect x="207.958" y="227.812" width="1.88711" height="1.88711" fill="white"/>
</g>
</g>
<g opacity="0.8">
<rect x="76" y="8" width="132" height="149" fill="#121B37"/>
<path d="M114.326 86.8125C116.095 84.5171 119.633 79.2379 119.633 76.4835C117.864 69.3516 113.737 57.7929 119.633 48.4477C116.803 42.5454 114.916 37.2989 114.326 35.4135L125.529 40.5779C136.437 39.3483 152.063 38.6105 159.728 42.5454C165.153 40.9714 173.584 37.9547 177.122 36.6431L167.098 53.3662C167.098 57.547 168.867 58.4533 168.867 72.5486C168.867 76.4835 168.867 78.205 168.867 78.205L181.544 86.8125C186.556 90.7473 190.979 97.8792 192.158 104.765" stroke="#E8F4FF" stroke-width="2" stroke-linecap="round" stroke-linejoin="round"/>
<path d="M114.326 86.6899C108.135 93.33 96.3424 115.587 100.47 131.326C102.091 135.466 106.543 142.024 111.378 135.138M119.043 131.326C120.714 135.671 128.124 144.385 134.963 144.975M110.346 133.785C111.526 133.908 114.179 134.646 119.043 132.556" stroke="#E8F4FF" stroke-width="2" stroke-linecap="round" stroke-linejoin="round"/>
<path d="M126.414 56.0714C124.35 56.4403 122.729 53.858 122.286 52.3824C125.087 52.3824 128.949 53.0956 129.067 53.4891C129.215 53.981 128.478 55.7025 126.414 56.0714Z" fill="#E8F4FF"/>
<path d="M137.912 56.0714C139.975 54.1039 142.924 51.8906 148.82 53.4891C147.169 54.768 142.924 58.6536 137.912 56.0714Z" fill="#E8F4FF"/>
<path d="M160.17 46.2346C165.005 43.5785 174.272 38.6108 176.238 37.75M116.095 37.2582L121.697 42.0538" stroke="#E8F4FF" stroke-width="1.5" stroke-linecap="round" stroke-linejoin="round"/>
<path d="M125.024 67.043C129.861 64.8601 131.934 66.4973 134.975 67.9525C137.677 69.2457 140.27 69.3897 142.172 67.7462C142.392 67.5253 142.619 67.2911 142.853 67.043C142.637 67.3063 142.41 67.5403 142.172 67.7462C138.349 71.5739 136.38 71.4126 132.072 70.6811C127.788 69.9534 126.682 71.4086 125.024 67.043Z" fill="#E8F4FF"/>
<path d="M127.698 61.2911C127.698 62.408 129.752 62.5476 129.873 63.9437C129.873 62.1287 133.499 62.1288 134.828 60.8722C129.269 58.08 127.698 60.1741 127.698 61.2911Z" fill="#E8F4FF"/>
<path d="M129.067 139.687C132.605 142.392 137.912 145.344 144.103 145.59" stroke="#E8F4FF" stroke-width="2" stroke-linecap="round" stroke-linejoin="round"/>
<path d="M133.784 136.736C137.794 140.474 141.941 143.253 143.513 144.483C144.889 145.057 148.037 145.782 145.577 143.253C139.239 136.736 137.814 135.056 135.258 133.416C136.674 134.372 142.924 136.971 145.577 137.966C147.444 138.54 150.412 139.687 147.346 136.736C143.513 133.047 131.131 125.669 126.709 124.194C122.463 124.194 116.292 123.374 113.737 122.964" stroke="#E8F4FF" stroke-width="2" stroke-linecap="round" stroke-linejoin="round"/>
<path d="M175.648 82.8781C162.676 86.567 134.963 98.3715 126.708 122.964M186.556 94.1908C174.469 94.1908 153.832 93.9448 131.72 116.816" stroke="#E8F4FF" stroke-width="2" stroke-linecap="round" stroke-linejoin="round"/>
<path d="M159.433 145.098C157.959 128.866 159.433 104.765 187.441 94.6824" stroke="#E8F4FF" stroke-width="2" stroke-linecap="round" stroke-linejoin="round"/>
<path d="M123.613 94.1903C126.414 96.2807 126.856 98.8629 138.354 98.617" stroke="#E8F4FF" stroke-width="2" stroke-linecap="round" stroke-linejoin="round"/>
<path d="M117.569 121.734C114.621 105.257 117.422 92.3458 121.254 87.4272" stroke="#E8F4FF" stroke-width="2" stroke-linecap="round" stroke-linejoin="round"/>
<path d="M119.633 75.9919C121.991 78.6972 131.131 94.4366 153.242 75.9919" stroke="#E8F4FF" stroke-width="2" stroke-linecap="round" stroke-linejoin="round"/>
<ellipse cx="145.145" cy="54.4819" rx="1.33701" ry="1.1153" fill="#000004"/>
<ellipse cx="126.565" cy="54.2359" rx="1.33701" ry="1.1153" fill="#000004"/>
<rect x="93.42" y="23.142" width="99.3016" height="123.161" rx="2.5" stroke="#E8F4FF" stroke-width="3"/>
<rect x="77.5" y="11.0912" width="129.668" height="146.524" rx="2.5" stroke="#E8F4FF" stroke-width="3"/>
<path d="M133.784 9.59123L142.629 2.21338L151.473 9.59123" stroke="#E8F4FF" stroke-width="2" stroke-linecap="round" stroke-linejoin="round"/>
<ellipse cx="142.924" cy="2.45928" rx="2.94817" ry="2.45928" fill="#E8F4FF"/>
<path d="M76.8843 10.3289L92.5096 22.3793" stroke="#E8F4FF" stroke-width="2" stroke-linecap="round" stroke-linejoin="round"/>
<path d="M206.604 10.8208L193.337 23.1172" stroke="#E8F4FF" stroke-width="2" stroke-linecap="round" stroke-linejoin="round"/>
<path d="M77.769 157.64L92.5099 146.819" stroke="#E8F4FF" stroke-width="2" stroke-linecap="round" stroke-linejoin="round"/>
<path d="M193.337 147.557L207.194 157.886" stroke="#E8F4FF" stroke-width="2" stroke-linecap="round" stroke-linejoin="round"/>
<path d="M87.6453 17.83C92.2149 17.5841 91.7727 13.0344 96.932 13.0344C102.091 13.0344 100.322 17.83 105.777 17.83C111.231 17.83 110.051 13.0344 115.211 13.0344C120.075 13.0344 120.075 18.076 124.792 18.1989C129.509 18.3219 128.33 13.0344 133.784 13.0344C139.828 13.0344 137.027 18.1989 143.218 18.1989C148.82 18.1989 146.461 13.0344 152.21 13.0344C158.254 13.0344 156.633 18.1989 161.644 18.1989C166.656 18.1989 164.74 13.0344 170.636 13.0344C176.533 13.0344 173.29 18.1989 179.776 18.1989C185.819 18.1989 183.608 13.0344 188.915 13.0344C194.664 13.0344 192.305 18.1989 197.612 18.1989" stroke="#E8F4FF" stroke-width="2" stroke-linecap="round" stroke-linejoin="round"/>
<path d="M87.7927 150.879C92.3624 151.125 91.9202 155.673 97.0795 155.673C102.239 155.673 100.47 150.879 105.924 150.879C111.378 150.879 110.199 155.673 115.358 155.673C120.223 155.673 120.223 150.633 124.94 150.51C129.657 150.387 128.478 155.673 133.932 155.673C139.975 155.673 137.175 150.51 143.366 150.51C148.967 150.51 146.609 155.673 152.358 155.673C158.401 155.673 156.78 150.51 161.792 150.51C166.804 150.51 164.887 155.673 170.784 155.673C176.68 155.673 173.437 150.51 179.923 150.51C185.967 150.51 183.756 155.673 189.062 155.673C194.811 155.673 192.453 150.51 197.76 150.51" stroke="#E8F4FF" stroke-width="2" stroke-linecap="round" stroke-linejoin="round"/>
<path d="M87.6427 19.6742C87.348 23.7518 81.8961 23.3572 81.8961 27.9609C81.8961 32.5647 87.6427 30.9862 87.6427 35.853C87.6427 40.7199 81.8961 39.6676 81.8961 44.2713C81.8961 48.612 87.9374 48.612 88.0847 52.8211C88.2321 57.0302 81.8961 55.978 81.8961 60.8448C81.8961 66.2377 88.0847 63.7385 88.0847 69.263C88.0847 74.2614 81.8961 72.1568 81.8961 77.2867C81.8961 82.6796 88.0847 81.2327 88.0847 85.705C88.0847 90.1772 81.8961 88.4672 81.8961 93.7286C81.8961 98.99 87.6427 96.0267 87.6427 101.814C87.6427 106.364 81.8961 105.304 81.8961 110.039C81.8961 115.169 88.0847 113.064 88.0847 117.8C88.0847 122.472 81.1591 120.874 81.1591 125.669C81.1591 130.465 86.7606 129.973 86.7606 135.015C86.7606 141.04 81.1591 136.859 81.1591 142.515C81.1591 148.172 86.7606 144.975 86.7606 150.139" stroke="#E8F4FF" stroke-width="2" stroke-linecap="round" stroke-linejoin="round"/>
<path d="M197.762 19.9204C198.03 24.0018 202.986 23.6069 202.986 28.2149C202.986 32.823 197.762 31.2431 197.762 36.1145C197.762 40.9859 202.986 39.9326 202.986 44.5407C202.986 48.8855 197.896 47.9239 197.762 52.137C197.628 56.3501 202.986 56.2584 202.986 61.1298C202.986 66.5278 197.762 63.0845 197.762 68.6142C197.762 73.6173 202.986 72.4525 202.986 77.5872C202.986 82.9852 197.762 80.615 197.762 85.0914C197.762 89.5678 202.986 88.7782 202.986 94.0446C202.986 99.311 197.762 96.3449 197.762 102.138C197.762 106.692 202.986 105.631 202.986 110.37C202.986 115.505 197.762 113.798 197.762 118.538C197.762 123.215 203.656 121.215 203.656 126.015C203.656 130.816 198.564 130.323 198.564 135.369C198.564 141.4 203.656 137.216 203.656 142.877C203.656 148.539 198.564 145.339 198.564 150.508" stroke="#E8F4FF" stroke-width="2" stroke-linecap="round" stroke-linejoin="round"/>
</g>
</svg>
