<svg width="235" height="30" viewBox="0 0 235 30" fill="none" xmlns="http://www.w3.org/2000/svg">
<g opacity="0.7">
<path fill-rule="evenodd" clip-rule="evenodd" d="M23.5251 0.0551887C23.393 0.138823 23.333 0.274089 22.7317 1.84504C22.3987 2.71471 22.319 2.84344 22.13 2.81634C21.9365 2.78843 21.883 2.63578 21.6534 1.45581C21.4212 0.262331 21.3719 0.123384 21.1712 0.0948587C20.8714 0.0523259 20.7794 0.258855 20.6331 1.30244C20.3414 3.38266 20.1787 3.42591 19.4478 1.61725C18.9458 0.375105 18.748 0.0904622 18.4626 0.199555C18.3464 0.243928 18.3324 0.520902 18.3861 1.72388C18.449 3.13227 18.3928 3.53777 18.1555 3.39135C18.1056 3.36068 17.7597 2.86654 17.3868 2.29337C17.0139 1.72031 16.6139 1.14785 16.4978 1.02128C16.2907 0.795729 15.9698 0.716287 15.8782 0.867912C15.8528 0.910138 15.9866 1.56572 16.1757 2.32486C16.5495 3.82639 16.5918 4.16523 16.4052 4.16523C16.3382 4.16523 15.8374 3.72814 15.2925 3.19392C14.7474 2.65971 14.2316 2.22262 14.1461 2.22262C14.0605 2.22262 13.9343 2.29031 13.8654 2.37302C13.7638 2.4952 13.8477 2.75653 14.3141 3.77047C14.8889 5.02038 14.9732 5.28989 14.7888 5.28989C14.7344 5.28989 14.2282 4.98807 13.6641 4.61928C13.0999 4.2505 12.4757 3.9224 12.2771 3.89019C11.9438 3.83621 11.916 3.85165 11.916 4.08998C11.916 4.31194 12.5075 5.23887 13.2615 6.19831C13.3669 6.33246 13.4531 6.50995 13.4531 6.59276C13.4531 6.79265 13.1567 6.71525 11.9345 6.19617C11.4014 5.9698 10.8554 5.80315 10.704 5.82073C10.1811 5.88126 10.32 6.16928 11.3958 7.25468C11.9637 7.82775 12.4284 8.33313 12.4284 8.37791C12.4284 8.49938 12.3277 8.48609 10.721 8.15267C8.98423 7.79227 8.94427 7.78961 8.94427 8.03264C8.94427 8.28866 9.23222 8.52432 10.4552 9.26916C11.5196 9.91748 11.6845 10.0533 11.5595 10.1788C11.5212 10.2172 10.8363 10.2716 10.0378 10.2998L8.58561 10.3509V10.6065C8.58561 10.8378 8.70222 10.9083 9.81262 11.3487C11.1829 11.8922 11.4381 12.0606 11.1338 12.221C11.0286 12.2764 10.4122 12.4211 9.76405 12.5423C8.32133 12.8125 8.25862 12.8307 8.19467 12.9968C8.09159 13.2647 8.31283 13.3742 9.25896 13.5238C11.8603 13.9349 11.8884 13.9965 9.84111 14.8066C8.59514 15.2995 8.32943 15.4571 8.32943 15.7028C8.32943 15.8742 8.44409 15.8835 10.0334 15.8401C11.453 15.8013 11.7294 15.8172 11.6904 15.935C11.639 16.0906 11.2267 16.4129 10.0369 17.2276C9.28632 17.7417 9.07359 18.0505 9.35201 18.2222C9.40724 18.2563 10.1202 18.1346 10.9367 17.9519C11.753 17.7692 12.4547 17.6534 12.4961 17.6947C12.5375 17.736 12.1776 18.171 11.6962 18.6612C11.2149 19.1516 10.7216 19.6854 10.5999 19.8477C10.0332 20.6037 10.5713 20.6078 12.1494 19.8594C13.3111 19.3085 13.658 19.2011 13.658 19.3925C13.658 19.4449 13.3112 20.0047 12.8871 20.6365C12.1584 21.7222 11.9219 22.1999 12.05 22.3277C12.1963 22.4736 12.7766 22.189 13.7547 21.4915C14.3433 21.0718 14.8829 20.7285 14.9538 20.7285C15.1228 20.7285 14.963 21.2537 14.39 22.5812C13.8913 23.737 13.858 24.0002 14.2108 24.0002C14.389 24.0002 14.7401 23.7034 15.4933 22.9164C16.1227 22.2586 16.5856 21.8535 16.6705 21.8861C16.7854 21.9301 16.7661 22.1566 16.5631 23.1489C16.2913 24.4779 16.2871 24.8512 16.5436 24.8997C16.756 24.9398 17.0684 24.6115 17.4501 23.9473C17.9729 23.0372 18.3794 22.5355 18.4979 22.6538C18.5589 22.7146 18.6283 23.4123 18.6569 24.2501C18.7065 25.7081 18.7121 25.7383 18.9369 25.7383C19.1866 25.7383 19.2804 25.5582 19.9096 23.8724C20.1593 23.2035 20.29 22.9778 20.4276 22.9778C20.622 22.9778 20.623 22.9813 20.9945 24.9715C21.3004 26.6103 21.6376 26.5344 21.9031 24.767C22.0895 23.526 22.2338 22.9778 22.3738 22.9778C22.5069 22.9778 22.732 23.3554 22.9833 24.0002C23.544 25.4391 23.7164 25.7383 23.9844 25.7383H24.2403L24.1683 24.2814C24.0989 22.8767 24.1341 22.4666 24.324 22.4666C24.3729 22.4666 24.731 22.9382 25.1195 23.5146C25.9077 24.684 26.1808 24.9735 26.4122 24.8849C26.6323 24.8006 26.6099 24.4075 26.3241 23.3357C25.9706 22.0097 25.9334 21.7509 26.0966 21.7509C26.1719 21.7509 26.6556 22.1391 27.1716 22.6135C28.1331 23.4977 28.4826 23.7092 28.6188 23.4895C28.7291 23.3115 28.5949 22.8522 28.1172 21.7713C27.7033 20.8351 27.6186 20.524 27.7775 20.524C27.8218 20.524 28.3633 20.871 28.9807 21.2952C29.777 21.8421 30.1781 22.0577 30.3604 22.0365C30.8398 21.9805 30.7051 21.6734 29.3423 19.7163C29.17 19.4687 29.029 19.2273 29.029 19.1795C29.029 19.0125 29.3558 19.0954 30.1374 19.4604C31.1331 19.9255 31.9982 20.2309 32.1152 20.1587C32.3778 19.9967 32.1406 19.6105 31.1809 18.6374C30.6173 18.066 30.1562 17.5665 30.1562 17.5276C30.1562 17.3983 30.6039 17.4499 31.8649 17.7243C33.1248 17.9985 33.4354 17.9976 33.4354 17.7195C33.4354 17.4963 33.1361 17.2517 31.9993 16.5457C31.4402 16.1985 30.9522 15.8652 30.915 15.8051C30.7822 15.5907 31.1468 15.5172 32.3594 15.5141C33.65 15.5108 33.8883 15.4527 33.8297 15.1549C33.7841 14.9235 33.7092 14.8834 32.385 14.3823C30.8291 13.7934 30.8638 13.6899 32.7342 13.3415C33.5322 13.1928 34.2207 13.0137 34.2642 12.9434C34.4622 12.6237 34.1749 12.4935 32.7664 12.2642C31.9945 12.1386 31.3219 12.0105 31.2719 11.9797C31.0101 11.8183 31.2667 11.6173 32.1801 11.268C33.7651 10.6619 33.8232 10.6342 33.9324 10.4307C34.1429 10.0381 33.9597 9.98843 32.4064 10.017C31.1603 10.04 30.9263 10.0202 30.9036 9.89079C30.8867 9.79479 31.3073 9.45064 32.0279 8.97061C32.9826 8.33467 33.1792 8.16014 33.1792 7.94819C33.1792 7.71303 33.1464 7.69504 32.7693 7.72316C32.5438 7.73992 31.9753 7.84339 31.5059 7.9532C30.6333 8.15717 30.0537 8.2084 30.0537 8.08162C30.0537 8.04246 30.5379 7.52031 31.1297 6.92106C32.2662 5.77033 32.4646 5.39213 31.9316 5.39213C31.7807 5.39213 31.0629 5.66819 30.3364 6.00559C29.6097 6.34299 28.9953 6.61904 28.9709 6.61904C28.7865 6.61904 29.0345 6.1112 29.6288 5.27282C30.3929 4.19457 30.6222 3.74286 30.5287 3.49973C30.4763 3.36365 30.4 3.37602 29.979 3.58919C29.7101 3.72528 29.2135 4.03885 28.8753 4.28597C28.0326 4.90178 27.4928 5.22262 27.4206 5.15064C27.3601 5.09021 27.4622 4.83011 28.1483 3.29617C28.5407 2.41872 28.6029 2.04472 28.3712 1.95608C28.1428 1.86866 27.7648 2.17242 26.9135 3.12726C25.6942 4.49485 25.5889 4.40345 26.0528 2.37946C26.2282 1.61397 26.3444 0.943469 26.311 0.889383C26.1987 0.70821 25.869 0.788879 25.6652 1.04745C25.5541 1.18834 25.1748 1.76345 24.8222 2.32548C24.4696 2.8875 24.1191 3.34729 24.0433 3.34729C23.8725 3.34729 23.8607 3.22869 23.8571 1.46552C23.8542 0.077273 23.807 -0.123326 23.5251 0.0551887ZM24.9816 6.55248C25.6626 6.86892 26.4897 7.7799 26.7829 8.53639C26.9352 8.92941 27.0256 9.42866 27.0557 10.0442C27.0979 10.9051 27.0818 11.0003 26.8052 11.5249C26.619 11.8778 26.3464 12.1998 26.0693 12.394C25.4635 12.8184 24.5894 12.831 23.8955 12.4254C22.5529 11.6403 21.7197 9.78702 22.0492 8.31841C22.302 7.19129 23.2028 6.31088 24.1008 6.31334C24.3033 6.31385 24.6996 6.42151 24.9816 6.55248ZM18.7042 7.61375C19.9243 8.27629 20.6055 9.99447 20.3128 11.671C19.9507 13.7456 17.9242 14.5347 16.5522 13.1352C15.2852 11.843 15.094 9.34001 16.1656 8.07211C16.8181 7.29977 17.7997 7.12258 18.7042 7.61375ZM22.8803 7.93285C22.4621 8.35 22.3938 8.84966 22.6754 9.43009C23.0559 10.2145 23.7923 10.4283 24.3156 9.90613C24.7359 9.48683 24.8146 8.94096 24.5316 8.40869C24.1181 7.63093 23.3925 7.42185 22.8803 7.93285ZM17.6525 9.04729C17.2228 9.43387 17.1512 9.94048 17.4418 10.5393C17.9703 11.6287 19.2389 11.4974 19.4583 10.3306C19.6801 9.15148 18.4828 8.30052 17.6525 9.04729Z" fill="white"/>
<path d="M0 3.26799V26.1481C0 28.8721 1.79773 29.9616 3.54097 29.9616H40.3126C42.9275 29.9616 43.5812 27.4193 43.5812 26.1481V3.26802C43.5812 0.544423 41.6745 0.816922 40.8574 1.63407C40.0403 2.45122 24.9503 18.3581 23.4249 19.8834C21.8996 21.4088 20.4287 20.519 19.8839 19.8834C15.0718 14.8897 5.06632 4.412 3.54097 2.45084C2.01563 0.489688 0 1.08916 0 3.26799Z" fill="#B6B6B6"/>
<path d="M67.5367 15.6846C67.5367 16.6779 67.3611 17.5487 67.01 18.2972C66.6589 19.0456 66.1553 19.6231 65.4993 20.0297C64.8478 20.4362 64.0994 20.6395 63.2539 20.6395C62.4177 20.6395 61.6716 20.4385 61.0156 20.0366C60.3595 19.6347 59.8513 19.0618 59.491 18.318C59.1306 17.5695 58.9481 16.7102 58.9435 15.74V15.2411C58.9435 14.2478 59.1214 13.3746 59.4771 12.6215C59.8375 11.8638 60.3433 11.284 60.9948 10.8821C61.6508 10.4755 62.3992 10.2722 63.2401 10.2722C64.0809 10.2722 64.827 10.4755 65.4785 10.8821C66.1345 11.284 66.6404 11.8638 66.9961 12.6215C67.3565 13.3746 67.5367 14.2454 67.5367 15.2341V15.6846ZM65.43 15.2272C65.43 14.1692 65.2405 13.3653 64.8617 12.8156C64.4829 12.2658 63.9423 11.9909 63.2401 11.9909C62.5425 11.9909 62.0042 12.2635 61.6254 12.8086C61.2466 13.3492 61.0548 14.1438 61.0502 15.1925V15.6846C61.0502 16.7148 61.2396 17.5141 61.6185 18.0824C61.9973 18.6506 62.5425 18.9347 63.2539 18.9347C63.9516 18.9347 64.4875 18.6622 64.8617 18.117C65.2359 17.5672 65.4253 16.768 65.43 15.7192V15.2272Z" fill="white"/>
<path d="M70.7938 13.0027L70.8561 13.8412C71.3874 13.1898 72.1059 12.8641 73.0114 12.8641C73.977 12.8641 74.6399 13.2452 75.0003 14.0075C75.527 13.2452 76.2777 12.8641 77.2525 12.8641C78.0656 12.8641 78.6709 13.102 79.0682 13.5779C79.4655 14.0491 79.6642 14.7606 79.6642 15.7123V20.5009H77.6545V15.7192C77.6545 15.2942 77.5713 14.9846 77.405 14.7906C77.2387 14.5919 76.9453 14.4926 76.5249 14.4926C75.9243 14.4926 75.5085 14.7791 75.2775 15.3519L75.2844 20.5009H73.2816V15.7262C73.2816 15.2919 73.1962 14.9777 73.0252 14.7837C72.8543 14.5896 72.5632 14.4926 72.1521 14.4926C71.5838 14.4926 71.1726 14.7282 70.9185 15.1995V20.5009H68.9157V13.0027H70.7938Z" fill="white"/>
<path d="M83.0529 13.0027L83.1153 13.8689C83.6512 13.199 84.3696 12.8641 85.2705 12.8641C86.0652 12.8641 86.6565 13.0974 87.0446 13.564C87.4327 14.0306 87.6314 14.7282 87.6406 15.6569V20.5009H85.6378V15.7054C85.6378 15.2803 85.5454 14.9731 85.3606 14.7837C85.1758 14.5896 84.8686 14.4926 84.4389 14.4926C83.8753 14.4926 83.4526 14.7329 83.1707 15.2133V20.5009H81.168V13.0027H83.0529Z" fill="white"/>
<path d="M91.2788 20.5009H89.2691V13.0027H91.2788V20.5009ZM89.1513 11.0623C89.1513 10.762 89.2507 10.5148 89.4493 10.3208C89.6526 10.1267 89.9275 10.0297 90.274 10.0297C90.6159 10.0297 90.8885 10.1267 91.0917 10.3208C91.295 10.5148 91.3967 10.762 91.3967 11.0623C91.3967 11.3672 91.2927 11.6167 91.0848 11.8107C90.8815 12.0047 90.6113 12.1018 90.274 12.1018C89.9367 12.1018 89.6642 12.0047 89.4563 11.8107C89.253 11.6167 89.1513 11.3672 89.1513 11.0623Z" fill="white"/>
<path d="M93.0668 20.5009V10.4108H96.6011C97.8254 10.4108 98.754 10.6465 99.3869 11.1177C100.02 11.5843 100.336 12.2704 100.336 13.1759C100.336 13.6703 100.209 14.1068 99.9552 14.4857C99.7011 14.8599 99.3477 15.1348 98.8949 15.3104C99.4123 15.4397 99.8189 15.7007 100.115 16.0934C100.415 16.4861 100.565 16.9666 100.565 17.5349C100.565 18.5051 100.255 19.2397 99.6364 19.7386C99.0173 20.2376 98.1349 20.4917 96.9892 20.5009H93.0668ZM95.1458 16.1073V18.8308H96.9268C97.4165 18.8308 97.7977 18.7153 98.0702 18.4843C98.3474 18.2487 98.486 17.9253 98.486 17.5141C98.486 16.5901 98.0079 16.1212 97.0515 16.1073H95.1458ZM95.1458 14.6381H96.6842C97.733 14.6197 98.2573 14.2016 98.2573 13.3838C98.2573 12.9264 98.1234 12.5984 97.8554 12.3998C97.5921 12.1965 97.174 12.0948 96.6011 12.0948H95.1458V14.6381Z" fill="white"/>
<path d="M106.213 14.8807C105.94 14.8437 105.7 14.8253 105.492 14.8253C104.735 14.8253 104.238 15.0817 104.002 15.5945V20.5009H102V13.0027H103.891L103.947 13.8966C104.349 13.2083 104.906 12.8641 105.617 12.8641C105.839 12.8641 106.047 12.8941 106.241 12.9542L106.213 14.8807Z" fill="white"/>
<path d="M109.297 20.5009H107.287V13.0027H109.297V20.5009ZM107.169 11.0623C107.169 10.762 107.269 10.5148 107.467 10.3208C107.671 10.1267 107.945 10.0297 108.292 10.0297C108.634 10.0297 108.906 10.1267 109.11 10.3208C109.313 10.5148 109.415 10.762 109.415 11.0623C109.415 11.3672 109.311 11.6167 109.103 11.8107C108.9 12.0047 108.629 12.1018 108.292 12.1018C107.955 12.1018 107.682 12.0047 107.474 11.8107C107.271 11.6167 107.169 11.3672 107.169 11.0623Z" fill="white"/>
<path d="M110.641 16.6964C110.641 15.5275 110.902 14.5966 111.424 13.9036C111.951 13.2106 112.669 12.8641 113.58 12.8641C114.31 12.8641 114.912 13.1366 115.388 13.6818V9.85645H117.398V20.5009H115.589L115.492 19.704C114.993 20.3277 114.351 20.6395 113.566 20.6395C112.683 20.6395 111.974 20.293 111.438 19.6C110.907 18.9024 110.641 17.9345 110.641 16.6964ZM112.644 16.8419C112.644 17.5441 112.766 18.0824 113.011 18.4566C113.256 18.8308 113.612 19.0179 114.079 19.0179C114.698 19.0179 115.134 18.7569 115.388 18.2348V15.2757C115.139 14.7536 114.707 14.4926 114.092 14.4926C113.127 14.4926 112.644 15.2757 112.644 16.8419Z" fill="white"/>
<path d="M118.659 16.6964C118.659 15.546 118.932 14.6197 119.477 13.9174C120.027 13.2152 120.766 12.8641 121.695 12.8641C122.517 12.8641 123.157 13.1459 123.614 13.7095L123.697 13.0027H125.513V20.2514C125.513 20.9075 125.363 21.478 125.063 21.9631C124.767 22.4482 124.349 22.8178 123.808 23.0719C123.268 23.326 122.635 23.4531 121.909 23.4531C121.36 23.4531 120.824 23.3422 120.302 23.1205C119.78 22.9033 119.385 22.6215 119.117 22.275L120.004 21.0553C120.503 21.6143 121.108 21.8938 121.819 21.8938C122.351 21.8938 122.764 21.7506 123.06 21.4642C123.355 21.1824 123.503 20.7804 123.503 20.2584V19.8564C123.041 20.3785 122.434 20.6395 121.681 20.6395C120.78 20.6395 120.05 20.2884 119.491 19.5862C118.936 18.8793 118.659 17.9438 118.659 16.7795V16.6964ZM120.662 16.8419C120.662 17.521 120.798 18.0546 121.071 18.4427C121.343 18.8262 121.718 19.0179 122.194 19.0179C122.803 19.0179 123.24 18.7892 123.503 18.3318V15.1787C123.235 14.7213 122.803 14.4926 122.207 14.4926C121.727 14.4926 121.348 14.689 121.071 15.0817C120.798 15.4744 120.662 16.0611 120.662 16.8419Z" fill="white"/>
<path d="M130.51 20.6395C129.41 20.6395 128.514 20.3023 127.821 19.6277C127.132 18.9532 126.788 18.0546 126.788 16.932V16.7379C126.788 15.9849 126.934 15.3127 127.225 14.7213C127.516 14.1253 127.927 13.6679 128.458 13.3492C128.994 13.0258 129.604 12.8641 130.288 12.8641C131.313 12.8641 132.12 13.1875 132.706 13.8343C133.298 14.4811 133.593 15.3981 133.593 16.5855V17.4032H128.819C128.883 17.8929 129.077 18.2856 129.401 18.5813C129.729 18.877 130.142 19.0248 130.641 19.0248C131.413 19.0248 132.016 18.7453 132.45 18.1863L133.434 19.2882C133.134 19.7132 132.727 20.0458 132.214 20.2861C131.702 20.5217 131.133 20.6395 130.51 20.6395ZM130.281 14.4857C129.884 14.4857 129.56 14.6197 129.311 14.8876C129.066 15.1556 128.909 15.539 128.839 16.038H131.625V15.8786C131.616 15.4351 131.496 15.0932 131.265 14.853C131.034 14.6081 130.706 14.4857 130.281 14.4857Z" fill="white"/>
<path d="M145.028 16.8211C145.028 18.0223 144.771 18.9602 144.259 19.6347C143.746 20.3046 143.03 20.6395 142.11 20.6395C141.297 20.6395 140.648 20.3277 140.163 19.704L140.073 20.5009H138.271V9.85645H140.274V13.6749C140.736 13.1343 141.343 12.8641 142.096 12.8641C143.011 12.8641 143.727 13.2013 144.245 13.8758C144.767 14.5457 145.028 15.4905 145.028 16.7102V16.8211ZM143.025 16.6756C143.025 15.9179 142.905 15.3658 142.665 15.0193C142.425 14.6682 142.066 14.4926 141.591 14.4926C140.953 14.4926 140.514 14.7536 140.274 15.2757V18.2348C140.519 18.7615 140.962 19.0248 141.604 19.0248C142.251 19.0248 142.676 18.7061 142.88 18.0685C142.977 17.7636 143.025 17.2993 143.025 16.6756Z" fill="white"/>
<path d="M148.985 17.6666L150.371 13.0027H152.519L149.505 21.6652L149.338 22.0602C148.89 23.0396 148.151 23.5293 147.121 23.5293C146.83 23.5293 146.534 23.4854 146.234 23.3977V21.88L146.539 21.8869C146.917 21.8869 147.199 21.8292 147.384 21.7137C147.574 21.5982 147.721 21.4064 147.828 21.1385L148.063 20.5217L145.437 13.0027H147.592L148.985 17.6666Z" fill="white"/>
<path d="M164.896 17.1399C164.818 18.2256 164.416 19.0803 163.69 19.704C162.97 20.3277 162.018 20.6395 160.835 20.6395C159.542 20.6395 158.523 20.2052 157.779 19.3367C157.04 18.4635 156.67 17.2669 156.67 15.7469V15.1302C156.67 14.16 156.841 13.3053 157.183 12.5661C157.525 11.8269 158.012 11.2609 158.645 10.8682C159.283 10.4709 160.022 10.2722 160.863 10.2722C162.027 10.2722 162.965 10.5841 163.677 11.2078C164.388 11.8315 164.799 12.707 164.91 13.8343H162.831C162.78 13.1828 162.598 12.7116 162.284 12.4205C161.974 12.1249 161.5 11.977 160.863 11.977C160.17 11.977 159.65 12.2265 159.304 12.7255C158.962 13.2198 158.786 13.989 158.777 15.0332V15.7955C158.777 16.8858 158.941 17.6827 159.269 18.1863C159.602 18.6899 160.124 18.9417 160.835 18.9417C161.477 18.9417 161.956 18.7961 162.27 18.5051C162.588 18.2094 162.771 17.7543 162.817 17.1399H164.896Z" fill="white"/>
<path d="M170.475 20.5009C170.382 20.3207 170.315 20.0967 170.274 19.8287C169.789 20.3692 169.158 20.6395 168.382 20.6395C167.647 20.6395 167.038 20.427 166.552 20.002C166.072 19.5769 165.832 19.041 165.832 18.3942C165.832 17.5996 166.125 16.9897 166.712 16.5647C167.303 16.1396 168.156 15.9248 169.269 15.9202H170.191V15.4905C170.191 15.144 170.101 14.8668 169.92 14.6589C169.745 14.451 169.465 14.3471 169.082 14.3471C168.745 14.3471 168.479 14.4279 168.285 14.5896C168.096 14.7513 168.001 14.9731 168.001 15.2549H165.998C165.998 14.8206 166.132 14.4187 166.4 14.0491C166.668 13.6795 167.047 13.3907 167.537 13.1828C168.026 12.9703 168.576 12.8641 169.186 12.8641C170.11 12.8641 170.842 13.0974 171.383 13.564C171.928 14.026 172.2 14.6774 172.2 15.5183V18.7684C172.205 19.4799 172.304 20.0181 172.498 20.3831V20.5009H170.475ZM168.819 19.108C169.114 19.108 169.387 19.0433 169.636 18.9139C169.886 18.78 170.071 18.6021 170.191 18.3803V17.0914H169.442C168.44 17.0914 167.906 17.4379 167.841 18.1309L167.835 18.2487C167.835 18.4982 167.922 18.7037 168.098 18.8654C168.273 19.0271 168.514 19.108 168.819 19.108Z" fill="white"/>
<path d="M177.952 14.8807C177.68 14.8437 177.439 14.8253 177.232 14.8253C176.474 14.8253 175.977 15.0817 175.742 15.5945V20.5009H173.739V13.0027H175.631L175.686 13.8966C176.088 13.2083 176.645 12.8641 177.356 12.8641C177.578 12.8641 177.786 12.8941 177.98 12.9542L177.952 14.8807Z" fill="white"/>
<path d="M185.679 16.8211C185.679 18.0223 185.423 18.9602 184.91 19.6347C184.397 20.3046 183.681 20.6395 182.762 20.6395C181.949 20.6395 181.299 20.3277 180.814 19.704L180.724 20.5009H178.922V9.85645H180.925V13.6749C181.387 13.1343 181.995 12.8641 182.748 12.8641C183.663 12.8641 184.379 13.2013 184.896 13.8758C185.418 14.5457 185.679 15.4905 185.679 16.7102V16.8211ZM183.676 16.6756C183.676 15.9179 183.556 15.3658 183.316 15.0193C183.076 14.6682 182.718 14.4926 182.242 14.4926C181.604 14.4926 181.166 14.7536 180.925 15.2757V18.2348C181.17 18.7615 181.614 19.0248 182.256 19.0248C182.903 19.0248 183.328 18.7061 183.531 18.0685C183.628 17.7636 183.676 17.2993 183.676 16.6756Z" fill="white"/>
<path d="M186.608 16.6825C186.608 15.9387 186.751 15.2757 187.038 14.6936C187.324 14.1115 187.735 13.661 188.271 13.3422C188.812 13.0235 189.438 12.8641 190.149 12.8641C191.161 12.8641 191.986 13.1736 192.623 13.7927C193.265 14.4118 193.623 15.2526 193.697 16.3152L193.711 16.828C193.711 17.9784 193.39 18.9024 192.748 19.6C192.106 20.293 191.244 20.6395 190.163 20.6395C189.082 20.6395 188.218 20.293 187.571 19.6C186.929 18.907 186.608 17.9645 186.608 16.7726V16.6825ZM188.611 16.828C188.611 17.5395 188.745 18.0847 189.013 18.4635C189.281 18.8377 189.664 19.0248 190.163 19.0248C190.648 19.0248 191.027 18.84 191.299 18.4704C191.572 18.0962 191.708 17.5002 191.708 16.6825C191.708 15.9849 191.572 15.4443 191.299 15.0609C191.027 14.6774 190.643 14.4857 190.149 14.4857C189.659 14.4857 189.281 14.6774 189.013 15.0609C188.745 15.4397 188.611 16.0288 188.611 16.828Z" fill="white"/>
<path d="M196.788 13.0027L196.85 13.8689C197.386 13.199 198.105 12.8641 199.006 12.8641C199.8 12.8641 200.392 13.0974 200.78 13.564C201.168 14.0306 201.366 14.7282 201.376 15.6569V20.5009H199.373V15.7054C199.373 15.2803 199.281 14.9731 199.096 14.7837C198.911 14.5896 198.604 14.4926 198.174 14.4926C197.61 14.4926 197.188 14.7329 196.906 15.2133V20.5009H194.903V13.0027H196.788Z" fill="white"/>
<path d="M206.961 18.4289C206.961 18.184 206.839 17.9923 206.594 17.8537C206.354 17.7104 205.966 17.5834 205.43 17.4725C203.646 17.0983 202.755 16.3406 202.755 15.1995C202.755 14.5342 203.03 13.9798 203.579 13.5363C204.134 13.0881 204.857 12.8641 205.749 12.8641C206.7 12.8641 207.46 13.0881 208.028 13.5363C208.601 13.9844 208.888 14.5665 208.888 15.2826H206.885C206.885 14.9962 206.793 14.7606 206.608 14.5758C206.423 14.3864 206.134 14.2916 205.742 14.2916C205.404 14.2916 205.143 14.3679 204.958 14.5203C204.774 14.6728 204.681 14.8668 204.681 15.1025C204.681 15.3242 204.785 15.5044 204.993 15.643C205.206 15.777 205.561 15.8948 206.06 15.9964C206.559 16.0934 206.98 16.2043 207.322 16.3291C208.38 16.7171 208.909 17.3894 208.909 18.3457C208.909 19.0295 208.615 19.5838 208.028 20.0089C207.442 20.4293 206.684 20.6395 205.755 20.6395C205.127 20.6395 204.568 20.5286 204.078 20.3069C203.593 20.0805 203.212 19.7733 202.935 19.3852C202.658 18.9925 202.519 18.5698 202.519 18.117H204.418C204.436 18.4727 204.568 18.7453 204.813 18.9347C205.058 19.1242 205.386 19.2189 205.797 19.2189C206.18 19.2189 206.469 19.1473 206.663 19.004C206.862 18.8562 206.961 18.6645 206.961 18.4289Z" fill="white"/>
<path d="M216.726 17.7774L217.71 13.0027H219.643L217.73 20.5009H216.053L214.633 15.7816L213.212 20.5009H211.542L209.629 13.0027H211.563L212.54 17.7705L213.912 13.0027H215.36L216.726 17.7774Z" fill="white"/>
<path d="M224.986 20.5009C224.894 20.3207 224.827 20.0967 224.785 19.8287C224.3 20.3692 223.669 20.6395 222.893 20.6395C222.159 20.6395 221.549 20.427 221.064 20.002C220.583 19.5769 220.343 19.041 220.343 18.3942C220.343 17.5996 220.636 16.9897 221.223 16.5647C221.815 16.1396 222.667 15.9248 223.78 15.9202H224.702V15.4905C224.702 15.144 224.612 14.8668 224.432 14.6589C224.256 14.451 223.977 14.3471 223.593 14.3471C223.256 14.3471 222.99 14.4279 222.796 14.5896C222.607 14.7513 222.512 14.9731 222.512 15.2549H220.509C220.509 14.8206 220.643 14.4187 220.911 14.0491C221.179 13.6795 221.558 13.3907 222.048 13.1828C222.538 12.9703 223.087 12.8641 223.697 12.8641C224.621 12.8641 225.353 13.0974 225.894 13.564C226.439 14.026 226.712 14.6774 226.712 15.5183V18.7684C226.716 19.4799 226.816 20.0181 227.01 20.3831V20.5009H224.986ZM223.33 19.108C223.626 19.108 223.898 19.0433 224.148 18.9139C224.397 18.78 224.582 18.6021 224.702 18.3803V17.0914H223.954C222.951 17.0914 222.417 17.4379 222.353 18.1309L222.346 18.2487C222.346 18.4982 222.434 18.7037 222.609 18.8654C222.785 19.0271 223.025 19.108 223.33 19.108Z" fill="white"/>
<path d="M235 16.8211C235 17.9761 234.737 18.9024 234.21 19.6C233.688 20.293 232.981 20.6395 232.089 20.6395C231.332 20.6395 230.72 20.3762 230.253 19.8495V23.3838H228.25V13.0027H230.107L230.177 13.7372C230.662 13.1551 231.295 12.8641 232.076 12.8641C233 12.8641 233.718 13.2059 234.231 13.8897C234.744 14.5735 235 15.5159 235 16.7171V16.8211ZM232.997 16.6756C232.997 15.9779 232.873 15.4397 232.623 15.0609C232.378 14.682 232.02 14.4926 231.549 14.4926C230.921 14.4926 230.489 14.7329 230.253 15.2133V18.2833C230.498 18.7777 230.934 19.0248 231.563 19.0248C232.519 19.0248 232.997 18.2417 232.997 16.6756Z" fill="white"/>
</g>
</svg>
