<svg width="247" height="35" viewBox="0 0 247 35" fill="none" xmlns="http://www.w3.org/2000/svg">
<path d="M1.78845 0.791748H1.28845V1.29175L1.28845 33.2917V33.7917H1.78845L245.788 33.7917H246.288V33.2917V1.29175V0.791748H245.788L1.78845 0.791748Z" stroke="#BCE2FE" stroke-opacity="0.44"/>
<path opacity="0.940065" d="M26.0038 19.2776C26.0038 18.9338 25.882 18.6689 25.6385 18.4827C25.3986 18.2965 24.9636 18.1085 24.3334 17.9187C23.7032 17.7289 23.2019 17.5177 22.8295 17.2849C22.1169 16.8373 21.7606 16.2537 21.7606 15.5339C21.7606 14.9037 22.0166 14.3845 22.5287 13.9763C23.0443 13.5681 23.7121 13.364 24.5321 13.364C25.0764 13.364 25.5616 13.4643 25.9877 13.6648C26.4138 13.8653 26.7486 14.1518 26.9921 14.5242C27.2356 14.893 27.3573 15.303 27.3573 15.7542H26.0038C26.0038 15.3459 25.8749 15.0273 25.6171 14.7981C25.3628 14.5653 24.9976 14.449 24.5214 14.449C24.0774 14.449 23.7318 14.5439 23.4847 14.7336C23.2413 14.9234 23.1195 15.1884 23.1195 15.5286C23.1195 15.815 23.252 16.0549 23.517 16.2483C23.7819 16.4381 24.2188 16.6243 24.8275 16.8069C25.4362 16.9859 25.925 17.1918 26.2938 17.4246C26.6626 17.6537 26.933 17.9187 27.1049 18.2195C27.2767 18.5167 27.3627 18.8658 27.3627 19.2668C27.3627 19.9185 27.112 20.4377 26.6107 20.8245C26.113 21.2076 25.4362 21.3992 24.5804 21.3992C24.0147 21.3992 23.4937 21.2953 23.0175 21.0876C22.5448 20.8764 22.176 20.5863 21.911 20.2175C21.6496 19.8487 21.5189 19.419 21.5189 18.9285H22.8778C22.8778 19.3725 23.0246 19.7162 23.3182 19.9597C23.6119 20.2032 24.0326 20.325 24.5804 20.325C25.0531 20.325 25.4076 20.2301 25.6439 20.0403C25.8838 19.8469 26.0038 19.5927 26.0038 19.2776ZM32.0668 13.4714L34.3226 19.4656L36.5731 13.4714H38.3295V21.2917H36.976V18.7136L37.1102 15.2654L34.8007 21.2917H33.8285L31.5243 15.2708L31.6586 18.7136V21.2917H30.3051V13.4714L32.0668 13.4714ZM47.411 13.4714V18.6975C47.411 19.5282 47.1442 20.1871 46.6107 20.6741C46.0808 21.1575 45.3736 21.3992 44.4891 21.3992C43.594 21.3992 42.8832 21.1611 42.3568 20.6848C41.8304 20.205 41.5673 19.5408 41.5673 18.6921V13.4714H42.9208V18.7029C42.9208 19.2257 43.0533 19.6249 43.3182 19.9006C43.5832 20.1764 43.9735 20.3142 44.4891 20.3142C45.5347 20.3142 46.0575 19.7628 46.0575 18.6599V13.4714H47.411ZM50.6166 21.2917V13.4714H52.9261C53.6172 13.4714 54.2295 13.6254 54.7631 13.9333C55.3002 14.2413 55.7155 14.6781 56.0092 15.2439C56.3028 15.8097 56.4496 16.4578 56.4496 17.1882V17.5803C56.4496 18.3215 56.301 18.9732 56.0038 19.5354C55.7102 20.0976 55.2894 20.5308 54.7416 20.8352C54.1973 21.1396 53.5725 21.2917 52.8671 21.2917H50.6166ZM51.9755 14.5671V20.2068H52.8617C53.5743 20.2068 54.1203 19.9848 54.4999 19.5408C54.883 19.0932 55.0782 18.4522 55.0853 17.6179V17.1829C55.0853 16.3342 54.9009 15.6861 54.5321 15.2385C54.1633 14.7909 53.628 14.5671 52.9261 14.5671H51.9755ZM65.5472 20.2766C65.2644 20.6454 64.8723 20.9247 64.371 21.1145C63.8697 21.3043 63.3003 21.3992 62.663 21.3992C62.0077 21.3992 61.4276 21.2506 60.9227 20.9534C60.4178 20.6562 60.0275 20.2319 59.7518 19.6804C59.4797 19.1254 59.3383 18.4791 59.3275 17.7415V17.1292C59.3275 15.9475 59.6104 15.0255 60.1761 14.363C60.7419 13.697 61.5315 13.364 62.5448 13.364C63.4149 13.364 64.106 13.5789 64.618 14.0085C65.1301 14.4382 65.438 15.0577 65.5419 15.8669H64.2098C64.0594 14.9252 63.5134 14.4543 62.5717 14.4543C61.9629 14.4543 61.4992 14.6746 61.1805 15.115C60.8654 15.5518 60.7025 16.1946 60.6918 17.0432V17.6448C60.6918 18.4898 60.869 19.1469 61.2235 19.616C61.5816 20.0815 62.0775 20.3142 62.7113 20.3142C63.406 20.3142 63.9001 20.1567 64.1937 19.8416V18.3108H62.5824V17.2795H65.5472V20.2766ZM73.3612 17.8005H70.1493V20.2068H73.9037V21.2917H68.7904V13.4714H73.8661V14.5671H70.1493V16.7263H73.3612V17.8005ZM82.6083 20.2068H86.1586V21.2917H81.2494V13.4714H82.6083V20.2068ZM90.3846 21.2917H89.0311V13.4714H90.3846V21.2917ZM96.0502 17.9133L95.1639 18.8533V21.2917H93.8051V13.4714L95.1639 13.4714V17.1399L95.9159 16.2107L98.204 13.4714H99.8475L96.9418 16.9358L100.014 21.2917H98.4027L96.0502 17.9133ZM107.065 17.8005H103.853V20.2068H107.608V21.2917H102.495V13.4714H107.57V14.5671H103.853V16.7263H107.065V17.8005ZM114.552 19.2776C114.552 18.9338 114.43 18.6689 114.186 18.4827C113.946 18.2965 113.511 18.1085 112.881 17.9187C112.251 17.7289 111.75 17.5177 111.377 17.2849C110.665 16.8373 110.308 16.2537 110.308 15.5339C110.308 14.9037 110.564 14.3845 111.077 13.9763C111.592 13.5681 112.26 13.364 113.08 13.364C113.624 13.364 114.109 13.4643 114.536 13.6648C114.962 13.8653 115.296 14.1518 115.54 14.5242C115.783 14.893 115.905 15.303 115.905 15.7542L114.552 15.7542C114.552 15.3459 114.423 15.0273 114.165 14.7981C113.911 14.5653 113.545 14.449 113.069 14.449C112.625 14.449 112.28 14.5439 112.033 14.7336C111.789 14.9234 111.667 15.1884 111.667 15.5286C111.667 15.815 111.8 16.0549 112.065 16.2483C112.33 16.4381 112.767 16.6243 113.375 16.8069C113.984 16.9859 114.473 17.1918 114.842 17.4246C115.21 17.6537 115.481 17.9187 115.653 18.2195C115.825 18.5167 115.911 18.8658 115.911 19.2668C115.911 19.9185 115.66 20.4377 115.159 20.8245C114.661 21.2076 113.984 21.3992 113.128 21.3992C112.563 21.3992 112.042 21.2953 111.565 21.0876C111.093 20.8764 110.724 20.5863 110.459 20.2175C110.197 19.8487 110.067 19.419 110.067 18.9285H111.426C111.426 19.3725 111.572 19.7162 111.866 19.9597C112.16 20.2032 112.58 20.325 113.128 20.325C113.601 20.325 113.955 20.2301 114.192 20.0403C114.432 19.8469 114.552 19.5927 114.552 19.2776ZM128.67 14.5671H126.232V21.2917H124.884V14.5671H122.467V13.4714H128.67V14.5671ZM137.542 17.5857C137.542 18.352 137.41 19.0251 137.145 19.6052C136.88 20.1817 136.5 20.6257 136.006 20.9373C135.516 21.2452 134.95 21.3992 134.309 21.3992C133.675 21.3992 133.109 21.2452 132.612 20.9373C132.118 20.6257 131.734 20.1835 131.462 19.6106C131.194 19.0377 131.058 18.377 131.054 17.6287V17.1882C131.054 16.4255 131.188 15.7524 131.457 15.1687C131.729 14.585 132.11 14.1392 132.601 13.8313C133.095 13.5198 133.661 13.364 134.298 13.364C134.936 13.364 135.5 13.518 135.99 13.8259C136.484 14.1303 136.866 14.5707 137.134 15.1472C137.403 15.7201 137.539 16.3879 137.542 17.1506V17.5857ZM136.183 17.1775C136.183 16.311 136.019 15.6467 135.689 15.1848C135.363 14.7229 134.9 14.4919 134.298 14.4919C133.711 14.4919 133.251 14.7229 132.918 15.1848C132.588 15.6431 132.42 16.2931 132.413 17.1345V17.5857C132.413 18.4451 132.579 19.1093 132.912 19.5784C133.249 20.0474 133.715 20.282 134.309 20.282C134.911 20.282 135.372 20.0528 135.695 19.5945C136.021 19.1361 136.183 18.4666 136.183 17.5857V17.1775ZM146.494 18.386V21.2917H145.135V13.4714H148.127C149.001 13.4714 149.693 13.6988 150.205 14.1536C150.721 14.6083 150.979 15.2099 150.979 15.9583C150.979 16.7245 150.726 17.3207 150.222 17.7468C149.72 18.1729 149.017 18.386 148.111 18.386H146.494ZM146.494 17.2957H148.127C148.61 17.2957 148.979 17.1829 149.233 16.9573C149.488 16.7281 149.615 16.3987 149.615 15.969C149.615 15.5465 149.486 15.2099 149.228 14.9592C148.97 14.705 148.616 14.5743 148.164 14.5671H146.494V17.2957ZM155.28 20.2068H158.83V21.2917H153.921V13.4714H155.28V20.2068ZM166.107 19.4709H163.078L162.444 21.2917H161.032L163.986 13.4714H165.205L168.164 21.2917H166.746L166.107 19.4709ZM163.459 18.3752H165.726L164.593 15.1311L163.459 18.3752ZM172.552 17.1775L174.351 13.4714H175.855L173.234 18.4128V21.2917H171.87V18.4128L169.243 13.4714H170.752L172.552 17.1775ZM188.937 20.2766C188.654 20.6454 188.262 20.9247 187.761 21.1145C187.259 21.3043 186.69 21.3992 186.053 21.3992C185.397 21.3992 184.817 21.2506 184.312 20.9534C183.807 20.6562 183.417 20.2319 183.141 19.6804C182.869 19.1254 182.728 18.4791 182.717 17.7415V17.1292C182.717 15.9475 183 15.0255 183.566 14.363C184.132 13.697 184.921 13.364 185.934 13.364C186.805 13.364 187.496 13.5789 188.008 14.0085C188.52 14.4382 188.828 15.0577 188.932 15.8669H187.599C187.449 14.9252 186.903 14.4543 185.961 14.4543C185.353 14.4543 184.889 14.6746 184.57 15.115C184.255 15.5518 184.092 16.1946 184.081 17.0432V17.6448C184.081 18.4898 184.259 19.1469 184.613 19.616C184.971 20.0815 185.467 20.3142 186.101 20.3142C186.796 20.3142 187.29 20.1567 187.583 19.8416V18.3108H185.972V17.2795H188.937V20.2766ZM196.557 19.4709H193.528L192.894 21.2917H191.482L194.436 13.4714H195.655L198.615 21.2917H197.197L196.557 19.4709ZM193.91 18.3752H196.176L195.043 15.1311L193.91 18.3752ZM203.018 13.4714L205.274 19.4656L207.524 13.4714H209.281V21.2917H207.927V18.7136L208.061 15.2654L205.752 21.2917H204.78L202.475 15.2708L202.61 18.7136V21.2917H201.256V13.4714H203.018ZM217.213 17.8005H214.001V20.2068H217.755V21.2917H212.642V13.4714H217.718V14.5671H214.001V16.7263H217.213V17.8005ZM224.699 19.2776C224.699 18.9338 224.577 18.6689 224.334 18.4827C224.094 18.2965 223.659 18.1085 223.029 17.9187C222.398 17.7289 221.897 17.5177 221.525 17.2849C220.812 16.8373 220.456 16.2537 220.456 15.5339C220.456 14.9037 220.712 14.3845 221.224 13.9763C221.74 13.5681 222.407 13.364 223.227 13.364C223.772 13.364 224.257 13.4643 224.683 13.6648C225.109 13.8653 225.444 14.1518 225.687 14.5242C225.931 14.893 226.053 15.303 226.053 15.7542H224.699C224.699 15.3459 224.57 15.0273 224.312 14.7981C224.058 14.5653 223.693 14.449 223.217 14.449C222.773 14.449 222.427 14.5439 222.18 14.7336C221.937 14.9234 221.815 15.1884 221.815 15.5286C221.815 15.815 221.947 16.0549 222.212 16.2483C222.477 16.4381 222.914 16.6243 223.523 16.8069C224.132 16.9859 224.62 17.1918 224.989 17.4246C225.358 17.6537 225.628 17.9187 225.8 18.2195C225.972 18.5167 226.058 18.8658 226.058 19.2668C226.058 19.9185 225.807 20.4377 225.306 20.8245C224.808 21.2076 224.132 21.3992 223.276 21.3992C222.71 21.3992 222.189 21.2953 221.713 21.0876C221.24 20.8764 220.871 20.5863 220.606 20.2175C220.345 19.8487 220.214 19.419 220.214 18.9285H221.573C221.573 19.3725 221.72 19.7162 222.014 19.9597C222.307 20.2032 222.728 20.325 223.276 20.325C223.748 20.325 224.103 20.2301 224.339 20.0403C224.579 19.8469 224.699 19.5927 224.699 19.2776Z" fill="white"/>
</svg>
