<svg width="28" height="26" viewBox="0 0 28 26" fill="none" xmlns="http://www.w3.org/2000/svg">
<path opacity="0.7" d="M14.4161 0.309692C11.7291 0.309405 9.10233 1.05582 6.86801 2.45455C4.63369 3.85328 2.89217 5.84149 1.86368 8.16775C0.835194 10.494 0.565937 13.0538 1.08996 15.5235C1.61398 17.9932 2.90775 20.2618 4.80764 22.0424C6.70754 23.823 9.12823 25.0356 11.7636 25.527C14.399 26.0183 17.1306 25.7663 19.6131 24.8028C22.0956 23.8392 24.2175 22.2075 25.7103 20.1138C27.2032 18.0202 28 15.5587 28 13.0407C28 9.66448 26.5689 6.42652 24.0215 4.03903C21.474 1.65154 18.0189 0.310078 14.4161 0.309692ZM21.2739 7.61754C21.2429 7.80629 18.8738 18.7543 18.691 19.5514C18.6578 19.7042 18.5992 19.8512 18.5175 19.987C18.4417 20.1245 18.3163 20.2322 18.1636 20.291C18.0109 20.3498 17.8408 20.3558 17.6839 20.3079C17.5016 20.2641 17.3301 20.1877 17.1787 20.0828L11.1359 15.9461C11.1162 15.9335 11.0999 15.9168 11.0882 15.8972C11.0766 15.8777 11.0699 15.8559 11.0687 15.8336C11.0675 15.8112 11.0718 15.7889 11.0813 15.7684C11.0908 15.7479 11.1053 15.7297 11.1236 15.7153C13.3594 13.8509 15.9872 11.6163 18.1952 9.76212C18.2696 9.69968 18.3858 9.62999 18.3191 9.52109C18.2525 9.41219 18.1239 9.45139 18.017 9.47317C17.8997 9.50307 17.789 9.55223 17.6901 9.61837C14.7761 11.3211 11.8616 13.0257 8.9466 14.7323C8.90185 14.7611 8.8504 14.7796 8.79652 14.7862C8.74263 14.7928 8.68785 14.7872 8.63671 14.77C7.44158 14.4186 6.24645 14.0702 5.05132 13.7246C4.85238 13.6791 4.66563 13.5956 4.50282 13.4792C4.45776 13.4506 4.41998 13.4131 4.39215 13.3693C4.36432 13.3255 4.34713 13.2765 4.34181 13.2258C4.33648 13.175 4.34315 13.1238 4.36134 13.0758C4.37952 13.0277 4.40879 12.984 4.44704 12.9478C4.60459 12.7794 4.80655 12.6527 5.03272 12.5804C6.19067 12.1622 7.34861 11.746 8.50656 11.3317L19.9817 7.21243C20.1419 7.14208 20.3128 7.09555 20.4883 7.07449C20.9036 7.05707 21.325 7.301 21.2739 7.61754Z" fill="white"/>
</svg>
