<svg width="28" height="26" viewBox="0 0 28 26" fill="none" xmlns="http://www.w3.org/2000/svg">
<path opacity="0.7" d="M13.587 0.309692C10.9 0.309405 8.27323 1.05582 6.03891 2.45455C3.80459 3.85328 2.06307 5.84149 1.03458 8.16775C0.00609422 10.494 -0.263165 13.0538 0.260858 15.5235C0.78488 17.9932 2.07865 20.2618 3.97855 22.0424C5.87844 23.823 8.29914 25.0356 10.9345 25.527C13.5699 26.0183 16.3015 25.7663 18.784 24.8028C21.2665 23.8392 23.3884 22.2075 24.8812 20.1138C26.3741 18.0202 27.1709 15.5587 27.1709 13.0407C27.1705 9.6646 25.7393 6.42686 23.1919 4.03946C20.6446 1.65205 17.1897 0.310462 13.587 0.309692ZM16.3372 6.81604C16.3272 6.82247 16.3153 6.82591 16.3032 6.82591C16.291 6.82591 16.2791 6.82247 16.2691 6.81604H16.3372ZM21.7882 8.57149C21.4215 9.05478 20.9815 9.48525 20.482 9.84924C20.4076 9.90151 20.2821 9.95669 20.2821 10.0554C20.2821 12.5935 19.5911 15.1287 17.6171 16.9669C15.1023 19.3075 11.331 19.9434 7.9827 19.0766C7.33771 18.9084 6.71424 18.6747 6.12338 18.3797C5.9266 18.278 5.73292 18.1735 5.54234 18.0559C5.4943 18.0196 5.45867 17.9862 5.5005 17.9629C5.54234 17.9397 5.57178 17.9426 5.72207 17.9629C6.66653 18.0403 7.61771 17.9264 8.51105 17.629C8.99758 17.4693 10.0434 17.1484 10.3456 16.7171C10.3533 16.707 10.3595 16.707 10.3673 16.6968C10.2449 16.6692 10.124 16.6692 10.0016 16.6503C9.09209 16.4064 7.87734 15.9781 7.31489 14.5421C7.27925 14.4578 7.31489 14.4143 7.40786 14.4303C8.15624 14.4854 8.42584 14.4477 8.68614 14.394C8.53751 14.3676 8.39251 14.3257 8.25385 14.2691C7.68504 14.0534 7.18752 13.7001 6.81212 13.2453C6.43673 12.7904 6.19691 12.2503 6.11718 11.6802C6.09839 11.5605 6.09164 11.4395 6.09703 11.3187C6.09703 11.2344 6.14352 11.2068 6.22254 11.2548C6.62867 11.4478 7.07151 11.5638 7.52561 11.596C7.38118 11.4888 7.24259 11.375 7.11036 11.2548C6.11718 10.372 5.73137 8.5773 6.52623 7.46072C6.59131 7.36925 6.63469 7.36925 6.71216 7.46072C8.52965 9.40203 10.7686 10.3081 13.4708 10.6841C13.5421 10.6943 13.5483 10.6841 13.5374 10.6101C13.457 10.1712 13.4691 9.72182 13.5731 9.28732C13.6947 8.82828 13.9227 8.39997 14.2409 8.0328C14.5479 7.67951 14.9286 7.38852 15.3596 7.17758C15.7894 6.9658 16.2618 6.84067 16.7463 6.81023C17.2444 6.77977 17.7433 6.85522 18.2059 7.03093C18.5533 7.16336 18.8752 7.34828 19.1588 7.57833C19.2207 7.62864 19.2782 7.6835 19.3308 7.74241C19.3477 7.75965 19.3695 7.77197 19.3937 7.7779C19.4179 7.78382 19.4434 7.78309 19.4671 7.7758C20.1513 7.61882 20.8118 7.38224 21.4333 7.07159C21.4464 7.06382 21.4612 7.05911 21.4766 7.05784C21.4919 7.05658 21.5074 7.0588 21.5217 7.06433C21.5495 7.08466 21.5387 7.11805 21.5217 7.14564C21.4023 7.48886 21.2152 7.80802 20.9701 8.08653C20.8151 8.26948 20.42 8.72105 20.1535 8.76315C20.723 8.6822 21.2791 8.53338 21.8083 8.3203C21.8749 8.29271 21.8703 8.27964 21.8703 8.3203V8.33337C21.8727 8.4192 21.8437 8.50323 21.7882 8.57149Z" fill="white"/>
</svg>
