<svg width="197" height="194" viewBox="0 0 197 194" fill="none" xmlns="http://www.w3.org/2000/svg">
<g clip-path="url(#clip0)">
<path d="M41.3714 44.4892L38.6788 44.6743L38.8638 47.3684L41.5564 47.1833L41.3714 44.4892Z" fill="#FFAF00"/>
<path d="M92.9107 161.982L96.2006 161.095L95.3141 157.803L92.0242 158.69L92.9107 161.982ZM95.8263 160.878L93.1274 161.608L92.3985 158.907L95.0974 158.178L95.8263 160.878Z" fill="white"/>
<path d="M79.3965 16.1174L79.9678 12.1751L76.1854 11.6035L75.6141 15.4078L79.3965 16.1174ZM79.5738 12.6088L79.1207 15.7232L76.0081 15.2501L76.4612 12.1751L79.5738 12.6088Z" fill="white"/>
<path d="M66.8704 17.6156L64.3417 19.9019L66.6266 22.4321L69.1553 20.1458L66.8704 17.6156Z" fill="#FFAF00"/>
<path d="M174.003 107.136L176.443 106.356L175.664 103.915L173.224 104.695L174.003 107.136Z" fill="#FF1DCF"/>
<path d="M35.0911 84.0232L34.5986 85.0679L35.6427 85.5804L36.1352 84.5357L35.0911 84.0232ZM34.7365 85.0285L35.1502 84.1809L35.9973 84.5751L35.5836 85.4424L34.7365 85.0285Z" fill="white"/>
<path d="M34.0679 67.2977L32.6322 69L34.3335 70.4365L35.7692 68.7342L34.0679 67.2977Z" fill="#FFAF00"/>
<path d="M167.223 118.59L166.66 120.314L168.383 120.877L168.946 119.153L167.223 118.59Z" fill="#FF1DCF"/>
<path d="M39.4465 102.843L37.7169 104.307L39.1801 106.038L40.9097 104.573L39.4465 102.843Z" fill="#0AD2FF"/>
<path d="M84.1301 156.007L80.3915 159.062L83.4439 162.802L87.1826 159.748L84.1301 156.007Z" fill="#0AD2FF"/>
<path d="M126.933 23.4699L128.903 21.0454L126.48 19.0742L124.51 21.4987L126.933 23.4699ZM128.548 21.0848L126.893 23.1545L124.923 21.5184L126.558 19.429L128.548 21.0848Z" fill="white"/>
<path d="M155.045 131.075L155.143 130.128H154.178V131.094L155.045 131.075Z" fill="white"/>
<path d="M120.282 12.9663L119.568 16.4619L123.062 17.1757L123.775 13.68L120.282 12.9663Z" fill="#FFAF00"/>
<path d="M93.9401 167.778L91.4581 167.809L91.4889 170.292L93.9709 170.261L93.9401 167.778Z" fill="#E80000"/>
<path d="M73.7358 45.0043L71.7319 48.7156L75.4411 50.7206L77.4449 47.0093L73.7358 45.0043Z" fill="#FFAF00"/>
<path d="M33.0424 76.0206L34.0668 75.4293L33.4758 74.4043L32.4711 74.9956L33.0424 76.0206Z" fill="white"/>
<path d="M162.839 147.623L165.651 140.427L158.458 137.613L155.647 144.81L162.839 147.623Z" fill="#FF1DCF"/>
<path d="M127.031 39.5147L127.977 38.2138L126.677 37.2874L125.751 38.5883L127.031 39.5147Z" fill="white"/>
<path d="M141.836 147.517L140.546 148.057L141.085 149.348L142.376 148.808L141.836 147.517Z" fill="#E80000"/>
<path d="M166.136 91.522L164.022 92.6672L165.167 94.7818L167.28 93.6366L166.136 91.522Z" fill="#FFEC00"/>
<path d="M71.2407 155.241L73.9002 157.586L76.2445 154.925L73.585 152.599L71.2407 155.241ZM73.8805 157.212L71.6938 155.241L73.6638 153.053L75.8505 155.024L73.8805 157.212Z" fill="white"/>
<path d="M173.845 121.775L172.14 122.392L172.757 124.097L174.461 123.481L173.845 121.775Z" fill="#0AD2FF"/>
<path d="M36.2452 113.796L34.1809 112.347L32.7328 114.413L34.7971 115.862L36.2452 113.796Z" fill="#FFAF00"/>
<path d="M127.727 37.044L126.896 42.8987L132.748 43.7298L133.578 37.8751L127.727 37.044Z" fill="#E80000"/>
<path d="M71.351 150.36L68.2312 152.046L69.9167 155.168L73.0365 153.482L71.351 150.36Z" fill="#FFAF00"/>
<path d="M120.51 41.7422L119.762 44.3047L122.323 45.0537L123.071 42.4912L120.51 41.7422ZM120.156 44.147L120.767 42.0576L122.874 42.6686L122.126 44.7778L120.156 44.147Z" fill="white"/>
<path d="M113.506 35.6687L107.834 40.7952L112.957 46.4707L118.629 41.3443L113.506 35.6687Z" fill="#FFEC00"/>
<path d="M152.17 136.235L150.49 137.442L151.695 139.124L153.376 137.917L152.17 136.235Z" fill="#0AD2FF"/>
<path d="M130.006 32.4777L130.873 34.4488L132.843 33.5815L131.976 31.6104L130.006 32.4777ZM130.951 34.1728L130.203 32.5565L131.818 31.8075L132.567 33.4238L130.951 34.1728Z" fill="white"/>
<path d="M12.6332 133.144L11.4906 131.173L9.52063 132.336L10.6829 134.307L12.6332 133.144ZM11.4315 131.449L12.4165 133.105L10.7814 134.09L9.83583 132.415L11.4315 131.449Z" fill="white"/>
<path d="M160.775 110.008L157.971 111.265L159.227 114.071L162.032 112.814L160.775 110.008Z" fill="#FFEC00"/>
<path d="M83.008 17.1271L81.7977 17.7017L82.3719 18.9127L83.5822 18.3382L83.008 17.1271Z" fill="#0AD2FF"/>
<path d="M59.0858 145.897L62.4348 148.184L64.7791 144.833L61.4498 142.546L59.0858 145.897ZM62.3363 147.73L59.598 145.759L61.568 143.019L64.3063 144.991L62.3363 147.73Z" fill="white"/>
<path d="M113.389 29.2876L112.252 37.0498L120.01 38.1877L121.147 30.4255L113.389 29.2876Z" fill="#0AD2FF"/>
<path d="M107.075 158.316H105.558V159.833H107.075V158.316Z" fill="#FF1DCF"/>
<path d="M137.827 150.876L137.511 157.156L143.787 157.472L144.103 151.192L137.827 150.876Z" fill="#0AD2FF"/>
<path d="M41.0997 96.9344L38.7554 95.5349L37.4158 97.9003L39.7798 99.3195L41.0997 96.9344ZM38.8342 95.87L40.8042 97.0133L39.6419 98.9844L37.6719 97.8411L38.8342 95.87Z" fill="white"/>
<path d="M47.8981 34.1292L43.2635 38.5205L47.6523 43.1577L52.2868 38.7664L47.8981 34.1292Z" fill="#E80000"/>
<path d="M38.1289 74.6202L41.3585 79.3115L46.0471 76.08L42.8175 71.3887L38.1289 74.6202Z" fill="#0AD2FF"/>
<path d="M51.2058 47.0642L49.2358 47.3007L49.4525 49.2719L51.4225 49.0551L51.2058 47.0642ZM49.4328 47.419L51.0876 47.2219L51.2649 48.8777L49.6298 49.0551L49.4328 47.419Z" fill="white"/>
<path d="M65.8232 56.7426L65.6459 54.7715L63.6759 54.9292L63.8532 56.9003L65.8232 56.7426Z" fill="white"/>
<path d="M155.65 142.998L150.901 144.696L152.598 149.448L157.347 147.75L155.65 142.998Z" fill="#0AD2FF"/>
<path d="M126.509 168.045L126.493 171.455L129.901 171.472L129.917 168.062L126.509 168.045Z" fill="#E80000"/>
<path d="M123.012 38.8956L121.556 39.801L122.461 41.2574L123.917 40.3519L123.012 38.8956Z" fill="#FF1DCF"/>
<path d="M127.833 153.425L122.447 154.005L123.026 159.395L128.413 158.815L127.833 153.425Z" fill="#FFAF00"/>
<path d="M54.1213 55.343L50.6147 57.117L52.368 60.6257L55.8746 58.8517L54.1213 55.343ZM51.0875 57.3142L53.9637 55.8555L55.4018 58.7334L52.5256 60.192L51.0875 57.3142Z" fill="white"/>
<path d="M38.0068 101.941L36.2141 99.97L34.2441 101.764L36.0565 103.735L38.0068 101.941Z" fill="white"/>
<path d="M136.034 21.5972L135.719 23.0164L137.157 23.3121L137.452 21.8928L136.034 21.5972ZM135.857 22.9375L136.113 21.7154L137.334 21.9717L137.078 23.1938L135.857 22.9375Z" fill="white"/>
<path d="M161.526 134.11L162.531 137.56L165.998 136.554L164.993 133.105L161.526 134.11Z" fill="white"/>
<path d="M165.466 43.8711V42.9053H164.481V43.8908L165.466 43.8711ZM165.308 43.0038V43.7923H164.52V42.9841L165.308 43.0038Z" fill="white"/>
<path d="M181.915 48.2668L179.945 46.2957L177.975 48.2668L179.945 50.2379L181.915 48.2668ZM179.945 46.6307L181.62 48.2668L179.985 49.9423L178.31 48.2865L179.945 46.6307Z" fill="white"/>
<path d="M177.857 137.402L182.861 137.559L183.019 132.553L178.015 132.415L177.857 137.402ZM182.506 137.185L178.231 137.067L178.35 132.77L182.644 132.908L182.506 137.185Z" fill="white"/>
<path d="M39.8192 100.384L39.1494 101.448L40.2132 102.118L40.883 101.054L39.8192 100.384ZM39.307 101.409L39.8586 100.541L40.7254 101.093L40.1738 101.961L39.307 101.409Z" fill="white"/>
<path d="M87.3021 39.1954L88.472 42.4612L91.7359 41.2906L90.566 38.0248L87.3021 39.1954Z" fill="#FFEC00"/>
<path d="M137.984 44.6397L140.526 47.3402L143.225 44.7974L140.683 42.0969L137.984 44.6397ZM140.545 46.8671L138.457 44.6594L140.664 42.57L142.752 44.7777L140.545 46.8671Z" fill="white"/>
<path d="M162.124 98.1686L166.446 91.0632L159.345 86.738L155.023 93.8434L162.124 98.1686Z" fill="#FF1DCF"/>
<path d="M47.3162 165.564L42.4243 166.876L43.7355 171.771L48.6275 170.459L47.3162 165.564Z" fill="#FFEC00"/>
<path d="M74.4009 151.99L73.3539 153.115L74.4786 154.163L75.5256 153.037L74.4009 151.99Z" fill="#FFEC00"/>
<path d="M135.266 145.089L133.808 145.858L134.596 147.297L136.034 146.528L135.266 145.089Z" fill="white"/>
<path d="M121.847 47.9877L120.696 49.4888L122.196 50.641L123.348 49.1399L121.847 47.9877Z" fill="#0AD2FF"/>
<path d="M41.4227 115.71L36.8033 118.762L39.8539 123.384L44.4732 120.332L41.4227 115.71Z" fill="#FFAF00"/>
<path d="M174.192 93.7021L176.61 89.3862L172.297 86.9672L169.879 91.2831L174.192 93.7021Z" fill="#FF1DCF"/>
<path d="M79.5214 161.347L77.8301 165.253L81.7347 166.946L83.426 163.039L79.5214 161.347Z" fill="#E80000"/>
<path d="M91.6445 172.559L90.3688 173.847L91.6561 175.123L92.9319 173.835L91.6445 172.559Z" fill="#FFEC00"/>
<path d="M6.27022 105.41L5.08822 104.858L4.53662 106.041L5.71862 106.613L6.27022 105.41ZM5.14732 105.016L6.11262 105.469L5.65952 106.455L4.69422 105.982L5.14732 105.016Z" fill="white"/>
<path d="M28.9841 80.8892L34.4607 82.4661L36.0367 76.9863L30.5601 75.4094L28.9841 80.8892ZM34.1849 81.9536L29.5357 80.6132L30.895 75.9022L35.6033 77.2623L34.1849 81.9536Z" fill="white"/>
<path d="M161.073 97.7622L162.235 96.7569L161.23 95.5742L160.068 96.5795L161.073 97.7622ZM162.077 96.7372L161.073 97.6045L160.226 96.5992L161.23 95.7319L162.077 96.7372Z" fill="white"/>
<path d="M107.213 166.555L105.775 165.037L104.258 166.496L105.716 167.994L107.213 166.555ZM105.755 165.313L106.957 166.555L105.716 167.738L104.534 166.496L105.755 165.313Z" fill="white"/>
<path d="M160.036 88.4792L161.791 88.7808L162.092 87.0245L160.337 86.7229L160.036 88.4792Z" fill="#FF1DCF"/>
<path d="M48.2246 53.8711L45.3391 58.9866L50.4516 61.8737L53.3371 56.7582L48.2246 53.8711Z" fill="#FFAF00"/>
<path d="M157.587 88.3444L156.473 91.2737L159.401 92.3882L160.515 89.4589L157.587 88.3444Z" fill="#FFEC00"/>
<path d="M163.427 87.2513L157.531 81.6704L151.953 87.57L157.849 93.151L163.427 87.2513Z" fill="#FF1DCF"/>
<path d="M107.036 163.086L112.276 165.727L114.916 160.583L109.675 158.04L107.036 163.086ZM112 165.175L107.587 162.909L109.853 158.493L114.246 160.76L112 165.175Z" fill="white"/>
<path d="M95.3038 164.106L94.4022 166.143L96.4376 167.045L97.3391 165.008L95.3038 164.106Z" fill="#FFAF00"/>
<path d="M157.929 45.6807L155.848 48.4561L158.622 50.5376L160.702 47.7622L157.929 45.6807Z" fill="#FFAF00"/>
<path d="M158.089 157.088L156.001 156.508L155.421 158.597L157.509 159.177L158.089 157.088Z" fill="#FF1DCF"/>
<path d="M68.9837 31.3893L65.9762 24.6809L59.2717 27.6901L62.2792 34.3985L68.9837 31.3893Z" fill="#FFEC00"/>
<path d="M113.771 154.424L111.145 156.133L112.853 158.76L115.478 157.052L113.771 154.424Z" fill="#FFEC00"/>
<path d="M28.0759 77.0509L27.6882 78.5793L29.2158 78.9672L29.6035 77.4388L28.0759 77.0509Z" fill="#FF1DCF"/>
<path d="M140.486 143.71L141.353 144.498L142.141 143.631L141.274 142.842L140.486 143.71Z" fill="white"/>
<path d="M131.976 26.7025L131.562 25.9731L130.853 26.4462L131.326 27.1755L131.976 26.7025ZM131.464 26.1111L131.858 26.6828L131.286 27.077L130.892 26.5054L131.464 26.1111Z" fill="white"/>
<path d="M29.6367 126L28.2023 126.102L28.3043 127.537L29.7388 127.435L29.6367 126Z" fill="#FFAF00"/>
<path d="M60.6643 32.1877L60.0269 35.1555L62.9929 35.7934L63.6304 32.8256L60.6643 32.1877Z" fill="#FFAF00"/>
<path d="M131.555 180.146L129.912 181.649L131.414 183.293L133.057 181.79L131.555 180.146Z" fill="#FF1DCF"/>
<path d="M55.323 141.246L54.7911 147.159L60.7011 147.691L61.233 141.778L55.323 141.246ZM55.323 146.824L55.7761 141.699L60.8981 142.152L60.445 147.277L55.323 146.824Z" fill="white"/>
<path d="M34.2836 48.7399V49.6269H35.2095V48.7202L34.2836 48.7399Z" fill="white"/>
<path d="M129.013 52.8167L128.089 46.3779L121.654 47.3023L122.578 53.7411L129.013 52.8167Z" fill="#0AD2FF"/>
<path d="M128.823 175.315L128.326 176.624L129.634 177.121L130.13 175.812L128.823 175.315Z" fill="#FFEC00"/>
<path d="M117.798 47.1208L116.583 47.6841L117.146 48.9004L118.361 48.3371L117.798 47.1208Z" fill="#E80000"/>
<path d="M49.9361 69.5013L52.9204 69.7473L53.1663 66.7613L50.182 66.5153L49.9361 69.5013Z" fill="#FF1DCF"/>
<path d="M114.009 47.0249L114.403 41.0129L108.493 40.6187L108.099 46.6306L114.009 47.0249Z" fill="white"/>
<path d="M153.206 140.66L153.75 142.472L155.561 141.928L155.018 140.116L153.206 140.66Z" fill="#FFEC00"/>
<path d="M7.44326 78.6584L6.89355 74.7546L2.99209 75.3047L3.54179 79.2084L7.44326 78.6584Z" fill="#FFEC00"/>
<path d="M27.2129 133.532L27.3224 127.876L21.6695 127.766L21.56 133.422L27.2129 133.532Z" fill="#FFEC00"/>
<path d="M60.2481 161.43L62.8288 160.011L61.3119 157.429L58.7312 158.946L60.2481 161.43ZM62.4545 159.814L60.3466 161.056L59.0858 158.946L61.1937 157.705L62.4545 159.814Z" fill="white"/>
<path d="M88.4868 170.784L86.7577 171.176L87.1499 172.906L88.879 172.514L88.4868 170.784Z" fill="#FFEC00"/>
<path d="M41.9374 123.953L41.5663 125.282L42.8944 125.653L43.2655 124.324L41.9374 123.953Z" fill="#0AD2FF"/>
<path d="M133.02 47.8723L127.406 50.1194L129.651 55.7372L135.266 53.5689L133.02 47.8723ZM128.036 50.356L132.843 48.3848L134.813 53.1944L130.006 55.1655L128.036 50.356Z" fill="white"/>
<path d="M42.4393 53.5691H38.6372L38.7357 57.5114H42.5378L42.4393 53.5691Z" fill="white"/>
<path d="M125.074 165.221L124.368 166.564L125.71 167.271L126.417 165.928L125.074 165.221Z" fill="#E80000"/>
<path d="M73.0717 155.288L71.0448 155.701L71.4575 157.729L73.4845 157.316L73.0717 155.288Z" fill="#FF1DCF"/>
<path d="M154.749 56.2302L153.252 59.2264L156.227 60.7244L157.724 57.7283L154.749 56.2302ZM153.646 59.0884L154.867 56.6442L157.33 57.8663L156.108 60.3302L153.646 59.0884Z" fill="white"/>
<path d="M26.7801 87.3493L28.8088 87.3872L28.8467 85.3573L26.818 85.3194L26.7801 87.3493Z" fill="#FF1DCF"/>
<path d="M41.197 109.899L47.2798 104.612L41.9958 98.5258L35.9131 103.813L41.197 109.899Z" fill="#FF1DCF"/>
<path d="M32.0431 112.329L30.2505 112.35L30.2715 114.144L32.064 114.123L32.0431 112.329Z" fill="#FF1DCF"/>
<path d="M72.7351 164.267L73.4585 166.841L76.0305 166.117L75.3071 163.543L72.7351 164.267Z" fill="#0AD2FF"/>
<path d="M88.2661 23.7356L88.3453 20.5828L85.1943 20.5035L85.1151 23.6563L88.2661 23.7356Z" fill="#0AD2FF"/>
<path d="M45.1382 124.215L46.6354 123.762L46.1823 122.244L44.6851 122.697L45.1382 124.215ZM46.4581 123.663L45.2367 124.038L44.8624 122.796L46.0838 122.421L46.4581 123.663Z" fill="white"/>
<path d="M155.152 93.0438L156.111 91.2996L154.368 90.3399L153.409 92.0841L155.152 93.0438Z" fill="#FF1DCF"/>
<path d="M11.2936 115.897L12.121 117.355L13.5985 116.528L12.7711 115.069L11.2936 115.897ZM12.1801 117.198L11.4709 115.936L12.712 115.227L13.4212 116.488L12.1801 117.198Z" fill="white"/>
<path d="M21.7937 75.2516L24.0789 78.7011L27.5658 76.4935L25.2806 73.0439L21.7937 75.2516ZM24.1577 78.2872L22.1877 75.3305L25.1427 73.3593L27.1127 76.316L24.1577 78.2872Z" fill="white"/>
<path d="M46.4405 132.255L48.0762 128.952L44.7753 127.316L43.1396 130.619L46.4405 132.255Z" fill="#FFAF00"/>
<path d="M72.0137 160.335L69.8717 161.755L71.2911 163.898L73.4331 162.478L72.0137 160.335Z" fill="#FF1DCF"/>
<path d="M86.4263 23.7953L84.8098 26.0068L87.0201 27.6243L88.6366 25.4127L86.4263 23.7953Z" fill="#FFAF00"/>
<path d="M159.325 146.065L157.96 146.519L158.414 147.884L159.779 147.43L159.325 146.065Z" fill="#E80000"/>
<path d="M127.489 34.5406L126.191 35.2456L126.895 36.5451L128.194 35.8401L127.489 34.5406Z" fill="#FFEC00"/>
<path d="M154.506 47.0826L152.89 49.019L154.825 50.6364L156.442 48.7L154.506 47.0826Z" fill="#FFEC00"/>
<path d="M92.5478 47.4633L100.605 47.3733L100.515 39.3118L92.4578 39.4019L92.5478 47.4633Z" fill="#FF1DCF"/>
<path d="M68.755 8.79623L67.8595 11.0491L70.111 11.9451L71.0066 9.69229L68.755 8.79623Z" fill="#FF1DCF"/>
<path d="M104.903 42.1845L100.74 45.2375L103.791 49.4029L107.954 46.3499L104.903 42.1845Z" fill="#E80000"/>
<path d="M73.8268 32.7702L73.3566 34.1509L74.7364 34.6214L75.2067 33.2408L73.8268 32.7702Z" fill="#FFEC00"/>
<path d="M94.579 169.026L93.5714 171.295L95.8399 172.304L96.8475 170.034L94.579 169.026Z" fill="#FFEC00"/>
<path d="M38.8642 124.487L34.3651 125.492L35.3691 129.993L39.8683 128.989L38.8642 124.487Z" fill="#FF1DCF"/>
<path d="M68.9358 28.8314L69.7829 33.0496L73.979 32.1823L73.1713 27.9443L68.9358 28.8314ZM70.0193 32.6751L69.2904 29.0679L72.8758 28.3386L73.6638 31.8866L70.0193 32.6751Z" fill="white"/>
<path d="M26.9946 100.088L22.9561 101.448L24.3154 105.489L28.2554 104.129L26.9946 100.088Z" fill="white"/>
<path d="M160.63 66.4868L158.776 69.0862L161.374 70.941L163.228 68.3416L160.63 66.4868Z" fill="#FFEC00"/>
<path d="M141.977 178.075L141.413 180.635L143.972 181.199L144.536 178.639L141.977 178.075Z" fill="#FFEC00"/>
<path d="M171.858 138.826L174.023 137.876L173.073 135.71L170.908 136.66L171.858 138.826Z" fill="#FF1DCF"/>
<path d="M44.0012 73.5638L43.0514 75.2456L44.7322 76.1959L45.682 74.5142L44.0012 73.5638Z" fill="#FFEC00"/>
<path d="M19.285 119.241L18.8119 121.235L20.8053 121.709L21.2784 119.714L19.285 119.241Z" fill="#FFAF00"/>
<path d="M87.1541 32.4481L84.9556 34.2104L86.7169 36.4103L88.9155 34.6479L87.1541 32.4481Z" fill="#FFEC00"/>
<path d="M83.4578 165.978L82.1348 167.438L83.5944 168.762L84.9174 167.302L83.4578 165.978Z" fill="#FFEC00"/>
<path d="M21.6558 81.8354V83.1364H22.9363V81.8552L21.6558 81.8354Z" fill="white"/>
<path d="M106.136 14.9865L104.146 17.5332L106.692 19.5243L108.682 16.9776L106.136 14.9865Z" fill="#0AD2FF"/>
<path d="M117.659 42.6933L116.982 44.5234L118.811 45.2008L119.488 43.3707L117.659 42.6933Z" fill="#FF1DCF"/>
<path d="M36.1945 105.075L36.0172 103.597L34.5397 103.774L34.717 105.252L36.1945 105.075Z" fill="white"/>
<path d="M42.9515 174.341L44.1729 179.367L49.2358 178.165L48.0144 173.119L42.9515 174.341ZM44.4487 178.934L43.3258 174.617L47.6401 173.572L48.6842 177.889L44.4487 178.934Z" fill="white"/>
<path d="M64.3851 160.169L63.538 160.642L64.0108 161.489L64.8579 161.016L64.3851 160.169ZM63.6562 160.681L64.3457 160.287L64.7397 160.997L64.0305 161.371L63.6562 160.681Z" fill="white"/>
<path d="M140.917 48.7731L139.568 50.3931L141.186 51.7437L142.536 50.1238L140.917 48.7731Z" fill="#FFAF00"/>
<path d="M78.1715 31.3098L75.9658 35.27L79.9237 37.477L82.1294 33.5168L78.1715 31.3098Z" fill="#E80000"/>
<path d="M93.8564 40.5595L94.7822 39.495L93.7185 38.5686L92.8123 39.633L93.8564 40.5595ZM94.6049 39.5148L93.8564 40.3821L92.9896 39.6133L93.7382 38.746L94.6049 39.5148Z" fill="white"/>
<path d="M44.0246 128.79L42.3362 129.262L42.8086 130.952L44.497 130.479L44.0246 128.79Z" fill="#0AD2FF"/>
<path d="M120.904 156.975L122.047 157.843L122.914 156.719L121.771 155.832L120.904 156.975Z" fill="white"/>
<path d="M158.758 127.671L153.641 124.373L150.344 129.493L155.461 132.791L158.758 127.671Z" fill="#FFAF00"/>
<path d="M41.6593 77.5465L48.6471 81.8682L52.9662 74.8763L45.9784 70.5546L41.6593 77.5465Z" fill="#FF1DCF"/>
<path d="M159.222 50.7931L157.835 51.9907L159.032 53.3786L160.419 52.181L159.222 50.7931Z" fill="#E80000"/>
<path d="M149.046 163.841L149.503 159.191L144.856 158.735L144.4 163.384L149.046 163.841Z" fill="#FFAF00"/>
<path d="M137.177 143.946L138.24 148.401L142.693 147.337L141.629 142.882L137.177 143.946ZM138.477 148.007L137.571 144.242L141.392 143.335L142.299 147.159L138.477 148.007Z" fill="white"/>
<path d="M95.4885 175.012L91.5114 175.146L91.6447 179.125L95.6219 178.992L95.4885 175.012Z" fill="#0AD2FF"/>
<path d="M38.975 114.918L34.1143 117.609L36.8042 122.473L41.6649 119.781L38.975 114.918Z" fill="#FF1DCF"/>
<path d="M120.451 35.6119L118.481 35.2571L118.127 37.2282L120.097 37.6027L120.451 35.6119Z" fill="white"/>
<path d="M150.376 42.2349L149.351 39.6133L146.731 40.658L147.736 43.2796L150.376 42.2349ZM149.213 39.9484L150.06 42.0969L147.913 42.9445L147.066 40.796L149.213 39.9484Z" fill="white"/>
<path d="M48.5267 48.0498L43.582 46.6306L42.1636 51.5979L47.0886 53.0171L48.5267 48.0498Z" fill="white"/>
<path d="M99.8917 42.9466L102.117 43.0088L102.179 40.7823L99.9539 40.7201L99.8917 42.9466Z" fill="#FFEC00"/>
<path d="M54.0451 62.5672L52.3459 65.7932L55.5701 67.4934L57.2693 64.2674L54.0451 62.5672Z" fill="#FFEC00"/>
<path d="M112.353 159.365L111.753 162.782L115.168 163.382L115.768 159.965L112.353 159.365Z" fill="#0AD2FF"/>
<path d="M106.742 38.3624L106.138 41.3372L109.111 41.9418L109.715 38.9671L106.742 38.3624Z" fill="#0AD2FF"/>
<path d="M157.33 93.7017L154.71 93.406L154.414 96.0276L157.034 96.3233L157.33 93.7017Z" fill="white"/>
<path d="M145.737 60.6484L144.604 61.6577L145.612 62.7913L146.745 61.782L145.737 60.6484Z" fill="#E80000"/>
<path d="M88.4147 40.9854L87.9884 46.7253L93.725 47.1519L94.1513 41.412L88.4147 40.9854Z" fill="#0AD2FF"/>
<path d="M181.363 112.464L180.932 117.076L185.541 117.508L185.972 112.895L181.363 112.464Z" fill="#FFEC00"/>
<path d="M170.489 95.1996L171.868 96.9933L173.681 95.6135L172.302 93.8L170.489 95.1996Z" fill="white"/>
<path d="M16.9081 94.0564L18.031 92.3021L16.2777 91.1982L15.1548 92.992L16.9081 94.0564Z" fill="white"/>
<path d="M76.2268 164.546L69.6282 168.083L73.1634 174.686L79.7621 171.148L76.2268 164.546Z" fill="#FF1DCF"/>
<path d="M156.867 122.739L155.912 124.187L157.359 125.143L158.314 123.695L156.867 122.739Z" fill="#0AD2FF"/>
<path d="M37.8778 129.475L29.9991 128.899L29.4248 136.762L37.3035 137.338L37.8778 129.475Z" fill="#FF1DCF"/>
<path d="M148.576 149.059L145.064 149.38L145.385 152.894L148.896 152.573L148.576 149.059Z" fill="#E80000"/>
<path d="M141.583 40.0412L138.535 40.4377L138.932 43.4871L141.979 43.0905L141.583 40.0412Z" fill="#FF1DCF"/>
<path d="M42.8933 121.547L42.8104 123.3L44.5618 123.383L44.6447 121.63L42.8933 121.547Z" fill="#E80000"/>
<path d="M153.101 46.9048L149.771 43.5469L146.414 46.8791L149.745 50.2371L153.101 46.9048Z" fill="#0AD2FF"/>
<path d="M130.787 36.6685L129.524 37.2231L130.078 38.4866L131.341 37.932L130.787 36.6685Z" fill="#FFAF00"/>
<path d="M91.7893 177.731L90.9462 175.437L88.6535 176.28L89.4966 178.574L91.7893 177.731Z" fill="#0AD2FF"/>
<path d="M180.812 107.677L180.28 106.652L179.256 107.184L179.788 108.209L180.812 107.677ZM180.241 106.79L180.674 107.618L179.827 108.071L179.394 107.223L180.241 106.79Z" fill="white"/>
<path d="M136.785 39.6305L131.143 42.1687L133.68 47.8137L139.321 45.2756L136.785 39.6305Z" fill="#FFEC00"/>
<path d="M112.801 34.2952L110.655 34.3525L110.712 36.5003L112.858 36.443L112.801 34.2952Z" fill="#FF1DCF"/>
<path d="M44.3169 91.521L43.3754 88.2847L40.1409 89.2267L41.0825 92.4631L44.3169 91.521Z" fill="#FFEC00"/>
<path d="M151.703 83.7676L156.942 89.551L162.722 84.3088L157.483 78.5253L151.703 83.7676Z" fill="#0AD2FF"/>
<path d="M42.3815 88.6456L41.5449 93.1013L45.998 93.9384L46.8346 89.4827L42.3815 88.6456Z" fill="#FFEC00"/>
<path d="M47.3481 133.077L45.2679 134.282L46.4718 136.363L48.552 135.159L47.3481 133.077Z" fill="#0AD2FF"/>
<path d="M105.434 30.1366L102.289 33.8521L106.002 36.9985L109.147 33.2831L105.434 30.1366Z" fill="#0AD2FF"/>
<path d="M96.9093 195.779L99.6639 195.643L99.5283 192.887L96.7736 193.023L96.9093 195.779Z" fill="#FFEC00"/>
<path d="M115.664 160.208L116.649 157.724L114.246 156.739L113.261 159.222L115.664 160.208ZM116.334 157.862L115.546 159.833L113.576 159.025L114.384 157.054L116.334 157.862Z" fill="white"/>
<path d="M92.4089 32.0844L91.1632 32.8794L91.9577 34.1258L93.2034 33.3308L92.4089 32.0844Z" fill="#0AD2FF"/>
<path d="M99.8546 170.431L95.558 172.839L97.9652 177.138L102.262 174.73L99.8546 170.431Z" fill="#0AD2FF"/>
<path d="M92.3797 41.042L89.9336 44.6218L93.5113 47.0693L95.9574 43.4895L92.3797 41.042Z" fill="#FFAF00"/>
<path d="M36.7727 130.197L35.694 133.577L39.0719 134.656L40.1506 131.276L36.7727 130.197Z" fill="#FFAF00"/>
<path d="M34.7563 138.998L36.155 141.167L38.322 139.767L36.9233 137.599L34.7563 138.998ZM36.2141 140.97L35.0124 139.117L36.8642 137.914L38.0659 139.787L36.2141 140.97Z" fill="white"/>
<path d="M148.36 136.316L141.51 131.568L136.765 138.423L143.615 143.17L148.36 136.316Z" fill="#0AD2FF"/>
<path d="M142.791 63.5825L140.585 68.9046L145.904 71.1123L148.11 65.7902L142.791 63.5825ZM141.117 68.6878L143.087 64.1147L147.637 66.0859L145.667 70.6392L141.117 68.6878Z" fill="white"/>
<path d="M163.542 106.317L159.344 107.499L160.525 111.699L164.723 110.518L163.542 106.317Z" fill="#E80000"/>
<path d="M199.395 121.968L196.08 122.57L196.682 125.886L199.996 125.284L199.395 121.968Z" fill="#FFAF00"/>
<path d="M114.029 183.073L116.669 181.102L114.699 178.461L112.059 180.432L114.029 183.073Z" fill="white"/>
<path d="M23.2091 140.535L17.8542 142.156L19.4751 147.515L24.8299 145.893L23.2091 140.535Z" fill="#FFEC00"/>
<path d="M145.923 149.406L146.455 148.716L145.766 148.184L145.234 148.874L145.923 149.406ZM146.357 148.736L145.923 149.288L145.352 148.854L145.785 148.302L146.357 148.736Z" fill="white"/>
<path d="M162.199 162.796L161.448 164.809L163.46 165.56L164.211 163.547L162.199 162.796Z" fill="#FFAF00"/>
<path d="M150.238 142.507L148.681 141.817L147.972 143.375L149.528 144.084L150.238 142.507ZM148.74 141.975L150.08 142.586L149.469 143.907L148.13 143.296L148.74 141.975Z" fill="white"/>
<path d="M100.565 158.422L98.7427 158.752L99.0728 160.576L100.895 160.245L100.565 158.422Z" fill="#E80000"/>
<path d="M141.912 54.7045L139.393 50.4695L135.161 52.9891L137.679 57.2241L141.912 54.7045Z" fill="#FFEC00"/>
<path d="M64.7132 51.1377L69.4116 50.0325L68.307 45.3313L63.6086 46.4366L64.7132 51.1377Z" fill="#FFEC00"/>
<path d="M76.4613 172.429L75.4369 167.501L70.5316 168.526L71.556 173.434L76.4613 172.429Z" fill="white"/>
<path d="M91.0781 157.703L90.501 158.999L91.7966 159.577L92.3738 158.28L91.0781 157.703Z" fill="#FF1DCF"/>
<path d="M18.7402 72.5117L20.4541 67.9978L15.9428 66.2632L14.2289 70.7771L18.7402 72.5117Z" fill="white"/>
<path d="M159.637 88.6708L161.47 86.9385L159.739 85.1041L157.905 86.8364L159.637 88.6708Z" fill="#FFEC00"/>
<path d="M60.0708 61.7886L60.7406 60.9607L59.9132 60.2905L59.2434 61.0987L60.0708 61.7886Z" fill="white"/>
<path d="M52.0049 62.4273L47.6492 66.0649L51.2847 70.4232L55.6405 66.7856L52.0049 62.4273Z" fill="#0AD2FF"/>
<path d="M158.284 149.353L154.83 154.653L160.127 158.11L163.581 152.81L158.284 149.353Z" fill="#E80000"/>
<path d="M41.8241 63.6041L42.0984 65.3767L43.87 65.1023L43.5957 63.3297L41.8241 63.6041Z" fill="#0AD2FF"/>
<path d="M98.9934 36.5253L94.5244 37.5732L95.5718 42.0448L100.041 40.9969L98.9934 36.5253Z" fill="#FFAF00"/>
<path d="M140.7 53.1402L136.977 53.9116L137.748 57.6369L141.471 56.8654L140.7 53.1402Z" fill="#0AD2FF"/>
<path d="M176.648 81.517L178.973 81.5056L178.962 79.1797L176.637 79.1911L176.648 81.517Z" fill="#FFEC00"/>
<path d="M23.0081 99.1547L28.7354 99.6924L29.2727 93.9618L23.5455 93.4241L23.0081 99.1547Z" fill="#FFAF00"/>
<path d="M104.396 159.006L105.834 158.414L105.243 156.975L103.805 157.567L104.396 159.006Z" fill="white"/>
<path d="M161.981 79.4657L161.401 81.3289L163.263 81.9092L163.843 80.046L161.981 79.4657Z" fill="#FFAF00"/>
<path d="M165.562 128.214L168.476 127.861L168.123 124.945L165.209 125.298L165.562 128.214Z" fill="#FFEC00"/>
<path d="M160.367 117.894L157.069 120.647L159.82 123.947L163.118 121.194L160.367 117.894Z" fill="#FFEC00"/>
<path d="M17.4012 100.025L14.7291 102.476L17.1785 105.149L19.8505 102.698L17.4012 100.025Z" fill="#E80000"/>
<path d="M107.269 156.825L104.598 162.011L109.781 164.684L112.452 159.497L107.269 156.825Z" fill="#FF1DCF"/>
<path d="M184.36 65.7202L182.768 65.833L182.881 67.4256L184.473 67.3129L184.36 65.7202Z" fill="#0AD2FF"/>
<path d="M147.321 52.2356L146.819 53.7305L148.313 54.2327L148.815 52.7378L147.321 52.2356Z" fill="#E80000"/>
<path d="M55.4019 43.4178L55.9141 46.0394L58.5342 45.5269L58.0417 42.9053L55.4019 43.4178Z" fill="white"/>
<path d="M171.495 86.5367L165.003 86.8794L165.346 93.3751L171.838 93.0324L171.495 86.5367Z" fill="#0AD2FF"/>
<path d="M120.174 34.7302L123.016 31.3528L119.641 28.5087L116.799 31.8861L120.174 34.7302Z" fill="#FFAF00"/>
<path d="M75.9088 163.079L68.5366 161.887L67.3452 169.263L74.7173 170.455L75.9088 163.079Z" fill="#0AD2FF"/>
<path d="M127.366 155.201L130.144 155.871L130.814 153.092L128.036 152.422L127.366 155.201Z" fill="white"/>
<path d="M38.4891 107.742L37.4257 108.557L38.2402 109.621L39.3037 108.806L38.4891 107.742Z" fill="#0AD2FF"/>
<path d="M63.3385 177.66L67.9374 180.951L71.2262 176.349L66.6273 173.059L63.3385 177.66Z" fill="#FFAF00"/>
<path d="M146.652 67.3982L146.073 69.4875L148.161 70.067L148.74 67.9776L146.652 67.3982Z" fill="#0AD2FF"/>
<path d="M90.2709 177.85L86.981 177.337L86.4885 180.629L89.7587 181.122L90.2709 177.85Z" fill="white"/>
<path d="M104.498 20.8792L105.346 23.5466L108.012 22.6984L107.164 20.031L104.498 20.8792Z" fill="#FFEC00"/>
<path d="M57.4417 138.506L56.1525 138.789L56.4352 140.079L57.7245 139.796L57.4417 138.506Z" fill="#0AD2FF"/>
<path d="M135.859 32.3479L136.751 33.9265L138.328 33.0341L137.437 31.4554L135.859 32.3479Z" fill="#FFEC00"/>
<path d="M53.8168 138.989L51.6003 139.622L52.2326 141.84L54.4491 141.207L53.8168 138.989Z" fill="#FF1DCF"/>
<path d="M122.248 159.337L116.989 161.36L119.01 166.622L124.269 164.6L122.248 159.337Z" fill="#E80000"/>
<path d="M23.3894 161.41L25.5958 163.756L27.9204 161.509L25.6943 159.183L23.3894 161.41ZM25.6352 163.382L23.6652 161.41L25.6352 159.439L27.6052 161.41L25.6352 163.382Z" fill="white"/>
<path d="M54.795 160.657L56.6577 162.177L58.1764 160.313L56.3136 158.794L54.795 160.657Z" fill="#FF1DCF"/>
<path d="M66.0793 153.112L65.311 153.683L65.8823 154.452L66.6506 153.881L66.0793 153.112ZM65.4292 153.703L66.0596 153.23L66.5324 153.861L65.902 154.334L65.4292 153.703Z" fill="white"/>
<path d="M169.406 116.094V117.099H170.43V116.074L169.406 116.094Z" fill="white"/>
<path d="M109.234 163.064L107.801 163.499L108.236 164.933L109.668 164.498L109.234 163.064Z" fill="#E80000"/>
<path d="M154.572 65.8098L150.376 69.1411L153.646 73.2804L157.842 69.9492L154.572 65.8098Z" fill="white"/>
<path d="M137.689 26.9948L143.548 32.238L148.788 26.3759L142.929 21.1327L137.689 26.9948Z" fill="#FFAF00"/>
<path d="M70.3149 50.356L69.4678 51.7555L70.8665 52.6228L71.7136 51.2035L70.3149 50.356Z" fill="white"/>
<path d="M51.2058 149.347L56.9582 150.904L58.5145 145.168L52.7621 143.611L51.2058 149.347Z" fill="white"/>
<path d="M72.853 48.4132L72.3833 49.9185L73.8877 50.3884L74.3574 48.8832L72.853 48.4132Z" fill="#FF1DCF"/>
<path d="M184.476 76.5722L184.851 75.5078L183.787 75.1333L183.412 76.1977L184.476 76.5722Z" fill="white"/>
<path d="M56.8905 147.612L59.2255 153.066L64.6761 150.73L62.3411 145.276L56.8905 147.612Z" fill="#0AD2FF"/>
<path d="M78.1603 160.699L77.4167 161.954L78.6706 162.698L79.4142 161.443L78.1603 160.699Z" fill="#FFEC00"/>
<path d="M160.265 132.533L159.556 134.82L161.841 135.608L162.629 133.322L160.265 132.533ZM159.694 134.721L160.383 132.75L162.353 133.44L161.683 135.411L159.694 134.721Z" fill="white"/>
<path d="M91.1598 36.254L90.3228 37.6133L91.6813 38.4508L92.5183 37.0915L91.1598 36.254Z" fill="#FFAF00"/>
<path d="M156.86 135.415L153.841 138.849L157.273 141.87L160.291 138.436L156.86 135.415Z" fill="#FF1DCF"/>
<path d="M38.113 109.324L32.8627 112.039L35.576 117.292L40.8264 114.577L38.113 109.324Z" fill="#FFEC00"/>
<path d="M77.978 166.851L79.3964 167.501L80.0465 166.082L78.6281 165.432L77.978 166.851Z" fill="white"/>
<path d="M152.582 58.8517L150.257 54.9094L146.317 57.2354L148.662 61.1777L152.582 58.8517ZM150.139 55.2839L152.109 58.7137L148.681 60.6849L146.711 57.2354L150.139 55.2839Z" fill="white"/>
<path d="M141.235 49.469L143.205 46.9262L140.664 44.9551L138.694 47.4979L141.235 49.469Z" fill="white"/>
<path d="M126.152 163.164L126.562 160.694L124.094 160.284L123.684 162.754L126.152 163.164Z" fill="#FFAF00"/>
<path d="M174.863 126.245L174.567 130.187L178.507 130.483L178.803 126.541L174.863 126.245ZM174.863 129.852L175.119 126.62L178.33 126.856L178.093 130.089L174.863 129.852Z" fill="white"/>
<path d="M76.4567 169.778L74.3015 171.468L75.9908 173.625L78.1459 171.934L76.4567 169.778Z" fill="#0AD2FF"/>
<path d="M59.7966 45.5294L59.3716 47.5146L61.3557 47.9399L61.7807 45.9546L59.7966 45.5294Z" fill="#0AD2FF"/>
<path d="M167.778 140.428L167.209 141.663L168.443 142.232L169.012 140.997L167.778 140.428Z" fill="#FFAF00"/>
<path d="M155.616 119.78L153.646 117.138L151.006 119.11L152.976 121.751L155.616 119.78Z" fill="white"/>
<path d="M155.173 82.7467L151.995 81.1292L150.379 84.3092L153.557 85.9267L155.173 82.7467Z" fill="#FFAF00"/>
<path d="M80.2633 157.922L81.6817 154.098L77.8599 152.659L76.4415 156.483L80.2633 157.922ZM81.3074 154.255L80.086 157.547L76.8158 156.325L78.0372 153.033L81.3074 154.255Z" fill="white"/>
<path d="M104.135 166.154L102.921 167.878L104.645 169.093L105.858 167.368L104.135 166.154Z" fill="#FFAF00"/>
<path d="M98.8882 161.649L97.5081 162.279L98.1376 163.659L99.5177 163.03L98.8882 161.649Z" fill="#E80000"/>
<path d="M34.0146 108.421L32.2496 111.43L35.2568 113.196L37.0218 110.187L34.0146 108.421Z" fill="#0AD2FF"/>
<path d="M143.005 52.0789L139.415 54.9094L142.244 58.5012L145.834 55.6707L143.005 52.0789Z" fill="#E80000"/>
<path d="M62.8289 165.491L68.7389 166.358L69.6254 160.445L63.7154 159.558L62.8289 165.491Z" fill="white"/>
<path d="M77.8062 36.0621L74.5201 37.2869L75.7442 40.5748L79.0302 39.3501L77.8062 36.0621Z" fill="#0AD2FF"/>
<path d="M130.999 152.802L129.806 154.22L131.223 155.413L132.416 153.996L130.999 152.802Z" fill="#FF1DCF"/>
<path d="M84.2382 44.2057L84.2351 48.7L88.7267 48.7031L88.7298 44.2089L84.2382 44.2057Z" fill="#FF1DCF"/>
<path d="M132.921 56.4271L133.217 54.1209L130.912 53.8252L130.617 56.1314L132.921 56.4271Z" fill="white"/>
<path d="M157.251 132.415H158.137V131.548H157.251V132.415ZM158.059 132.415H157.33V131.686H158.059V132.415Z" fill="white"/>
<path d="M41.5061 84.6528L37.5476 85.7119L38.6061 89.6727L42.5646 88.6137L41.5061 84.6528Z" fill="#0AD2FF"/>
<path d="M78.4924 45.5479L77.0277 46.7136L78.1927 48.1791L79.6574 47.0134L78.4924 45.5479Z" fill="#FFAF00"/>
<path d="M76.2663 188.751L75.1885 189.847L76.2837 190.925L77.3615 189.829L76.2663 188.751Z" fill="#E80000"/>
<path d="M50.6826 66.3114L50.8662 64.0718L48.6279 63.888L48.4443 66.1276L50.6826 66.3114Z" fill="#FFAF00"/>
<path d="M16.0807 83.905L15.2336 84.1613L15.4897 85.0089L16.3171 84.7526L16.0807 83.905Z" fill="white"/>
<path d="M23.1167 125.877L30.4452 128.61L33.1765 121.277L25.848 118.544L23.1167 125.877Z" fill="#FF1DCF"/>
<path d="M112.929 26.9651L112.487 28.7239L114.245 29.166L114.687 27.4072L112.929 26.9651Z" fill="#FFAF00"/>
<path d="M41.7066 118.792L44.7036 113.378L39.2924 110.379L36.2953 115.793L41.7066 118.792Z" fill="#0AD2FF"/>
<path d="M168.014 81.6764L166.505 82.8821L167.71 84.3913L169.218 83.1857L168.014 81.6764Z" fill="#FF1DCF"/>
<path d="M38.2356 49.4101L36.8234 51.0547L38.467 52.4677L39.8792 50.8232L38.2356 49.4101Z" fill="#E80000"/>
<path d="M100.83 162.672L102.347 162.297L101.973 160.799L100.456 161.154L100.83 162.672Z" fill="white"/>
<path d="M51.4088 36.2259L47.3291 43.1094L54.2086 47.1914L58.2883 40.308L51.4088 36.2259Z" fill="#0AD2FF"/>
<path d="M126.591 44.7728L125.999 47.9988L129.223 48.5913L129.815 45.3653L126.591 44.7728Z" fill="#FFAF00"/>
<path d="M92.7728 167.6L94.27 168.447L95.1171 166.949L93.6199 166.102L92.7728 167.6ZM94.2109 168.231L92.9895 167.541L93.679 166.319L94.9004 167.009L94.2109 168.231Z" fill="white"/>
<path d="M97.5836 34.065L96.6058 38.1682L100.707 39.1465L101.684 35.0433L97.5836 34.065Z" fill="#FF1DCF"/>
<path d="M50.6385 81.1051L46.4513 77.1873L42.5358 81.3769L46.7229 85.2947L50.6385 81.1051Z" fill="#FF1DCF"/>
<path d="M45.7285 55.9033L45.3163 54.0161L43.4302 54.4286L43.8425 56.3158L45.7285 55.9033Z" fill="#0AD2FF"/>
<path d="M153.884 114.821L152.72 116.696L154.595 117.861L155.758 115.985L153.884 114.821Z" fill="#0AD2FF"/>
<path d="M104.31 167.418L104.825 171.34L108.745 170.825L108.23 166.903L104.31 167.418Z" fill="#FFEC00"/>
<path d="M164.813 83.0525L159.551 79.874L156.375 85.1389L161.636 88.3174L164.813 83.0525Z" fill="#E80000"/>
<path d="M23.6519 92.3155L18.4272 92.9241L19.0355 98.1517L24.2601 97.5432L23.6519 92.3155Z" fill="#FFAF00"/>
<path d="M28.8491 66.3812L26.1422 70.592L30.3506 73.3005L33.0575 69.0897L28.8491 66.3812Z" fill="#FFEC00"/>
<path d="M53.492 66.0231L59.9393 65.1887L59.1054 58.7377L52.6581 59.5721L53.492 66.0231Z" fill="#FF1DCF"/>
<path d="M160.521 109.826L162.117 115.187L167.436 113.591L165.84 108.229L160.521 109.826ZM162.491 114.694L161.112 110.102L165.702 108.722L167.081 113.315L162.491 114.694Z" fill="white"/>
<path d="M136.095 165.414L138.767 164.198L137.552 161.525L134.88 162.741L136.095 165.414Z" fill="#FFAF00"/>
<path d="M71.9105 49.2524L72.5606 45.3101L68.6206 44.6399L67.9508 48.5822L71.9105 49.2524ZM72.2257 45.5269L71.6741 48.9173L68.266 48.3654L68.9358 44.9553L72.2257 45.5269Z" fill="white"/>
<path d="M56.0302 56.2647L55.4144 57.9912L57.1399 58.6074L57.7557 56.8808L56.0302 56.2647Z" fill="#FFAF00"/>
<path d="M123.8 45.6845L124.332 47.6557L126.302 47.1432L125.79 45.0735L123.8 45.6845Z" fill="white"/>
<path d="M64.2619 165.505L62.808 171.541L68.8408 172.996L70.2947 166.96L64.2619 165.505Z" fill="#E80000"/>
<path d="M77.0718 154.334L77.3476 153.486L76.5005 153.23L76.2247 154.098L77.0718 154.334ZM77.2491 153.546L77.0127 154.236L76.3429 154.098L76.5596 153.408L77.2491 153.546Z" fill="white"/>
<path d="M165.768 63.9607L162.523 58.2791L156.844 61.5264L160.09 67.2081L165.768 63.9607Z" fill="#FF1DCF"/>
<path d="M191.563 109.042L191.305 111.453L193.715 111.711L193.972 109.3L191.563 109.042Z" fill="#E80000"/>
<path d="M130.754 161.391L130.321 160.504L129.434 160.937L129.868 161.824L130.754 161.391ZM130.282 160.622L130.636 161.351L129.907 161.706L129.553 160.996L130.282 160.622Z" fill="white"/>
<path d="M60.1849 143.243L58.887 144.393L60.0361 145.692L61.3341 144.542L60.1849 143.243Z" fill="#0AD2FF"/>
<path d="M157.008 53.3175L156.285 54.4456L157.412 55.1695L158.136 54.0414L157.008 53.3175Z" fill="#FF1DCF"/>
<path d="M103.669 8.09347L103.188 10.4697L105.563 10.951L106.044 8.57477L103.669 8.09347Z" fill="#FFAF00"/>
<path d="M136.027 159.361L132.496 152.823L125.962 156.357L129.493 162.894L136.027 159.361Z" fill="#FFEC00"/>
<path d="M106.945 175.842L105.343 171.14L100.644 172.744L102.246 177.445L106.945 175.842Z" fill="#FFAF00"/>
<path d="M113.927 35.5698L107.663 32.2417L104.337 38.5089L110.601 41.8371L113.927 35.5698Z" fill="#FFAF00"/>
<path d="M158.325 119.935L157.883 118.197L156.146 118.64L156.588 120.378L158.325 119.935Z" fill="#FF1DCF"/>
<path d="M44.3412 110.079L40.7469 111.741L42.4085 115.338L46.0027 113.675L44.3412 110.079Z" fill="#FFAF00"/>
<path d="M162.78 127.6L161.328 128.781L162.509 130.234L163.961 129.053L162.78 127.6Z" fill="#0AD2FF"/>
<path d="M80.5919 173.099L80.5325 174.911L82.3439 174.971L82.4034 173.158L80.5919 173.099Z" fill="#FF1DCF"/>
<path d="M134.393 38.7228L133.884 40.7288L135.888 41.2386L136.398 39.2327L134.393 38.7228Z" fill="#0AD2FF"/>
<path d="M152.389 117.258L158.19 120.448L161.378 114.644L155.577 111.454L152.389 117.258Z" fill="#FFEC00"/>
<path d="M139.453 153.101L136.588 155.125L138.611 157.991L141.475 155.967L139.453 153.101Z" fill="#0AD2FF"/>
<path d="M51.3214 24.8087L53.6351 19.7334L48.5628 17.4183L46.2491 22.4936L51.3214 24.8087Z" fill="#0AD2FF"/>
<path d="M36.7188 161.423L44.0358 160.078L42.6918 152.757L35.3749 154.101L36.7188 161.423Z" fill="#FFAF00"/>
<path d="M40.6664 134.248L41.0407 137.875L44.6655 137.52L44.3109 133.874L40.6664 134.248Z" fill="white"/>
<path d="M21.0587 112.41L19.7222 113.776L21.0879 115.113L22.4244 113.747L21.0587 112.41Z" fill="#FFAF00"/>
<path d="M39.1159 90.8893L34.4836 91.9304L35.5242 96.5654L40.1564 95.5243L39.1159 90.8893Z" fill="#0AD2FF"/>
<path d="M44.7899 78.7209L44.3502 75.6377L41.2688 76.0776L41.7085 79.1608L44.7899 78.7209Z" fill="#0AD2FF"/>
<path d="M50.9703 137.362L45.1222 131.961L39.7238 137.812L45.5719 143.214L50.9703 137.362Z" fill="#0AD2FF"/>
<path d="M112.234 45.7403L113.007 48.3481L115.614 47.5747L114.841 44.9668L112.234 45.7403Z" fill="#FFAF00"/>
<path d="M91.1025 20.2525L89.6396 21.5728L90.9591 23.0364L92.422 21.7162L91.1025 20.2525Z" fill="#E80000"/>
<path d="M148.445 153.27L146.81 159.321L152.858 160.938L154.473 154.886L148.445 153.27ZM147.362 159.006L148.76 153.822L153.922 155.221L152.543 160.386L147.362 159.006Z" fill="white"/>
<path d="M185.852 99.9348L184.447 101.703L186.214 103.108L187.619 101.34L185.852 99.9348Z" fill="#0AD2FF"/>
<path d="M187.161 142.514L186.365 144.97L188.819 145.767L189.615 143.311L187.161 142.514Z" fill="#0AD2FF"/>
<path d="M30.9148 91.9077V93.5043H32.5105V91.9077H30.9148ZM31.0921 93.3861V92.026H32.4514V93.3861H31.0921Z" fill="white"/>
<path d="M41.6112 77.5872L41.8289 75.7075L39.9502 75.4897L39.7325 77.3694L41.6112 77.5872Z" fill="#FFEC00"/>
<path d="M145.328 140.337L141.362 140.666L141.691 144.634L145.657 144.305L145.328 140.337Z" fill="#E80000"/>
<path d="M165.472 54.5971L164.834 52.5249L162.763 53.1632L163.401 55.2354L165.472 54.5971Z" fill="#FFEC00"/>
<path d="M51.3383 132.331L49.7634 131.394L48.8272 132.97L50.4021 133.907L51.3383 132.331Z" fill="#FF1DCF"/>
<path d="M70.3874 171.174L69.6626 175.129L73.6155 175.855L74.3403 171.899L70.3874 171.174Z" fill="#0AD2FF"/>
<path d="M159 101.719L154.217 105.889L158.385 110.674L163.167 106.504L159 101.719Z" fill="#E80000"/>
<path d="M84.8855 160.056L80.2407 161.294L81.4783 165.942L86.1231 164.703L84.8855 160.056Z" fill="#FFEC00"/>
<path d="M121.417 47.6558H118.462V50.6322L121.436 50.5336L121.417 47.6558Z" fill="white"/>
<path d="M57.2791 47.0184L54.8296 48.0032L55.8138 50.4541L58.2632 49.4693L57.2791 47.0184Z" fill="#FFAF00"/>
<path d="M120.786 22.2257L117.564 25.0674L120.405 28.2907L123.626 25.449L120.786 22.2257Z" fill="#FFAF00"/>
<path d="M161.357 142.874L165.268 137.434L159.831 133.52L155.919 138.961L161.357 142.874Z" fill="#0AD2FF"/>
<path d="M57.9575 146.63L54.3171 151.188L58.8724 154.83L62.5128 150.273L57.9575 146.63Z" fill="#FFAF00"/>
<path d="M83.8877 166.039L89.5857 162.154L85.7032 156.453L80.0052 160.338L83.8877 166.039Z" fill="#FF1DCF"/>
<path d="M61.4498 153.9L58.9676 153.467L58.5145 155.95L61.0164 156.404L61.4498 153.9Z" fill="white"/>
<path d="M65.3447 42.0498L63.8096 42.1182L63.8779 43.6541L65.413 43.5857L65.3447 42.0498Z" fill="#FFEC00"/>
<path d="M150.77 55.9226L158.009 52.0359L154.124 44.7932L146.886 48.68L150.77 55.9226Z" fill="#FF1DCF"/>
<path d="M179.734 92.5797L177.883 97.4641L182.765 99.3156L184.615 94.4312L179.734 92.5797Z" fill="#E80000"/>
<path d="M89.7843 37.7643L88.1251 43.5425L93.9 45.2026L95.5592 39.4244L89.7843 37.7643Z" fill="#FFEC00"/>
<path d="M39.783 139.704L36.9482 142.554L39.7969 145.39L42.6317 142.54L39.783 139.704Z" fill="#FF1DCF"/>
<path d="M57.6157 178.476L55.1487 179.164L55.8361 181.633L58.3031 180.945L57.6157 178.476Z" fill="#0AD2FF"/>
<path d="M132.479 156.791L131.183 162.013L136.403 163.31L137.699 158.087L132.479 156.791Z" fill="#FFEC00"/>
<path d="M43.8124 29.878L43.2886 27.9165L41.3282 28.4406L41.852 30.4021L43.8124 29.878Z" fill="#FFAF00"/>
<path d="M142.922 62.9741L142.211 64.3152L143.552 65.0259L144.262 63.6848L142.922 62.9741Z" fill="#FFAF00"/>
<path d="M153.117 77.0641L150.421 73.0347L146.394 75.7322L149.09 79.7616L153.117 77.0641Z" fill="#FFAF00"/>
<path d="M53.2939 153.96L52.9984 151.574L50.6147 151.87L50.9102 154.275L53.2939 153.96Z" fill="white"/>
<path d="M173.233 59.2269L173.007 57.1895L170.971 57.4158L171.197 59.4533L173.233 59.2269Z" fill="#FF1DCF"/>
<path d="M88.6363 161.884L86.8365 160.202L85.1559 162.003L86.9557 163.685L88.6363 161.884Z" fill="#FFEC00"/>
<path d="M49.8224 147.416L47.7457 151.379L51.7062 153.457L53.7829 149.494L49.8224 147.416Z" fill="#FF1DCF"/>
<path d="M143.775 134.964L144.478 139.981L149.492 139.278L148.789 134.261L143.775 134.964Z" fill="#FFAF00"/>
<path d="M34.0077 108.032L29.5358 107.302L28.8069 111.856L33.3379 112.585L34.0077 108.032Z" fill="white"/>
<path d="M121.696 181.101L121.042 182.792L122.732 183.447L123.386 181.756L121.696 181.101Z" fill="#E80000"/>
<path d="M97.3782 161.921L95.1935 162.015L95.2877 164.201L97.4724 164.107L97.3782 161.921Z" fill="#FFAF00"/>
<path d="M134.158 144.569L132.317 150.663L138.408 152.506L140.249 146.411L134.158 144.569Z" fill="#FF1DCF"/>
<path d="M46.2292 125.575L47.7482 127.489L49.6612 125.969L48.1422 124.055L46.2292 125.575Z" fill="#FF1DCF"/>
<path d="M99.074 164.114L97.8779 164.948L98.7114 166.145L99.9074 165.311L99.074 164.114Z" fill="#FFAF00"/>
<path d="M151.739 60.7571L149.554 60.239L149.036 62.4256L151.221 62.9437L151.739 60.7571Z" fill="#0AD2FF"/>
<path d="M76.1902 30.436L76.0167 32.3005L77.8802 32.4742L78.0537 30.6096L76.1902 30.436Z" fill="#FFEC00"/>
<path d="M168.821 72.4029L167.716 73.2566L168.57 74.3622L169.674 73.5085L168.821 72.4029Z" fill="#FFAF00"/>
<path d="M168.979 136.116L167.833 137.469L169.186 138.616L170.332 137.263L168.979 136.116Z" fill="#FFAF00"/>
<path d="M43.8774 117.552L44.5472 118.794L45.7883 118.124L45.1185 116.882L43.8774 117.552ZM44.5866 118.656L44.0153 117.592L45.0791 117.02L45.6504 118.084L44.5866 118.656Z" fill="white"/>
<path d="M83.4827 25.4926L80.7313 30.8816L86.1172 33.6345L88.8685 28.2455L83.4827 25.4926Z" fill="#FFEC00"/>
<path d="M21.1042 92.0655L23.6258 96.1852L27.7628 93.5832L25.1428 89.4438L21.1042 92.0655Z" fill="white"/>
<path d="M38.2501 92.759L36.4233 96.5825L40.2447 98.4103L42.0714 94.5868L38.2501 92.759Z" fill="#FFEC00"/>
<path d="M150.291 130.073L149.12 131.214L150.261 132.386L151.432 131.244L150.291 130.073Z" fill="#FF1DCF"/>
<path d="M117.266 39.6229L115.744 41.6841L117.804 43.2065L119.326 41.1453L117.266 39.6229Z" fill="#0AD2FF"/>
<path d="M61.5196 157.757L64.3408 155.775L62.3595 152.952L59.5382 154.934L61.5196 157.757Z" fill="#FF1DCF"/>
<path d="M68.5812 44.6005L70.1178 43.4769L68.9358 41.9395L67.3992 43.063L68.5812 44.6005ZM69.8814 43.4375L68.6206 44.364L67.6947 43.1024L68.9555 42.176L69.8814 43.4375Z" fill="white"/>
<path d="M143.539 146.739L141.445 148.625L143.329 150.72L145.423 148.834L143.539 146.739Z" fill="#FFAF00"/>
<path d="M159.142 93.4652L155.616 90.7253L152.858 94.1748L156.384 96.9344L159.142 93.4652Z" fill="white"/>
<path d="M77.8402 21.6169L75.8702 22.7208L76.9734 24.6919L79.0419 23.5881L77.8402 21.6169Z" fill="white"/>
<path d="M43.7252 140.402L43.1359 143.058L45.7898 143.647L46.3792 140.992L43.7252 140.402Z" fill="#0AD2FF"/>
<path d="M69.6069 153.884L62.0444 151.159L59.3218 158.726L66.8842 161.45L69.6069 153.884Z" fill="#FFEC00"/>
<path d="M145.766 42.3533L144.466 47.4191L149.528 48.7004L150.789 43.7134L145.766 42.3533ZM144.919 47.1432L146.042 42.8066L150.376 43.9105L149.253 48.247L144.919 47.1432Z" fill="white"/>
<path d="M159.549 90.6329L154.072 93.6355L157.073 99.1153L162.55 96.1127L159.549 90.6329Z" fill="#0AD2FF"/>
<path d="M119.525 170.419L120.491 169.827L119.919 168.861L118.934 169.433L119.525 170.419Z" fill="white"/>
<path d="M55.0625 62.5558L51.9979 60.0469L49.4905 63.1133L52.5551 65.6222L55.0625 62.5558Z" fill="#FFEC00"/>
<path d="M38.8945 70.9878L37.9995 72.6323L39.6431 73.5279L40.5381 71.8833L38.8945 70.9878Z" fill="#FFAF00"/>
<path d="M148.347 66.1647L147.263 65.396L146.455 66.4998L147.539 67.308L148.347 66.1647ZM147.283 65.4946L148.209 66.1845L147.519 67.1306L146.574 66.4407L147.283 65.4946Z" fill="white"/>
<path d="M38.1632 93.2162L42.3544 88.3733L37.5143 84.1797L33.3232 89.0226L38.1632 93.2162Z" fill="#E80000"/>
<path d="M41.9469 66.9531V72.6103H47.6008V66.9531H41.9469Z" fill="white"/>
<path d="M43.6409 40.8243L41.1891 42.2908L42.6547 44.744L45.1066 43.2775L43.6409 40.8243Z" fill="#0AD2FF"/>
<path d="M123.56 48.0796L124.907 51.2974L128.123 49.9487L126.775 46.731L123.56 48.0796Z" fill="#FFAF00"/>
<path d="M32.1559 89.0496L33.1606 91.3755L35.4458 90.252L34.4411 87.926L32.1559 89.0496ZM33.2591 91.0207L32.3923 89.0496L34.3623 88.1823L35.2291 90.1534L33.2591 91.0207Z" fill="white"/>
<path d="M40.9174 93.8862L39.6027 95.6836L41.399 96.9991L42.7138 95.2017L40.9174 93.8862Z" fill="#E80000"/>
<path d="M20.4147 90.1929L24.0986 90.6265L24.532 86.9405L20.8481 86.5068L20.4147 90.1929ZM23.8622 90.3309L20.7102 89.9563L21.0845 86.8025L24.2562 87.177L23.8622 90.3309Z" fill="white"/>
<path d="M75.8834 26.6964L72.9547 28.2388L74.4962 31.1692L77.4249 29.6268L75.8834 26.6964Z" fill="#FFAF00"/>
<path d="M144.367 143.729L143.796 145.05L145.116 145.622L145.766 144.242L144.367 143.729Z" fill="white"/>
<path d="M145.037 49.7847L143.658 52.5837L146.455 53.9635L147.834 51.1645L145.037 49.7847Z" fill="white"/>
<path d="M72.244 38.7309L72.1907 40.7407L74.1994 40.7941L74.2527 38.7842L72.244 38.7309Z" fill="#FFEC00"/>
<path d="M19.2919 127.507L20.3754 126.048L18.9176 124.964L17.8341 126.442L19.2919 127.507Z" fill="white"/>
<path d="M174.902 85.955L175.513 87.2165L176.793 86.6055L176.163 85.3242L174.902 85.955Z" fill="white"/>
<path d="M125.711 30.7827L122.756 32.2216L124.175 35.1784L127.13 33.7591L125.711 30.7827Z" fill="white"/>
<path d="M34.5397 91.1589L36.2733 91.9473L37.081 90.193L35.3277 89.4045L34.5397 91.1589ZM36.2142 91.7699L34.717 91.0209L35.3868 89.5228L36.9037 90.2127L36.2142 91.7699Z" fill="white"/>
<path d="M110.323 166.483L106.454 169.991L109.959 173.862L113.828 170.354L110.323 166.483Z" fill="#0AD2FF"/>
<path d="M134.188 43.2197L130.715 43.7092L131.205 47.1835L134.677 46.694L134.188 43.2197Z" fill="#FF1DCF"/>
<path d="M160.206 101.034L158.236 98.4915L155.695 100.463L157.665 103.025L160.206 101.034Z" fill="white"/>
<path d="M125.258 152.126L125.79 153.526L127.208 152.994L126.676 151.594L125.258 152.126Z" fill="white"/>
<path d="M60.2651 48.1503L56.4117 48.6121L56.8733 52.4677L60.7266 52.0059L60.2651 48.1503Z" fill="#0AD2FF"/>
<path d="M31.5981 136.572L28.0166 138.439L29.8826 142.023L33.4642 140.156L31.5981 136.572Z" fill="#FF1DCF"/>
<path d="M100.794 166.642L98.895 166.292L98.5462 168.192L100.445 168.541L100.794 166.642Z" fill="#FFEC00"/>
<path d="M69.0592 148.113L64.7638 151.432L68.0805 155.73L72.3759 152.411L69.0592 148.113Z" fill="#E80000"/>
<path d="M166.414 104.917L165.569 106.057L166.708 106.902L167.553 105.762L166.414 104.917Z" fill="#FFAF00"/>
<path d="M142.653 155.024L145.352 156.995L147.322 154.295L144.623 152.323L142.653 155.024Z" fill="white"/>
<path d="M154.461 123.469L152.375 125.727L154.632 127.814L156.718 125.556L154.461 123.469Z" fill="#0AD2FF"/>
<path d="M170.7 107.655L169.513 108.723L170.581 109.91L171.767 108.843L170.7 107.655Z" fill="#FF1DCF"/>
<path d="M142.87 62.7942L145.195 60.3697L142.771 58.0437L140.447 60.4682L142.87 62.7942ZM144.84 60.3894L142.87 62.3605L140.9 60.3894L142.87 58.4182L144.84 60.3894Z" fill="white"/>
<path d="M153.075 79.9431L153.39 79.0561L152.523 78.7407L152.208 79.608L153.075 79.9431ZM153.291 79.1152L153.015 79.8249L152.306 79.5686L152.582 78.859L153.291 79.1152Z" fill="white"/>
<path d="M150.179 130.444L152.247 133.203L155.005 131.232L153.035 128.453L150.179 130.444ZM152.306 132.77L150.612 130.503L152.897 128.808L154.572 131.094L152.306 132.77Z" fill="white"/>
<path d="M149.152 66.0734L146.38 70.731L151.035 73.5041L153.807 68.8466L149.152 66.0734Z" fill="#FFAF00"/>
<path d="M188.586 89.9982L190.762 87.1223L187.888 84.9449L185.712 87.8208L188.586 89.9982Z" fill="#FFEC00"/>
<path d="M136.98 56.6638L136.073 56.447L135.876 57.3537L136.783 57.5706L136.98 56.6638Z" fill="white"/>
<path d="M86.4038 177.106L80.4661 176.324L79.6854 182.266L85.6231 183.047L86.4038 177.106Z" fill="#0AD2FF"/>
<path d="M101.382 30.8813L99.6875 33.3256L102.15 35.0208L103.844 32.5765L101.382 30.8813ZM100.062 33.2664L101.46 31.2953L103.431 32.6751L102.032 34.6462L100.062 33.2664Z" fill="white"/>
<path d="M59.9132 42.0181L61.371 41.1114L60.4648 39.771L59.0858 40.5595L59.9132 42.0181ZM61.1543 41.072L59.9723 41.8013L59.2434 40.6186L60.4254 39.8893L61.1543 41.072Z" fill="white"/>
<path d="M54.8017 151.152L54.4852 154.923L58.2544 155.24L58.5709 151.469L54.8017 151.152Z" fill="#E80000"/>
<path d="M158.331 126.45L156.742 127.491L157.782 129.081L159.371 128.04L158.331 126.45Z" fill="#0AD2FF"/>
<path d="M89.6208 162.967L90.8619 163.539L91.4332 162.297L90.1922 161.726L89.6208 162.967ZM90.8225 163.401L89.7587 162.908L90.2512 161.844L91.315 162.356L90.8225 163.401Z" fill="white"/>
<path d="M23.8622 58.0437L22.9363 58.3788L23.2909 59.3052L24.1971 58.9504L23.8622 58.0437ZM23.0545 58.4379L23.8031 58.1423L24.0789 58.8913L23.35 59.187L23.0545 58.4379Z" fill="white"/>
<path d="M38.5781 91.0209L39.0903 93.3862L41.4543 92.8737L40.9421 90.5281L38.5781 91.0209ZM39.2479 93.13L38.8342 91.1588L40.8042 90.7449L41.2376 92.716L39.2479 93.13Z" fill="white"/>
<path d="M41.5124 131.474L39.4323 132.148L40.1065 134.23L42.1867 133.555L41.5124 131.474Z" fill="#0AD2FF"/>
<path d="M54.0229 143.847L52.3878 142.704L51.2452 144.34L52.8803 145.483L54.0229 143.847Z" fill="white"/>
<path d="M133.375 49.0946L135.679 50.159L136.743 47.8527L134.438 46.7883L133.375 49.0946Z" fill="white"/>
<path d="M51.6589 168.29L53.7471 164.17L49.6298 162.081L47.5416 166.2L51.6589 168.29ZM53.3137 164.347L51.521 167.895L47.9947 166.121L49.7874 162.573L53.3137 164.347Z" fill="white"/>
<path d="M30.6233 88.62L28.2606 88.698L28.3386 91.0621L30.7013 90.9841L30.6233 88.62Z" fill="#FFEC00"/>
<path d="M131.976 51.3221L134.517 50.8687L134.064 48.3259L131.523 48.7793L131.976 51.3221Z" fill="white"/>
<path d="M54.7911 157.094L52.5847 157.409L52.8802 159.617L55.1457 159.301L54.7911 157.094Z" fill="white"/>
<path d="M153.784 113.965L154.749 115.148L155.911 114.201L154.966 113.019L153.784 113.965Z" fill="white"/>
<path d="M32.7185 96.9179L29.6857 91.8655L24.6362 94.9001L27.669 99.9525L32.7185 96.9179Z" fill="#FFEC00"/>
<path d="M145.313 57.2551L143.5 57.8662L144.111 59.6796L145.923 59.0686L145.313 57.2551ZM143.717 57.9647L145.194 57.472L145.707 58.97L144.209 59.4628L143.717 57.9647Z" fill="white"/>
<path d="M30.6186 115.494L29.4841 116.312L30.3023 117.447L31.4367 116.629L30.6186 115.494Z" fill="#E80000"/>
<path d="M76.809 177.635L75.5343 180.455L78.3523 181.73L79.627 178.911L76.809 177.635Z" fill="#E80000"/>
<path d="M108.809 41.4858L106.504 44.1863L109.222 46.4925L111.507 43.7132L108.809 41.4858ZM106.839 44.1666L108.809 41.8406L111.133 43.8118L109.163 46.1377L106.839 44.1666Z" fill="white"/>
<path d="M150.888 75.6096L151.929 70.3101L146.633 69.2684L145.592 74.5679L150.888 75.6096Z" fill="#0AD2FF"/>
<path d="M172.4 100.305L170.588 103.715L173.996 105.509L175.789 102.118L172.4 100.305ZM170.962 103.597L172.499 100.679L175.414 102.237L173.878 105.134L170.962 103.597Z" fill="white"/>
<path d="M34.7564 121.317L31.5059 123.919L34.1063 127.132L37.4159 124.53L34.7564 121.317Z" fill="white"/>
<path d="M66.9658 148.815L65.8823 147.908L64.9958 148.972L66.0597 149.879L66.9658 148.815ZM65.8232 148.184L66.69 148.933L65.9612 149.8L64.9958 148.972L65.8232 148.184Z" fill="white"/>
<path d="M148.987 130.82L144.166 131.046L144.392 135.87L149.213 135.644L148.987 130.82Z" fill="#FFEC00"/>
<path d="M114.362 183.944L112.563 184.29L112.909 186.09L114.708 185.744L114.362 183.944Z" fill="#FFAF00"/>
<path d="M78.3919 158.493L75.102 156.364L72.8759 159.656L76.1658 161.785L78.3919 158.493Z" fill="white"/>
<path d="M41.0209 126.324L37.2976 127.586L38.5584 131.291L42.2817 130.03L41.0209 126.324ZM37.6522 127.763L40.8436 126.679L41.9271 129.852L38.7357 130.936L37.6522 127.763Z" fill="white"/>
<path d="M87.0602 14.8144L87.4513 16.5649L89.2008 16.1736L88.8098 14.4231L87.0602 14.8144Z" fill="#FFAF00"/>
<path d="M150.12 65.396V67.1306H151.853V65.396H150.12Z" fill="white"/>
<path d="M141.557 159.385L138.556 160.211L139.382 163.214L142.383 162.388L141.557 159.385Z" fill="#0AD2FF"/>
<path d="M98.768 154.679L91.1012 152.945L89.3678 160.616L97.0346 162.35L98.768 154.679Z" fill="#0AD2FF"/>
<path d="M54.065 53.0137L53.9877 50.7285L51.7038 50.8059L51.7811 53.0911L54.065 53.0137Z" fill="#FFAF00"/>
<path d="M96.493 31.5617L95.616 32.8955L96.9491 33.773L97.8261 32.4392L96.493 31.5617Z" fill="#FFAF00"/>
<path d="M122.994 160.614L120.437 162.524L122.346 165.083L124.903 163.173L122.994 160.614Z" fill="#FFAF00"/>
<path d="M51.1851 60.5934L53.0055 62.9475L55.3582 61.1261L53.5379 58.772L51.1851 60.5934Z" fill="#0AD2FF"/>
<path d="M99.3723 157.744L95.6687 157.33L95.255 161.036L98.9586 161.45L99.3723 157.744ZM95.9642 157.744L99.0177 158.079L98.6631 161.115L95.6293 160.78L95.9642 157.744Z" fill="white"/>
<path d="M123.643 49.1734L125.396 45.6845L121.889 43.9302L120.156 47.3994L123.643 49.1734ZM124.923 45.8028L123.485 48.6806L120.609 47.2417L122.126 44.3638L124.923 45.8028Z" fill="white"/>
<path d="M55.4386 149.869L54.953 151.921L57.0042 152.407L57.4898 150.355L55.4386 149.869Z" fill="#E80000"/>
<path d="M61.9318 51.8746L61.4941 53.5938L63.2123 54.0316L63.6499 52.3125L61.9318 51.8746Z" fill="#FF1DCF"/>
<path d="M169.997 80.7906H171.711V79.0757H169.997V80.7906Z" fill="white"/>
<path d="M24.9071 110.972L28.1475 109.738L26.914 106.495L23.6736 107.73L24.9071 110.972Z" fill="#0AD2FF"/>
<path d="M44.0185 81.1517L43.9803 82.5112L45.3391 82.5494L45.3773 81.1899L44.0185 81.1517Z" fill="#E80000"/>
<path d="M63.3893 41.7947L65.8411 37.1162L61.1653 34.6631L58.7135 39.3416L63.3893 41.7947Z" fill="#FF1DCF"/>
<path d="M57.1158 47.0054L63.4001 46.2564L62.6515 39.9487L56.3475 40.7175L57.1158 47.0054Z" fill="white"/>
<path d="M97.6978 162.199L100.16 168.112L105.972 165.648L103.529 159.833L97.6978 162.199Z" fill="white"/>
<path d="M122.169 156.852L116.835 159.444L119.425 164.781L124.76 162.189L122.169 156.852Z" fill="#0AD2FF"/>
<path d="M57.2317 137.6L54.9683 135.462L52.8316 137.726L55.095 139.864L57.2317 137.6Z" fill="#FFAF00"/>
<path d="M82.8339 156.583L84.25 159.901L87.5653 158.484L86.1492 155.166L82.8339 156.583Z" fill="#0AD2FF"/>
<path d="M184.319 89.4045L183.452 87.4333L181.482 88.3006L182.349 90.2718L184.319 89.4045ZM183.353 87.7487L184.063 89.3059L182.487 90.0155L181.797 88.4583L183.353 87.7487Z" fill="white"/>
<path d="M73.6709 41.4264L70.6177 41.7766L70.9677 44.8316L74.0209 44.4814L73.6709 41.4264Z" fill="#E80000"/>
<path d="M163.979 106.438L163.033 107.442L164.037 108.388L164.983 107.384L163.979 106.438Z" fill="#0AD2FF"/>
<path d="M35.9522 168.242L34.2191 170.709L36.6851 172.443L38.4182 169.976L35.9522 168.242Z" fill="#FFAF00"/>
<path d="M57.1976 34.9419L56.0632 35.979L57.0998 37.114L58.2341 36.0769L57.1976 34.9419Z" fill="#FF1DCF"/>
<path d="M112.222 167.729L109.586 168.474L110.331 171.111L112.966 170.366L112.222 167.729Z" fill="#E80000"/>
<path d="M111.522 159.008L109.675 156.284L106.953 158.133L108.8 160.857L111.522 159.008Z" fill="#FFAF00"/>
<path d="M61.2875 165.791L62.9974 166.552L63.758 164.841L62.0481 164.08L61.2875 165.791Z" fill="#0AD2FF"/>
<path d="M170.015 100.961L166.954 103.284L169.275 106.347L172.336 104.024L170.015 100.961Z" fill="#FFEC00"/>
<path d="M92.5758 161.036L93.4229 163.52L95.9051 162.672L95.058 160.188L92.5758 161.036ZM93.5411 163.283L92.8122 161.154L94.9398 160.425L95.6687 162.554L93.5411 163.283Z" fill="white"/>
<path d="M148.912 71.5377L148.789 77.6667L154.915 77.7893L155.037 71.6603L148.912 71.5377Z" fill="#0AD2FF"/>
<path d="M105.518 165.593L97.517 166.696L98.6187 174.702L106.62 173.6L105.518 165.593Z" fill="#FFAF00"/>
<path d="M45.8868 60.1922L42.2029 55.5403L37.6128 59.2855L41.3558 63.8782L45.8868 60.1922ZM42.1438 56.2499L45.2958 60.1922L41.3558 63.346L38.2038 59.4037L42.1438 56.2499Z" fill="white"/>
<path d="M99.6072 27.0117L97.3558 28.501L98.8443 30.7536L101.096 29.2643L99.6072 27.0117Z" fill="#FFEC00"/>
<path d="M46.3115 148.517L48.2362 147.213L46.9326 145.287L45.0079 146.591L46.3115 148.517Z" fill="#FFAF00"/>
<path d="M169.509 133.019L171.794 132.968L171.743 130.682L169.458 130.733L169.509 133.019Z" fill="#FF1DCF"/>
<path d="M42.3211 109.254H39.8192V111.757H42.3014L42.3211 109.254Z" fill="white"/>
<path d="M155.794 108.211L155.517 109.824L157.128 110.101L157.405 108.489L155.794 108.211Z" fill="#FFEC00"/>
<path d="M113.936 43.0991L118.887 41.2629L117.051 36.3097L112.101 38.1459L113.936 43.0991Z" fill="#FF1DCF"/>
<path d="M67.6885 34.6688L66.5768 35.7585L67.6659 36.8709L68.7776 35.7812L67.6885 34.6688Z" fill="#FF1DCF"/>
<path d="M72.6539 150.829L70.6199 147.045L66.8375 149.08L68.8715 152.865L72.6539 150.829Z" fill="#FFEC00"/>
<path d="M164.728 122.476L168.563 116.766L162.857 112.929L159.022 118.639L164.728 122.476Z" fill="#FF1DCF"/>
<path d="M20.602 118.818L22.0531 123.176L26.4078 121.724L24.9566 117.366L20.602 118.818Z" fill="#FF1DCF"/>
<path d="M158.931 111.024L161.012 109.944L159.932 107.862L157.851 108.942L158.931 111.024Z" fill="#FF1DCF"/>
<path d="M28.019 118.912L26.443 119.267L26.7976 120.824L28.3539 120.47L28.019 118.912Z" fill="white"/>
<path d="M95.4717 187.39L96.5946 188.553L97.7569 187.43L96.634 186.267L95.4717 187.39ZM96.5946 188.376L95.649 187.39L96.634 186.444L97.5993 187.43L96.5946 188.376Z" fill="white"/>
<path d="M108.518 173.15L107.805 174.49L109.144 175.203L109.857 173.864L108.518 173.15Z" fill="#0AD2FF"/>
<path d="M150.618 150.455L150.104 152.723L152.371 153.237L152.885 150.969L150.618 150.455Z" fill="#0AD2FF"/>
<path d="M159.773 27.0894L157.926 26.9482L157.785 28.7957L159.631 28.9369L159.773 27.0894Z" fill="#FFAF00"/>
<path d="M53.3538 151.525L49.2572 153.926L51.6568 158.025L55.7535 155.624L53.3538 151.525Z" fill="#FFEC00"/>
<path d="M101.126 44.0288L99.6875 44.6004L100.259 46.0591L101.717 45.4677L101.126 44.0288Z" fill="white"/>
<path d="M80.1846 44.5413L78.5889 46.8672L80.8938 48.4638L82.4895 46.1576L80.1846 44.5413ZM78.7859 46.8081L80.1452 44.8369L82.1152 46.197L80.7559 48.1682L78.7859 46.8081Z" fill="white"/>
<path d="M47.2674 76.7347L46.1942 78.9304L48.3887 80.0042L49.4618 77.8085L47.2674 76.7347Z" fill="#FFEC00"/>
<path d="M47.3559 138.118L47.3003 139.97L49.1513 140.026L49.2068 138.174L47.3559 138.118Z" fill="#FFAF00"/>
<path d="M44.5078 124.984L43.7789 126.383L45.1776 127.132L45.9065 125.733L44.5078 124.984Z" fill="white"/>
<path d="M39.8605 83.876L41.5289 83.1677L40.8211 81.4983L39.1526 82.2066L39.8605 83.876Z" fill="#FFAF00"/>
<path d="M164.593 72.7168L159.373 74.6189L161.274 79.842L166.494 77.9399L164.593 72.7168Z" fill="#FF1DCF"/>
<path d="M160.853 62.3392L154.906 58.7698L151.339 64.7197L157.285 68.2891L160.853 62.3392Z" fill="#FFEC00"/>
<path d="M74.8458 49.1341L77.919 50.0999L78.7858 47.0249L75.7323 46.0591L74.8458 49.1341Z" fill="white"/>
<path d="M44.6658 79.3864L43.153 79.4978L43.2643 81.0115L44.7771 80.9001L44.6658 79.3864Z" fill="#FF1DCF"/>
<path d="M97.519 168.961L96.5691 170.094L97.7008 171.044L98.6507 169.912L97.519 168.961Z" fill="#E80000"/>
<path d="M137.451 50.0797L135.656 51.8228L137.398 53.6196L139.193 51.8765L137.451 50.0797Z" fill="#0AD2FF"/>
<path d="M31.5059 62.7546V63.8979H32.6485V62.7546H31.5059ZM31.5059 63.7993V62.8532H32.4318V63.7993H31.5059Z" fill="white"/>
<path d="M51.4619 135.943L51.2058 134.504L49.7677 134.839L50.1026 136.278L51.4619 135.943Z" fill="white"/>
<path d="M113.694 20.3158L112.453 19.8428L111.961 21.0846L113.202 21.5577L113.694 20.3158Z" fill="white"/>
<path d="M144.722 37.9576L143.303 37.0903L142.437 38.5096L143.855 39.3769L144.722 37.9576ZM143.343 37.248L144.544 37.9971L143.816 39.2192L142.594 38.4701L143.343 37.248Z" fill="white"/>
<path d="M22.3651 115.01L25.5959 110.929L21.6559 107.657L18.3069 111.718L22.3651 115.01ZM25.1231 111.067L22.306 114.477L18.8388 111.659L21.6559 108.17L25.1231 111.067Z" fill="white"/>
<path d="M86.6344 40.4797L89.1357 37.5107L86.1685 35.008L83.6671 37.977L86.6344 40.4797Z" fill="#FF1DCF"/>
<path d="M77.6826 38.7856L74.8458 41.0327L77.0719 43.9698L79.9087 41.7424L77.6826 38.7856Z" fill="white"/>
<path d="M147.647 139.63L144.141 140.276L144.786 143.785L148.293 143.139L147.647 139.63Z" fill="#FFEC00"/>
<path d="M113.584 193.172L112.739 198.146L117.711 198.991L118.556 194.017L113.584 193.172Z" fill="#FF1DCF"/>
<path d="M103.64 160.76L99.8323 165.205L104.275 169.015L108.082 164.57L103.64 160.76Z" fill="#FF1DCF"/>
<path d="M45.6504 58.635L42.5575 60.8033L44.7245 63.8783L47.7977 61.7297L45.6504 58.635Z" fill="white"/>
<path d="M149.368 59.0461L148.126 52.7415L141.825 53.9841L143.067 60.2887L149.368 59.0461Z" fill="#FF1DCF"/>
<path d="M71.3244 183.382L69.887 184.386L70.8909 185.825L72.3283 184.82L71.3244 183.382Z" fill="#FFAF00"/>
<path d="M138.436 60.3307L137.905 64.0977L141.669 64.6297L142.201 60.8628L138.436 60.3307Z" fill="#FFEC00"/>
<path d="M93.0289 168.783L91.5908 165.116L87.9266 166.555L89.3647 170.221L93.0289 168.783Z" fill="white"/>
<path d="M16.8249 99.1161L11.3295 97.9653L10.1794 103.464L15.6749 104.615L16.8249 99.1161Z" fill="#0AD2FF"/>
<path d="M68.9877 157.306L67.6978 161.405L71.794 162.696L73.084 158.597L68.9877 157.306Z" fill="#FF1DCF"/>
<path d="M151.302 53.5691L149.332 55.5402L151.302 57.5114L153.272 55.5402L151.302 53.5691ZM149.548 55.5402L151.302 53.9239L152.917 55.6782L151.164 57.2946L149.548 55.5402Z" fill="white"/>
<path d="M119.292 163.013L112.132 160.28L109.4 167.444L116.56 170.177L119.292 163.013Z" fill="#0AD2FF"/>
<path d="M154.065 167.481L155.679 165.492L153.691 163.877L152.077 165.866L154.065 167.481Z" fill="#FFEC00"/>
<path d="M58.0614 138.328L52.8802 141.462L56.0125 146.647L61.1937 143.493L58.0614 138.328ZM53.4713 141.6L57.9038 138.92L60.6027 143.355L56.1702 146.055L53.4713 141.6Z" fill="white"/>
<path d="M80.3427 26.7113L77.7085 32.4419L83.4357 35.0777L86.07 29.3471L80.3427 26.7113Z" fill="#FFAF00"/>
<path d="M64.129 150.155L63.5577 153.408L66.8082 153.979L67.3992 150.727L64.129 150.155Z" fill="white"/>
<path d="M34.7058 142.3L27.7863 142.992L28.4781 149.916L35.3977 149.223L34.7058 142.3Z" fill="#0AD2FF"/>
<path d="M43.0303 117.671L42.1438 117.414L41.868 118.301L42.7545 118.577L43.0303 117.671ZM42.1832 117.513L42.9318 117.73L42.7151 118.459L41.9665 118.242L42.1832 117.513Z" fill="white"/>
<path d="M15.5291 78.5237L13.9728 77.6367L13.0863 79.1939L14.6426 80.0809L15.5291 78.5237ZM14.0319 77.8535L15.3124 78.5829L14.5835 79.8444L13.303 79.1939L14.0319 77.8535Z" fill="white"/>
<path d="M7.17998 91.9418L6.30505 93.3704L7.7328 94.2458L8.60772 92.8172L7.17998 91.9418Z" fill="#FF1DCF"/>
<path d="M45.8775 131.729L43.9335 132.544L44.7483 134.489L46.6923 133.674L45.8775 131.729Z" fill="#E80000"/>
<path d="M127.903 153.301L133.649 159.203L139.548 153.453L133.802 147.551L127.903 153.301Z" fill="#0AD2FF"/>
<path d="M47.3331 155.501L42.2695 157.788L44.5548 162.854L49.6184 160.568L47.3331 155.501Z" fill="#E80000"/>
<path d="M175.921 111.258L173.283 111.727L173.752 114.367L176.389 113.898L175.921 111.258Z" fill="#FF1DCF"/>
<path d="M43.1163 119.653L43.1094 121.072L44.5278 121.079L44.5347 119.66L43.1163 119.653Z" fill="#0AD2FF"/>
<path d="M150.651 133.282L148.228 134.603L149.568 137.008L151.971 135.687L150.651 133.282ZM148.504 134.682L150.474 133.538L151.676 135.608L149.706 136.751L148.504 134.682Z" fill="white"/>
<path d="M39.3831 121.845L36.938 122.787L37.8795 125.233L40.3246 124.291L39.3831 121.845Z" fill="#FF1DCF"/>
<path d="M67.9577 155.158L66.5796 155.493L66.9153 156.872L68.2934 156.536L67.9577 155.158Z" fill="#0AD2FF"/>
<path d="M117.947 158.271L117.032 159.814L118.574 160.729L119.489 159.186L117.947 158.271Z" fill="#0AD2FF"/>
<path d="M169.239 101.543L171.412 94.2307L164.104 92.0565L161.931 99.3684L169.239 101.543Z" fill="#FFAF00"/>
<path d="M153.521 72.7944L151.703 77.6067L156.512 79.426L158.331 74.6138L153.521 72.7944Z" fill="#E80000"/>
<path d="M117.299 156.857L117.733 155.773L116.63 155.359L116.216 156.443L117.299 156.857Z" fill="white"/>
<path d="M139.107 150.845V149.84H138.083V150.845H139.107ZM138.969 149.938V150.766H138.142V149.938H138.969Z" fill="white"/>
<path d="M80.1706 41.2816L79.824 45.5647L84.1046 45.9116L84.4512 41.6285L80.1706 41.2816Z" fill="#0AD2FF"/>
<path d="M60.2087 52.8003L59.7162 53.7859L60.6815 54.2589L61.174 53.2931L60.2087 52.8003Z" fill="white"/>
<path d="M150.888 137.264L147.44 136.357L146.455 139.826L149.903 140.812L150.888 137.264ZM147.736 136.692L150.573 137.481L149.706 140.299L146.869 139.491L147.736 136.692Z" fill="white"/>
<path d="M94.5457 33.8577L91.7286 35.8288L93.541 38.687L96.3778 36.8538L94.5457 33.8577Z" fill="white"/>
<path d="M39.5227 72.0812L43.4885 70.1902L41.5986 66.2221L37.6328 68.1131L39.5227 72.0812Z" fill="#FFAF00"/>
<path d="M175.426 94.4513L172.2 97.1672L174.915 100.395L178.141 97.6789L175.426 94.4513Z" fill="#FF1DCF"/>
<path d="M57.7659 168.94L56.6233 170.911L58.5933 172.055L59.7359 170.083L57.7659 168.94Z" fill="white"/>
<path d="M152.956 102.592L153.291 106.79L157.389 106.455L157.054 102.355L152.956 102.592ZM153.646 106.376L153.271 102.848L156.798 102.572L157.074 106.08L153.646 106.376Z" fill="white"/>
<path d="M154.048 126.148L152.599 128.043L154.493 129.492L155.941 127.597L154.048 126.148Z" fill="#0AD2FF"/>
<path d="M43.1879 84.8708L41.8877 87.2954L44.3108 88.5963L45.611 86.1718L43.1879 84.8708Z" fill="white"/>
<path d="M143.796 158.237L142.89 156.759L141.392 157.665L142.318 159.144L143.796 158.237ZM142.831 156.936L143.619 158.197L142.358 158.986L141.57 157.705L142.831 156.936Z" fill="white"/>
<path d="M151.809 146.295L153.108 145.002L151.816 143.702L150.517 144.995L151.809 146.295Z" fill="#0AD2FF"/>
<path d="M27.7036 100.699L29.8115 105.942L35.0517 103.833L32.9438 98.5901L27.7036 100.699Z" fill="white"/>
<path d="M35.9327 119.132L33.6564 117.915L32.4404 120.193L34.7167 121.409L35.9327 119.132Z" fill="#FFAF00"/>
<path d="M31.6542 78.9054L32.9354 70.946L24.9807 69.664L23.6994 77.6234L31.6542 78.9054Z" fill="#FFAF00"/>
<path d="M169.608 85.1381L174.311 85.7861L174.959 81.0801L170.256 80.4321L169.608 85.1381Z" fill="#FFAF00"/>
<path d="M37.0396 66.1409L36.5233 68.6709L39.0518 69.1875L39.5681 66.6575L37.0396 66.1409Z" fill="#FFAF00"/>
<path d="M30.638 58.8499L29.2792 58.8853L29.3145 60.2449L30.6734 60.2095L30.638 58.8499Z" fill="#FFAF00"/>
<path d="M115.726 171.722L116.115 169.649L114.044 169.259L113.654 171.332L115.726 171.722Z" fill="#FFAF00"/>
<path d="M154.27 120.507L153.709 122.906L156.107 123.467L156.668 121.068L154.27 120.507Z" fill="#FFEC00"/>
<path d="M40.381 106.607L38.6233 106.254L38.2708 108.013L40.0285 108.366L40.381 106.607Z" fill="#FF1DCF"/>
<path d="M48.3887 58.635L45.4928 61.4537L48.3493 64.3513L51.2058 61.4537L48.3887 58.635ZM45.9065 61.4537L48.3887 59.0095L50.8315 61.4537L48.3493 63.8782L45.9065 61.4537Z" fill="white"/>
<path d="M106.752 45.4506L108.277 43.8005L106.627 42.2752L105.103 43.9253L106.752 45.4506Z" fill="#FF1DCF"/>
<path d="M135.372 54.5637L131.176 58.9485L135.558 63.1475L139.754 58.7627L135.372 54.5637Z" fill="#0AD2FF"/>
<path d="M130.792 162.552L126.882 165.74L130.068 169.652L133.978 166.464L130.792 162.552Z" fill="#FF1DCF"/>
<path d="M50.3586 43.3783L51.6588 46.8278L55.1457 45.5269L53.8455 42.0774L50.3586 43.3783ZM51.8558 46.3942L50.792 43.5755L53.6091 42.511L54.6729 45.3298L51.8558 46.3942Z" fill="white"/>
<path d="M151.168 139.956L149.247 141.497L150.787 143.419L152.708 141.879L151.168 139.956Z" fill="#FFEC00"/>
<path d="M127.219 154.968L123.473 158.884L127.387 162.632L131.133 158.716L127.219 154.968Z" fill="#FFAF00"/>
<path d="M36.5096 70.9546L33.8107 70.4224L33.2788 73.1228L35.9777 73.655L36.5096 70.9546Z" fill="white"/>
<path d="M122.536 41.0793L120.716 45.0146L124.649 46.8364L126.469 42.901L122.536 41.0793Z" fill="#FFAF00"/>
<path d="M53.5501 73.2806L51.5801 68.6287L46.9309 70.5998L48.9009 75.2517L53.5501 73.2806Z" fill="white"/>
<path d="M32.5893 116.468L31.2891 110.417L25.2412 111.718L26.5414 117.769L32.5893 116.468ZM30.9542 110.949L32.0574 116.133L26.8763 117.237L25.7534 112.053L30.9542 110.949Z" fill="white"/>
<path d="M41.6761 95.0664L40.6367 97.6226L43.1914 98.6626L44.2308 96.1065L41.6761 95.0664Z" fill="#FFEC00"/>
<path d="M47.4881 147.315L53.3485 145.901L51.9361 140.038L46.0757 141.451L47.4881 147.315Z" fill="#FFEC00"/>
<path d="M165.682 120.903L162.026 121.793L162.916 125.452L166.572 124.561L165.682 120.903Z" fill="#0AD2FF"/>
<path d="M103.805 161.134L103.391 160.366L102.623 160.76L103.017 161.548L103.805 161.134ZM103.352 160.464L103.687 161.095L103.056 161.43L102.721 160.799L103.352 160.464Z" fill="white"/>
<path d="M50.3771 52.771L50.2886 54.1875L51.7042 54.2761L51.7928 52.8597L50.3771 52.771Z" fill="#FF1DCF"/>
<path d="M71.3697 30.8002L67.2399 32.6167L69.0553 36.749L73.1852 34.9325L71.3697 30.8002Z" fill="#E80000"/>
<path d="M82.2463 159.123L80.6887 159.621L81.1861 161.18L82.7437 160.682L82.2463 159.123Z" fill="#FF1DCF"/>
<path d="M129.237 45.8431L127.352 46.8733L128.382 48.7588L130.266 47.7286L129.237 45.8431Z" fill="#0AD2FF"/>
<path d="M154.591 22.0308L153.449 20.927L152.346 22.0703L153.468 23.1741L154.591 22.0308Z" fill="white"/>
<path d="M26.2407 69.1216L24.7511 69.2725L24.9019 70.7629L26.3915 70.612L26.2407 69.1216Z" fill="#FFEC00"/>
<path d="M43.3259 149.189V147.041H41.1786V149.189H43.3259ZM43.3259 147.218V149.051H41.4938V147.218H43.3259Z" fill="white"/>
<path d="M74.9128 41.4413L69.5419 44.4719L72.5707 49.846L77.9417 46.8154L74.9128 41.4413Z" fill="#FF1DCF"/>
<path d="M164.422 151.22L163.496 154.098L166.313 155.063L167.239 152.126L164.422 151.22ZM163.791 153.861L164.599 151.555L166.904 152.343L166.116 154.65L163.791 153.861Z" fill="white"/>
<path d="M138.414 141.131L135.546 143.599L138.013 146.468L140.88 144L138.414 141.131Z" fill="#FF1DCF"/>
<path d="M113.832 25.7366V28.2596H116.354V25.7366H113.832ZM114.088 28.0822V25.914H116.236L116.216 27.9443L114.088 28.0822Z" fill="white"/>
<path d="M66.8881 40.1172L68.1624 41.4343L69.4787 40.1593L68.2044 38.8422L66.8881 40.1172Z" fill="#FF1DCF"/>
<path d="M117.066 35.9628L114.872 41.813L120.719 44.0084L122.913 38.1583L117.066 35.9628Z" fill="#0AD2FF"/>
<path d="M53.1758 55.3827L55.9338 57.2159L57.7659 54.476L55.0079 52.6428L53.1758 55.3827ZM55.855 56.9005L53.5107 55.3236L55.1458 52.9779L57.4901 54.5351L55.855 56.9005Z" fill="white"/>
<path d="M142.965 48.7207L145.579 47.5691L144.429 44.9532L141.814 46.1048L142.965 48.7207Z" fill="#FFAF00"/>
<path d="M148.744 176.516L150.982 178.292L152.757 176.052L150.519 174.277L148.744 176.516Z" fill="#FFAF00"/>
<path d="M29.9299 130.858L29.1222 132.139L30.4027 132.947L31.2104 131.686L29.9299 130.858Z" fill="white"/>
<path d="M34.0668 97.6242L33.1212 97.3679L32.8651 98.3141L33.791 98.5703L34.0668 97.6242ZM33.1803 97.4665L33.9486 97.6833L33.7319 98.452L32.9636 98.2352L33.1803 97.4665Z" fill="white"/>
<path d="M83.2267 156.187L78.3883 154.566L76.7685 159.408L81.6068 161.028L83.2267 156.187Z" fill="#FF1DCF"/>
<path d="M33.338 155.28L34.4609 155.497L34.6579 154.373L33.4759 154.097L33.338 155.28Z" fill="white"/>
<path d="M161.526 62.7151L158.216 65.7901L161.289 69.003L164.5 65.9281L161.526 62.7151ZM158.768 65.8098L161.506 63.1684L164.146 65.9083L161.309 68.5497L158.768 65.8098Z" fill="white"/>
<path d="M49.299 66.4903L46.8982 65.8596L46.2679 68.2619L48.6687 68.8925L49.299 66.4903Z" fill="#FF1DCF"/>
<path d="M84.1442 38.1548L82.45 39.5543L83.8684 41.2298L85.5429 39.8303L84.1442 38.1548ZM82.7258 39.5937L84.1048 38.4307L85.2671 39.8105L83.8881 40.9538L82.7258 39.5937Z" fill="white"/>
<path d="M153.151 78.7232L156.042 82.4668L159.784 79.5745L156.893 75.8309L153.151 78.7232Z" fill="#FF1DCF"/>
<path d="M55.855 60.3695L57.4704 60.8426L57.9235 59.2262L56.3278 58.7532L55.855 60.3695ZM57.3522 60.6455L56.052 60.271L56.4263 58.9503L57.7462 59.3248L57.3522 60.6455Z" fill="white"/>
<path d="M34.1011 52.6781L29.2583 52.2039L28.7843 57.0494L33.6271 57.5237L34.1011 52.6781Z" fill="#FFAF00"/>
<path d="M87.0672 166.623L86.712 167.895L87.9833 168.25L88.3384 166.978L87.0672 166.623Z" fill="#FF1DCF"/>
<path d="M163.875 76.1093L162.294 77.3499L163.534 78.932L165.115 77.6914L163.875 76.1093Z" fill="#FFAF00"/>
<path d="M52.4272 139.886L50.4572 139.215L49.7677 141.186L51.7377 141.857L52.4272 139.886ZM50.5754 139.452L52.1908 140.004L51.6195 141.62L50.0238 141.068L50.5754 139.452Z" fill="white"/>
<path d="M126.465 148.956L128.623 155.736L135.399 153.577L133.242 146.797L126.465 148.956Z" fill="#FF1DCF"/>
<path d="M131.661 42.0576L127.248 42.2942L127.484 46.7095L131.976 46.473L131.661 42.0576Z" fill="white"/>
<path d="M38.4047 59.831L36.6545 60.5481L37.3713 62.2992L39.1214 61.5821L38.4047 59.831Z" fill="#FFEC00"/>
<path d="M160.217 113.193L157.256 114.921L158.983 117.883L161.944 116.155L160.217 113.193Z" fill="#FF1DCF"/>
<path d="M94.3684 183.172L93.7183 182.167L92.7136 182.797L93.344 183.822L94.3684 183.172Z" fill="white"/>
<path d="M32.2816 105.337L28.8862 106.55L30.0979 109.947L33.4933 108.735L32.2816 105.337Z" fill="#0AD2FF"/>
<path d="M42.1152 106.036L40.9031 106.559L41.4256 107.772L42.6377 107.249L42.1152 106.036Z" fill="#FF1DCF"/>
<path d="M166.81 80.8671L162.14 82.0852L163.357 86.7584L168.028 85.5402L166.81 80.8671Z" fill="#FF1DCF"/>
<path d="M58.6327 26.9783L59.8935 27.274L60.2087 26.0125L58.9479 25.7168L58.6327 26.9783ZM59.8147 27.136L58.7706 26.8798L59.0267 25.8548L60.0708 26.111L59.8147 27.136Z" fill="white"/>
<path d="M32.4514 36.8142L33.0227 39.2387L35.4458 38.6474L34.8745 36.2229L32.4514 36.8142Z" fill="white"/>
<path d="M102.229 17.2014L99.5102 16.4524L98.7616 19.1923L101.48 19.9413L102.229 17.2014ZM99.6875 16.7678L101.914 17.3788L101.303 19.6259L99.0768 19.0149L99.6875 16.7678Z" fill="white"/>
<path d="M169.414 111.697L170.128 109.797L168.229 109.083L167.515 110.983L169.414 111.697Z" fill="#FFEC00"/>
<path d="M49.6778 146.662L49.1084 149.12L51.5649 149.69L52.1343 147.232L49.6778 146.662Z" fill="#FF1DCF"/>
<path d="M84.5586 40.4503L85.7245 45.2178L90.4892 44.0512L89.3233 39.2837L84.5586 40.4503Z" fill="#FF1DCF"/>
<path d="M59.465 55.8906L56.8633 56.6086L57.5809 59.2119L60.1826 58.4939L59.465 55.8906Z" fill="#FFAF00"/>
<path d="M50.4123 75.6715L51.3722 67.7463L43.4516 66.7859L42.4918 74.711L50.4123 75.6715Z" fill="#0AD2FF"/>
<path d="M82.3676 45.6783L80.3335 47.7129L82.3669 49.7482L84.4011 47.7136L82.3676 45.6783Z" fill="#E80000"/>
<path d="M161.677 72.5053L158.647 73.8369L159.978 76.8689L163.008 75.5373L161.677 72.5053Z" fill="#0AD2FF"/>
<path d="M94.861 22.0308L93.1865 25.1255L96.2794 26.7812L97.9539 23.6865L94.861 22.0308ZM93.5411 25.0072L94.9595 22.3659L97.5993 23.7851L96.1809 26.4461L93.5411 25.0072Z" fill="white"/>
<path d="M118.593 164.144L112.496 165.584L113.935 171.684L120.032 170.244L118.593 164.144Z" fill="#FFEC00"/>
<path d="M65.173 49.2524L63.5773 47.1235L61.4497 48.7202L63.0257 50.849L65.173 49.2524ZM63.5379 47.4586L64.8381 49.213L63.0848 50.5139L61.7846 48.7596L63.5379 47.4586Z" fill="white"/>
<path d="M166.698 70.1276L163.157 70.5525L163.582 74.0949L167.122 73.67L166.698 70.1276Z" fill="#FFAF00"/>
<path d="M131.786 174.751L137.794 170.943L133.988 164.932L127.98 168.739L131.786 174.751Z" fill="#FFEC00"/>
<path d="M103.411 34.2913L99.6087 33.1086L98.4858 36.9327L102.288 38.0956L103.411 34.2913Z" fill="white"/>
<path d="M156.837 110.102L154.69 112.211L156.798 114.359L158.945 112.23L156.837 110.102ZM155.084 112.211L156.837 110.476L158.571 112.23L156.818 113.965L155.084 112.211Z" fill="white"/>
<path d="M39.8192 111.422L38.9524 112.92L40.4299 113.788L41.2967 112.29L39.8192 111.422ZM39.11 112.881L39.8586 111.6L41.1391 112.329L40.3905 113.61L39.11 112.881Z" fill="white"/>
<path d="M159.19 125.513L160.312 126.864L161.663 125.741L160.54 124.39L159.19 125.513Z" fill="#0AD2FF"/>
<path d="M163.491 31.7248L160.716 35.8674L164.856 38.6438L167.631 34.5012L163.491 31.7248Z" fill="#FF1DCF"/>
<path d="M141.74 7.66859L139.207 4.99219L136.532 7.52669L139.065 10.2031L141.74 7.66859Z" fill="#FFAF00"/>
<path d="M122.554 159.764L124.778 159.676L124.689 157.45L122.465 157.539L122.554 159.764Z" fill="#FFEC00"/>
<path d="M97.8003 166.688L97.0978 168.823L99.2309 169.525L99.9334 167.391L97.8003 166.688Z" fill="#FFEC00"/>
<path d="M105.57 34.488L101.407 35.9517L102.87 40.1174L107.033 38.6536L105.57 34.488Z" fill="#0AD2FF"/>
<path d="M20.9206 106.357L20.9105 108.762L23.3139 108.772L23.324 106.368L20.9206 106.357Z" fill="#0AD2FF"/>
<path d="M44.8624 59.1279L46.4384 58.6548L45.9656 57.0779L44.3896 57.551L44.8624 59.1279Z" fill="white"/>
<path d="M132.063 147.651L130.868 149.092L132.308 150.288L133.503 148.847L132.063 147.651Z" fill="#0AD2FF"/>
<path d="M159.733 104.024L162.868 102.792L161.638 99.6549L158.502 100.886L159.733 104.024Z" fill="#0AD2FF"/>
<path d="M41.0454 77.3066L39.425 78.3201L40.438 79.9414L42.0583 78.9279L41.0454 77.3066Z" fill="#FFEC00"/>
<path d="M46.7143 73.6748L45.8672 74.9955L47.2068 75.8431L48.0539 74.5027L46.7143 73.6748ZM46.0642 74.956L46.7537 73.8719L47.8569 74.5618L47.2659 75.646L46.0642 74.956Z" fill="white"/>
<path d="M149.585 128.582L152.236 127.146L150.801 124.494L148.15 125.929L149.585 128.582Z" fill="#0AD2FF"/>
<path d="M107.16 176.5L101.391 178.892L103.78 184.664L109.55 182.273L107.16 176.5Z" fill="#FF1DCF"/>
<path d="M102.386 29.137L103.523 31.7161L106.1 30.5786L104.964 27.9995L102.386 29.137Z" fill="#0AD2FF"/>
<path d="M126.546 49.4725L124.714 53.855L129.094 55.6882L130.926 51.3057L126.546 49.4725Z" fill="#FFAF00"/>
<path d="M172.194 160.566L166.672 161.333L167.439 166.859L172.961 166.091L172.194 160.566Z" fill="#FF1DCF"/>
<path d="M109.934 38.6757L106.535 41.1528L109.01 44.5536L112.409 42.0765L109.934 38.6757Z" fill="#FFEC00"/>
<path d="M36.9002 142.087L33.6875 142.882L34.4826 146.097L37.6952 145.301L36.9002 142.087Z" fill="#E80000"/>
<path d="M128.424 38.1048L121.243 41.8052L124.942 48.9899L132.122 45.2895L128.424 38.1048Z" fill="#FFEC00"/>
<path d="M35.6231 71.3093L32.1953 75.8035L36.6672 79.1939L40.095 74.6997L35.6231 71.3093ZM32.7666 75.7247L35.7019 71.881L39.5434 74.818L36.5884 78.7602L32.7666 75.7247Z" fill="white"/>
<path d="M153.493 98.6838L153.39 100.633L155.337 100.735L155.44 98.7867L153.493 98.6838Z" fill="#FFEC00"/>
<path d="M66.9659 160.76L69.4087 158.493L67.0644 156.069L64.6216 158.335L66.9659 160.76Z" fill="white"/>
<path d="M165.249 103.065L167.771 101.547L166.254 99.0042L163.713 100.542L165.249 103.065Z" fill="white"/>
<path d="M118.56 157.133L120.038 156.581L119.506 155.103L118.009 155.655L118.56 157.133ZM119.86 156.502L118.639 156.936L118.186 155.734L119.388 155.28L119.86 156.502Z" fill="white"/>
<path style="mix-blend-mode:multiply" d="M127.496 173.613C163.386 159.286 180.873 118.56 166.554 82.6497C152.236 46.7391 111.534 29.2421 75.6441 43.5689C39.7544 57.8958 22.2675 98.6213 36.5861 134.532C50.9046 170.442 91.6065 187.939 127.496 173.613Z" fill="url(#paint0_radial)"/>
<path fill-rule="evenodd" clip-rule="evenodd" d="M97 48C68.2812 48 45 71.2812 45 100C45 128.719 68.2812 152 97 152H98.9465C127.665 152 150.947 128.719 150.947 100C150.947 71.2812 127.665 48 98.9465 48H97Z" fill="url(#paint1_linear)"/>
<path d="M122.143 80.6512C122.312 79.5647 120.933 78.7087 119.542 78.7951C118.972 78.8714 118.417 79.0338 117.896 79.2766L80.2512 93.681C76.4512 95.1379 72.6525 96.5975 68.8553 98.0599C68.1124 98.3085 67.4491 98.7503 66.9333 99.3399C66.807 99.4662 66.7101 99.619 66.6498 99.7872C66.5895 99.9554 66.5672 100.135 66.5846 100.313C66.6019 100.491 66.6584 100.662 66.75 100.816C66.8416 100.969 66.966 101.1 67.1144 101.2C67.6478 101.608 68.2603 101.901 68.9129 102.06C72.835 103.295 76.7571 104.488 80.6751 105.719C80.8468 105.784 81.0319 105.807 81.2142 105.784C81.3966 105.761 81.5704 105.693 81.7205 105.587C91.2685 99.6033 100.825 93.622 110.389 87.6435C110.713 87.4103 111.075 87.2361 111.459 87.129C111.813 87.055 112.237 86.9233 112.451 87.2937C112.665 87.6641 112.291 87.9192 112.04 88.1415C104.8 94.6481 96.1783 102.472 88.8445 108.995C88.7826 109.046 88.7335 109.11 88.7009 109.183C88.6683 109.256 88.6533 109.336 88.6568 109.416C88.6604 109.496 88.6826 109.574 88.7216 109.643C88.7606 109.713 88.8154 109.773 88.8815 109.818L108.71 124.305C109.203 124.67 109.762 124.937 110.356 125.091C110.871 125.258 111.429 125.237 111.929 125.032C112.43 124.826 112.841 124.448 113.089 123.967C113.361 123.495 113.554 122.982 113.661 122.449C114.274 119.638 122.045 81.3014 122.143 80.6512Z" fill="white"/>
</g>
<defs>
<radialGradient id="paint0_radial" cx="0" cy="0" r="1" gradientUnits="userSpaceOnUse" gradientTransform="translate(101.561 108.597) scale(69.9649 70.0056)">
<stop offset="0.67"/>
<stop offset="0.7" stop-color="#2D2D2D"/>
<stop offset="0.73" stop-color="#5E5E5E"/>
<stop offset="0.76" stop-color="#898989"/>
<stop offset="0.79" stop-color="#AEAEAE"/>
<stop offset="0.83" stop-color="#CBCBCB"/>
<stop offset="0.86" stop-color="#E2E2E2"/>
<stop offset="0.9" stop-color="#F2F2F2"/>
<stop offset="0.94" stop-color="#FCFCFC"/>
<stop offset="1" stop-color="white"/>
</radialGradient>
<linearGradient id="paint1_linear" x1="187.366" y1="100" x2="-13.2131" y2="99.2255" gradientUnits="userSpaceOnUse">
<stop stop-color="#0076B8"/>
<stop offset="1" stop-color="#00B19C"/>
</linearGradient>
<clipPath id="clip0">
<rect width="197" height="194" fill="white"/>
</clipPath>
</defs>
</svg>
