<svg width="198" height="196" viewBox="0 0 198 196" fill="none" xmlns="http://www.w3.org/2000/svg">
<path d="M38.3793 40.4892L35.6868 40.6743L35.8717 43.3684L38.5643 43.1833L38.3793 40.4892Z" fill="#FFAF00"/>
<path d="M89.9186 157.982L93.2085 157.095L92.322 153.803L89.0321 154.69L89.9186 157.982ZM92.8342 156.878L90.1353 157.608L89.4064 154.907L92.1053 154.178L92.8342 156.878Z" fill="white"/>
<path d="M76.4045 12.1174L76.9758 8.17515L73.1934 7.60352L72.6221 11.4078L76.4045 12.1174ZM76.5818 8.6088L76.1287 11.7232L73.0161 11.2501L73.4692 8.17515L76.5818 8.6088Z" fill="white"/>
<path d="M63.8785 13.6156L61.3497 15.9019L63.6346 18.4321L66.1633 16.1458L63.8785 13.6156Z" fill="#FFAF00"/>
<path d="M171.011 103.136L173.451 102.357L172.672 99.9156L170.232 100.695L171.011 103.136Z" fill="#FF1DCF"/>
<path d="M32.0991 80.0234L31.6066 81.0681L32.6507 81.5806L33.1432 80.5359L32.0991 80.0234ZM31.7445 81.0287L32.1582 80.1811L33.0053 80.5754L32.5916 81.4427L31.7445 81.0287Z" fill="white"/>
<path d="M31.0759 63.2978L29.6401 65L31.3415 66.4365L32.7772 64.7342L31.0759 63.2978Z" fill="#FFAF00"/>
<path d="M164.231 114.59L163.668 116.314L165.391 116.877L165.954 115.153L164.231 114.59Z" fill="#FF1DCF"/>
<path d="M36.4544 98.8428L34.7249 100.307L36.188 102.038L37.9175 100.573L36.4544 98.8428Z" fill="#0AD2FF"/>
<path d="M81.1381 152.007L77.3994 155.062L80.4519 158.802L84.1906 155.748L81.1381 152.007Z" fill="#0AD2FF"/>
<path d="M123.941 19.4699L125.911 17.0454L123.487 15.0742L121.517 17.4987L123.941 19.4699ZM125.556 17.0848L123.901 19.1545L121.931 17.5184L123.566 15.429L125.556 17.0848Z" fill="white"/>
<path d="M152.052 127.075L152.151 126.128H151.186V127.094L152.052 127.075Z" fill="white"/>
<path d="M117.29 8.96626L116.576 12.4619L120.07 13.1757L120.783 9.68004L117.29 8.96626Z" fill="#FFAF00"/>
<path d="M90.9481 163.778L88.4661 163.809L88.4968 166.292L90.9788 166.261L90.9481 163.778Z" fill="#E80000"/>
<path d="M70.7437 41.0043L68.7399 44.7156L72.449 46.7206L74.4528 43.0093L70.7437 41.0043Z" fill="#FFAF00"/>
<path d="M30.0504 72.0206L31.0748 71.4293L30.4838 70.4043L29.4791 70.9956L30.0504 72.0206Z" fill="white"/>
<path d="M159.847 143.623L162.659 136.426L155.466 133.613L152.655 140.81L159.847 143.623Z" fill="#FF1DCF"/>
<path d="M124.039 35.515L124.985 34.214L123.684 33.2876L122.759 34.5886L124.039 35.515Z" fill="white"/>
<path d="M138.844 143.517L137.554 144.057L138.093 145.348L139.384 144.808L138.844 143.517Z" fill="#E80000"/>
<path d="M163.144 87.522L161.031 88.6672L162.175 90.7818L164.288 89.6366L163.144 87.522Z" fill="#FFEC00"/>
<path d="M68.2487 151.241L70.9082 153.587L73.2525 150.926L70.593 148.6L68.2487 151.241ZM70.8885 153.212L68.7018 151.241L70.6718 149.053L72.8585 151.024L70.8885 153.212Z" fill="white"/>
<path d="M170.852 117.775L169.148 118.392L169.764 120.098L171.469 119.481L170.852 117.775Z" fill="#0AD2FF"/>
<path d="M33.2532 109.796L31.189 108.347L29.7409 110.413L31.8052 111.862L33.2532 109.796Z" fill="#FFAF00"/>
<path d="M124.735 33.0439L123.904 38.8987L129.756 39.7299L130.586 33.8752L124.735 33.0439Z" fill="#E80000"/>
<path d="M68.359 146.36L65.2391 148.046L66.9246 151.168L70.0444 149.482L68.359 146.36Z" fill="#FFAF00"/>
<path d="M117.518 37.7422L116.77 40.3047L119.331 41.0537L120.079 38.4912L117.518 37.7422ZM117.164 40.147L117.774 38.0576L119.882 38.6686L119.134 40.7778L117.164 40.147Z" fill="white"/>
<path d="M110.514 31.6684L104.842 36.7949L109.965 42.4706L115.637 37.344L110.514 31.6684Z" fill="#FFEC00"/>
<path d="M149.178 132.235L147.497 133.442L148.703 135.124L150.384 133.917L149.178 132.235Z" fill="#0AD2FF"/>
<path d="M127.014 28.4777L127.881 30.4488L129.851 29.5815L128.984 27.6104L127.014 28.4777ZM127.959 30.1728L127.211 28.5565L128.826 27.8075L129.575 29.4238L127.959 30.1728Z" fill="white"/>
<path d="M9.64116 129.144L8.49856 127.173L6.52856 128.336L7.69086 130.307L9.64116 129.144ZM8.43947 127.449L9.42447 129.105L7.78936 130.09L6.84376 128.415L8.43947 127.449Z" fill="white"/>
<path d="M157.783 106.008L154.979 107.266L156.235 110.072L159.04 108.814L157.783 106.008Z" fill="#FFEC00"/>
<path d="M80.0161 13.1271L78.8058 13.7017L79.3799 14.9127L80.5902 14.3381L80.0161 13.1271Z" fill="#0AD2FF"/>
<path d="M56.0938 141.897L59.4428 144.184L61.787 140.833L58.4578 138.546L56.0938 141.897ZM59.3443 143.73L56.6059 141.759L58.5759 139.019L61.3143 140.991L59.3443 143.73Z" fill="white"/>
<path d="M110.397 25.2874L109.26 33.0496L117.017 34.1874L118.155 26.4252L110.397 25.2874Z" fill="#0AD2FF"/>
<path d="M104.083 154.315H102.566V155.833H104.083V154.315Z" fill="#FF1DCF"/>
<path d="M134.835 146.876L134.519 153.156L140.795 153.472L141.111 147.192L134.835 146.876Z" fill="#0AD2FF"/>
<path d="M38.1077 92.9342L35.7634 91.5347L34.4238 93.9L36.7878 95.3193L38.1077 92.9342ZM35.8422 91.8698L37.8122 93.013L36.6499 94.9842L34.6799 93.8409L35.8422 91.8698Z" fill="white"/>
<path d="M44.9059 30.1288L40.2715 34.5203L44.6601 39.1576L49.2945 34.7661L44.9059 30.1288Z" fill="#E80000"/>
<path d="M35.1368 70.6202L38.3665 75.3115L43.0551 72.08L39.8254 67.3887L35.1368 70.6202Z" fill="#0AD2FF"/>
<path d="M48.2138 43.0645L46.2438 43.301L46.4605 45.2721L48.4305 45.0553L48.2138 43.0645ZM46.4408 43.4193L48.0956 43.2221L48.2729 44.8779L46.6378 45.0553L46.4408 43.4193Z" fill="white"/>
<path d="M62.8311 52.7426L62.6538 50.7715L60.6838 50.9292L60.8611 52.9003L62.8311 52.7426Z" fill="white"/>
<path d="M152.658 138.998L147.909 140.696L149.606 145.448L154.355 143.75L152.658 138.998Z" fill="#0AD2FF"/>
<path d="M123.517 164.045L123.501 167.455L126.909 167.472L126.925 164.062L123.517 164.045Z" fill="#E80000"/>
<path d="M120.02 34.8956L118.564 35.801L119.469 37.2574L120.925 36.3519L120.02 34.8956Z" fill="#FF1DCF"/>
<path d="M124.841 149.425L119.455 150.005L120.034 155.395L125.421 154.815L124.841 149.425Z" fill="#FFAF00"/>
<path d="M51.1293 51.3433L47.6227 53.1173L49.376 56.6259L52.8826 54.8519L51.1293 51.3433ZM48.0955 53.3144L50.9717 51.8558L52.4098 54.7336L49.5336 56.1923L48.0955 53.3144Z" fill="white"/>
<path d="M35.0148 97.9409L33.2221 95.9697L31.2521 97.7635L33.0645 99.7346L35.0148 97.9409Z" fill="white"/>
<path d="M133.042 17.5972L132.727 19.0164L134.165 19.3121L134.46 17.8928L133.042 17.5972ZM132.865 18.9375L133.121 17.7154L134.342 17.9717L134.086 19.1938L132.865 18.9375Z" fill="white"/>
<path d="M158.534 130.11L159.538 133.56L163.006 132.554L162.001 129.105L158.534 130.11Z" fill="white"/>
<path d="M162.474 39.8711V38.9053H161.489V39.8908L162.474 39.8711ZM162.316 39.0038V39.7923H161.528V38.9841L162.316 39.0038Z" fill="white"/>
<path d="M178.923 44.267L176.953 42.2959L174.983 44.267L176.953 46.2382L178.923 44.267ZM176.953 42.631L178.628 44.267L176.993 45.9425L175.318 44.2868L176.953 42.631Z" fill="white"/>
<path d="M174.865 133.402L179.869 133.56L180.027 128.553L175.023 128.415L174.865 133.402ZM179.514 133.185L175.239 133.067L175.358 128.77L179.652 128.908L179.514 133.185Z" fill="white"/>
<path d="M36.8271 96.3838L36.1573 97.4482L37.2211 98.1184L37.8909 97.054L36.8271 96.3838ZM36.3149 97.4088L36.8665 96.5415L37.7333 97.0934L37.1817 97.9607L36.3149 97.4088Z" fill="white"/>
<path d="M84.31 35.1952L85.4801 38.4609L88.744 37.2905L87.5739 34.0248L84.31 35.1952Z" fill="#FFEC00"/>
<path d="M134.992 40.6399L137.534 43.3404L140.232 40.7976L137.691 38.0972L134.992 40.6399ZM137.553 42.8673L135.465 40.6597L137.672 38.5702L139.76 40.7779L137.553 42.8673Z" fill="white"/>
<path d="M159.132 94.1683L163.454 87.063L156.353 82.7377L152.031 89.8431L159.132 94.1683Z" fill="#FF1DCF"/>
<path d="M44.3242 161.564L39.4323 162.876L40.7436 167.771L45.6355 166.459L44.3242 161.564Z" fill="#FFEC00"/>
<path d="M71.4086 147.99L70.3618 149.115L71.4864 150.163L72.5332 149.037L71.4086 147.99Z" fill="#FFEC00"/>
<path d="M132.274 141.089L130.816 141.858L131.604 143.297L133.042 142.528L132.274 141.089Z" fill="white"/>
<path d="M118.856 43.9877L117.704 45.4888L119.204 46.641L120.356 45.1399L118.856 43.9877Z" fill="#0AD2FF"/>
<path d="M38.4306 111.71L33.8113 114.762L36.8618 119.384L41.4812 116.332L38.4306 111.71Z" fill="#FFAF00"/>
<path d="M171.2 89.7021L173.618 85.3862L169.305 82.9672L166.887 87.2831L171.2 89.7021Z" fill="#FF1DCF"/>
<path d="M76.5295 157.347L74.8381 161.254L78.7428 162.946L80.4342 159.039L76.5295 157.347Z" fill="#E80000"/>
<path d="M88.6525 168.559L87.3767 169.847L88.6641 171.124L89.94 169.836L88.6525 168.559Z" fill="#FFEC00"/>
<path d="M3.27815 101.41L2.09616 100.858L1.54456 102.041L2.72655 102.613L3.27815 101.41ZM2.15525 101.016L3.12055 101.469L2.66745 102.455L1.70216 101.982L2.15525 101.016Z" fill="white"/>
<path d="M25.9922 76.8894L31.4688 78.4664L33.0448 72.9866L27.5682 71.4097L25.9922 76.8894ZM31.193 77.9539L26.5438 76.6135L27.9031 71.9025L32.6114 73.2625L31.193 77.9539Z" fill="white"/>
<path d="M158.081 93.7622L159.243 92.7569L158.238 91.5742L157.076 92.5795L158.081 93.7622ZM159.085 92.7372L158.081 93.6045L157.234 92.5992L158.238 91.7319L159.085 92.7372Z" fill="white"/>
<path d="M104.221 162.555L102.783 161.038L101.266 162.496L102.724 163.994L104.221 162.555ZM102.763 161.314L103.965 162.555L102.724 163.738L101.542 162.496L102.763 161.314Z" fill="white"/>
<path d="M157.044 84.4791L158.799 84.7808L159.1 83.0245L157.345 82.7228L157.044 84.4791Z" fill="#FF1DCF"/>
<path d="M45.2326 49.8711L42.347 54.9866L47.4596 57.8736L50.3452 52.7582L45.2326 49.8711Z" fill="#FFAF00"/>
<path d="M154.595 84.3444L153.481 87.2737L156.409 88.3883L157.522 85.4589L154.595 84.3444Z" fill="#FFEC00"/>
<path d="M160.435 83.2513L154.539 77.6704L148.961 83.57L154.857 89.1509L160.435 83.2513Z" fill="#FF1DCF"/>
<path d="M104.044 159.086L109.284 161.727L111.924 156.582L106.683 154.04L104.044 159.086ZM109.008 161.175L104.595 158.908L106.861 154.493L111.254 156.76L109.008 161.175Z" fill="white"/>
<path d="M92.3115 160.106L91.4102 162.143L93.4454 163.045L94.3468 161.008L92.3115 160.106Z" fill="#FFAF00"/>
<path d="M154.937 41.6807L152.856 44.4561L155.63 46.5376L157.71 43.7622L154.937 41.6807Z" fill="#FFAF00"/>
<path d="M155.097 153.088L153.009 152.508L152.429 154.597L154.517 155.177L155.097 153.088Z" fill="#FF1DCF"/>
<path d="M65.9915 27.3891L62.9841 20.6807L56.2797 23.69L59.2871 30.3984L65.9915 27.3891Z" fill="#FFEC00"/>
<path d="M110.779 150.424L108.153 152.133L109.861 154.76L112.487 153.052L110.779 150.424Z" fill="#FFEC00"/>
<path d="M25.0838 73.0509L24.6962 74.5793L26.2237 74.9673L26.6113 73.4388L25.0838 73.0509Z" fill="#FF1DCF"/>
<path d="M137.494 139.71L138.361 140.498L139.149 139.631L138.282 138.842L137.494 139.71Z" fill="white"/>
<path d="M128.984 22.7025L128.57 21.9731L127.861 22.4462L128.334 23.1755L128.984 22.7025ZM128.472 22.1111L128.866 22.6828L128.294 23.077L127.9 22.5054L128.472 22.1111Z" fill="white"/>
<path d="M26.6448 122L25.2103 122.102L25.3124 123.537L26.7468 123.435L26.6448 122Z" fill="#FFAF00"/>
<path d="M57.6723 28.1877L57.0348 31.1555L60.0009 31.7933L60.6384 28.8256L57.6723 28.1877Z" fill="#FFAF00"/>
<path d="M128.563 176.147L126.92 177.649L128.422 179.294L130.065 177.791L128.563 176.147Z" fill="#FF1DCF"/>
<path d="M52.331 137.246L51.7991 143.159L57.7091 143.691L58.241 137.778L52.331 137.246ZM52.331 142.824L52.7841 137.699L57.9061 138.152L57.453 143.277L52.331 142.824Z" fill="white"/>
<path d="M31.2915 44.7399V45.6269H32.2174V44.7202L31.2915 44.7399Z" fill="white"/>
<path d="M126.021 48.8167L125.097 42.3779L118.662 43.3024L119.586 49.7411L126.021 48.8167Z" fill="#0AD2FF"/>
<path d="M125.831 171.315L125.334 172.624L126.642 173.121L127.138 171.812L125.831 171.315Z" fill="#FFEC00"/>
<path d="M114.806 43.1212L113.591 43.6843L114.154 44.9005L115.369 44.3374L114.806 43.1212Z" fill="#E80000"/>
<path d="M86.9554 190.346L84.5275 190.615L84.7968 193.045L87.2247 192.775L86.9554 190.346Z" fill="#E80000"/>
<path d="M46.9442 65.5015L49.9285 65.7476L50.1743 62.7615L47.1901 62.5155L46.9442 65.5015Z" fill="#FF1DCF"/>
<path d="M111.017 43.0249L111.411 37.0129L105.501 36.6187L105.107 42.6306L111.017 43.0249Z" fill="white"/>
<path d="M150.214 136.66L150.758 138.472L152.569 137.929L152.026 136.116L150.214 136.66Z" fill="#FFEC00"/>
<path d="M4.45119 74.6581L3.90149 70.7544L2.54162e-05 71.3044L0.549724 75.2082L4.45119 74.6581Z" fill="#FFEC00"/>
<path d="M24.2208 129.532L24.3303 123.876L18.6775 123.766L18.5679 129.422L24.2208 129.532Z" fill="#FFEC00"/>
<path d="M57.256 157.43L59.8367 156.011L58.3198 153.429L55.7391 154.946L57.256 157.43ZM59.4624 155.814L57.3545 157.056L56.0937 154.946L58.2016 153.705L59.4624 155.814Z" fill="white"/>
<path d="M85.4947 166.784L83.7656 167.176L84.1578 168.906L85.8869 168.514L85.4947 166.784Z" fill="#FFEC00"/>
<path d="M38.9453 119.953L38.5742 121.282L39.9024 121.653L40.2734 120.324L38.9453 119.953Z" fill="#0AD2FF"/>
<path d="M130.028 43.8726L124.413 46.1197L126.659 51.7374L132.274 49.5692L130.028 43.8726ZM125.044 46.3562L129.851 44.3851L131.821 49.1946L127.014 51.1658L125.044 46.3562Z" fill="white"/>
<path d="M39.4472 49.5693H35.6451L35.7436 53.5116H39.5457L39.4472 49.5693Z" fill="white"/>
<path d="M122.082 161.221L121.376 162.564L122.718 163.271L123.424 161.928L122.082 161.221Z" fill="#E80000"/>
<path d="M70.0797 151.288L68.0527 151.701L68.4655 153.729L70.4925 153.317L70.0797 151.288Z" fill="#FF1DCF"/>
<path d="M151.757 52.2305L150.26 55.2266L153.234 56.7247L154.732 53.7285L151.757 52.2305ZM150.654 55.0886L151.875 52.6444L154.338 53.8665L153.116 56.3304L150.654 55.0886Z" fill="white"/>
<path d="M23.7882 83.3493L25.8169 83.3872L25.8548 81.3573L23.826 81.3194L23.7882 83.3493Z" fill="#FF1DCF"/>
<path d="M38.2049 105.899L44.2877 100.612L39.0037 94.5259L32.9208 99.8128L38.2049 105.899Z" fill="#FF1DCF"/>
<path d="M29.0511 108.329L27.2585 108.35L27.2795 110.144L29.0721 110.123L29.0511 108.329Z" fill="#FF1DCF"/>
<path d="M69.7431 160.267L70.4664 162.841L73.0385 162.117L72.3151 159.543L69.7431 160.267Z" fill="#0AD2FF"/>
<path d="M85.2741 19.7356L85.3533 16.5828L82.2023 16.5035L82.1231 19.6563L85.2741 19.7356Z" fill="#0AD2FF"/>
<path d="M42.1461 120.215L43.6433 119.761L43.1902 118.244L41.693 118.697L42.1461 120.215ZM43.466 119.663L42.2446 120.037L41.8703 118.796L43.0917 118.421L43.466 119.663Z" fill="white"/>
<path d="M152.16 89.0439L153.119 87.2996L151.376 86.3398L150.417 88.0841L152.16 89.0439Z" fill="#FF1DCF"/>
<path d="M8.30151 111.897L9.12891 113.355L10.6064 112.528L9.77901 111.069L8.30151 111.897ZM9.18801 113.198L8.47881 111.936L9.71991 111.227L10.4291 112.488L9.18801 113.198Z" fill="white"/>
<path d="M18.8016 71.2516L21.0868 74.7011L24.5737 72.4935L22.2885 69.0439L18.8016 71.2516ZM21.1656 74.2872L19.1956 71.3305L22.1506 69.3593L24.1206 72.316L21.1656 74.2872Z" fill="white"/>
<path d="M43.4484 128.255L45.0841 124.953L41.7833 123.316L40.1476 126.619L43.4484 128.255Z" fill="#FFAF00"/>
<path d="M69.0217 156.335L66.8798 157.755L68.2991 159.898L70.4411 158.478L69.0217 156.335Z" fill="#FF1DCF"/>
<path d="M83.4342 19.7955L81.8177 22.0071L84.028 23.6246L85.6444 21.413L83.4342 19.7955Z" fill="#FFAF00"/>
<path d="M156.333 142.065L154.969 142.519L155.423 143.884L156.787 143.43L156.333 142.065Z" fill="#E80000"/>
<path d="M124.497 30.5404L123.198 31.2454L123.903 32.5448L125.202 31.8399L124.497 30.5404Z" fill="#FFEC00"/>
<path d="M151.514 43.0824L149.898 45.019L151.833 46.6366L153.449 44.7L151.514 43.0824Z" fill="#FFEC00"/>
<path d="M89.5558 43.4633L97.6125 43.3733L97.5225 35.3118L89.4657 35.4019L89.5558 43.4633Z" fill="#FF1DCF"/>
<path d="M65.7629 4.79598L64.8674 7.04883L67.119 7.94491L68.0145 5.69206L65.7629 4.79598Z" fill="#FF1DCF"/>
<path d="M101.911 38.1846L97.7478 41.2375L100.799 45.4029L104.962 42.3499L101.911 38.1846Z" fill="#E80000"/>
<path d="M70.8346 28.7702L70.3645 30.1509L71.7443 30.6216L72.2144 29.2409L70.8346 28.7702Z" fill="#FFEC00"/>
<path d="M91.5871 165.026L90.5793 167.296L92.8479 168.304L93.8556 166.034L91.5871 165.026Z" fill="#FFEC00"/>
<path d="M35.8722 120.487L31.373 121.492L32.3771 125.994L36.8762 124.989L35.8722 120.487Z" fill="#FF1DCF"/>
<path d="M65.9437 24.8314L66.7908 29.0496L70.9869 28.1823L70.1792 23.9443L65.9437 24.8314ZM67.0272 28.6751L66.2983 25.0679L69.8837 24.3386L70.6717 27.8866L67.0272 28.6751Z" fill="white"/>
<path d="M24.0025 96.0884L19.964 97.4485L21.3233 101.489L25.2633 100.129L24.0025 96.0884Z" fill="white"/>
<path d="M157.638 62.4868L155.784 65.0862L158.382 66.941L160.236 64.3416L157.638 62.4868Z" fill="#FFEC00"/>
<path d="M138.985 174.075L138.421 176.635L140.98 177.199L141.544 174.639L138.985 174.075Z" fill="#FFEC00"/>
<path d="M168.866 134.827L171.031 133.876L170.081 131.71L167.916 132.661L168.866 134.827Z" fill="#FF1DCF"/>
<path d="M41.0094 69.5639L40.0594 71.2456L41.7403 72.1958L42.6902 70.5141L41.0094 69.5639Z" fill="#FFEC00"/>
<path d="M16.2929 115.241L15.8198 117.236L17.8133 117.709L18.2863 115.714L16.2929 115.241Z" fill="#FFAF00"/>
<path d="M84.1622 28.4482L81.9635 30.2104L83.725 32.4102L85.9237 30.6479L84.1622 28.4482Z" fill="#FFEC00"/>
<path d="M80.4658 161.978L79.1427 163.438L80.6024 164.762L81.9254 163.302L80.4658 161.978Z" fill="#FFEC00"/>
<path d="M18.6638 77.8354V79.1364H19.9443V77.8552L18.6638 77.8354Z" fill="white"/>
<path d="M103.144 10.9864L101.154 13.5332L103.7 15.5245L105.689 12.9777L103.144 10.9864Z" fill="#0AD2FF"/>
<path d="M114.667 38.6934L113.99 40.5234L115.819 41.2007L116.496 39.3706L114.667 38.6934Z" fill="#FF1DCF"/>
<path d="M33.2024 101.075L33.0251 99.5967L31.5476 99.7741L31.7249 101.252L33.2024 101.075Z" fill="white"/>
<path d="M39.9595 170.341L41.1809 175.368L46.2438 174.165L45.0224 169.119L39.9595 170.341ZM41.4567 174.934L40.3338 170.617L44.6481 169.572L45.6922 173.889L41.4567 174.934Z" fill="white"/>
<path d="M61.3931 156.168L60.546 156.642L61.0188 157.489L61.8659 157.016L61.3931 156.168ZM60.6642 156.681L61.3537 156.287L61.7477 156.996L61.0385 157.371L60.6642 156.681Z" fill="white"/>
<path d="M137.925 44.7731L136.575 46.3931L138.194 47.7438L139.544 46.1238L137.925 44.7731Z" fill="#FFAF00"/>
<path d="M75.1795 27.3101L72.9738 31.2703L76.9317 33.4771L79.1375 29.517L75.1795 27.3101Z" fill="#E80000"/>
<path d="M90.8643 36.5597L91.7902 35.4953L90.7264 34.5688L89.8202 35.6333L90.8643 36.5597ZM91.6129 35.515L90.8643 36.3823L89.9975 35.6136L90.7461 34.7463L91.6129 35.515Z" fill="white"/>
<path d="M41.0326 124.79L39.3441 125.262L39.8165 126.952L41.5049 126.479L41.0326 124.79Z" fill="#0AD2FF"/>
<path d="M117.912 152.975L119.055 153.843L119.922 152.719L118.779 151.832L117.912 152.975Z" fill="white"/>
<path d="M155.766 123.671L150.648 120.373L147.352 125.493L152.469 128.791L155.766 123.671Z" fill="#FFAF00"/>
<path d="M38.6672 73.5465L45.655 77.8682L49.9742 70.8763L42.9863 66.5547L38.6672 73.5465Z" fill="#FF1DCF"/>
<path d="M156.23 46.7929L154.843 47.9905L156.04 49.3784L157.427 48.1808L156.23 46.7929Z" fill="#E80000"/>
<path d="M146.054 159.84L146.511 155.191L141.864 154.734L141.408 159.384L146.054 159.84Z" fill="#FFAF00"/>
<path d="M134.185 139.946L135.248 144.401L139.701 143.337L138.637 138.882L134.185 139.946ZM135.485 144.007L134.579 140.242L138.4 139.335L139.307 143.159L135.485 144.007Z" fill="white"/>
<path d="M92.4966 171.012L88.5194 171.146L88.6527 175.125L92.6299 174.992L92.4966 171.012Z" fill="#0AD2FF"/>
<path d="M35.9829 110.918L31.1222 113.609L33.812 118.473L38.6728 115.781L35.9829 110.918Z" fill="#FF1DCF"/>
<path d="M117.459 31.6121L115.489 31.2573L115.135 33.2285L117.105 33.603L117.459 31.6121Z" fill="white"/>
<path d="M147.383 38.2349L146.359 35.6133L143.739 36.658L144.744 39.2796L147.383 38.2349ZM146.221 35.9484L147.068 38.0969L144.921 38.9445L144.074 36.796L146.221 35.9484Z" fill="white"/>
<path d="M45.5346 44.0501L40.5899 42.6309L39.1715 47.5981L44.0965 49.0174L45.5346 44.0501Z" fill="white"/>
<path d="M96.8998 38.9466L99.125 39.0088L99.1872 36.7823L96.9619 36.7201L96.8998 38.9466Z" fill="#FFEC00"/>
<path d="M51.053 58.5669L49.3539 61.793L52.578 63.4932L54.2771 60.2671L51.053 58.5669Z" fill="#FFEC00"/>
<path d="M109.361 155.365L108.761 158.782L112.176 159.382L112.776 155.965L109.361 155.365Z" fill="#0AD2FF"/>
<path d="M103.75 34.3624L103.146 37.3372L106.118 37.9419L106.723 34.9672L103.75 34.3624Z" fill="#0AD2FF"/>
<path d="M154.338 89.7014L151.718 89.4058L151.422 92.0274L154.042 92.3231L154.338 89.7014Z" fill="white"/>
<path d="M142.744 56.6483L141.612 57.6577L142.62 58.7914L143.753 57.782L142.744 56.6483Z" fill="#E80000"/>
<path d="M85.4226 36.9854L84.9963 42.7253L90.7329 43.1519L91.1592 37.412L85.4226 36.9854Z" fill="#0AD2FF"/>
<path d="M178.371 108.464L177.94 113.076L182.549 113.507L182.98 108.895L178.371 108.464Z" fill="#FFEC00"/>
<path d="M167.497 91.1998L168.876 92.9935L170.689 91.6138L169.31 89.8003L167.497 91.1998Z" fill="white"/>
<path d="M13.916 90.0564L15.0389 88.3021L13.2856 87.1982L12.1627 88.992L13.916 90.0564Z" fill="white"/>
<path d="M73.2348 160.546L66.6361 164.083L70.1714 170.685L76.7701 167.148L73.2348 160.546Z" fill="#FF1DCF"/>
<path d="M153.875 118.739L152.92 120.187L154.367 121.143L155.322 119.695L153.875 118.739Z" fill="#0AD2FF"/>
<path d="M34.8858 125.475L27.0071 124.898L26.4327 132.762L34.3114 133.338L34.8858 125.475Z" fill="#FF1DCF"/>
<path d="M145.583 145.06L142.072 145.381L142.393 148.894L145.904 148.573L145.583 145.06Z" fill="#E80000"/>
<path d="M138.591 36.0409L135.543 36.4375L135.939 39.4868L138.987 39.0903L138.591 36.0409Z" fill="#FF1DCF"/>
<path d="M39.9012 117.547L39.8184 119.3L41.5697 119.383L41.6526 117.63L39.9012 117.547Z" fill="#E80000"/>
<path d="M150.109 42.9049L146.778 39.5469L143.423 42.8792L146.753 46.2373L150.109 42.9049Z" fill="#0AD2FF"/>
<path d="M127.795 32.6684L126.532 33.2229L127.086 34.4863L128.349 33.9318L127.795 32.6684Z" fill="#FFAF00"/>
<path d="M88.7972 173.731L87.9541 171.437L85.6614 172.28L86.5045 174.574L88.7972 173.731Z" fill="#0AD2FF"/>
<path d="M177.82 103.677L177.288 102.652L176.264 103.184L176.796 104.209L177.82 103.677ZM177.249 102.79L177.682 103.618L176.835 104.071L176.402 103.223L177.249 102.79Z" fill="white"/>
<path d="M133.792 35.6303L128.151 38.1687L130.687 43.8138L136.329 41.2755L133.792 35.6303Z" fill="#FFEC00"/>
<path d="M109.809 30.2954L107.662 30.3528L107.72 32.5006L109.866 32.4432L109.809 30.2954Z" fill="#FF1DCF"/>
<path d="M41.3249 87.521L40.3833 84.2847L37.1488 85.2267L38.0904 88.463L41.3249 87.521Z" fill="#FFEC00"/>
<path d="M148.711 79.7678L153.95 85.5513L159.73 80.3089L154.491 74.5254L148.711 79.7678Z" fill="#0AD2FF"/>
<path d="M39.3894 84.6456L38.5529 89.1013L43.0059 89.9385L43.8425 85.4828L39.3894 84.6456Z" fill="#FFEC00"/>
<path d="M44.3561 129.077L42.2759 130.281L43.4799 132.363L45.5601 131.158L44.3561 129.077Z" fill="#0AD2FF"/>
<path d="M102.442 26.1366L99.297 29.8521L103.01 32.9985L106.155 29.2831L102.442 26.1366Z" fill="#0AD2FF"/>
<path d="M93.9172 191.779L96.6719 191.643L96.5362 188.887L93.7815 189.023L93.9172 191.779Z" fill="#FFEC00"/>
<path d="M112.672 156.208L113.657 153.724L111.254 152.739L110.269 155.222L112.672 156.208ZM113.342 153.862L112.554 155.833L110.584 155.025L111.392 153.054L113.342 153.862Z" fill="white"/>
<path d="M89.4168 28.0844L88.1711 28.8794L88.9656 30.1258L90.2113 29.3308L89.4168 28.0844Z" fill="#0AD2FF"/>
<path d="M96.8626 166.431L92.5659 168.839L94.9732 173.138L99.2699 170.73L96.8626 166.431Z" fill="#0AD2FF"/>
<path d="M89.3877 37.042L86.9417 40.6218L90.5194 43.0693L92.9655 39.4895L89.3877 37.042Z" fill="#FFAF00"/>
<path d="M33.7807 126.197L32.7019 129.577L36.0799 130.656L37.1587 127.276L33.7807 126.197Z" fill="#FFAF00"/>
<path d="M31.7643 134.999L33.163 137.167L35.33 135.767L33.9313 133.599L31.7643 134.999ZM33.2221 136.97L32.0204 135.117L33.8722 133.915L35.0739 135.787L33.2221 136.97Z" fill="white"/>
<path d="M145.368 132.316L138.518 127.568L133.773 134.423L140.623 139.17L145.368 132.316Z" fill="#0AD2FF"/>
<path d="M139.799 59.5825L137.593 64.9046L142.912 67.1123L145.118 61.7902L139.799 59.5825ZM138.125 64.6878L140.095 60.1147L144.645 62.0859L142.675 66.6392L138.125 64.6878Z" fill="white"/>
<path d="M160.55 102.317L156.352 103.498L157.533 107.699L161.731 106.518L160.55 102.317Z" fill="#E80000"/>
<path d="M196.403 117.968L193.088 118.57L193.69 121.886L197.004 121.284L196.403 117.968Z" fill="#FFAF00"/>
<path d="M111.037 179.073L113.677 177.102L111.707 174.461L109.067 176.432L111.037 179.073Z" fill="white"/>
<path d="M20.2172 136.535L14.8623 138.156L16.483 143.515L21.8379 141.893L20.2172 136.535Z" fill="#FFEC00"/>
<path d="M142.931 145.406L143.463 144.716L142.774 144.184L142.242 144.874L142.931 145.406ZM143.365 144.736L142.931 145.288L142.36 144.854L142.793 144.302L143.365 144.736Z" fill="white"/>
<path d="M159.207 158.796L158.456 160.809L160.468 161.56L161.219 159.547L159.207 158.796Z" fill="#FFAF00"/>
<path d="M147.246 138.507L145.689 137.817L144.98 139.375L146.537 140.084L147.246 138.507ZM145.749 137.975L147.088 138.586L146.477 139.907L145.138 139.296L145.749 137.975Z" fill="white"/>
<path d="M97.5728 154.422L95.7506 154.753L96.0808 156.576L97.903 156.246L97.5728 154.422Z" fill="#E80000"/>
<path d="M138.92 50.7047L136.401 46.4697L132.169 48.9892L134.687 53.2242L138.92 50.7047Z" fill="#FFEC00"/>
<path d="M61.7213 47.1376L66.4197 46.0325L65.315 41.3314L60.6166 42.4365L61.7213 47.1376Z" fill="#FFEC00"/>
<path d="M73.4693 168.429L72.4449 163.501L67.5396 164.526L68.564 169.435L73.4693 168.429Z" fill="white"/>
<path d="M88.0864 153.703L87.509 154.999L88.8048 155.577L89.3821 154.28L88.0864 153.703Z" fill="#FF1DCF"/>
<path d="M15.7481 68.5117L17.462 63.9978L12.9507 62.2632L11.2368 66.7771L15.7481 68.5117Z" fill="white"/>
<path d="M156.645 84.6709L158.478 82.9385L156.747 81.104L154.914 82.8364L156.645 84.6709Z" fill="#FFEC00"/>
<path d="M57.0787 57.7886L57.7485 56.9607L56.9211 56.2905L56.2513 57.0987L57.0787 57.7886Z" fill="white"/>
<path d="M49.0128 58.4272L44.6571 62.0649L48.2925 66.4233L52.6482 62.7856L49.0128 58.4272Z" fill="#0AD2FF"/>
<path d="M155.292 145.353L151.838 150.653L157.135 154.109L160.589 148.81L155.292 145.353Z" fill="#E80000"/>
<path d="M38.8321 59.6038L39.1064 61.3765L40.8781 61.1021L40.6037 59.3295L38.8321 59.6038Z" fill="#0AD2FF"/>
<path d="M96.0014 32.5253L91.5323 33.5732L92.5798 38.0448L97.0488 36.9969L96.0014 32.5253Z" fill="#FFAF00"/>
<path d="M137.708 49.1402L133.985 49.9116L134.756 53.6369L138.479 52.8654L137.708 49.1402Z" fill="#0AD2FF"/>
<path d="M173.656 77.517L175.981 77.5056L175.97 75.1797L173.645 75.1911L173.656 77.517Z" fill="#FFEC00"/>
<path d="M20.016 95.1548L25.7433 95.6924L26.2807 89.9618L20.5534 89.4242L20.016 95.1548Z" fill="#FFAF00"/>
<path d="M101.404 155.005L102.842 154.414L102.251 152.975L100.813 153.566L101.404 155.005Z" fill="white"/>
<path d="M158.989 75.4657L158.409 77.3289L160.271 77.9091L160.851 76.046L158.989 75.4657Z" fill="#FFAF00"/>
<path d="M162.569 124.214L165.484 123.861L165.131 120.945L162.217 121.298L162.569 124.214Z" fill="#FFEC00"/>
<path d="M157.375 113.895L154.077 116.647L156.828 119.947L160.126 117.195L157.375 113.895Z" fill="#FFEC00"/>
<path d="M14.4091 96.025L11.7371 98.4758L14.1863 101.149L16.8583 98.6987L14.4091 96.025Z" fill="#E80000"/>
<path d="M104.277 152.825L101.606 158.011L106.789 160.684L109.46 155.497L104.277 152.825Z" fill="#FF1DCF"/>
<path d="M181.368 61.7202L179.776 61.833L179.889 63.4257L181.481 63.3129L181.368 61.7202Z" fill="#0AD2FF"/>
<path d="M144.329 48.2359L143.827 49.7307L145.321 50.2329L145.823 48.7381L144.329 48.2359Z" fill="#E80000"/>
<path d="M52.4099 39.4178L52.9221 42.0394L55.5422 41.5269L55.0497 38.9053L52.4099 39.4178Z" fill="white"/>
<path d="M168.503 82.5367L162.011 82.8794L162.354 89.3751L168.846 89.0324L168.503 82.5367Z" fill="#0AD2FF"/>
<path d="M117.182 30.7301L120.024 27.3528L116.649 24.5089L113.806 27.8862L117.182 30.7301Z" fill="#FFAF00"/>
<path d="M72.9168 159.079L65.5447 157.887L64.3532 165.263L71.7253 166.455L72.9168 159.079Z" fill="#0AD2FF"/>
<path d="M124.374 151.201L127.152 151.871L127.822 149.092L125.044 148.422L124.374 151.201Z" fill="white"/>
<path d="M35.4972 103.742L34.4336 104.557L35.2483 105.621L36.3119 104.806L35.4972 103.742Z" fill="#0AD2FF"/>
<path d="M60.3463 173.66L64.9453 176.951L68.2343 172.349L63.6353 169.059L60.3463 173.66Z" fill="#FFAF00"/>
<path d="M143.66 63.3979L143.081 65.4873L145.169 66.0668L145.748 63.9774L143.66 63.3979Z" fill="#0AD2FF"/>
<path d="M87.2789 173.85L83.989 173.337L83.4965 176.629L86.7667 177.122L87.2789 173.85Z" fill="white"/>
<path d="M101.506 16.8795L102.354 19.5469L105.02 18.6987L104.172 16.0313L101.506 16.8795Z" fill="#FFEC00"/>
<path d="M54.4497 134.506L53.1604 134.789L53.4432 136.079L54.7324 135.796L54.4497 134.506Z" fill="#0AD2FF"/>
<path d="M132.867 28.3481L133.759 29.9268L135.337 29.0343L134.445 27.4556L132.867 28.3481Z" fill="#FFEC00"/>
<path d="M50.8249 134.989L48.6084 135.622L49.2405 137.84L51.457 137.207L50.8249 134.989Z" fill="#FF1DCF"/>
<path d="M119.256 155.337L113.997 157.36L116.018 162.622L121.277 160.6L119.256 155.337Z" fill="#E80000"/>
<path d="M20.3973 157.41L22.6037 159.756L24.9283 157.509L22.7022 155.183L20.3973 157.41ZM22.6431 159.382L20.6731 157.41L22.6431 155.439L24.6131 157.41L22.6431 159.382Z" fill="white"/>
<path d="M51.803 156.657L53.6656 158.177L55.1842 156.313L53.3215 154.793L51.803 156.657Z" fill="#FF1DCF"/>
<path d="M63.0873 149.112L62.319 149.683L62.8903 150.452L63.6586 149.881L63.0873 149.112ZM62.4372 149.703L63.0676 149.23L63.5404 149.861L62.91 150.334L62.4372 149.703Z" fill="white"/>
<path d="M166.414 112.094V113.099H167.438V112.074L166.414 112.094Z" fill="white"/>
<path d="M106.242 159.064L104.809 159.499L105.244 160.933L106.676 160.498L106.242 159.064Z" fill="#E80000"/>
<path d="M151.58 61.8101L147.384 65.1413L150.654 69.2807L154.85 65.9495L151.58 61.8101Z" fill="white"/>
<path d="M134.697 22.9948L140.556 28.2378L145.796 22.3758L139.937 17.1328L134.697 22.9948Z" fill="#FFAF00"/>
<path d="M67.3228 46.356L66.4757 47.7555L67.8744 48.6228L68.7215 47.2035L67.3228 46.356Z" fill="white"/>
<path d="M48.2137 145.347L53.9661 146.904L55.5224 141.168L49.77 139.611L48.2137 145.347Z" fill="white"/>
<path d="M69.8608 44.4131L69.3912 45.9185L70.8956 46.3886L71.3651 44.8833L69.8608 44.4131Z" fill="#FF1DCF"/>
<path d="M181.484 72.5722L181.859 71.5078L180.795 71.1333L180.42 72.1977L181.484 72.5722Z" fill="white"/>
<path d="M53.8984 143.613L56.2334 149.066L61.684 146.73L59.349 141.276L53.8984 143.613Z" fill="#0AD2FF"/>
<path d="M75.1683 156.7L74.4247 157.954L75.6786 158.698L76.4223 157.444L75.1683 156.7Z" fill="#FFEC00"/>
<path d="M157.273 128.533L156.564 130.82L158.849 131.608L159.637 129.322L157.273 128.533ZM156.702 130.721L157.391 128.75L159.361 129.44L158.691 131.411L156.702 130.721Z" fill="white"/>
<path d="M88.1676 32.2538L87.3307 33.6133L88.6891 34.451L89.526 33.0916L88.1676 32.2538Z" fill="#FFAF00"/>
<path d="M153.868 131.416L150.849 134.849L154.28 137.87L157.299 134.436L153.868 131.416Z" fill="#FF1DCF"/>
<path d="M35.1209 105.324L29.8706 108.039L32.584 113.292L37.8343 110.577L35.1209 105.324Z" fill="#FFEC00"/>
<path d="M74.9861 162.851L76.4045 163.501L77.0546 162.082L75.6362 161.432L74.9861 162.851Z" fill="white"/>
<path d="M149.59 54.852L147.265 50.9097L143.325 53.2356L145.67 57.1779L149.59 54.852ZM147.147 51.2842L149.117 54.714L145.689 56.6851L143.719 53.2356L147.147 51.2842Z" fill="white"/>
<path d="M138.243 45.469L140.213 42.9262L137.672 40.9551L135.702 43.4979L138.243 45.469Z" fill="white"/>
<path d="M123.16 159.164L123.57 156.694L121.102 156.284L120.692 158.754L123.16 159.164Z" fill="#FFAF00"/>
<path d="M171.871 122.245L171.575 126.187L175.515 126.483L175.811 122.541L171.871 122.245ZM171.871 125.852L172.127 122.62L175.338 122.856L175.101 126.089L171.871 125.852Z" fill="white"/>
<path d="M73.4647 165.778L71.3096 167.468L72.9988 169.624L75.154 167.934L73.4647 165.778Z" fill="#0AD2FF"/>
<path d="M56.8044 41.5294L56.3795 43.5146L58.3636 43.94L58.7885 41.9547L56.8044 41.5294Z" fill="#0AD2FF"/>
<path d="M164.786 136.428L164.217 137.663L165.451 138.232L166.02 136.997L164.786 136.428Z" fill="#FFAF00"/>
<path d="M152.624 115.78L150.654 113.139L148.014 115.11L149.984 117.751L152.624 115.78Z" fill="white"/>
<path d="M152.181 78.7466L149.003 77.1289L147.387 80.309L150.565 81.9267L152.181 78.7466Z" fill="#FFAF00"/>
<path d="M77.2714 153.922L78.6898 150.098L74.868 148.659L73.4496 152.483L77.2714 153.922ZM78.3155 150.255L77.0941 153.547L73.8239 152.325L75.0453 149.033L78.3155 150.255Z" fill="white"/>
<path d="M101.143 162.154L99.9292 163.878L101.652 165.093L102.866 163.368L101.143 162.154Z" fill="#FFAF00"/>
<path d="M95.8961 157.648L94.516 158.278L95.1455 159.659L96.5256 159.029L95.8961 157.648Z" fill="#E80000"/>
<path d="M31.0227 104.421L29.2577 107.43L32.2649 109.196L34.0299 106.187L31.0227 104.421Z" fill="#0AD2FF"/>
<path d="M140.013 48.0791L136.423 50.9094L139.252 54.501L142.842 51.6707L140.013 48.0791Z" fill="#E80000"/>
<path d="M59.8368 161.491L65.7468 162.358L66.6333 156.445L60.7233 155.558L59.8368 161.491Z" fill="white"/>
<path d="M74.8141 32.0621L71.5281 33.2869L72.7521 36.5748L76.0381 35.3501L74.8141 32.0621Z" fill="#0AD2FF"/>
<path d="M128.007 148.803L126.814 150.22L128.231 151.413L129.424 149.996L128.007 148.803Z" fill="#FF1DCF"/>
<path d="M81.2462 40.2057L81.243 44.7L85.7346 44.7031L85.7378 40.2089L81.2462 40.2057Z" fill="#FF1DCF"/>
<path d="M129.929 52.4271L130.225 50.1209L127.92 49.8252L127.625 52.1314L129.929 52.4271Z" fill="white"/>
<path d="M154.259 128.415H155.145V127.548H154.259V128.415ZM155.066 128.415H154.338V127.686H155.066V128.415Z" fill="white"/>
<path d="M38.5141 80.6528L34.5555 81.7119L35.614 85.6728L39.5725 84.6136L38.5141 80.6528Z" fill="#0AD2FF"/>
<path d="M75.5002 41.5478L74.0356 42.7136L75.2006 44.1792L76.6652 43.0134L75.5002 41.5478Z" fill="#FFAF00"/>
<path d="M73.2742 184.751L72.1964 185.846L73.2916 186.925L74.3694 185.829L73.2742 184.751Z" fill="#E80000"/>
<path d="M47.6905 62.3116L47.8741 60.072L45.6359 59.8883L45.4522 62.1279L47.6905 62.3116Z" fill="#FFAF00"/>
<path d="M13.0887 79.9048L12.2416 80.161L12.4977 81.0086L13.3251 80.7524L13.0887 79.9048Z" fill="white"/>
<path d="M20.1247 121.877L27.4532 124.61L30.1846 117.277L22.8561 114.544L20.1247 121.877Z" fill="#FF1DCF"/>
<path d="M109.937 22.9651L109.495 24.7239L111.253 25.1661L111.694 23.4073L109.937 22.9651Z" fill="#FFAF00"/>
<path d="M38.7144 114.792L41.7115 109.378L36.3003 106.379L33.3032 111.793L38.7144 114.792Z" fill="#0AD2FF"/>
<path d="M165.021 77.6762L163.513 78.8821L164.718 80.3915L166.226 79.1856L165.021 77.6762Z" fill="#FF1DCF"/>
<path d="M35.2435 45.4101L33.8313 47.0547L35.4749 48.4677L36.8872 46.8232L35.2435 45.4101Z" fill="#E80000"/>
<path d="M97.838 158.672L99.3549 158.297L98.9806 156.799L97.4637 157.154L97.838 158.672Z" fill="white"/>
<path d="M48.4169 32.226L44.337 39.1094L51.2166 43.1913L55.2964 36.3079L48.4169 32.226Z" fill="#0AD2FF"/>
<path d="M123.599 40.7728L123.007 43.9988L126.231 44.5912L126.823 41.3653L123.599 40.7728Z" fill="#FFAF00"/>
<path d="M89.7808 163.6L91.278 164.448L92.1251 162.95L90.6279 162.102L89.7808 163.6ZM91.2189 164.231L89.9975 163.541L90.687 162.319L91.9084 163.009L91.2189 164.231Z" fill="white"/>
<path d="M94.5915 30.065L93.6138 34.1682L97.7146 35.1465L98.6923 31.0433L94.5915 30.065Z" fill="#FF1DCF"/>
<path d="M47.6464 77.1048L43.4592 73.187L39.5437 77.3766L43.7309 81.2944L47.6464 77.1048Z" fill="#FF1DCF"/>
<path d="M42.7364 51.9033L42.3242 50.0161L40.4382 50.4287L40.8504 52.3158L42.7364 51.9033Z" fill="#0AD2FF"/>
<path d="M150.892 110.82L149.728 112.696L151.603 113.86L152.766 111.985L150.892 110.82Z" fill="#0AD2FF"/>
<path d="M101.318 163.418L101.833 167.34L105.753 166.825L105.238 162.903L101.318 163.418Z" fill="#FFEC00"/>
<path d="M161.821 79.0525L156.559 75.874L153.383 81.1389L158.644 84.3174L161.821 79.0525Z" fill="#E80000"/>
<path d="M20.6598 88.3155L15.4352 88.9241L16.0433 94.1517L21.2679 93.5431L20.6598 88.3155Z" fill="#FFAF00"/>
<path d="M25.8573 62.3813L23.1501 66.592L27.3587 69.3003L30.0658 65.0896L25.8573 62.3813Z" fill="#FFEC00"/>
<path d="M50.5 62.023L56.9473 61.1887L56.1133 54.7377L49.666 55.572L50.5 62.023Z" fill="#FF1DCF"/>
<path d="M157.529 105.826L159.125 111.187L164.444 109.591L162.848 104.229L157.529 105.826ZM159.499 110.694L158.12 106.102L162.71 104.722L164.089 109.315L159.499 110.694Z" fill="white"/>
<path d="M133.103 161.415L135.775 160.198L134.56 157.525L131.888 158.741L133.103 161.415Z" fill="#FFAF00"/>
<path d="M68.9184 45.2521L69.5685 41.3098L65.6285 40.6396L64.9587 44.5819L68.9184 45.2521ZM69.2336 41.5267L68.682 44.917L65.2739 44.3651L65.9437 40.955L69.2336 41.5267Z" fill="white"/>
<path d="M53.0381 52.2647L52.4224 53.9912L54.1479 54.6074L54.7636 52.8809L53.0381 52.2647Z" fill="#FFAF00"/>
<path d="M120.808 41.6843L121.34 43.6554L123.31 43.1429L122.798 41.0732L120.808 41.6843Z" fill="white"/>
<path d="M61.2698 161.505L59.8159 167.541L65.8487 168.996L67.3025 162.96L61.2698 161.505Z" fill="#E80000"/>
<path d="M74.0798 150.334L74.3556 149.487L73.5085 149.23L73.2327 150.098L74.0798 150.334ZM74.2571 149.546L74.0207 150.236L73.3509 150.098L73.5676 149.408L74.2571 149.546Z" fill="white"/>
<path d="M162.776 59.9609L159.531 54.2793L153.852 57.5265L157.098 63.2081L162.776 59.9609Z" fill="#FF1DCF"/>
<path d="M188.571 105.042L188.313 107.453L190.723 107.711L190.98 105.3L188.571 105.042Z" fill="#E80000"/>
<path d="M127.762 157.391L127.329 156.504L126.442 156.938L126.876 157.825L127.762 157.391ZM127.289 156.622L127.644 157.351L126.915 157.706L126.561 156.997L127.289 156.622Z" fill="white"/>
<path d="M57.1928 139.243L55.8949 140.393L57.044 141.692L58.3419 140.542L57.1928 139.243Z" fill="#0AD2FF"/>
<path d="M154.016 49.3175L153.293 50.4456L154.42 51.1695L155.144 50.0414L154.016 49.3175Z" fill="#FF1DCF"/>
<path d="M100.677 4.09372L100.196 6.46997L102.571 6.95126L103.052 4.57501L100.677 4.09372Z" fill="#FFAF00"/>
<path d="M133.035 155.361L129.504 148.824L122.97 152.357L126.501 158.895L133.035 155.361Z" fill="#FFEC00"/>
<path d="M103.953 171.842L102.351 167.141L97.6521 168.744L99.2545 173.445L103.953 171.842Z" fill="#FFAF00"/>
<path d="M110.935 31.57L104.671 28.2417L101.345 34.509L107.609 37.8373L110.935 31.57Z" fill="#FFAF00"/>
<path d="M155.333 115.935L154.891 114.197L153.154 114.64L153.596 116.378L155.333 115.935Z" fill="#FF1DCF"/>
<path d="M41.3491 106.079L37.7549 107.742L39.4164 111.338L43.0106 109.676L41.3491 106.079Z" fill="#FFAF00"/>
<path d="M159.788 123.6L158.336 124.781L159.517 126.234L160.969 125.053L159.788 123.6Z" fill="#0AD2FF"/>
<path d="M77.5998 169.099L77.5404 170.911L79.3518 170.971L79.4113 169.158L77.5998 169.099Z" fill="#FF1DCF"/>
<path d="M131.401 34.7231L130.891 36.729L132.896 37.2388L133.406 35.2329L131.401 34.7231Z" fill="#0AD2FF"/>
<path d="M149.397 113.258L155.198 116.448L158.386 110.643L152.585 107.454L149.397 113.258Z" fill="#FFEC00"/>
<path d="M136.461 149.101L133.596 151.125L135.619 153.99L138.484 151.967L136.461 149.101Z" fill="#0AD2FF"/>
<path d="M48.3292 20.8086L50.6431 15.7334L45.5707 13.4184L43.2569 18.4937L48.3292 20.8086Z" fill="#0AD2FF"/>
<path d="M33.7267 157.422L41.0437 156.078L39.6997 148.756L32.3828 150.101L33.7267 157.422Z" fill="#FFAF00"/>
<path d="M37.6743 130.248L38.0486 133.875L41.6734 133.52L41.3188 129.874L37.6743 130.248Z" fill="white"/>
<path d="M18.0667 108.41L16.7301 109.776L18.096 111.113L19.4326 109.747L18.0667 108.41Z" fill="#FFAF00"/>
<path d="M36.1238 86.8892L31.4916 87.9304L32.532 92.5654L37.1643 91.5242L36.1238 86.8892Z" fill="#0AD2FF"/>
<path d="M41.7978 74.7209L41.3582 71.6377L38.2768 72.0776L38.7164 75.1607L41.7978 74.7209Z" fill="#0AD2FF"/>
<path d="M47.9784 133.362L42.1302 127.961L36.7319 133.812L42.58 139.214L47.9784 133.362Z" fill="#0AD2FF"/>
<path d="M109.242 41.7403L110.015 44.3481L112.622 43.5747L111.849 40.9668L109.242 41.7403Z" fill="#FFAF00"/>
<path d="M88.1105 16.2524L86.6476 17.5725L87.9672 19.0361L89.4301 17.716L88.1105 16.2524Z" fill="#E80000"/>
<path d="M145.453 149.27L143.818 155.321L149.866 156.937L151.481 150.886L145.453 149.27ZM144.369 155.006L145.768 149.821L150.93 151.221L149.551 156.385L144.369 155.006Z" fill="white"/>
<path d="M182.86 95.9347L181.455 97.7029L183.222 99.1084L184.627 97.3402L182.86 95.9347Z" fill="#0AD2FF"/>
<path d="M184.169 138.514L183.373 140.97L185.827 141.767L186.624 139.311L184.169 138.514Z" fill="#0AD2FF"/>
<path d="M27.9227 87.9077V89.5043H29.5184V87.9077H27.9227ZM28.1 89.3861V88.026H29.4593V89.3861H28.1Z" fill="white"/>
<path d="M38.6191 73.5872L38.8368 71.7075L36.9582 71.4897L36.7405 73.3694L38.6191 73.5872Z" fill="#FFEC00"/>
<path d="M142.336 136.338L138.37 136.667L138.699 140.635L142.665 140.306L142.336 136.338Z" fill="#E80000"/>
<path d="M162.48 50.5971L161.842 48.5249L159.771 49.1631L160.409 51.2353L162.48 50.5971Z" fill="#FFEC00"/>
<path d="M48.3461 128.331L46.7714 127.394L45.8353 128.97L47.4101 129.907L48.3461 128.331Z" fill="#FF1DCF"/>
<path d="M67.3954 167.174L66.6705 171.129L70.6235 171.855L71.3483 167.899L67.3954 167.174Z" fill="#0AD2FF"/>
<path d="M156.008 97.7192L151.225 101.889L155.393 106.674L160.175 102.504L156.008 97.7192Z" fill="#E80000"/>
<path d="M81.8934 156.056L77.2487 157.294L78.4863 161.942L83.131 160.704L81.8934 156.056Z" fill="#FFEC00"/>
<path d="M118.425 43.6558H115.47V46.6322L118.444 46.5336L118.425 43.6558Z" fill="white"/>
<path d="M54.287 43.0185L51.8375 44.0032L52.8218 46.4541L55.2713 45.4693L54.287 43.0185Z" fill="#FFAF00"/>
<path d="M117.794 18.2257L114.572 21.0674L117.412 24.2907L120.634 21.449L117.794 18.2257Z" fill="#FFAF00"/>
<path d="M158.365 138.874L162.276 133.434L156.839 129.52L152.927 134.96L158.365 138.874Z" fill="#0AD2FF"/>
<path d="M54.9653 142.63L51.3251 147.188L55.8803 150.831L59.5205 146.273L54.9653 142.63Z" fill="#FFAF00"/>
<path d="M80.8957 162.039L86.5938 158.154L82.7111 152.453L77.0131 156.338L80.8957 162.039Z" fill="#FF1DCF"/>
<path d="M58.4578 149.9L55.9756 149.467L55.5225 151.95L58.0244 152.404L58.4578 149.9Z" fill="white"/>
<path d="M62.3526 38.0497L60.8175 38.1182L60.8859 39.6541L62.4209 39.5857L62.3526 38.0497Z" fill="#FFEC00"/>
<path d="M147.778 51.9229L155.017 48.0361L151.132 40.7935L143.894 44.6802L147.778 51.9229Z" fill="#FF1DCF"/>
<path d="M176.742 88.58L174.891 93.4644L179.773 95.3158L181.623 90.4315L176.742 88.58Z" fill="#E80000"/>
<path d="M86.7922 33.7642L85.1331 39.5425L90.9079 41.2027L92.5671 35.4244L86.7922 33.7642Z" fill="#FFEC00"/>
<path d="M36.7909 135.704L33.9563 138.554L36.8048 141.39L39.6395 138.54L36.7909 135.704Z" fill="#FF1DCF"/>
<path d="M54.6238 174.476L52.1567 175.164L52.8441 177.632L55.3112 176.944L54.6238 174.476Z" fill="#0AD2FF"/>
<path d="M129.487 152.79L128.191 158.013L133.411 159.31L134.707 154.087L129.487 152.79Z" fill="#FFEC00"/>
<path d="M40.8204 25.8779L40.2965 23.9165L38.3362 24.4405L38.8601 26.4019L40.8204 25.8779Z" fill="#FFAF00"/>
<path d="M139.93 58.9741L139.219 60.3152L140.56 61.0259L141.27 59.6848L139.93 58.9741Z" fill="#FFAF00"/>
<path d="M150.125 73.0641L147.429 69.0347L143.402 71.7322L146.098 75.7617L150.125 73.0641Z" fill="#FFAF00"/>
<path d="M50.3019 149.959L50.0064 147.574L47.6227 147.87L47.9182 150.275L50.3019 149.959Z" fill="white"/>
<path d="M170.241 55.2269L170.015 53.1895L167.978 53.4158L168.205 55.4532L170.241 55.2269Z" fill="#FF1DCF"/>
<path d="M85.6443 157.884L83.8445 156.202L82.1638 158.003L83.9636 159.685L85.6443 157.884Z" fill="#FFEC00"/>
<path d="M46.8305 143.416L44.7538 147.379L48.7143 149.456L50.791 145.494L46.8305 143.416Z" fill="#FF1DCF"/>
<path d="M140.783 130.964L141.486 135.981L146.5 135.278L145.797 130.261L140.783 130.964Z" fill="#FFAF00"/>
<path d="M31.0157 104.032L26.5438 103.303L25.8149 107.856L30.3459 108.585L31.0157 104.032Z" fill="white"/>
<path d="M118.704 177.101L118.05 178.792L119.74 179.447L120.394 177.756L118.704 177.101Z" fill="#E80000"/>
<path d="M94.3861 157.92L92.2014 158.015L92.2957 160.201L94.4803 160.106L94.3861 157.92Z" fill="#FFAF00"/>
<path d="M131.166 140.569L129.325 146.663L135.416 148.506L137.257 142.411L131.166 140.569Z" fill="#FF1DCF"/>
<path d="M43.2372 121.575L44.7562 123.489L46.6693 121.969L45.1503 120.055L43.2372 121.575Z" fill="#FF1DCF"/>
<path d="M96.0819 160.114L94.8859 160.948L95.7193 162.145L96.9153 161.311L96.0819 160.114Z" fill="#FFAF00"/>
<path d="M148.747 56.7569L146.562 56.2388L146.044 58.4253L148.229 58.9435L148.747 56.7569Z" fill="#0AD2FF"/>
<path d="M73.1982 26.436L73.0247 28.3005L74.8881 28.4741L75.0616 26.6096L73.1982 26.436Z" fill="#FFEC00"/>
<path d="M165.829 68.4028L164.724 69.2566L165.577 70.3623L166.682 69.5085L165.829 68.4028Z" fill="#FFAF00"/>
<path d="M165.987 132.116L164.841 133.469L166.194 134.616L167.34 133.263L165.987 132.116Z" fill="#FFAF00"/>
<path d="M40.8854 113.553L41.5552 114.794L42.7963 114.124L42.1265 112.882L40.8854 113.553ZM41.5946 114.656L41.0233 113.592L42.0871 113.02L42.6584 114.085L41.5946 114.656Z" fill="white"/>
<path d="M80.4905 21.4928L77.7393 26.8818L83.125 29.6349L85.8763 24.2458L80.4905 21.4928Z" fill="#FFEC00"/>
<path d="M18.1122 88.0655L20.6338 92.1852L24.7708 89.5832L22.1507 85.4438L18.1122 88.0655Z" fill="white"/>
<path d="M35.2582 88.7587L33.4314 92.5823L37.2527 94.4101L39.0795 90.5866L35.2582 88.7587Z" fill="#FFEC00"/>
<path d="M147.299 126.072L146.128 127.214L147.268 128.386L148.439 127.244L147.299 126.072Z" fill="#FF1DCF"/>
<path d="M114.274 35.6229L112.752 37.6841L114.812 39.2064L116.334 37.1453L114.274 35.6229Z" fill="#0AD2FF"/>
<path d="M58.5276 153.757L61.3488 151.775L59.3675 148.952L56.5464 150.934L58.5276 153.757Z" fill="#FF1DCF"/>
<path d="M65.5891 40.6005L67.1257 39.4769L65.9437 37.9395L64.4071 39.063L65.5891 40.6005ZM66.8893 39.4375L65.6285 40.364L64.7026 39.1024L65.9634 38.176L66.8893 39.4375Z" fill="white"/>
<path d="M140.546 142.739L138.453 144.625L140.337 146.72L142.431 144.834L140.546 142.739Z" fill="#FFAF00"/>
<path d="M156.15 89.465L152.624 86.7251L149.866 90.1746L153.392 92.9342L156.15 89.465Z" fill="white"/>
<path d="M74.8482 17.6167L72.8782 18.7205L73.9814 20.6917L76.0499 19.5878L74.8482 17.6167Z" fill="white"/>
<path d="M40.7332 136.402L40.1438 139.057L42.7978 139.647L43.3871 136.992L40.7332 136.402Z" fill="#0AD2FF"/>
<path d="M66.6148 149.884L59.0524 147.16L56.3297 154.726L63.8922 157.451L66.6148 149.884Z" fill="#FFEC00"/>
<path d="M142.774 38.3535L141.474 43.4194L146.536 44.7006L147.797 39.7136L142.774 38.3535ZM141.927 43.1434L143.05 38.8069L147.384 39.9107L146.261 44.2472L141.927 43.1434Z" fill="white"/>
<path d="M156.557 86.6329L151.08 89.6355L154.081 95.1153L159.558 92.1127L156.557 86.6329Z" fill="#0AD2FF"/>
<path d="M116.533 166.419L117.499 165.827L116.927 164.861L115.942 165.433L116.533 166.419Z" fill="white"/>
<path d="M52.0706 58.5558L49.006 56.0469L46.4985 59.1132L49.5631 61.6221L52.0706 58.5558Z" fill="#FFEC00"/>
<path d="M35.9025 66.9878L35.0074 68.6323L36.6511 69.5278L37.5461 67.8833L35.9025 66.9878Z" fill="#FFAF00"/>
<path d="M145.354 62.1647L144.271 61.396L143.463 62.4998L144.547 63.308L145.354 62.1647ZM144.291 61.4946L145.217 62.1845L144.527 63.1306L143.581 62.4407L144.291 61.4946Z" fill="white"/>
<path d="M35.1713 89.2163L39.3623 84.3733L34.5223 80.1796L30.3312 85.0226L35.1713 89.2163Z" fill="#E80000"/>
<path d="M38.9548 62.9531V68.6103H44.6087V62.9531H38.9548Z" fill="white"/>
<path d="M40.6489 36.8242L38.1971 38.2908L39.6627 40.7441L42.1145 39.2775L40.6489 36.8242Z" fill="#0AD2FF"/>
<path d="M120.568 44.0796L121.915 47.2974L125.131 45.9487L123.783 42.731L120.568 44.0796Z" fill="#FFAF00"/>
<path d="M29.1638 85.0498L30.1685 87.3758L32.4537 86.2522L31.449 83.9263L29.1638 85.0498ZM30.267 87.021L29.4002 85.0498L31.3702 84.1825L32.237 86.1537L30.267 87.021Z" fill="white"/>
<path d="M37.9255 89.8862L36.6107 91.6836L38.4071 92.999L39.7219 91.2017L37.9255 89.8862Z" fill="#E80000"/>
<path d="M17.4227 86.1929L21.1066 86.6265L21.54 82.9405L17.8561 82.5068L17.4227 86.1929ZM20.8702 86.3309L17.7182 85.9563L18.0925 82.8025L21.2642 83.177L20.8702 86.3309Z" fill="white"/>
<path d="M72.8914 22.6962L69.9626 24.2385L71.5042 27.1689L74.4329 25.6265L72.8914 22.6962Z" fill="#FFAF00"/>
<path d="M141.375 139.729L140.804 141.05L142.124 141.622L142.774 140.242L141.375 139.729Z" fill="white"/>
<path d="M142.045 45.7847L140.666 48.5837L143.463 49.9635L144.842 47.1645L142.045 45.7847Z" fill="white"/>
<path d="M69.2519 34.7309L69.1986 36.7407L71.2073 36.794L71.2606 34.7842L69.2519 34.7309Z" fill="#FFEC00"/>
<path d="M16.2998 123.507L17.3833 122.048L15.9255 120.964L14.842 122.442L16.2998 123.507Z" fill="white"/>
<path d="M171.91 81.955L172.521 83.2165L173.801 82.6055L173.171 81.3242L171.91 81.955Z" fill="white"/>
<path d="M122.719 26.7827L119.764 28.2216L121.183 31.1784L124.138 29.7591L122.719 26.7827Z" fill="white"/>
<path d="M31.5476 87.1586L33.2812 87.9471L34.0889 86.1928L32.3356 85.4043L31.5476 87.1586ZM33.2221 87.7697L31.7249 87.0206L32.3947 85.5226L33.9116 86.2125L33.2221 87.7697Z" fill="white"/>
<path d="M107.331 162.483L103.462 165.991L106.968 169.861L110.836 166.354L107.331 162.483Z" fill="#0AD2FF"/>
<path d="M131.196 39.2197L127.723 39.7092L128.213 43.1835L131.685 42.694L131.196 39.2197Z" fill="#FF1DCF"/>
<path d="M157.214 97.0345L155.244 94.4917L152.703 96.4628L154.673 99.0253L157.214 97.0345Z" fill="white"/>
<path d="M122.266 148.126L122.798 149.526L124.216 148.994L123.684 147.594L122.266 148.126Z" fill="white"/>
<path d="M57.273 44.1505L53.4197 44.6123L53.8812 48.4679L57.7346 48.0061L57.273 44.1505Z" fill="#0AD2FF"/>
<path d="M28.6062 132.572L25.0247 134.439L26.8907 138.023L30.4722 136.156L28.6062 132.572Z" fill="#FF1DCF"/>
<path d="M97.8018 162.642L95.903 162.292L95.5541 164.192L97.453 164.541L97.8018 162.642Z" fill="#FFEC00"/>
<path d="M66.067 144.113L61.7717 147.432L65.0883 151.73L69.3836 148.411L66.067 144.113Z" fill="#E80000"/>
<path d="M163.422 100.917L162.577 102.057L163.716 102.902L164.561 101.762L163.422 100.917Z" fill="#FFAF00"/>
<path d="M139.661 151.024L142.36 152.995L144.33 150.295L141.631 148.324L139.661 151.024Z" fill="white"/>
<path d="M151.47 119.469L149.383 121.727L151.64 123.814L153.726 121.556L151.47 119.469Z" fill="#0AD2FF"/>
<path d="M167.708 103.656L166.521 104.723L167.589 105.91L168.775 104.843L167.708 103.656Z" fill="#FF1DCF"/>
<path d="M139.878 58.7939L142.203 56.3694L139.779 54.0435L137.455 56.468L139.878 58.7939ZM141.848 56.3891L139.878 58.3603L137.908 56.3891L139.878 54.418L141.848 56.3891Z" fill="white"/>
<path d="M150.082 75.9431L150.398 75.0561L149.531 74.7407L149.216 75.608L150.082 75.9431ZM150.299 75.1152L150.023 75.8249L149.314 75.5686L149.59 74.859L150.299 75.1152Z" fill="white"/>
<path d="M147.187 126.444L149.255 129.203L152.013 127.232L150.043 124.453L147.187 126.444ZM149.314 128.769L147.62 126.503L149.905 124.807L151.58 127.094L149.314 128.769Z" fill="white"/>
<path d="M146.16 62.0732L143.388 66.7307L148.043 69.5038L150.815 64.8463L146.16 62.0732Z" fill="#FFAF00"/>
<path d="M185.594 85.9979L187.77 83.1221L184.896 80.9447L182.72 83.8206L185.594 85.9979Z" fill="#FFEC00"/>
<path d="M133.988 52.6636L133.081 52.4468L132.884 53.3535L133.791 53.5703L133.988 52.6636Z" fill="white"/>
<path d="M83.4118 173.105L77.4741 172.324L76.6935 178.265L82.6312 179.046L83.4118 173.105Z" fill="#0AD2FF"/>
<path d="M98.3896 26.8813L96.6954 29.3256L99.1579 31.0208L100.852 28.5765L98.3896 26.8813ZM97.0697 29.2664L98.4684 27.2953L100.438 28.6751L99.0397 30.6462L97.0697 29.2664Z" fill="white"/>
<path d="M56.9211 38.0181L58.3789 37.1114L57.4728 35.771L56.0938 36.5595L56.9211 38.0181ZM58.1622 37.072L56.9803 37.8013L56.2514 36.6186L57.4333 35.8893L58.1622 37.072Z" fill="white"/>
<path d="M51.8097 147.152L51.4932 150.924L55.2623 151.24L55.5788 147.469L51.8097 147.152Z" fill="#E80000"/>
<path d="M155.339 122.451L153.75 123.491L154.79 125.081L156.379 124.04L155.339 122.451Z" fill="#0AD2FF"/>
<path d="M86.6288 158.967L87.8699 159.539L88.4412 158.297L87.2001 157.726L86.6288 158.967ZM87.8305 159.401L86.7667 158.908L87.2592 157.844L88.323 158.356L87.8305 159.401Z" fill="white"/>
<path d="M20.8702 54.0435L19.9443 54.3785L20.2989 55.305L21.2051 54.9502L20.8702 54.0435ZM20.0625 54.4377L20.8111 54.142L21.0869 54.891L20.358 55.1867L20.0625 54.4377Z" fill="white"/>
<path d="M35.5861 87.0211L36.0983 89.3865L38.4623 88.874L37.9501 86.5283L35.5861 87.0211ZM36.2559 89.1302L35.8422 87.1591L37.8122 86.7451L38.2456 88.7163L36.2559 89.1302Z" fill="white"/>
<path d="M38.5204 127.474L36.4402 128.148L37.1145 130.23L39.1947 129.555L38.5204 127.474Z" fill="#0AD2FF"/>
<path d="M51.0309 139.847L49.3958 138.704L48.2532 140.34L49.8883 141.483L51.0309 139.847Z" fill="white"/>
<path d="M130.382 45.0948L132.687 46.1592L133.751 43.853L131.446 42.7886L130.382 45.0948Z" fill="white"/>
<path d="M48.6669 164.29L50.7551 160.17L46.6378 158.081L44.5496 162.2L48.6669 164.29ZM50.3217 160.347L48.529 163.895L45.0027 162.121L46.7954 158.573L50.3217 160.347Z" fill="white"/>
<path d="M27.6313 84.62L25.2686 84.698L25.3465 87.0621L27.7093 86.9841L27.6313 84.62Z" fill="#FFEC00"/>
<path d="M128.984 47.3223L131.525 46.8689L131.072 44.3262L128.531 44.7795L128.984 47.3223Z" fill="white"/>
<path d="M51.7992 153.094L49.5928 153.409L49.8883 155.617L52.1538 155.301L51.7992 153.094Z" fill="white"/>
<path d="M150.792 109.965L151.757 111.147L152.919 110.201L151.974 109.019L150.792 109.965Z" fill="white"/>
<path d="M29.7263 92.9178L26.6936 87.8652L21.6442 90.9L24.6769 95.9526L29.7263 92.9178Z" fill="#FFEC00"/>
<path d="M142.321 53.2549L140.508 53.8659L141.119 55.6794L142.931 55.0683L142.321 53.2549ZM140.725 53.9645L142.202 53.4717L142.715 54.9698L141.217 55.4626L140.725 53.9645Z" fill="white"/>
<path d="M27.6265 111.494L26.4921 112.312L27.3103 113.447L28.4448 112.629L27.6265 111.494Z" fill="#E80000"/>
<path d="M73.817 173.635L72.5422 176.455L75.3602 177.73L76.635 174.91L73.817 173.635Z" fill="#E80000"/>
<path d="M105.816 37.4858L103.512 40.1863L106.23 42.4925L108.515 39.7132L105.816 37.4858ZM103.847 40.1666L105.816 37.8406L108.141 39.8118L106.171 42.1377L103.847 40.1666Z" fill="white"/>
<path d="M147.896 71.6098L148.937 66.3103L143.641 65.2687L142.6 70.5682L147.896 71.6098Z" fill="#0AD2FF"/>
<path d="M169.408 96.3047L167.596 99.7148L171.004 101.509L172.796 98.1181L169.408 96.3047ZM167.97 99.5965L169.507 96.6792L172.422 98.2364L170.886 101.134L167.97 99.5965Z" fill="white"/>
<path d="M31.7643 117.317L28.5138 119.919L31.1142 123.132L34.4238 120.53L31.7643 117.317Z" fill="white"/>
<path d="M63.9738 144.814L62.8903 143.908L62.0038 144.972L63.0676 145.879L63.9738 144.814ZM62.8312 144.184L63.698 144.933L62.9691 145.8L62.0038 144.972L62.8312 144.184Z" fill="white"/>
<path d="M145.995 126.82L141.174 127.046L141.4 131.87L146.221 131.644L145.995 126.82Z" fill="#FFEC00"/>
<path d="M111.37 179.944L109.571 180.29L109.917 182.09L111.716 181.745L111.37 179.944Z" fill="#FFAF00"/>
<path d="M75.3998 154.493L72.1099 152.364L69.8838 155.656L73.1737 157.785L75.3998 154.493Z" fill="white"/>
<path d="M38.0288 122.324L34.3055 123.586L35.5663 127.291L39.2896 126.03L38.0288 122.324ZM34.6601 123.763L37.8515 122.679L38.935 125.853L35.7436 126.937L34.6601 123.763Z" fill="white"/>
<path d="M84.0681 10.8144L84.4592 12.5649L86.2088 12.1737L85.8176 10.4232L84.0681 10.8144Z" fill="#FFAF00"/>
<path d="M147.127 61.396V63.1306H148.861V61.396H147.127Z" fill="white"/>
<path d="M138.565 155.385L135.564 156.211L136.39 159.214L139.391 158.388L138.565 155.385Z" fill="#0AD2FF"/>
<path d="M95.7759 150.679L88.1091 148.945L86.3758 156.616L94.0425 158.351L95.7759 150.679Z" fill="#0AD2FF"/>
<path d="M51.073 49.0137L50.9956 46.7285L48.7117 46.8059L48.7891 49.0911L51.073 49.0137Z" fill="#FFAF00"/>
<path d="M93.5009 27.5616L92.6239 28.8955L93.957 29.773L94.834 28.4392L93.5009 27.5616Z" fill="#FFAF00"/>
<path d="M120.002 156.614L117.445 158.524L119.354 161.083L121.911 159.173L120.002 156.614Z" fill="#FFAF00"/>
<path d="M48.1932 56.5936L50.0134 58.9478L52.366 57.1262L50.5458 54.772L48.1932 56.5936Z" fill="#0AD2FF"/>
<path d="M96.3802 153.744L92.6766 153.33L92.2629 157.036L95.9665 157.45L96.3802 153.744ZM92.9721 153.744L96.0256 154.079L95.671 157.115L92.6372 156.78L92.9721 153.744Z" fill="white"/>
<path d="M120.651 45.1734L122.404 41.6845L118.897 39.9302L117.164 43.3994L120.651 45.1734ZM121.931 41.8028L120.493 44.6806L117.617 43.2417L119.134 40.3638L121.931 41.8028Z" fill="white"/>
<path d="M52.4467 145.869L51.9609 147.921L54.0122 148.407L54.4979 146.355L52.4467 145.869Z" fill="#E80000"/>
<path d="M58.9396 47.8746L58.5021 49.5938L60.2202 50.0317L60.6577 48.3126L58.9396 47.8746Z" fill="#FF1DCF"/>
<path d="M167.005 76.7906H168.719V75.0757H167.005V76.7906Z" fill="white"/>
<path d="M21.9152 106.972L25.1555 105.737L23.9221 102.495L20.6817 103.729L21.9152 106.972Z" fill="#0AD2FF"/>
<path d="M41.0265 77.1514L40.9883 78.511L42.347 78.5492L42.3852 77.1896L41.0265 77.1514Z" fill="#E80000"/>
<path d="M60.3973 37.7948L62.849 33.1162L58.1732 30.663L55.7216 35.3415L60.3973 37.7948Z" fill="#FF1DCF"/>
<path d="M54.1238 43.0054L60.4081 42.2564L59.6595 35.9487L53.3555 36.7175L54.1238 43.0054Z" fill="white"/>
<path d="M94.7057 158.199L97.1682 164.112L102.98 161.648L100.537 155.833L94.7057 158.199Z" fill="white"/>
<path d="M119.177 152.852L113.843 155.444L116.433 160.781L121.767 158.189L119.177 152.852Z" fill="#0AD2FF"/>
<path d="M54.2396 133.599L51.9763 131.461L49.8398 133.726L52.1031 135.864L54.2396 133.599Z" fill="#FFAF00"/>
<path d="M79.842 152.584L81.2581 155.901L84.5733 154.484L83.1573 151.167L79.842 152.584Z" fill="#0AD2FF"/>
<path d="M181.327 85.4042L180.46 83.4331L178.49 84.3004L179.357 86.2715L181.327 85.4042ZM180.361 83.7485L181.071 85.3057L179.495 86.0153L178.805 84.4581L180.361 83.7485Z" fill="white"/>
<path d="M70.6788 37.4264L67.6256 37.7766L67.9756 40.8316L71.0288 40.4813L70.6788 37.4264Z" fill="#E80000"/>
<path d="M160.987 102.438L160.041 103.442L161.045 104.388L161.991 103.384L160.987 102.438Z" fill="#0AD2FF"/>
<path d="M32.9601 164.242L31.2271 166.709L33.693 168.443L35.4261 165.976L32.9601 164.242Z" fill="#FFAF00"/>
<path d="M54.2054 30.942L53.0712 31.9792L54.1076 33.1143L55.2419 32.0771L54.2054 30.942Z" fill="#FF1DCF"/>
<path d="M109.229 163.729L106.594 164.474L107.338 167.11L109.974 166.366L109.229 163.729Z" fill="#E80000"/>
<path d="M108.53 155.008L106.682 152.284L103.96 154.133L105.808 156.856L108.53 155.008Z" fill="#FFAF00"/>
<path d="M58.2953 161.791L60.0054 162.552L60.7662 160.841L59.0561 160.08L58.2953 161.791Z" fill="#0AD2FF"/>
<path d="M167.023 96.9613L163.962 99.2837L166.282 102.347L169.344 100.024L167.023 96.9613Z" fill="#FFEC00"/>
<path d="M89.5837 157.036L90.4308 159.52L92.913 158.672L92.0659 156.188L89.5837 157.036ZM90.549 159.283L89.8201 157.154L91.9477 156.425L92.6766 158.554L90.549 159.283Z" fill="white"/>
<path d="M145.92 67.5375L145.797 73.6665L151.923 73.7891L152.045 67.66L145.92 67.5375Z" fill="#0AD2FF"/>
<path d="M102.526 161.593L94.5249 162.696L95.6267 170.702L103.628 169.599L102.526 161.593Z" fill="#FFAF00"/>
<path d="M42.8947 56.1919L39.2108 51.54L34.6207 55.2852L38.3637 59.878L42.8947 56.1919ZM39.1517 52.2497L42.3037 56.1919L38.3637 59.3458L35.2117 55.4035L39.1517 52.2497Z" fill="white"/>
<path d="M96.6152 23.0118L94.3638 24.501L95.8523 26.7535L98.1038 25.2644L96.6152 23.0118Z" fill="#FFEC00"/>
<path d="M43.3194 144.517L45.2441 143.213L43.9405 141.287L42.0157 142.591L43.3194 144.517Z" fill="#FFAF00"/>
<path d="M166.517 129.02L168.802 128.969L168.751 126.683L166.466 126.734L166.517 129.02Z" fill="#FF1DCF"/>
<path d="M39.329 105.254H36.8271V107.757H39.3093L39.329 105.254Z" fill="white"/>
<path d="M152.802 104.211L152.525 105.824L154.136 106.101L154.413 104.489L152.802 104.211Z" fill="#FFEC00"/>
<path d="M110.944 39.0992L115.895 37.2629L114.059 32.3097L109.109 34.1459L110.944 39.0992Z" fill="#FF1DCF"/>
<path d="M64.6964 30.6691L63.5847 31.7588L64.6738 32.8712L65.7855 31.7815L64.6964 30.6691Z" fill="#FF1DCF"/>
<path d="M69.662 146.829L67.6279 143.045L63.8456 145.08L65.8796 148.865L69.662 146.829Z" fill="#FFEC00"/>
<path d="M161.736 118.476L165.571 112.766L159.864 108.929L156.03 114.639L161.736 118.476Z" fill="#FF1DCF"/>
<path d="M17.6099 114.819L19.061 119.176L23.4157 117.724L21.9646 113.367L17.6099 114.819Z" fill="#FF1DCF"/>
<path d="M155.939 107.024L158.02 105.944L156.94 103.862L154.859 104.942L155.939 107.024Z" fill="#FF1DCF"/>
<path d="M25.0269 114.913L23.4509 115.267L23.8055 116.825L25.3618 116.47L25.0269 114.913Z" fill="white"/>
<path d="M92.4796 183.39L93.6025 184.553L94.7648 183.43L93.6419 182.267L92.4796 183.39ZM93.6025 184.376L92.6569 183.39L93.6419 182.444L94.6072 183.43L93.6025 184.376Z" fill="white"/>
<path d="M105.527 169.15L104.813 170.49L106.152 171.203L106.865 169.864L105.527 169.15Z" fill="#0AD2FF"/>
<path d="M147.626 146.455L147.112 148.723L149.379 149.237L149.893 146.969L147.626 146.455Z" fill="#0AD2FF"/>
<path d="M156.781 23.0894L154.934 22.9482L154.793 24.7957L156.639 24.9369L156.781 23.0894Z" fill="#FFAF00"/>
<path d="M50.3619 147.525L46.2653 149.926L48.6649 154.025L52.7615 151.624L50.3619 147.525Z" fill="#FFEC00"/>
<path d="M98.1335 40.0288L96.6954 40.6004L97.2667 42.0591L98.7245 41.4677L98.1335 40.0288Z" fill="white"/>
<path d="M77.1925 40.541L75.5968 42.867L77.9017 44.4636L79.4974 42.1574L77.1925 40.541ZM75.7938 42.8078L77.1531 40.8367L79.1231 42.1968L77.7638 44.1679L75.7938 42.8078Z" fill="white"/>
<path d="M44.2753 72.7344L43.2021 74.9302L45.3966 76.004L46.4697 73.8082L44.2753 72.7344Z" fill="#FFEC00"/>
<path d="M44.3638 134.118L44.3082 135.97L46.1592 136.026L46.2148 134.174L44.3638 134.118Z" fill="#FFAF00"/>
<path d="M41.5158 120.984L40.7869 122.383L42.1856 123.132L42.9145 121.733L41.5158 120.984Z" fill="white"/>
<path d="M36.8685 79.8759L38.5369 79.1675L37.8291 77.498L36.1607 78.2064L36.8685 79.8759Z" fill="#FFAF00"/>
<path d="M161.601 68.7169L156.38 70.6189L158.282 75.8419L163.502 73.9399L161.601 68.7169Z" fill="#FF1DCF"/>
<path d="M157.861 58.3393L151.914 54.77L148.347 60.7198L154.293 64.2891L157.861 58.3393Z" fill="#FFEC00"/>
<path d="M71.8538 45.1341L74.927 46.0999L75.7938 43.0249L72.7403 42.0591L71.8538 45.1341Z" fill="white"/>
<path d="M41.6737 75.3861L40.1609 75.4976L40.2722 77.0112L41.785 76.8998L41.6737 75.3861Z" fill="#FF1DCF"/>
<path d="M94.5272 164.962L93.5771 166.094L94.7089 167.044L95.659 165.912L94.5272 164.962Z" fill="#E80000"/>
<path d="M134.459 46.0796L132.664 47.8228L134.406 49.6196L136.201 47.8765L134.459 46.0796Z" fill="#0AD2FF"/>
<path d="M28.5138 58.7544V59.8977H29.6564V58.7544H28.5138ZM28.5138 59.7991V58.853H29.4397V59.7991H28.5138Z" fill="white"/>
<path d="M48.4698 131.943L48.2137 130.504L46.7756 130.839L47.1105 132.278L48.4698 131.943Z" fill="white"/>
<path d="M110.702 16.3158L109.461 15.8428L108.969 17.0846L110.21 17.5577L110.702 16.3158Z" fill="white"/>
<path d="M141.73 33.9576L140.311 33.0903L139.444 34.5096L140.863 35.3769L141.73 33.9576ZM140.351 33.248L141.552 33.9971L140.823 35.2192L139.602 34.4701L140.351 33.248Z" fill="white"/>
<path d="M19.373 111.01L22.6038 106.929L18.6638 103.657L15.3148 107.718L19.373 111.01ZM22.131 107.067L19.3139 110.477L15.8467 107.659L18.6638 104.17L22.131 107.067Z" fill="white"/>
<path d="M83.6426 36.4799L86.1438 33.5107L83.1767 31.0078L80.6755 33.9769L83.6426 36.4799Z" fill="#FF1DCF"/>
<path d="M74.6906 34.7856L71.8538 37.0327L74.0799 39.9698L76.9166 37.7424L74.6906 34.7856Z" fill="white"/>
<path d="M144.655 135.63L141.149 136.276L141.794 139.785L145.301 139.139L144.655 135.63Z" fill="#FFEC00"/>
<path d="M110.592 189.172L109.747 194.147L114.719 194.992L115.564 190.017L110.592 189.172Z" fill="#FF1DCF"/>
<path d="M100.648 156.76L96.8402 161.205L101.283 165.015L105.09 160.57L100.648 156.76Z" fill="#FF1DCF"/>
<path d="M42.6583 54.6353L39.5654 56.8035L41.7324 59.8785L44.8056 57.7299L42.6583 54.6353Z" fill="white"/>
<path d="M146.376 55.0463L145.134 48.7417L138.833 49.9843L140.075 56.2889L146.376 55.0463Z" fill="#FF1DCF"/>
<path d="M68.3323 179.382L66.8949 180.386L67.8988 181.825L69.3362 180.82L68.3323 179.382Z" fill="#FFAF00"/>
<path d="M135.444 56.331L134.912 60.0979L138.677 60.63L139.209 56.8631L135.444 56.331Z" fill="#FFEC00"/>
<path d="M90.0369 164.783L88.5988 161.116L84.9346 162.555L86.3727 166.221L90.0369 164.783Z" fill="white"/>
<path d="M13.8328 95.1161L8.3374 93.9653L7.18735 99.464L12.6828 100.615L13.8328 95.1161Z" fill="#0AD2FF"/>
<path d="M65.9957 153.306L64.7058 157.405L68.8021 158.696L70.0919 154.597L65.9957 153.306Z" fill="#FF1DCF"/>
<path d="M148.309 49.5693L146.339 51.5405L148.309 53.5116L150.279 51.5405L148.309 49.5693ZM146.556 51.5405L148.309 49.9241L149.925 51.6785L148.172 53.2948L146.556 51.5405Z" fill="white"/>
<path d="M116.3 159.013L109.14 156.28L106.408 163.444L113.568 166.177L116.3 159.013Z" fill="#0AD2FF"/>
<path d="M151.073 163.481L152.687 161.492L150.699 159.877L149.085 161.866L151.073 163.481Z" fill="#FFEC00"/>
<path d="M55.0694 134.328L49.8883 137.462L53.0206 142.646L58.2017 139.493L55.0694 134.328ZM50.4793 137.6L54.9118 134.919L57.6107 139.355L53.1782 142.055L50.4793 137.6Z" fill="white"/>
<path d="M77.3507 22.7114L74.7164 28.4419L80.4437 31.0776L83.078 25.3471L77.3507 22.7114Z" fill="#FFAF00"/>
<path d="M61.137 146.155L60.5657 149.408L63.8162 149.979L64.4072 146.727L61.137 146.155Z" fill="white"/>
<path d="M31.7138 138.3L24.7942 138.992L25.4861 145.916L32.4057 145.223L31.7138 138.3Z" fill="#0AD2FF"/>
<path d="M40.0383 113.671L39.1518 113.415L38.876 114.302L39.7625 114.578L40.0383 113.671ZM39.1912 113.513L39.9398 113.73L39.7231 114.459L38.9745 114.242L39.1912 113.513Z" fill="white"/>
<path d="M12.5372 74.5237L10.9809 73.6367L10.0944 75.1939L11.6507 76.0809L12.5372 74.5237ZM11.04 73.8535L12.3205 74.5829L11.5916 75.8444L10.3111 75.1939L11.04 73.8535Z" fill="white"/>
<path d="M4.18818 87.9419L3.31311 89.3704L4.74094 90.2456L5.61602 88.8172L4.18818 87.9419Z" fill="#FF1DCF"/>
<path d="M42.8856 127.729L40.9415 128.544L41.7564 130.489L43.7005 129.674L42.8856 127.729Z" fill="#E80000"/>
<path d="M124.911 149.301L130.657 155.203L136.556 149.453L130.81 143.551L124.911 149.301Z" fill="#0AD2FF"/>
<path d="M44.3412 151.501L39.2776 153.788L41.5629 158.854L46.6265 156.568L44.3412 151.501Z" fill="#E80000"/>
<path d="M172.929 107.258L170.291 107.727L170.759 110.367L173.397 109.898L172.929 107.258Z" fill="#FF1DCF"/>
<path d="M40.1242 115.653L40.1173 117.072L41.5357 117.079L41.5426 115.66L40.1242 115.653Z" fill="#0AD2FF"/>
<path d="M147.659 129.282L145.236 130.603L146.576 133.008L148.979 131.687L147.659 129.282ZM145.512 130.682L147.482 129.538L148.684 131.608L146.714 132.751L145.512 130.682Z" fill="white"/>
<path d="M36.391 117.845L33.9459 118.787L34.8874 121.233L37.3325 120.291L36.391 117.845Z" fill="#FF1DCF"/>
<path d="M64.9656 151.158L63.5875 151.494L63.9232 152.873L65.3013 152.537L64.9656 151.158Z" fill="#0AD2FF"/>
<path d="M114.955 154.271L114.04 155.814L115.582 156.729L116.497 155.186L114.955 154.271Z" fill="#0AD2FF"/>
<path d="M166.246 97.5426L168.42 90.2307L161.112 88.0566L158.939 95.3685L166.246 97.5426Z" fill="#FFAF00"/>
<path d="M150.529 68.7944L148.711 73.6067L153.52 75.4262L155.339 70.6139L150.529 68.7944Z" fill="#E80000"/>
<path d="M114.307 152.857L114.741 151.773L113.637 151.359L113.224 152.443L114.307 152.857Z" fill="white"/>
<path d="M136.115 146.845V145.84H135.091V146.845H136.115ZM135.977 145.938V146.766H135.15V145.938H135.977Z" fill="white"/>
<path d="M77.1786 37.2816L76.8319 41.5647L81.1125 41.9116L81.4592 37.6285L77.1786 37.2816Z" fill="#0AD2FF"/>
<path d="M57.2166 48.8003L56.7241 49.7859L57.6894 50.2589L58.1819 49.2931L57.2166 48.8003Z" fill="white"/>
<path d="M147.896 133.264L144.448 132.357L143.463 135.827L146.911 136.812L147.896 133.264ZM144.744 132.693L147.581 133.481L146.714 136.3L143.877 135.492L144.744 132.693Z" fill="white"/>
<path d="M91.5537 29.8579L88.7366 31.8291L90.549 34.6872L93.3858 32.8541L91.5537 29.8579Z" fill="white"/>
<path d="M36.5307 68.0811L40.4966 66.1902L38.6066 62.2221L34.6407 64.113L36.5307 68.0811Z" fill="#FFAF00"/>
<path d="M172.434 90.4511L169.208 93.167L171.923 96.3945L175.149 93.6786L172.434 90.4511Z" fill="#FF1DCF"/>
<path d="M54.7738 164.94L53.6312 166.912L55.6012 168.055L56.7438 166.084L54.7738 164.94Z" fill="white"/>
<path d="M149.964 98.5915L150.299 102.79L154.397 102.455L154.062 98.355L149.964 98.5915ZM150.654 102.376L150.279 98.8478L153.806 98.5718L154.082 102.08L150.654 102.376Z" fill="white"/>
<path d="M151.056 122.148L149.607 124.043L151.501 125.492L152.949 123.597L151.056 122.148Z" fill="#0AD2FF"/>
<path d="M40.1958 80.8706L38.8956 83.2951L41.3187 84.5961L42.6189 82.1716L40.1958 80.8706Z" fill="white"/>
<path d="M140.804 154.237L139.898 152.759L138.4 153.666L139.326 155.144L140.804 154.237ZM139.838 152.936L140.626 154.198L139.366 154.986L138.578 153.705L139.838 152.936Z" fill="white"/>
<path d="M148.817 142.294L150.116 141.002L148.824 139.702L147.525 140.995L148.817 142.294Z" fill="#0AD2FF"/>
<path d="M24.7117 96.6995L26.8196 101.943L32.0598 99.8336L29.9519 94.5903L24.7117 96.6995Z" fill="white"/>
<path d="M32.9408 115.132L30.6644 113.915L29.4484 116.193L31.7248 117.409L32.9408 115.132Z" fill="#FFAF00"/>
<path d="M28.662 74.9054L29.9434 66.946L21.9886 65.6641L20.7072 73.6235L28.662 74.9054Z" fill="#FFAF00"/>
<path d="M166.616 81.1381L171.319 81.7861L171.967 77.0801L167.264 76.4321L166.616 81.1381Z" fill="#FFAF00"/>
<path d="M34.0477 62.1409L33.5314 64.6709L36.0599 65.1875L36.5762 62.6575L34.0477 62.1409Z" fill="#FFAF00"/>
<path d="M27.6459 54.8501L26.2871 54.8855L26.3225 56.2451L27.6813 56.2098L27.6459 54.8501Z" fill="#FFAF00"/>
<path d="M112.734 167.722L113.123 165.649L111.052 165.259L110.662 167.332L112.734 167.722Z" fill="#FFAF00"/>
<path d="M151.278 116.506L150.717 118.906L153.115 119.467L153.676 117.068L151.278 116.506Z" fill="#FFEC00"/>
<path d="M37.3889 102.607L35.6312 102.254L35.2787 104.013L37.0364 104.366L37.3889 102.607Z" fill="#FF1DCF"/>
<path d="M45.3966 54.6353L42.5007 57.454L45.3572 60.3516L48.2137 57.454L45.3966 54.6353ZM42.9144 57.454L45.3966 55.0098L47.8394 57.454L45.3572 59.8785L42.9144 57.454Z" fill="white"/>
<path d="M103.76 41.4506L105.285 39.8005L103.635 38.2753L102.111 39.9253L103.76 41.4506Z" fill="#FF1DCF"/>
<path d="M132.38 50.5634L128.183 54.9482L132.566 59.1473L136.762 54.7624L132.38 50.5634Z" fill="#0AD2FF"/>
<path d="M127.8 158.552L123.89 161.74L127.077 165.651L130.986 162.464L127.8 158.552Z" fill="#FF1DCF"/>
<path d="M47.3666 39.3781L48.6668 42.8276L52.1537 41.5266L50.8535 38.0771L47.3666 39.3781ZM48.8638 42.394L47.8 39.5752L50.6171 38.5108L51.6809 41.3295L48.8638 42.394Z" fill="white"/>
<path d="M148.177 135.956L146.255 137.497L147.795 139.419L149.717 137.879L148.177 135.956Z" fill="#FFEC00"/>
<path d="M124.227 150.968L120.481 154.884L124.395 158.632L128.141 154.715L124.227 150.968Z" fill="#FFAF00"/>
<path d="M33.5175 66.9546L30.8186 66.4224L30.2867 69.1228L32.9856 69.655L33.5175 66.9546Z" fill="white"/>
<path d="M119.544 37.0796L117.724 41.0149L121.657 42.8365L123.477 38.9012L119.544 37.0796Z" fill="#FFAF00"/>
<path d="M50.558 69.2803L48.588 64.6284L43.9388 66.5996L45.9088 71.2515L50.558 69.2803Z" fill="white"/>
<path d="M29.5972 112.468L28.297 106.417L22.2491 107.718L23.5493 113.769L29.5972 112.468ZM27.9621 106.949L29.0653 112.133L23.8842 113.237L22.7613 108.053L27.9621 106.949Z" fill="white"/>
<path d="M38.6842 91.0664L37.6448 93.6226L40.1994 94.6626L41.2388 92.1065L38.6842 91.0664Z" fill="#FFEC00"/>
<path d="M44.496 143.314L50.3564 141.901L48.944 136.038L43.0836 137.451L44.496 143.314Z" fill="#FFEC00"/>
<path d="M162.69 116.903L159.034 117.794L159.924 121.452L163.58 120.561L162.69 116.903Z" fill="#0AD2FF"/>
<path d="M100.813 157.134L100.399 156.366L99.6307 156.76L100.025 157.548L100.813 157.134ZM100.36 156.464L100.695 157.095L100.064 157.43L99.7292 156.799L100.36 156.464Z" fill="white"/>
<path d="M47.3851 48.7708L47.2965 50.1873L48.7122 50.2758L48.8007 48.8594L47.3851 48.7708Z" fill="#FF1DCF"/>
<path d="M68.3777 26.8002L64.2478 28.6167L66.0633 32.749L70.1932 30.9325L68.3777 26.8002Z" fill="#E80000"/>
<path d="M79.2543 155.123L77.6967 155.621L78.1941 157.18L79.7517 156.682L79.2543 155.123Z" fill="#FF1DCF"/>
<path d="M126.245 41.8432L124.36 42.8733L125.39 44.7588L127.274 43.7287L126.245 41.8432Z" fill="#0AD2FF"/>
<path d="M151.599 18.0306L150.457 16.9268L149.354 18.07L150.476 19.1739L151.599 18.0306Z" fill="white"/>
<path d="M23.2486 65.1216L21.759 65.2725L21.9099 66.7629L23.3995 66.6121L23.2486 65.1216Z" fill="#FFEC00"/>
<path d="M40.3338 145.189V143.041H38.1865V145.189H40.3338ZM40.3338 143.218V145.051H38.5017V143.218H40.3338Z" fill="white"/>
<path d="M71.9209 37.4415L66.5498 40.4719L69.5788 45.8459L74.9499 42.8155L71.9209 37.4415Z" fill="#FF1DCF"/>
<path d="M161.43 147.22L160.504 150.098L163.321 151.063L164.247 148.126L161.43 147.22ZM160.799 149.861L161.607 147.555L163.912 148.343L163.124 150.65L160.799 149.861Z" fill="white"/>
<path d="M135.422 137.131L132.554 139.599L135.021 142.468L137.888 140L135.422 137.131Z" fill="#FF1DCF"/>
<path d="M110.84 21.7363V24.2594H113.362V21.7363H110.84ZM111.096 24.082V21.9137H113.243L113.224 23.944L111.096 24.082Z" fill="white"/>
<path d="M63.896 36.1171L65.1704 37.4341L66.4869 36.1592L65.2125 34.8422L63.896 36.1171Z" fill="#FF1DCF"/>
<path d="M114.074 31.9629L111.88 37.813L117.727 40.0083L119.921 34.1582L114.074 31.9629Z" fill="#0AD2FF"/>
<path d="M50.1837 51.3825L52.9417 53.2156L54.7738 50.4757L52.0158 48.6426L50.1837 51.3825ZM52.8629 52.9002L50.5186 51.3233L52.1537 48.9777L54.498 50.5349L52.8629 52.9002Z" fill="white"/>
<path d="M139.973 44.7207L142.587 43.5691L141.437 40.9532L138.822 42.1048L139.973 44.7207Z" fill="#FFAF00"/>
<path d="M145.752 172.516L147.99 174.292L149.765 172.052L147.527 170.277L145.752 172.516Z" fill="#FFAF00"/>
<path d="M26.9378 126.857L26.1301 128.139L27.4106 128.947L28.2183 127.685L26.9378 126.857Z" fill="white"/>
<path d="M31.0747 93.6244L30.1291 93.3682L29.873 94.3143L30.7989 94.5706L31.0747 93.6244ZM30.1882 93.4667L30.9565 93.6835L30.7398 94.4523L29.9715 94.2355L30.1882 93.4667Z" fill="white"/>
<path d="M80.2346 152.187L75.3962 150.566L73.7764 155.408L78.6148 157.028L80.2346 152.187Z" fill="#FF1DCF"/>
<path d="M30.3459 151.28L31.4688 151.497L31.6658 150.374L30.4838 150.098L30.3459 151.28Z" fill="white"/>
<path d="M158.534 58.7153L155.224 61.7903L158.297 65.0033L161.508 61.9283L158.534 58.7153ZM155.776 61.81L158.514 59.1687L161.154 61.9086L158.317 64.5499L155.776 61.81Z" fill="white"/>
<path d="M46.3069 62.4902L43.9061 61.8594L43.276 64.2617L45.6768 64.8925L46.3069 62.4902Z" fill="#FF1DCF"/>
<path d="M81.1522 34.1548L79.458 35.5543L80.8764 37.2298L82.5509 35.8303L81.1522 34.1548ZM79.7338 35.5937L81.1128 34.4307L82.2751 35.8105L80.8961 36.9538L79.7338 35.5937Z" fill="white"/>
<path d="M150.159 74.7233L153.05 78.4668L156.792 75.5745L153.901 71.831L150.159 74.7233Z" fill="#FF1DCF"/>
<path d="M52.8629 56.3693L54.4783 56.8423L54.9314 55.226L53.3357 54.7529L52.8629 56.3693ZM54.3601 56.6452L53.0599 56.2707L53.4342 54.95L54.7541 55.3246L54.3601 56.6452Z" fill="white"/>
<path d="M31.109 48.6779L26.2662 48.2036L25.7922 53.0492L30.635 53.5234L31.109 48.6779Z" fill="#FFAF00"/>
<path d="M84.0751 162.623L83.72 163.895L84.9912 164.25L85.3463 162.978L84.0751 162.623Z" fill="#FF1DCF"/>
<path d="M160.883 72.1093L159.302 73.3499L160.542 74.932L162.123 73.6914L160.883 72.1093Z" fill="#FFAF00"/>
<path d="M49.4351 135.886L47.4651 135.215L46.7756 137.186L48.7456 137.857L49.4351 135.886ZM47.5833 135.452L49.1987 136.004L48.6274 137.62L47.0317 137.068L47.5833 135.452Z" fill="white"/>
<path d="M123.474 144.956L125.631 151.736L132.407 149.577L130.25 142.797L123.474 144.956Z" fill="#FF1DCF"/>
<path d="M128.669 38.0576L124.256 38.2942L124.492 42.7095L128.984 42.473L128.669 38.0576Z" fill="white"/>
<path d="M35.4126 55.831L33.6625 56.5481L34.3792 58.2992L36.1293 57.5821L35.4126 55.831Z" fill="#FFEC00"/>
<path d="M157.225 109.193L154.264 110.921L155.991 113.883L158.952 112.155L157.225 109.193Z" fill="#FF1DCF"/>
<path d="M91.3764 179.172L90.7263 178.167L89.7216 178.797L90.352 179.822L91.3764 179.172Z" fill="white"/>
<path d="M29.2895 101.337L25.8942 102.55L27.1058 105.947L30.5012 104.735L29.2895 101.337Z" fill="#0AD2FF"/>
<path d="M39.123 102.036L37.911 102.559L38.4334 103.772L39.6454 103.249L39.123 102.036Z" fill="#FF1DCF"/>
<path d="M163.818 76.8671L159.148 78.0852L160.365 82.7583L165.036 81.5403L163.818 76.8671Z" fill="#FF1DCF"/>
<path d="M55.6407 22.9783L56.9016 23.274L57.2168 22.0125L55.9559 21.7168L55.6407 22.9783ZM56.8227 23.136L55.7786 22.8798L56.0347 21.8548L57.0789 22.111L56.8227 23.136Z" fill="white"/>
<path d="M29.4594 32.8145L30.0307 35.239L32.4538 34.6477L31.8825 32.2231L29.4594 32.8145Z" fill="white"/>
<path d="M99.2367 13.2017L96.5181 12.4526L95.7695 15.1925L98.4881 15.9416L99.2367 13.2017ZM96.6954 12.768L98.9215 13.3791L98.3108 15.6262L96.0847 15.0151L96.6954 12.768Z" fill="white"/>
<path d="M166.422 107.697L167.136 105.797L165.237 105.083L164.523 106.983L166.422 107.697Z" fill="#FFEC00"/>
<path d="M46.6858 142.662L46.1163 145.12L48.5728 145.69L49.1423 143.232L46.6858 142.662Z" fill="#FF1DCF"/>
<path d="M81.5665 36.4503L82.7324 41.2178L87.4972 40.0512L86.3312 35.2837L81.5665 36.4503Z" fill="#FF1DCF"/>
<path d="M56.473 51.8906L53.8712 52.6086L54.5888 55.2119L57.1906 54.4939L56.473 51.8906Z" fill="#FFAF00"/>
<path d="M47.4204 71.6712L48.3802 63.7461L40.4597 62.7856L39.4999 70.7108L47.4204 71.6712Z" fill="#0AD2FF"/>
<path d="M79.3756 41.6783L77.3414 43.7129L79.3749 45.7482L81.4091 43.7136L79.3756 41.6783Z" fill="#E80000"/>
<path d="M158.685 68.5055L155.655 69.8369L156.986 72.8688L160.016 71.5374L158.685 68.5055Z" fill="#0AD2FF"/>
<path d="M91.8691 18.0308L90.1946 21.1255L93.2875 22.7812L94.962 19.6865L91.8691 18.0308ZM90.5492 21.0072L91.9676 18.3659L94.6074 19.7851L93.189 22.4461L90.5492 21.0072Z" fill="white"/>
<path d="M115.601 160.144L109.504 161.583L110.943 167.684L117.04 166.244L115.601 160.144Z" fill="#FFEC00"/>
<path d="M62.1811 45.2524L60.5854 43.1235L58.4578 44.7202L60.0338 46.849L62.1811 45.2524ZM60.546 43.4586L61.8462 45.213L60.0929 46.5139L58.7927 44.7596L60.546 43.4586Z" fill="white"/>
<path d="M163.706 66.1273L160.165 66.5522L160.59 70.0946L164.13 69.6697L163.706 66.1273Z" fill="#FFAF00"/>
<path d="M128.794 170.751L134.802 166.943L130.996 160.932L124.988 164.739L128.794 170.751Z" fill="#FFEC00"/>
<path d="M100.419 30.2911L96.6167 29.1084L95.4938 32.9324L99.2959 34.0954L100.419 30.2911Z" fill="white"/>
<path d="M153.845 106.102L151.698 108.211L153.806 110.359L155.953 108.23L153.845 106.102ZM152.092 108.211L153.845 106.476L155.579 108.23L153.825 109.965L152.092 108.211Z" fill="white"/>
<path d="M36.8272 107.422L35.9604 108.92L37.4379 109.788L38.3047 108.29L36.8272 107.422ZM36.118 108.881L36.8666 107.6L38.1471 108.329L37.3985 109.61L36.118 108.881Z" fill="white"/>
<path d="M156.198 121.513L157.321 122.864L158.671 121.741L157.548 120.39L156.198 121.513Z" fill="#0AD2FF"/>
<path d="M160.499 27.7246L157.724 31.8672L161.864 34.6435L164.639 30.5009L160.499 27.7246Z" fill="#FF1DCF"/>
<path d="M138.748 3.66861L136.215 0.992188L133.54 3.5267L136.073 6.20312L138.748 3.66861Z" fill="#FFAF00"/>
<path d="M119.561 155.765L121.786 155.676L121.697 153.45L119.473 153.539L119.561 155.765Z" fill="#FFEC00"/>
<path d="M94.8082 162.688L94.1057 164.822L96.2388 165.525L96.9413 163.391L94.8082 162.688Z" fill="#FFEC00"/>
<path d="M102.578 30.4877L98.4147 31.9514L99.8775 36.1171L104.041 34.6534L102.578 30.4877Z" fill="#0AD2FF"/>
<path d="M17.9285 102.358L17.9185 104.762L20.3218 104.773L20.3319 102.368L17.9285 102.358Z" fill="#0AD2FF"/>
<path d="M41.8704 55.1276L43.4464 54.6546L42.9736 53.0776L41.3976 53.5507L41.8704 55.1276Z" fill="white"/>
<path d="M129.071 143.651L127.876 145.092L129.316 146.288L130.511 144.847L129.071 143.651Z" fill="#0AD2FF"/>
<path d="M156.741 100.024L159.876 98.7925L158.646 95.6549L155.51 96.8864L156.741 100.024Z" fill="#0AD2FF"/>
<path d="M38.0534 73.3066L36.433 74.3201L37.4459 75.9414L39.0663 74.9279L38.0534 73.3066Z" fill="#FFEC00"/>
<path d="M43.7222 69.6748L42.8751 70.9955L44.2147 71.8431L45.0618 70.5027L43.7222 69.6748ZM43.0721 70.956L43.7616 69.8719L44.8648 70.5618L44.2738 71.646L43.0721 70.956Z" fill="white"/>
<path d="M146.593 124.582L149.244 123.146L147.809 120.494L145.158 121.929L146.593 124.582Z" fill="#0AD2FF"/>
<path d="M104.168 172.5L98.3986 174.892L100.788 180.664L106.558 178.273L104.168 172.5Z" fill="#FF1DCF"/>
<path d="M99.3942 25.1372L100.531 27.7163L103.108 26.5787L101.972 23.9996L99.3942 25.1372Z" fill="#0AD2FF"/>
<path d="M123.554 45.4726L121.722 49.855L126.102 51.688L127.934 47.3056L123.554 45.4726Z" fill="#FFAF00"/>
<path d="M169.202 156.565L163.68 157.333L164.447 162.858L169.969 162.091L169.202 156.565Z" fill="#FF1DCF"/>
<path d="M106.941 34.6757L103.543 37.1528L106.018 40.5536L109.417 38.0765L106.941 34.6757Z" fill="#FFEC00"/>
<path d="M33.9081 138.087L30.6954 138.882L31.4906 142.097L34.7033 141.301L33.9081 138.087Z" fill="#E80000"/>
<path d="M125.432 34.105L118.251 37.8052L121.95 44.9898L129.13 41.2896L125.432 34.105Z" fill="#FFEC00"/>
<path d="M32.631 67.3096L29.2032 71.8038L33.6751 75.1941L37.1029 70.6999L32.631 67.3096ZM29.7745 71.7249L32.7098 67.8812L36.5513 70.8182L33.5963 74.7605L29.7745 71.7249Z" fill="white"/>
<path d="M150.501 94.6839L150.398 96.6326L152.345 96.7353L152.448 94.7866L150.501 94.6839Z" fill="#FFEC00"/>
<path d="M63.9738 156.76L66.4166 154.493L64.0723 152.069L61.6295 154.336L63.9738 156.76Z" fill="white"/>
<path d="M162.257 99.0645L164.779 97.5467L163.262 95.0039L160.72 96.5414L162.257 99.0645Z" fill="white"/>
<path d="M115.568 153.133L117.046 152.581L116.514 151.103L115.016 151.654L115.568 153.133ZM116.868 152.502L115.647 152.936L115.194 151.733L116.395 151.28L116.868 152.502Z" fill="white"/>
<path style="mix-blend-mode:multiply" d="M124.504 169.613C160.394 155.286 177.881 114.56 163.562 78.6497C149.244 42.7392 108.542 25.2421 72.6521 39.5689C36.7624 53.8958 19.2755 94.6213 33.594 130.532C47.9126 166.442 88.6145 183.939 124.504 169.613Z" fill="url(#paint0_radial)"/>
<path fill-rule="evenodd" clip-rule="evenodd" d="M95.9007 44C67.2367 44 44 67.336 44 96C44 124.664 67.2367 148 95.9007 148C124.565 148 147.801 124.664 147.801 96C147.801 67.336 124.565 44 95.9007 44Z" fill="url(#paint1_linear)"/>
<path d="M124.765 78.7326C122.984 79.4971 121.112 80.0301 119.194 80.3185C120.093 80.167 121.414 78.5475 121.946 77.8955C122.771 76.9004 123.4 75.7585 123.799 74.5303C123.845 74.4336 123.883 74.3158 123.799 74.2443C123.753 74.2203 123.702 74.2078 123.651 74.2078C123.599 74.2078 123.549 74.2203 123.503 74.2443C121.413 75.3577 119.191 76.2056 116.89 76.7682C116.811 76.7959 116.725 76.7995 116.644 76.7785C116.563 76.7576 116.49 76.7129 116.434 76.6504C116.255 76.4396 116.062 76.2414 115.856 76.0573C114.899 75.2381 113.816 74.5777 112.648 74.1013C111.091 73.472 109.412 73.2031 107.736 73.3146C106.106 73.4236 104.518 73.8707 103.072 74.6271C101.622 75.3815 100.343 76.4237 99.3118 77.6894C98.2394 79.0005 97.4712 80.5318 97.0623 82.1735C96.7109 83.7293 96.6708 85.3388 96.9441 86.9101C96.9779 87.1709 96.9441 87.2087 96.7162 87.1709C87.6297 85.8248 80.0962 82.5858 73.9809 75.6408C73.7192 75.338 73.5588 75.338 73.3562 75.6408C70.6805 79.6412 71.9762 86.0604 75.3187 89.2195C75.7661 89.6401 76.2261 90.0608 76.7157 90.4436C75.1875 90.3269 73.6973 89.911 72.3307 89.2195C72.0648 89.0512 71.934 89.1479 71.9086 89.4466C71.8913 89.8798 71.9154 90.3136 71.9804 90.7422C72.2485 92.7793 73.0539 94.7091 74.3143 96.3348C75.5747 97.9605 77.245 99.224 79.1551 99.9965C79.6235 100.199 80.1133 100.349 80.6153 100.442C79.7375 100.636 78.8301 100.771 76.3105 100.577C75.9982 100.514 75.8885 100.67 75.9982 100.972C77.8932 106.113 81.9785 107.644 85.0383 108.515C85.4604 108.586 85.8571 108.586 86.2707 108.683C86.2454 108.721 86.22 108.721 86.1947 108.755C85.1818 110.298 81.662 111.447 80.0245 112.019C77.0212 113.085 73.8225 113.492 70.6467 113.213C70.1403 113.138 70.0348 113.146 69.8997 113.213C69.7647 113.281 69.8997 113.42 70.0432 113.55C70.6847 113.971 71.3347 114.341 71.9973 114.703C73.9891 115.76 76.0906 116.598 78.2646 117.201C89.5288 120.301 102.215 118.042 110.673 109.65C117.316 103.071 119.641 94.0023 119.641 84.9204C119.641 84.5671 120.064 84.3693 120.313 84.18C121.994 82.8791 123.475 81.3384 124.706 79.6076C124.897 79.3568 124.992 79.0469 124.976 78.7326V78.6863C124.972 78.5812 124.972 78.6317 124.765 78.7326Z" fill="white"/>
<defs>
<radialGradient id="paint0_radial" cx="0" cy="0" r="1" gradientUnits="userSpaceOnUse" gradientTransform="translate(98.5692 104.597) scale(69.965 70.0056)">
<stop offset="0.67"/>
<stop offset="0.7" stop-color="#2D2D2D"/>
<stop offset="0.73" stop-color="#5E5E5E"/>
<stop offset="0.76" stop-color="#898989"/>
<stop offset="0.79" stop-color="#AEAEAE"/>
<stop offset="0.83" stop-color="#CBCBCB"/>
<stop offset="0.86" stop-color="#E2E2E2"/>
<stop offset="0.9" stop-color="#F2F2F2"/>
<stop offset="0.94" stop-color="#FCFCFC"/>
<stop offset="1" stop-color="white"/>
</radialGradient>
<linearGradient id="paint1_linear" x1="183.483" y1="96" x2="-13.0346" y2="95.2566" gradientUnits="userSpaceOnUse">
<stop stop-color="#0076B8"/>
<stop offset="1" stop-color="#00B19C"/>
</linearGradient>
</defs>
</svg>
